# Blender 4.2.11 LTS
# www.blender.org
o tmp_export_geometry_0.004
v -0.263719 0.004780 0.204555
v -0.258717 -0.000261 0.204555
v -0.263719 0.004780 0.294551
v -0.263719 0.494698 0.204555
v -0.258717 0.004780 0.199563
v -0.258717 -0.000261 0.294551
v -0.168721 -0.000261 0.204555
v -0.258717 0.004780 0.299544
v -0.263719 0.494698 0.294551
v -0.258717 0.499739 0.204555
v -0.258717 0.494698 0.199563
v -0.168721 0.004780 0.199563
v -0.168721 -0.000261 0.294551
v -0.163719 0.004780 0.204555
v -0.168721 0.004780 0.299544
v -0.258717 0.494698 0.299544
v -0.258717 0.499739 0.294551
v -0.168721 0.499739 0.204555
v -0.168721 0.494698 0.199563
v -0.163719 0.004780 0.294551
v -0.163729 0.494698 0.204555
v -0.168721 0.494698 0.299544
v -0.168721 0.499739 0.294551
v -0.163729 0.494698 0.294551
vn -0.7099 -0.7043 -0.0000
vn -1.0000 -0.0000 -0.0000
vn -0.7064 -0.0000 -0.7078
vn -0.5785 -0.5740 -0.5796
vn -0.0000 -0.7036 -0.7105
vn -0.0000 -1.0000 -0.0000
vn -0.5785 -0.5740 0.5796
vn -0.7064 -0.0000 0.7078
vn -0.7099 0.7043 -0.0000
vn -0.5785 0.5740 -0.5796
vn -0.0000 -0.0000 -1.0000
vn -0.0000 -0.7037 0.7105
vn 0.5785 -0.5740 -0.5796
vn 0.7099 -0.7043 -0.0000
vn -0.0000 -0.0000 1.0000
vn -0.5785 0.5740 0.5796
vn -0.0000 1.0000 -0.0000
vn -0.0000 0.7037 -0.7105
vn -0.0000 0.7036 -0.7105
vn 0.7064 -0.0000 -0.7078
vn 0.5785 -0.5740 0.5796
vn 0.7071 -0.0000 -0.7071
vn 1.0000 -0.0000 -0.0000
vn 0.7064 -0.0000 0.7078
vn -0.0000 0.7037 0.7105
vn 0.5792 0.5736 -0.5792
vn 0.7105 0.7036 -0.0000
vn 0.7105 0.7037 -0.0000
vn 0.7071 -0.0000 0.7071
vn 0.5792 0.5736 0.5792
s 0
f 1//1 2//1 6//1
f 1//1 6//1 3//1
f 1//2 3//2 9//2
f 1//2 9//2 4//2
f 1//3 4//3 11//3
f 1//3 11//3 5//3
f 1//4 5//4 2//4
f 2//5 5//5 12//5
f 2//5 12//5 7//5
f 2//6 7//6 13//6
f 2//6 13//6 6//6
f 3//7 6//7 8//7
f 3//8 8//8 16//8
f 3//8 16//8 9//8
f 4//9 9//9 17//9
f 4//9 17//9 10//9
f 4//10 10//10 11//10
f 5//11 11//11 19//11
f 5//11 19//11 12//11
f 6//12 13//12 15//12
f 6//12 15//12 8//12
f 7//13 12//13 14//13
f 7//14 14//14 20//14
f 7//14 20//14 13//14
f 8//15 15//15 22//15
f 8//15 22//15 16//15
f 9//16 16//16 17//16
f 10//17 17//17 23//17
f 10//17 23//17 18//17
f 10//18 18//18 19//18
f 10//19 19//19 11//19
f 12//20 19//20 14//20
f 13//21 20//21 15//21
f 14//22 19//22 21//22
f 14//23 21//23 24//23
f 14//23 24//23 20//23
f 15//24 20//24 22//24
f 16//25 22//25 23//25
f 16//25 23//25 17//25
f 18//26 21//26 19//26
f 18//27 23//27 24//27
f 18//28 24//28 21//28
f 20//29 24//29 22//29
f 22//30 24//30 23//30
