# Blender 4.2.11 LTS
# www.blender.org
o tmp_export_obj_1_LUBAANSUO2.stp.005
v 49.000000 9.000000 10.000000
v 49.000000 -9.000000 10.000000
v -49.000000 -9.000000 10.000000
v -49.000000 9.000000 10.000000
v 49.000000 10.000000 9.000000
v 50.000000 9.000000 9.000000
v 50.000000 -9.000000 9.000000
v 50.000000 9.000000 -9.000000
v 50.000000 -9.000000 -9.000000
v 49.000000 -10.000000 -9.000000
v 49.000000 9.000000 -10.000000
v 49.000000 -9.000000 -10.000000
v -49.000000 9.000000 -10.000000
v -49.000000 -9.000000 -10.000000
v -49.000000 -10.000000 -9.000000
v 49.000000 -10.000000 9.000000
v -49.000000 -10.000000 9.000000
v -50.000000 -9.000000 9.000000
v -50.000000 -9.000000 -9.000000
v -50.000000 9.000000 9.000000
v -50.000000 9.000000 -9.000000
v -49.000000 10.000000 9.000000
v -49.000000 10.000000 -9.000000
v 49.000000 10.000000 -9.000000
vn 0.7071 -0.0000 0.7071
vn -0.0000 -0.0000 1.0000
vn -0.0000 0.7071 0.7071
vn 0.5774 0.5774 0.5774
vn 0.7071 0.7071 -0.0000
vn 1.0000 -0.0000 -0.0000
vn 0.7071 -0.7071 -0.0000
vn 0.7071 -0.0000 -0.7071
vn 0.5774 -0.5774 -0.5774
vn -0.0000 -0.0000 -1.0000
vn -0.0000 -0.7071 -0.7071
vn -0.0000 -1.0000 -0.0000
vn -0.7071 -0.7071 -0.0000
vn -0.5774 -0.5774 -0.5774
vn -1.0000 -0.0000 -0.0000
vn -0.7071 -0.0000 -0.7071
vn -0.7071 0.7071 -0.0000
vn -0.5774 0.5774 -0.5774
vn -0.0000 0.7071 -0.7071
vn -0.0000 1.0000 -0.0000
vn 0.5774 0.5774 -0.5774
vn -0.5774 0.5774 0.5774
vn -0.7071 -0.0000 0.7071
vn -0.5774 -0.5774 0.5774
vn -0.0000 -0.7071 0.7071
vn 0.5774 -0.5774 0.5774
s 0
f 6//1 1//1 2//1
f 1//2 3//2 2//2
f 1//2 4//2 3//2
f 5//3 4//3 1//3
f 5//4 1//4 6//4
f 8//5 5//5 6//5
f 6//1 2//1 7//1
f 6//6 7//6 9//6
f 6//6 9//6 8//6
f 7//7 10//7 9//7
f 9//8 11//8 8//8
f 12//9 9//9 10//9
f 9//8 12//8 11//8
f 12//10 13//10 11//10
f 12//11 10//11 15//11
f 12//10 14//10 13//10
f 12//11 15//11 14//11
f 16//12 17//12 15//12
f 16//12 15//12 10//12
f 18//13 15//13 17//13
f 18//13 19//13 15//13
f 19//14 14//14 15//14
f 20//15 21//15 19//15
f 20//15 19//15 18//15
f 19//16 21//16 13//16
f 19//16 13//16 14//16
f 21//17 22//17 23//17
f 21//17 20//17 22//17
f 23//18 13//18 21//18
f 11//19 23//19 24//19
f 24//20 23//20 22//20
f 11//19 13//19 23//19
f 8//5 24//5 5//5
f 24//20 22//20 5//20
f 24//21 8//21 11//21
f 5//3 22//3 4//3
f 22//22 20//22 4//22
f 20//23 3//23 4//23
f 20//23 18//23 3//23
f 3//24 18//24 17//24
f 16//25 3//25 17//25
f 7//7 16//7 10//7
f 7//26 2//26 16//26
f 16//25 2//25 3//25
