# Blender 4.2.11 LTS
# www.blender.org
o tmp_export_interlocking-puzzle-6.002
v 30.000000 -9.346875 -7.500000
v 30.000000 5.653125 -7.500000
v 30.000000 -9.346875 7.500000
v 30.000000 5.653125 7.500000
v -30.000000 -9.346875 -7.500000
v -30.000000 -9.346875 7.500000
v -30.000000 5.653125 -7.500000
v -30.000000 5.653125 7.500000
v -7.612488 5.653125 -7.500000
v -7.612488 5.653125 7.500000
v -7.612488 -1.959375 -7.500000
v -7.612488 -1.959375 7.500000
v 7.612488 -1.959375 -7.500000
v 7.612488 -1.959375 7.500000
v 7.612488 5.653125 -7.500000
v 7.612488 5.653125 7.500000
vn 1.0000 -0.0000 -0.0000
vn -0.0000 -1.0000 -0.0000
vn -1.0000 -0.0000 -0.0000
vn -0.0000 1.0000 -0.0000
vn -0.0000 -0.0000 1.0000
vn -0.0000 -0.0000 -1.0000
s 0
f 1//1 2//1 3//1
f 3//1 2//1 4//1
f 5//2 1//2 6//2
f 6//2 1//2 3//2
f 7//3 5//3 8//3
f 8//3 5//3 6//3
f 9//4 7//4 10//4
f 10//4 7//4 8//4
f 11//1 9//1 12//1
f 12//1 9//1 10//1
f 13//4 11//4 14//4
f 14//4 11//4 12//4
f 15//3 13//3 16//3
f 16//3 13//3 14//3
f 2//4 15//4 4//4
f 4//4 15//4 16//4
f 16//5 14//5 4//5
f 4//5 14//5 3//5
f 3//5 14//5 12//5
f 3//5 12//5 6//5
f 6//5 12//5 8//5
f 8//5 12//5 10//5
f 15//6 2//6 13//6
f 13//6 2//6 1//6
f 13//6 1//6 5//6
f 13//6 5//6 11//6
f 11//6 5//6 7//6
f 11//6 7//6 9//6
