# Blender 4.2.11 LTS
# www.blender.org
o tmp_export_interlocking-puzzle-6-2-collision.002
v -0.044727 -0.037604 -0.037500
v 0.067200 -0.037604 -0.037500
v -0.044727 -0.037604 0.037493
v -0.044837 0.000446 -0.037493
v -0.044837 0.037381 -0.037493
v 0.067200 0.037381 -0.037493
v 0.067200 -0.037604 0.037493
v -0.044837 0.037381 0.037500
v -0.044837 0.000446 0.037493
v 0.067200 0.037381 0.037500
vn -0.0000 -1.0000 -0.0000
vn -1.0000 -0.0029 -0.0000
vn -0.0668 -0.0000 -0.9978
vn -0.0000 0.0001 -1.0000
vn 1.0000 -0.0000 -0.0000
vn -0.0000 -0.0001 1.0000
vn -0.0688 -0.0002 0.9976
vn -1.0000 -0.0000 -0.0000
vn -0.0000 1.0000 -0.0000
s 0
f 1//1 2//1 7//1
f 1//1 7//1 3//1
f 1//2 3//2 9//2
f 1//2 9//2 4//2
f 1//3 4//3 5//3
f 1//4 5//4 6//4
f 1//4 6//4 2//4
f 2//5 6//5 10//5
f 2//5 10//5 7//5
f 3//6 7//6 10//6
f 3//6 10//6 8//6
f 3//7 8//7 9//7
f 4//8 9//8 8//8
f 4//8 8//8 5//8
f 5//9 8//9 10//9
f 5//9 10//9 6//9
