# Blender 4.2.11 LTS
# www.blender.org
o tmp_export_medium-piece-5-collision.003
v -0.209975 0.315871 0.256300
v -0.234973 0.315871 0.256295
v -0.234971 0.215871 0.256295
v -0.209975 0.215881 0.256295
v -0.209975 0.315871 0.206300
v -0.234971 0.315871 0.206300
v -0.234971 0.215871 0.206300
v -0.209975 0.215881 0.206300
vn -0.0002 -0.0000 1.0000
vn -0.0000 -0.0000 1.0000
vn 1.0000 -0.0000 -0.0000
vn -0.0000 1.0000 -0.0000
vn -1.0000 -0.0000 -0.0000
vn 0.0004 -1.0000 -0.0000
vn -0.0000 -0.0000 -1.0000
s 0
f 1//1 2//1 3//1
f 1//2 3//2 4//2
f 1//3 4//3 8//3
f 1//3 8//3 5//3
f 1//4 5//4 6//4
f 1//4 6//4 2//4
f 2//5 6//5 7//5
f 2//5 7//5 3//5
f 3//6 7//6 8//6
f 3//6 8//6 4//6
f 5//7 8//7 7//7
f 5//7 7//7 6//7
