# Blender 4.2.11 LTS
# www.blender.org
o tmp_export_medium-piece-5-collision.002
v -0.209975 0.060871 0.256300
v -0.234973 0.060871 0.256295
v -0.209975 0.060871 0.206300
v -0.209975 0.160871 0.256295
v -0.234973 0.160871 0.256295
v -0.234973 0.060871 0.206300
v -0.209975 0.160861 0.206300
v -0.234973 0.160871 0.206300
vn -0.0000 -1.0000 -0.0000
vn 1.0000 -0.0000 -0.0000
vn -0.0000 -0.0000 1.0000
vn -0.0002 -0.0000 1.0000
vn -1.0000 -0.0000 -0.0000
vn -0.0000 -0.0000 -1.0000
vn 0.0004 1.0000 -0.0002
vn -0.0000 1.0000 -0.0000
s 0
f 1//1 2//1 6//1
f 1//1 6//1 3//1
f 1//2 3//2 7//2
f 1//2 7//2 4//2
f 1//3 4//3 5//3
f 1//4 5//4 2//4
f 2//5 5//5 8//5
f 2//5 8//5 6//5
f 3//6 6//6 8//6
f 3//6 8//6 7//6
f 4//7 7//7 8//7
f 4//8 8//8 5//8
