# Blender 4.2.11 LTS
# www.blender.org
o tmp_export_geometry_4.002
v -0.019671 0.298010 0.255635
v -0.015921 0.294260 0.255635
v -0.019671 0.294260 0.251885
v -0.158401 0.298010 0.255635
v -0.015921 0.204279 0.255635
v -0.019671 0.204279 0.251885
v -0.158401 0.294260 0.251885
v -0.162152 0.294260 0.255635
v -0.019671 0.200529 0.255635
v -0.119091 0.200739 0.255425
v -0.158401 0.204279 0.251885
v -0.162152 0.204279 0.255635
v -0.158401 0.200529 0.255635
vn 0.5773 0.5774 -0.5774
vn -0.0000 0.7071 -0.7071
vn -0.0000 -0.0000 1.0000
vn 0.7070 -0.0000 -0.7072
vn -0.0000 -0.0000 -1.0000
vn -0.5773 0.5774 -0.5774
vn 0.5773 -0.5774 -0.5774
vn -0.0000 -0.7071 -0.7071
vn -0.7070 -0.0000 -0.7072
vn -0.5773 -0.5774 -0.5774
s 0
f 1//1 2//1 3//1
f 1//2 3//2 7//2
f 1//2 7//2 4//2
f 1//3 4//3 8//3
f 1//3 8//3 12//3
f 1//3 12//3 13//3
f 1//3 13//3 9//3
f 1//3 9//3 5//3
f 1//3 5//3 2//3
f 2//4 5//4 6//4
f 2//4 6//4 3//4
f 3//5 6//5 11//5
f 3//5 11//5 7//5
f 4//6 7//6 8//6
f 5//7 9//7 6//7
f 6//8 9//8 10//8
f 6//8 10//8 11//8
f 7//9 11//9 12//9
f 7//9 12//9 8//9
f 9//8 13//8 10//8
f 10//8 13//8 11//8
f 11//10 13//10 12//10
