# Blender 4.2.11 LTS
# www.blender.org
o tmp_export_geometry_5.001
v -0.019662 0.299260 0.346881
v -0.019662 0.294268 0.351880
v -0.014656 0.294268 0.346881
v -0.019164 0.298770 0.301769
v -0.019662 0.299260 0.301769
v -0.168688 0.299260 0.346881
v -0.168688 0.294268 0.351885
v -0.019662 0.204271 0.351880
v -0.014656 0.294268 0.301769
v -0.014656 0.204271 0.346881
v -0.163290 0.299260 0.301769
v -0.168688 0.299260 0.306886
v -0.168688 0.204271 0.351885
v -0.019662 0.199279 0.346881
v -0.168688 0.201423 0.349035
v -0.014656 0.204271 0.301769
v -0.168281 0.294268 0.301769
v -0.168688 0.294268 0.301887
v -0.019662 0.199279 0.301769
v -0.168688 0.199279 0.346881
v -0.168281 0.204271 0.301769
v -0.168688 0.204271 0.301887
v -0.163290 0.199279 0.301769
v -0.168688 0.199279 0.306886
vn 0.5766 0.5781 0.5774
vn 0.7061 0.7081 0.0001
vn 0.7013 0.7129 -0.0000
vn -0.0000 1.0000 -0.0000
vn -0.0000 0.7079 0.7063
vn -0.0000 0.7076 0.7066
vn 0.7066 -0.0000 0.7076
vn -0.0000 -0.0000 1.0000
vn 0.7067 0.7075 -0.0000
vn 1.0000 -0.0000 -0.0000
vn -0.0000 -0.0000 -1.0000
vn -1.0000 -0.0000 -0.0000
vn 0.5766 -0.5781 0.5774
vn -0.0000 -0.7073 0.7069
vn -0.0000 -0.7076 0.7066
vn 0.7061 -0.7081 -0.0000
vn -0.2677 0.2677 -0.9256
vn -0.5565 0.5879 -0.5871
vn -0.0000 -0.7087 0.7055
vn -0.0000 -1.0000 -0.0000
vn -0.2778 -0.0000 -0.9606
vn -0.2779 -0.0000 -0.9606
vn -0.2677 -0.2677 -0.9256
vn -0.5565 -0.5879 -0.5871
s 0
f 1//1 2//1 3//1
f 1//2 3//2 4//2
f 1//3 4//3 5//3
f 1//4 5//4 11//4
f 1//4 11//4 12//4
f 1//4 12//4 6//4
f 1//5 6//5 7//5
f 1//6 7//6 2//6
f 2//7 8//7 10//7
f 2//7 10//7 3//7
f 2//8 7//8 13//8
f 2//8 13//8 8//8
f 3//9 9//9 4//9
f 3//10 10//10 16//10
f 3//10 16//10 9//10
f 4//11 9//11 16//11
f 4//11 16//11 19//11
f 4//11 19//11 23//11
f 4//11 23//11 21//11
f 4//11 21//11 17//11
f 4//11 17//11 11//11
f 4//11 11//11 5//11
f 6//12 12//12 18//12
f 6//12 18//12 22//12
f 6//12 22//12 24//12
f 6//12 24//12 20//12
f 6//12 20//12 15//12
f 6//12 15//12 13//12
f 6//12 13//12 7//12
f 8//13 14//13 10//13
f 8//14 13//14 15//14
f 8//15 15//15 14//15
f 10//16 14//16 19//16
f 10//16 19//16 16//16
f 11//17 17//17 18//17
f 11//18 18//18 12//18
f 14//19 15//19 20//19
f 14//20 20//20 24//20
f 14//20 24//20 23//20
f 14//20 23//20 19//20
f 17//21 21//21 22//21
f 17//22 22//22 18//22
f 21//23 23//23 22//23
f 22//24 23//24 24//24
