# Blender 4.2.11 LTS
# www.blender.org
o tmp_export_geometry_1.002
v -0.360793 0.299260 0.346876
v -0.360793 0.295707 0.350435
v -0.360793 0.299260 0.306887
v -0.365793 0.299260 0.346882
v -0.360793 0.294259 0.351880
v -0.509626 0.294259 0.351885
v -0.360793 0.294259 0.301889
v -0.370929 0.299260 0.296805
v -0.509626 0.299260 0.346882
v -0.360793 0.204280 0.351880
v -0.514656 0.294259 0.346882
v -0.510590 0.277113 0.350931
v -0.509626 0.204290 0.351885
v -0.360793 0.204280 0.301889
v -0.365944 0.294259 0.296805
v -0.509626 0.299260 0.296805
v -0.360793 0.202763 0.350365
v -0.365763 0.204280 0.351880
v -0.514656 0.294259 0.296805
v -0.514656 0.204290 0.346882
v -0.509626 0.199279 0.346882
v -0.360793 0.199279 0.306887
v -0.370914 0.199289 0.296805
v -0.365944 0.204290 0.296805
v -0.360793 0.199279 0.346876
v -0.365793 0.199279 0.346882
v -0.514656 0.204290 0.296805
v -0.509626 0.199279 0.296805
v -0.370929 0.199279 0.296885
v -0.371215 0.199279 0.296805
vn 1.0000 0.0056 -0.0000
vn 1.0000 -0.0000 -0.0000
vn -0.0000 1.0000 -0.0000
vn 0.0008 0.7077 0.7065
vn -0.0000 0.7072 0.7071
vn -0.0000 0.7063 0.7079
vn 0.5754 0.5781 -0.5785
vn -0.0000 0.7073 0.7069
vn -0.0000 -0.0000 1.0000
vn -0.5752 0.5786 0.5783
vn -0.7052 0.0002 0.7090
vn -0.7035 -0.0000 0.7106
vn 0.7025 -0.0000 -0.7117
vn 0.5754 0.5736 -0.5830
vn -0.0000 -0.0000 -1.0000
vn -0.7050 0.7092 -0.0000
vn -0.0000 -0.4843 0.8749
vn -0.0000 -0.7067 0.7075
vn -1.0000 -0.0000 -0.0000
vn -0.7056 -0.0000 0.7086
vn -0.7052 -0.0000 0.7090
vn -0.5756 -0.5778 0.5787
vn -0.0000 -0.7066 0.7076
vn 0.5756 -0.5780 -0.5784
vn 0.5756 -0.5721 -0.5843
vn -0.0000 -0.7070 0.7072
vn 0.0008 -0.7075 0.7067
vn -0.7057 -0.7085 -0.0000
vn -0.0000 -1.0000 -0.0000
vn -0.0000 -1.0000 0.0021
vn 0.0999 -0.9898 -0.1011
vn 0.0323 -0.9929 -0.1145
s 0
f 1//1 2//1 5//1
f 1//2 5//2 10//2
f 1//2 10//2 17//2
f 1//2 17//2 25//2
f 1//2 25//2 22//2
f 1//2 22//2 14//2
f 1//2 14//2 7//2
f 1//2 7//2 3//2
f 1//3 3//3 8//3
f 1//3 8//3 16//3
f 1//3 16//3 9//3
f 1//3 9//3 4//3
f 1//4 4//4 2//4
f 2//5 4//5 6//5
f 2//6 6//6 5//6
f 3//7 7//7 8//7
f 4//8 9//8 6//8
f 5//9 6//9 13//9
f 5//9 13//9 10//9
f 6//10 9//10 11//10
f 6//11 11//11 12//11
f 6//12 12//12 13//12
f 7//13 14//13 24//13
f 7//13 24//13 15//13
f 7//14 15//14 8//14
f 8//15 15//15 24//15
f 8//15 24//15 23//15
f 8//15 23//15 30//15
f 8//15 30//15 28//15
f 8//15 28//15 27//15
f 8//15 27//15 19//15
f 8//15 19//15 16//15
f 9//16 16//16 19//16
f 9//16 19//16 11//16
f 10//17 13//17 18//17
f 10//18 18//18 17//18
f 11//19 19//19 27//19
f 11//19 27//19 20//19
f 11//20 20//20 12//20
f 12//21 20//21 13//21
f 13//22 20//22 21//22
f 13//23 21//23 18//23
f 14//24 22//24 23//24
f 14//25 23//25 24//25
f 17//18 18//18 21//18
f 17//26 21//26 26//26
f 17//27 26//27 25//27
f 20//28 27//28 28//28
f 20//28 28//28 21//28
f 21//29 28//29 30//29
f 21//29 30//29 29//29
f 21//29 29//29 22//29
f 21//29 22//29 25//29
f 21//30 25//30 26//30
f 22//31 29//31 23//31
f 23//32 29//32 30//32
