# Blender 4.2.11 LTS
# www.blender.org
o tmp_export_geometry_6.001
v -0.168688 0.299260 0.346881
v -0.168688 0.294259 0.351883
v -0.168688 0.299260 0.306892
v -0.360792 0.299260 0.346881
v -0.168688 0.204280 0.351883
v -0.360792 0.294259 0.351883
v -0.168688 0.297400 0.305037
v -0.168707 0.294259 0.301885
v -0.168707 0.297410 0.305037
v -0.360792 0.299260 0.306892
v -0.168688 0.199279 0.346881
v -0.360792 0.204280 0.351883
v -0.168688 0.201139 0.305037
v -0.168707 0.204280 0.301885
v -0.260189 0.294259 0.301885
v -0.360773 0.294249 0.301885
v -0.360792 0.297400 0.305037
v -0.168688 0.199279 0.306892
v -0.360792 0.199279 0.346881
v -0.168707 0.201129 0.305037
v -0.260189 0.204280 0.301885
v -0.360773 0.204290 0.301885
v -0.360792 0.201139 0.305037
v -0.360792 0.199279 0.306892
vn 1.0000 -0.0000 -0.0000
vn -0.0000 1.0000 -0.0000
vn -0.0000 0.7072 0.7071
vn -0.0000 -0.0000 1.0000
vn 0.5614 0.5848 -0.5855
vn 0.1830 0.6951 -0.6952
vn -0.0000 0.7081 -0.7061
vn -1.0000 -0.0000 -0.0000
vn -0.0000 -0.7072 0.7071
vn 1.0000 -0.0000 -0.0060
vn -0.0000 -0.0000 -1.0000
vn -0.0000 0.7072 -0.7071
vn -0.0000 0.7074 -0.7069
vn -0.0001 0.7068 -0.7074
vn -0.2949 0.6752 -0.6761
vn -0.0000 -1.0000 -0.0000
vn 0.5594 -0.5848 -0.5875
vn -0.0000 -0.7072 -0.7071
vn 0.1829 -0.6955 -0.6949
vn -1.0000 -0.0000 -0.0060
vn -0.0000 -0.7081 -0.7061
vn -0.0000 -0.7074 -0.7068
vn -0.0001 -0.7068 -0.7074
vn -0.2932 -0.6745 -0.6776
s 0
f 1//1 2//1 5//1
f 1//1 5//1 11//1
f 1//1 11//1 18//1
f 1//1 18//1 13//1
f 1//1 13//1 7//1
f 1//1 7//1 3//1
f 1//2 3//2 10//2
f 1//2 10//2 4//2
f 1//3 4//3 6//3
f 1//3 6//3 2//3
f 2//4 6//4 12//4
f 2//4 12//4 5//4
f 3//5 7//5 8//5
f 3//6 8//6 9//6
f 3//7 9//7 10//7
f 4//8 10//8 17//8
f 4//8 17//8 23//8
f 4//8 23//8 24//8
f 4//8 24//8 19//8
f 4//8 19//8 12//8
f 4//8 12//8 6//8
f 5//9 12//9 19//9
f 5//9 19//9 11//9
f 7//10 13//10 14//10
f 7//10 14//10 8//10
f 8//11 14//11 21//11
f 8//11 21//11 22//11
f 8//11 22//11 16//11
f 8//11 16//11 15//11
f 8//12 15//12 9//12
f 9//13 15//13 10//13
f 10//14 15//14 16//14
f 10//15 16//15 17//15
f 11//16 19//16 24//16
f 11//16 24//16 18//16
f 13//17 18//17 14//17
f 14//18 20//18 21//18
f 14//19 18//19 20//19
f 16//20 22//20 23//20
f 16//20 23//20 17//20
f 18//21 24//21 20//21
f 20//22 24//22 21//22
f 21//23 24//23 22//23
f 22//24 24//24 23//24
