# Blender 4.2.11 LTS
# www.blender.org
o tmp_export_obj_1_LUBAANSUO2.stp
v -21.250000 9.000000 7.769232
v -49.000000 -9.000000 7.769232
v -21.250000 -9.000000 7.769232
v -49.000000 9.000000 7.769232
v -20.250000 -9.000000 6.769232
v -21.250000 -10.000000 6.769232
v -20.250000 9.000000 6.769232
v -21.250000 10.000000 6.769232
v -20.250000 -9.000000 -1.230768
v -20.250000 9.000000 -1.230768
v -21.250000 -10.000000 -1.230768
v -21.250000 10.000000 -1.230768
v -19.250000 9.000000 -2.230768
v -19.250000 -9.000000 -2.230768
v -19.250000 -10.000000 -3.230768
v -19.250000 10.000000 -3.230768
v 19.250000 9.000000 -2.230768
v 19.250000 -9.000000 -2.230768
v 19.250000 10.000000 -3.230768
v 19.250000 -10.000000 -3.230768
v 20.250000 -9.000000 -1.230768
v 20.250000 9.000000 -1.230768
v 21.250000 10.000000 -1.230768
v 21.250000 -10.000000 -1.230768
v 20.250000 9.000000 6.769232
v 20.250000 -9.000000 6.769232
v 21.250000 10.000000 6.769232
v 21.250000 -10.000000 6.769232
v 49.000000 9.000000 7.769232
v 21.250000 -9.000000 7.769232
v 49.000000 -9.000000 7.769232
v 21.250000 9.000000 7.769232
v -49.000000 10.000000 6.769232
v -50.000000 9.000000 6.769232
v 49.000000 10.000000 6.769232
v -49.000000 10.000000 -11.230768
v 49.000000 10.000000 -11.230768
v 50.000000 9.000000 6.769232
v 49.000000 -10.000000 6.769232
v 50.000000 -9.000000 6.769232
v -49.000000 -10.000000 6.769232
v -50.000000 -9.000000 6.769232
v -49.000000 -10.000000 -11.230768
v 49.000000 -10.000000 -11.230768
v 50.000000 9.000000 -11.230768
v 50.000000 -9.000000 -11.230768
v 49.000000 9.000000 -12.230768
v 49.000000 -9.000000 -12.230768
v -50.000000 9.000000 -11.230768
v -50.000000 -9.000000 -11.230768
v -49.000000 9.000000 -12.230768
v -49.000000 -9.000000 -12.230768
vn -0.0000 -0.0000 1.0000
vn 0.5774 -0.5774 0.5774
vn 0.7071 -0.0000 0.7071
vn 0.5774 0.5774 0.5774
vn 1.0000 -0.0000 -0.0000
vn 0.7071 -0.7071 -0.0000
vn 0.7071 0.7071 -0.0000
vn -0.0000 0.7071 0.7071
vn -0.0000 -0.7071 0.7071
vn -0.7071 -0.0000 0.7071
vn -0.5774 0.5774 0.5774
vn -0.5774 -0.5774 0.5774
vn -1.0000 -0.0000 -0.0000
vn -0.7071 0.7071 -0.0000
vn -0.7071 -0.7071 -0.0000
vn -0.0000 1.0000 -0.0000
vn -0.0000 -1.0000 -0.0000
vn 0.7071 -0.0000 -0.7071
vn 0.5774 -0.5774 -0.5774
vn 0.5774 0.5774 -0.5774
vn -0.0000 0.7071 -0.7071
vn -0.0000 -0.0000 -1.0000
vn -0.0000 -0.7071 -0.7071
vn -0.7071 -0.0000 -0.7071
vn -0.5774 -0.5774 -0.5774
vn -0.5774 0.5774 -0.5774
s 0
f 1//1 2//1 3//1
f 1//1 4//1 2//1
f 5//2 3//2 6//2
f 7//3 3//3 5//3
f 7//3 1//3 3//3
f 8//4 1//4 7//4
f 7//5 5//5 9//5
f 10//5 7//5 9//5
f 11//6 5//6 6//6
f 11//6 9//6 5//6
f 12//7 8//7 7//7
f 12//7 7//7 10//7
f 13//3 9//3 14//3
f 13//3 10//3 9//3
f 11//2 15//2 14//2
f 11//2 14//2 9//2
f 10//4 13//4 16//4
f 10//4 16//4 12//4
f 17//1 13//1 14//1
f 17//1 14//1 18//1
f 13//8 17//8 19//8
f 16//8 13//8 19//8
f 14//9 20//9 18//9
f 15//9 20//9 14//9
f 21//10 17//10 18//10
f 21//10 22//10 17//10
f 23//11 19//11 17//11
f 23//11 17//11 22//11
f 24//12 21//12 18//12
f 24//12 18//12 20//12
f 21//13 25//13 22//13
f 21//13 26//13 25//13
f 22//14 27//14 23//14
f 22//14 25//14 27//14
f 26//15 21//15 24//15
f 26//15 24//15 28//15
f 29//1 30//1 31//1
f 29//1 32//1 30//1
f 26//10 32//10 25//10
f 26//10 30//10 32//10
f 30//12 26//12 28//12
f 27//11 25//11 32//11
f 8//8 4//8 1//8
f 8//8 33//8 4//8
f 33//11 34//11 4//11
f 29//8 27//8 32//8
f 35//8 27//8 29//8
f 12//16 33//16 8//16
f 12//16 36//16 33//16
f 16//16 36//16 12//16
f 35//16 23//16 27//16
f 37//16 19//16 23//16
f 37//16 23//16 35//16
f 36//16 19//16 37//16
f 36//16 16//16 19//16
f 35//4 29//4 38//4
f 31//9 30//9 28//9
f 39//9 31//9 28//9
f 38//3 29//3 31//3
f 38//3 31//3 40//3
f 40//2 31//2 39//2
f 6//9 3//9 2//9
f 6//9 2//9 41//9
f 34//10 2//10 4//10
f 34//10 42//10 2//10
f 11//17 41//17 43//17
f 11//17 43//17 15//17
f 6//17 41//17 11//17
f 44//17 24//17 20//17
f 39//17 28//17 24//17
f 39//17 24//17 44//17
f 44//17 15//17 43//17
f 44//17 20//17 15//17
f 2//12 42//12 41//12
f 37//7 35//7 38//7
f 45//7 37//7 38//7
f 38//5 40//5 46//5
f 38//5 46//5 45//5
f 40//6 39//6 44//6
f 40//6 44//6 46//6
f 46//18 47//18 45//18
f 46//18 48//18 47//18
f 48//19 46//19 44//19
f 37//20 45//20 47//20
f 49//14 34//14 33//14
f 49//14 33//14 36//14
f 34//13 50//13 42//13
f 34//13 49//13 50//13
f 42//15 43//15 41//15
f 42//15 50//15 43//15
f 47//21 36//21 37//21
f 47//21 51//21 36//21
f 48//22 51//22 47//22
f 48//22 52//22 51//22
f 48//23 44//23 43//23
f 48//23 43//23 52//23
f 50//24 49//24 51//24
f 50//24 51//24 52//24
f 50//25 52//25 43//25
f 36//26 51//26 49//26
