# Blender 4.2.11 LTS
# www.blender.org
o tmp_export_luban-lock-sliding.002
v -7.500000 -22.800003 9.137931
v 7.500000 -22.800003 9.137931
v -7.500000 -37.500000 9.137931
v -7.500000 -22.800003 1.637931
v -7.500000 -37.500000 -5.862069
v -7.500000 37.500000 -5.862069
v 7.500000 -37.500000 -5.862069
v 7.500000 -22.800003 1.637931
v 7.500000 -37.500000 9.137931
v 7.500000 22.800003 1.637931
v 7.500000 37.500000 -5.862069
v 7.500000 22.800003 9.137931
v 7.500000 37.500000 9.137931
v -7.500000 37.500000 9.137931
v -7.500000 22.800003 9.137931
v -7.500000 22.800003 1.637931
vn -0.0000 1.0000 -0.0000
vn -0.0000 -0.0000 1.0000
vn -1.0000 -0.0000 -0.0000
vn -0.0000 -0.0000 -1.0000
vn -0.0000 -1.0000 -0.0000
vn 1.0000 -0.0000 -0.0000
s 0
f 2//1 4//1 1//1
f 1//2 3//2 2//2
f 1//3 5//3 3//3
f 4//3 5//3 1//3
f 4//3 6//3 5//3
f 5//4 6//4 7//4
f 7//5 3//5 5//5
f 8//6 7//6 10//6
f 8//6 9//6 7//6
f 9//5 3//5 7//5
f 10//6 7//6 11//6
f 7//4 6//4 11//4
f 10//6 11//6 12//6
f 12//6 11//6 13//6
f 6//1 13//1 11//1
f 12//2 13//2 15//2
f 15//2 13//2 14//2
f 14//1 13//1 6//1
f 16//5 10//5 15//5
f 15//3 14//3 16//3
f 15//5 10//5 12//5
f 16//3 14//3 6//3
f 16//3 6//3 4//3
f 16//2 4//2 10//2
f 10//2 4//2 8//2
f 2//6 9//6 8//6
f 2//2 3//2 9//2
f 8//1 4//1 2//1
