# Blender 4.2.11 LTS
# www.blender.org
o tmp_export_interlocking-puzzle-7-collision.001
v -0.134729 -0.037388 -0.037499
v -0.134729 -0.037388 0.037493
v -0.134729 0.037612 -0.037499
v 0.089885 -0.037388 -0.037492
v -0.134729 0.037612 0.037493
v 0.089885 -0.037388 0.037501
v 0.089688 0.037612 -0.037492
v 0.089885 -0.000446 -0.037492
v 0.089688 0.037612 0.037493
v 0.089885 -0.000446 0.037493
vn -1.0000 -0.0000 -0.0000
vn -0.0000 -0.0000 -1.0000
vn -0.0000 -1.0000 -0.0000
vn -0.0000 -0.0000 1.0000
vn -0.0000 1.0000 -0.0000
vn 1.0000 -0.0000 -0.0000
vn -0.0000 0.0001 1.0000
vn 0.0381 0.0002 0.9993
vn 1.0000 0.0052 -0.0000
s 0
f 1//1 2//1 5//1
f 1//1 5//1 3//1
f 1//2 3//2 8//2
f 1//2 8//2 4//2
f 1//3 4//3 6//3
f 1//3 6//3 2//3
f 2//4 6//4 5//4
f 3//5 5//5 9//5
f 3//5 9//5 7//5
f 3//2 7//2 8//2
f 4//6 8//6 10//6
f 4//6 10//6 6//6
f 5//7 6//7 9//7
f 6//8 10//8 9//8
f 7//9 9//9 10//9
f 7//9 10//9 8//9
