# Blender 4.2.11 LTS
# www.blender.org
o tmp_export_short-piece-4-collision.001
v -0.076007 0.188253 0.156205
v -0.076007 0.163258 0.156205
v -0.076007 0.213249 0.156077
v -0.125997 0.188253 0.156205
v -0.125997 0.163258 0.156205
v -0.076007 0.163258 0.106081
v -0.076007 0.213249 0.106081
v -0.125997 0.213249 0.156077
v -0.125997 0.163258 0.106081
v -0.125997 0.213249 0.106081
vn 1.0000 -0.0000 -0.0000
vn -0.0000 0.0051 1.0000
vn -0.0000 -0.0000 1.0000
vn -0.0000 -1.0000 -0.0000
vn -0.0000 1.0000 -0.0000
vn -1.0000 -0.0000 -0.0000
vn -0.0000 -0.0000 -1.0000
s 0
f 1//1 2//1 6//1
f 1//1 6//1 7//1
f 1//1 7//1 3//1
f 1//2 3//2 8//2
f 1//2 8//2 4//2
f 1//3 4//3 5//3
f 1//3 5//3 2//3
f 2//4 5//4 9//4
f 2//4 9//4 6//4
f 3//5 7//5 10//5
f 3//5 10//5 8//5
f 4//6 8//6 10//6
f 4//6 10//6 9//6
f 4//6 9//6 5//6
f 6//7 9//7 10//7
f 6//7 10//7 7//7
