# Blender 4.2.11 LTS
# www.blender.org
o tmp_export_short-piece-4-collision.002
v -0.125997 0.213253 0.211081
v -0.126002 0.188255 0.261081
v -0.125997 0.213253 0.261081
v -0.076002 0.213251 0.211081
v -0.125997 0.188255 0.211085
v -0.076007 0.188255 0.261081
v -0.076007 0.213251 0.261081
v -0.076007 0.188255 0.211085
vn -1.0000 0.0002 -0.0000
vn -0.0000 1.0000 -0.0000
vn -0.0000 -0.0002 -1.0000
vn -1.0000 -0.0000 -0.0001
vn -0.0000 -1.0000 -0.0000
vn -0.0000 -0.0000 1.0000
vn 1.0000 -0.0000 0.0001
vn 1.0000 -0.0002 -0.0000
s 0
f 1//1 2//1 3//1
f 1//2 3//2 4//2
f 1//3 4//3 5//3
f 1//4 5//4 2//4
f 2//5 5//5 8//5
f 2//5 8//5 6//5
f 2//6 6//6 7//6
f 2//6 7//6 3//6
f 3//2 7//2 4//2
f 4//7 7//7 6//7
f 4//8 6//8 8//8
f 4//3 8//3 5//3
