# Blender 4.2.11 LTS
# www.blender.org
o tmp_export_medium-piece-3-collision.001
v -0.176591 0.159401 0.181146
v -0.176616 0.159401 0.181149
v -0.076598 0.159396 0.206148
v -0.076598 0.159396 0.181146
v -0.231580 0.159401 0.181146
v -0.231580 0.159401 0.181149
v -0.331598 0.159396 0.206148
v -0.076598 0.109401 0.206148
v -0.076598 0.109406 0.181146
v -0.331598 0.159396 0.181146
v -0.331598 0.109401 0.206148
v -0.176591 0.109401 0.181146
v -0.331598 0.109406 0.181146
v -0.231605 0.109401 0.181146
vn -0.0000 1.0000 -0.0000
vn -0.0000 -0.0000 -1.0000
vn -0.0000 1.0000 0.0002
vn -0.0000 -0.0000 1.0000
vn 1.0000 -0.0000 -0.0000
vn -1.0000 -0.0000 -0.0000
vn -0.0000 -1.0000 -0.0002
vn -0.0000 -1.0000 -0.0000
s 0
f 1//1 2//1 3//1
f 1//1 3//1 4//1
f 1//2 4//2 9//2
f 1//2 9//2 12//2
f 1//2 12//2 14//2
f 1//2 14//2 13//2
f 1//2 13//2 10//2
f 1//2 10//2 5//2
f 1//1 5//1 6//1
f 1//1 6//1 2//1
f 2//3 6//3 7//3
f 2//3 7//3 3//3
f 3//4 7//4 11//4
f 3//4 11//4 8//4
f 3//5 8//5 9//5
f 3//5 9//5 4//5
f 5//1 10//1 7//1
f 5//1 7//1 6//1
f 7//6 10//6 13//6
f 7//6 13//6 11//6
f 8//7 12//7 9//7
f 8//8 11//8 14//8
f 8//8 14//8 12//8
f 11//7 13//7 14//7
