# Blender 4.2.11 LTS
# www.blender.org
o tmp_export_medium-piece.004
v 25.499969 4.999954 -6.250000
v -25.500015 -5.000046 -6.250000
v -25.500015 4.999954 -6.250000
v 25.499969 -5.000046 -6.250000
v -5.500015 -5.000046 3.750000
v -25.500015 4.999954 3.750000
v -25.500015 -5.000046 3.750000
v -5.500015 4.999954 3.750000
v 5.499985 4.999954 -1.250000
v 25.499969 4.999954 3.750000
v -5.500015 4.999954 -1.250000
v 5.499985 4.999954 3.750000
v -5.500015 -5.000046 -1.250000
v 25.499969 -5.000046 3.750000
v 5.499985 -5.000046 3.750000
v 5.499985 -5.000046 -1.250000
vn -0.0000 -0.0000 -1.0000
vn -0.0000 -0.0000 1.0000
vn -0.0000 1.0000 -0.0000
vn -1.0000 -0.0000 -0.0000
vn 1.0000 -0.0000 -0.0000
vn -0.0000 -1.0000 -0.0000
s 0
f 1//1 2//1 3//1
f 2//1 1//1 4//1
f 5//2 6//2 7//2
f 6//2 5//2 8//2
f 1//3 9//3 10//3
f 9//3 1//3 11//3
f 10//3 9//3 12//3
f 3//3 11//3 1//3
f 11//3 3//3 6//3
f 11//3 6//3 8//3
f 6//4 2//4 7//4
f 2//4 6//4 3//4
f 11//5 5//5 13//5
f 5//5 11//5 8//5
f 14//2 12//2 15//2
f 12//2 14//2 10//2
f 2//6 13//6 7//6
f 13//6 2//6 16//6
f 7//6 13//6 5//6
f 4//6 16//6 2//6
f 16//6 4//6 14//6
f 16//6 14//6 15//6
f 1//5 14//5 4//5
f 14//5 1//5 10//5
f 12//4 16//4 15//4
f 16//4 12//4 9//4
f 16//2 11//2 13//2
f 11//2 16//2 9//2
