# Blender 4.2.11 LTS
# www.blender.org
o tmp_export_medium-piece-4-collision.003
v -0.128462 0.212556 0.208712
v -0.128462 0.187558 0.208712
v -0.178457 0.212556 0.208712
v -0.128467 0.212556 0.308712
v -0.178457 0.187558 0.208722
v -0.128467 0.187558 0.308712
v -0.178462 0.187558 0.308712
v -0.178462 0.212556 0.308712
vn -0.0000 -0.0000 -1.0000
vn -0.0000 1.0000 -0.0000
vn 1.0000 -0.0000 -0.0000
vn -0.0002 -0.0004 -1.0000
vn -0.0000 -1.0000 -0.0000
vn -1.0000 -0.0000 -0.0000
vn -0.0000 -0.0000 1.0000
s 0
f 1//1 2//1 3//1
f 1//2 3//2 8//2
f 1//2 8//2 4//2
f 1//3 4//3 6//3
f 1//3 6//3 2//3
f 2//4 5//4 3//4
f 2//5 6//5 7//5
f 2//5 7//5 5//5
f 3//6 5//6 7//6
f 3//6 7//6 8//6
f 4//7 8//7 7//7
f 4//7 7//7 6//7
