# Blender 4.2.11 LTS
# www.blender.org
o tmp_export_interlocking-puzzle-4-2-collision.002
v 0.014782 -0.018430 0.037944
v 0.014782 -0.018469 0.037944
v 0.014778 0.018464 -0.037944
v 0.014778 0.018464 0.037944
v -0.022152 -0.018473 0.037944
v -0.022152 -0.018473 -0.037944
v 0.014778 -0.018469 -0.037944
v 0.014713 0.018464 -0.037944
v -0.022152 0.018461 0.037944
v -0.022152 0.018461 -0.037944
vn 1.0000 -0.0000 -0.0000
vn 1.0000 0.0001 -0.0000
vn -0.0000 -0.0000 1.0000
vn 0.0001 -1.0000 -0.0000
vn -0.0000 -0.0000 -1.0000
vn -0.0000 1.0000 -0.0000
vn -0.0001 1.0000 -0.0000
vn -1.0000 -0.0000 -0.0000
s 0
f 1//1 2//1 7//1
f 1//1 7//1 3//1
f 1//2 3//2 4//2
f 1//3 4//3 9//3
f 1//3 9//3 5//3
f 1//3 5//3 2//3
f 2//4 5//4 6//4
f 2//4 6//4 7//4
f 3//5 7//5 6//5
f 3//5 6//5 10//5
f 3//5 10//5 8//5
f 3//6 8//6 4//6
f 4//7 8//7 9//7
f 5//8 9//8 10//8
f 5//8 10//8 6//8
f 8//7 10//7 9//7
