# Blender 4.2.11 LTS
# www.blender.org
o tmp_export_4-collision.001
v 0.081822 0.081800 -0.051808
v 0.081778 0.081800 -0.051831
v 0.081807 0.081800 0.064203
v 0.081822 -0.068200 0.064203
v 0.081822 -0.068200 0.054127
v -0.068178 -0.068200 -0.051808
v -0.068178 -0.068156 -0.051831
v -0.068163 0.081800 -0.051831
v -0.068178 0.081800 0.064203
v -0.068178 -0.068200 0.064203
v -0.068178 -0.068039 -0.051831
vn -0.0000 1.0000 -0.0000
vn 1.0000 0.0001 0.0001
vn 1.0000 -0.0000 -0.0000
vn 0.4997 -0.4997 -0.7075
vn 0.4166 -0.4166 -0.8080
vn 0.4165 -0.4166 -0.8080
vn -0.0000 -0.0000 -1.0000
vn -0.0000 -0.0000 1.0000
vn -0.0000 -1.0000 -0.0000
vn -1.0000 -0.0000 -0.0000
vn -1.0000 0.0001 -0.0001
s 0
f 1//1 2//1 8//1
f 1//1 8//1 9//1
f 1//1 9//1 3//1
f 1//2 3//2 4//2
f 1//3 4//3 5//3
f 1//4 5//4 6//4
f 1//5 6//5 7//5
f 1//6 7//6 2//6
f 2//7 7//7 11//7
f 2//7 11//7 8//7
f 3//8 9//8 10//8
f 3//8 10//8 4//8
f 4//9 10//9 6//9
f 4//9 6//9 5//9
f 6//10 10//10 9//10
f 6//10 9//10 11//10
f 6//10 11//10 7//10
f 8//11 11//11 9//11
