# Blender 4.2.11 LTS
# www.blender.org
o tmp_export_6_part_puzzle_cube.003
v 42.987247 9.378626 9.378625
v 44.998684 9.378626 9.378625
v 43.000683 9.359627 9.378625
v 43.000683 9.378626 9.359626
v 21.799829 9.378626 -20.621376
v 21.785686 9.358625 -20.621376
v 44.998684 9.378626 -20.621376
v 44.998684 -20.621376 -20.621376
v 44.998684 -20.621376 9.378625
v 21.799829 -20.621376 9.378625
v 21.785686 -20.621376 9.358624
v 21.771542 -20.621376 9.378625
v 0.569685 9.359627 9.378625
v 0.569685 9.378626 9.359626
v -21.784311 -20.621376 9.358624
v -21.798456 -20.621376 9.378625
v -43.000317 9.359627 9.378625
v -43.000317 9.378626 9.359626
v -21.784311 9.358625 -20.621376
v -0.569315 9.359627 9.378625
v -21.770174 -20.621376 9.378625
v -45.001316 -20.621376 -20.621376
v -21.798456 9.378626 -20.621376
v -45.001316 9.378626 -20.621376
v -45.001316 9.378626 9.378625
v -45.001316 -20.621376 9.378625
v -42.986881 9.378626 9.378625
v 0.583120 9.378626 9.378625
v -0.582750 9.378626 9.378625
v -0.569315 9.378626 9.359626
v -21.770174 9.378626 -20.621376
v 21.771542 9.378626 -20.621376
vn -0.0000 1.0000 -0.0000
vn -0.0000 -0.0000 1.0000
vn -0.7070 -0.5001 -0.5000
vn -0.7070 0.5001 0.5000
vn -0.7071 0.5000 0.5000
vn -0.0000 -0.0000 -1.0000
vn 1.0000 -0.0000 -0.0000
vn -0.0000 -1.0000 -0.0000
vn 0.7070 0.5000 0.5001
vn 0.7071 0.5000 0.5000
vn -0.7071 0.5001 0.4999
vn -1.0000 -0.0000 -0.0000
vn 0.7071 -0.5000 -0.5000
vn 0.7071 0.5001 0.5000
vn -0.7071 -0.5000 -0.5000
vn -0.7071 0.4999 0.5001
vn -0.0000 1.0000 -0.0001
s 0
f 2//1 4//1 1//1
f 1//2 3//2 2//2
f 1//3 4//3 3//3
f 3//4 4//4 6//4
f 5//1 4//1 7//1
f 5//5 6//5 4//5
f 2//1 7//1 4//1
f 7//6 8//6 5//6
f 9//7 8//7 7//7
f 9//7 7//7 2//7
f 10//8 8//8 9//8
f 10//2 9//2 3//2
f 2//2 3//2 9//2
f 3//5 11//5 10//5
f 10//8 11//8 8//8
f 12//8 15//8 11//8
f 12//9 11//9 13//9
f 14//10 13//10 11//10
f 14//10 11//10 6//10
f 3//5 6//5 11//5
f 11//8 15//8 8//8
f 15//8 16//8 22//8
f 16//9 15//9 17//9
f 18//10 17//10 15//10
f 18//10 15//10 19//10
f 20//5 19//5 15//5
f 20//11 15//11 21//11
f 21//8 15//8 12//8
f 22//8 8//8 15//8
f 22//6 19//6 8//6
f 19//6 22//6 23//6
f 23//6 22//6 24//6
f 22//12 25//12 24//12
f 25//12 22//12 26//12
f 16//8 26//8 22//8
f 25//2 26//2 17//2
f 16//2 17//2 26//2
f 25//1 18//1 24//1
f 27//1 18//1 25//1
f 25//2 17//2 27//2
f 17//13 18//13 27//13
f 23//1 24//1 18//1
f 18//14 19//14 23//14
f 21//2 13//2 20//2
f 12//2 13//2 21//2
f 28//2 20//2 13//2
f 29//2 20//2 28//2
f 29//15 30//15 20//15
f 20//5 30//5 19//5
f 28//1 30//1 29//1
f 31//1 30//1 14//1
f 31//16 19//16 30//16
f 28//17 14//17 30//17
f 32//1 31//1 14//1
f 32//6 19//6 31//6
f 32//6 6//6 19//6
f 14//10 6//10 32//10
f 13//13 14//13 28//13
f 6//6 8//6 19//6
f 6//6 5//6 8//6
