# Blender 4.2.11 LTS
# www.blender.org
o tmp_export_geometry_0.007
v -0.311503 0.250909 0.002506
v -0.311503 0.253415 0.000001
v -0.216515 0.250909 0.002506
v -0.311503 0.250909 0.146248
v -0.313999 0.253415 0.002506
v -0.216515 0.253415 0.000001
v -0.311503 0.348404 0.000001
v -0.214019 0.253415 0.002506
v -0.216515 0.250909 0.146248
v -0.311503 0.253415 0.148738
v -0.313999 0.253415 0.146248
v -0.313999 0.348404 0.002506
v -0.216515 0.348404 0.000001
v -0.311503 0.350909 0.002506
v -0.214019 0.348404 0.002506
v -0.214019 0.253415 0.146248
v -0.216515 0.253415 0.148738
v -0.311503 0.299705 0.148796
v -0.313999 0.302201 0.148796
v -0.313999 0.348404 0.148796
v -0.313265 0.349147 0.148796
v -0.216515 0.350909 0.002506
v -0.311503 0.350909 0.148796
v -0.214626 0.349020 0.148796
v -0.214019 0.348404 0.148796
v -0.214019 0.302201 0.148796
v -0.216515 0.299705 0.148796
v -0.216515 0.350909 0.148796
vn -0.0000 -0.7070 -0.7072
vn -0.0000 -1.0000 -0.0000
vn -0.7085 -0.7057 -0.0000
vn -0.5788 -0.5765 -0.5767
vn -0.7084 -0.0000 -0.7058
vn -0.0000 -0.0000 -1.0000
vn 0.7085 -0.7057 -0.0000
vn 0.5788 -0.5765 -0.5767
vn -0.0000 -0.7049 0.7093
vn -0.5777 -0.5754 0.5789
vn -1.0000 -0.0000 -0.0000
vn 0.7084 -0.0000 -0.7058
vn -0.5788 0.5765 -0.5767
vn -0.0000 0.7070 -0.7072
vn 1.0000 -0.0000 -0.0000
vn 0.5777 -0.5754 0.5789
vn -0.0000 -0.0013 1.0000
vn -0.0013 -0.0013 1.0000
vn -0.7058 -0.0370 0.7074
vn -0.7118 0.7024 -0.0000
vn -0.7085 0.7057 -0.0000
vn 0.5788 0.5765 -0.5767
vn -0.7071 0.7071 -0.0000
vn -0.0000 1.0000 -0.0000
vn 0.7085 0.7057 -0.0000
vn 0.7127 0.7014 -0.0000
vn 0.7058 -0.0370 0.7074
vn 0.0013 -0.0013 1.0000
vn -0.0000 -0.0000 1.0000
vn 0.7071 0.7071 -0.0000
s 0
f 1//1 2//1 6//1
f 1//1 6//1 3//1
f 1//2 3//2 9//2
f 1//2 9//2 4//2
f 1//3 4//3 11//3
f 1//3 11//3 5//3
f 1//4 5//4 2//4
f 2//5 5//5 12//5
f 2//5 12//5 7//5
f 2//6 7//6 13//6
f 2//6 13//6 6//6
f 3//7 8//7 16//7
f 3//7 16//7 9//7
f 3//8 6//8 8//8
f 4//9 9//9 17//9
f 4//9 17//9 10//9
f 4//10 10//10 11//10
f 5//11 11//11 19//11
f 5//11 19//11 20//11
f 5//11 20//11 12//11
f 6//12 13//12 15//12
f 6//12 15//12 8//12
f 7//13 12//13 14//13
f 7//14 14//14 22//14
f 7//14 22//14 13//14
f 8//15 15//15 25//15
f 8//15 25//15 26//15
f 8//15 26//15 16//15
f 9//16 16//16 17//16
f 10//17 17//17 27//17
f 10//17 27//17 18//17
f 10//18 18//18 19//18
f 10//19 19//19 11//19
f 12//20 20//20 21//20
f 12//21 21//21 14//21
f 13//22 22//22 15//22
f 14//23 21//23 23//23
f 14//24 23//24 28//24
f 14//24 28//24 22//24
f 15//25 22//25 24//25
f 15//26 24//26 25//26
f 16//27 26//27 17//27
f 17//28 26//28 27//28
f 18//29 27//29 26//29
f 18//29 26//29 25//29
f 18//29 25//29 24//29
f 18//29 24//29 28//29
f 18//29 28//29 23//29
f 18//29 23//29 21//29
f 18//29 21//29 20//29
f 18//29 20//29 19//29
f 22//30 28//30 24//30
