# Blender 4.2.11 LTS
# www.blender.org
o tmp_export_geometry_5.005
v -0.214009 0.299156 0.355367
v -0.214009 0.299156 0.353753
v -0.214009 0.304667 0.348791
v -0.214019 0.348402 0.497498
v -0.214019 0.299156 0.497498
v -0.216495 0.299156 0.351279
v -0.214009 0.304667 0.348687
v -0.214009 0.304728 0.348687
v -0.216515 0.350909 0.497498
v -0.216515 0.348402 0.500001
v -0.214019 0.348402 0.348687
v -0.216515 0.299156 0.500001
v -0.216515 0.299156 0.351264
v -0.216515 0.302165 0.348687
v -0.311502 0.350909 0.497498
v -0.216515 0.350909 0.348687
v -0.311502 0.348402 0.500001
v -0.311502 0.299156 0.500001
v -0.311502 0.299156 0.351264
v -0.311502 0.302165 0.348687
v -0.314008 0.348402 0.497498
v -0.311502 0.350909 0.348687
v -0.314008 0.299156 0.497498
v -0.311531 0.299156 0.351279
v -0.314008 0.304667 0.348687
v -0.314008 0.348402 0.348687
v -0.314008 0.299156 0.353753
vn 1.0000 -0.0000 -0.0000
vn 1.0000 -0.0003 -0.0000
vn 1.0000 0.0001 -0.0000
vn 1.0000 -0.0000 0.0001
vn -0.0000 -1.0000 -0.0000
vn -0.0000 -1.0000 -0.0017
vn -0.0000 -1.0000 -0.0005
vn 0.5909 -0.5459 -0.5940
vn 0.5788 0.5761 0.5772
vn 0.7081 -0.0000 0.7061
vn 1.0000 0.0002 -0.0000
vn 0.7087 0.7055 -0.0000
vn 0.4991 -0.5641 -0.6578
vn 0.5446 -0.5453 -0.6372
vn -0.0000 -0.0000 -1.0000
vn -0.9527 -0.0000 -0.3038
vn -0.0000 0.7065 0.7077
vn -0.0000 1.0000 -0.0000
vn -0.0000 -0.0000 1.0000
vn -0.0000 -0.6505 -0.7595
vn -0.5773 0.5769 0.5779
vn -0.7074 0.7069 -0.0000
vn -0.7067 -0.0000 0.7075
vn -0.3587 -0.6073 -0.7089
vn -0.5439 -0.5446 -0.6384
vn -1.0000 -0.0000 -0.0000
vn -0.5924 -0.5451 -0.5932
s 0
f 1//1 2//1 7//1
f 1//1 7//1 8//1
f 1//2 8//2 3//2
f 1//3 3//3 4//3
f 1//4 4//4 5//4
f 1//5 5//5 12//5
f 1//5 12//5 18//5
f 1//5 18//5 23//5
f 1//5 23//5 27//5
f 1//5 27//5 24//5
f 1//6 24//6 19//6
f 1//5 19//5 13//5
f 1//7 13//7 6//7
f 1//5 6//5 2//5
f 2//8 6//8 7//8
f 3//1 8//1 4//1
f 4//9 9//9 10//9
f 4//10 10//10 12//10
f 4//10 12//10 5//10
f 4//11 8//11 11//11
f 4//12 11//12 16//12
f 4//12 16//12 9//12
f 6//13 13//13 14//13
f 6//14 14//14 7//14
f 7//15 14//15 20//15
f 7//15 20//15 25//15
f 7//15 25//15 26//15
f 7//15 26//15 22//15
f 7//15 22//15 16//15
f 7//15 16//15 11//15
f 7//16 11//16 8//16
f 9//17 15//17 17//17
f 9//17 17//17 10//17
f 9//18 16//18 22//18
f 9//18 22//18 15//18
f 10//19 17//19 18//19
f 10//19 18//19 12//19
f 13//20 19//20 20//20
f 13//20 20//20 14//20
f 15//21 21//21 17//21
f 15//22 22//22 26//22
f 15//22 26//22 21//22
f 17//23 21//23 23//23
f 17//23 23//23 18//23
f 19//24 24//24 20//24
f 20//25 24//25 25//25
f 21//26 26//26 25//26
f 21//26 25//26 27//26
f 21//26 27//26 23//26
f 24//27 27//27 25//27
