# Blender 4.2.11 LTS
# www.blender.org
o tmp_export_geometry_8.004
v -0.261012 0.350909 0.196251
v -0.261012 0.348409 0.198749
v -0.261012 0.350909 0.152590
v -0.266511 0.350909 0.201300
v -0.264011 0.348409 0.201300
v -0.261012 0.304660 0.198749
v -0.261012 0.302159 0.152590
v -0.311509 0.350909 0.152590
v -0.311509 0.350909 0.201300
v -0.264011 0.304660 0.201300
v -0.261012 0.302159 0.196251
v -0.266511 0.302159 0.201300
v -0.311099 0.302159 0.152590
v -0.314004 0.348409 0.152590
v -0.314004 0.348409 0.201300
v -0.311509 0.302159 0.201300
v -0.311524 0.302179 0.152590
v -0.314004 0.304660 0.152590
v -0.314009 0.332180 0.201300
v -0.314004 0.304660 0.201300
v -0.313957 0.304612 0.152590
v -0.314009 0.316814 0.201300
vn 1.0000 -0.0000 -0.0000
vn -0.0000 1.0000 -0.0000
vn 0.5447 0.5927 0.5932
vn 0.5438 0.5438 0.6392
vn 0.6480 -0.0000 0.7617
vn -0.0000 -0.0000 -1.0000
vn 0.0001 -0.0000 -1.0000
vn -0.0000 -0.0000 1.0000
vn 0.5438 -0.5438 0.6392
vn 0.5447 -0.5927 0.5932
vn -0.0000 -1.0000 -0.0000
vn -0.7078 0.7064 -0.0000
vn -0.7079 0.7064 -0.0000
vn -0.0449 -0.9990 -0.0004
vn -1.0000 -0.0000 -0.0001
vn -1.0000 0.0003 -0.0000
vn -0.7079 -0.7064 -0.0000
vn -0.7072 -0.7070 -0.0001
vn -1.0000 -0.0004 -0.0000
vn -0.7150 -0.6992 -0.0000
s 0
f 1//1 2//1 6//1
f 1//1 6//1 11//1
f 1//1 11//1 7//1
f 1//1 7//1 3//1
f 1//2 3//2 8//2
f 1//2 8//2 9//2
f 1//2 9//2 4//2
f 1//3 4//3 2//3
f 2//4 4//4 5//4
f 2//5 5//5 10//5
f 2//5 10//5 6//5
f 3//6 7//6 13//6
f 3//6 13//6 17//6
f 3//6 17//6 21//6
f 3//7 21//7 18//7
f 3//6 18//6 14//6
f 3//6 14//6 8//6
f 4//8 9//8 15//8
f 4//8 15//8 19//8
f 4//8 19//8 22//8
f 4//8 22//8 20//8
f 4//8 20//8 16//8
f 4//8 16//8 12//8
f 4//8 12//8 10//8
f 4//8 10//8 5//8
f 6//9 10//9 12//9
f 6//10 12//10 11//10
f 7//11 11//11 12//11
f 7//11 12//11 16//11
f 7//11 16//11 13//11
f 8//12 14//12 15//12
f 8//13 15//13 9//13
f 13//14 16//14 17//14
f 14//15 18//15 22//15
f 14//15 22//15 19//15
f 14//16 19//16 15//16
f 16//17 20//17 21//17
f 16//18 21//18 17//18
f 18//19 20//19 22//19
f 18//20 21//20 20//20
