# Blender 4.2.11 LTS
# www.blender.org
o tmp_export_geometry_7.005
v -0.261012 0.302159 0.152590
v -0.216512 0.302159 0.152590
v -0.261012 0.302159 0.196248
v -0.261012 0.350909 0.152590
v -0.216512 0.302159 0.196248
v -0.214009 0.304660 0.152590
v -0.261012 0.304660 0.198747
v -0.261012 0.350909 0.196248
v -0.216512 0.350909 0.152590
v -0.214009 0.304660 0.196248
v -0.216512 0.304660 0.198747
v -0.214009 0.348409 0.152590
v -0.261012 0.348409 0.198747
v -0.216512 0.350909 0.196248
v -0.214773 0.349172 0.152590
v -0.214009 0.348409 0.196248
v -0.216512 0.348409 0.198747
vn -0.0000 -1.0000 -0.0000
vn -1.0000 -0.0000 -0.0000
vn -0.0000 -0.0000 -1.0000
vn 0.7068 -0.7075 -0.0000
vn 0.7068 -0.7074 -0.0000
vn -0.0000 -0.7069 0.7073
vn -0.0000 -0.7069 0.7074
vn -0.0000 1.0000 -0.0000
vn 0.5768 -0.5774 0.5778
vn 1.0000 -0.0000 -0.0000
vn -0.0000 -0.0000 1.0000
vn -0.0000 0.7069 0.7074
vn 0.7067 0.7075 -0.0000
vn 0.7065 -0.0000 0.7077
vn 0.7070 0.7072 -0.0000
vn 0.5768 0.5774 0.5778
vn 0.7068 0.7075 -0.0000
s 0
f 1//1 2//1 5//1
f 1//1 5//1 3//1
f 1//2 3//2 7//2
f 1//2 7//2 13//2
f 1//2 13//2 8//2
f 1//2 8//2 4//2
f 1//3 4//3 9//3
f 1//3 9//3 15//3
f 1//3 15//3 12//3
f 1//3 12//3 6//3
f 1//3 6//3 2//3
f 2//4 6//4 10//4
f 2//5 10//5 5//5
f 3//6 5//6 11//6
f 3//7 11//7 7//7
f 4//8 8//8 14//8
f 4//8 14//8 9//8
f 5//9 10//9 11//9
f 6//10 12//10 16//10
f 6//10 16//10 10//10
f 7//11 11//11 17//11
f 7//11 17//11 13//11
f 8//12 13//12 17//12
f 8//12 17//12 14//12
f 9//13 14//13 15//13
f 10//14 16//14 17//14
f 10//14 17//14 11//14
f 12//15 15//15 16//15
f 14//16 17//16 16//16
f 14//17 16//17 15//17
