# Blender 4.2.11 LTS
# www.blender.org
o tmp_export_long-piece-3-collision.002
v -0.182003 0.213033 0.049996
v -0.182003 0.163033 0.049996
v -0.182003 0.213033 0.000006
v -0.207003 0.213033 0.050040
v -0.182003 0.163033 0.000006
v -0.207003 0.163033 0.050040
v -0.232003 0.213033 0.000006
v -0.232003 0.213033 0.050040
v -0.232003 0.163033 0.000006
v -0.231998 0.163033 0.050040
v -0.232003 0.169062 0.050040
vn 1.0000 -0.0000 -0.0000
vn -0.0000 1.0000 -0.0000
vn 0.0018 -0.0000 1.0000
vn -0.0000 -1.0000 -0.0000
vn -0.0000 -0.0000 -1.0000
vn -0.0000 -0.0000 1.0000
vn -1.0000 -0.0000 -0.0000
vn -1.0000 -0.0008 0.0001
s 0
f 1//1 2//1 5//1
f 1//1 5//1 3//1
f 1//2 3//2 7//2
f 1//2 7//2 8//2
f 1//2 8//2 4//2
f 1//3 4//3 6//3
f 1//3 6//3 2//3
f 2//4 6//4 10//4
f 2//4 10//4 9//4
f 2//4 9//4 5//4
f 3//5 5//5 9//5
f 3//5 9//5 7//5
f 4//6 8//6 11//6
f 4//6 11//6 10//6
f 4//6 10//6 6//6
f 7//7 9//7 11//7
f 7//7 11//7 8//7
f 9//8 10//8 11//8
