# Blender 4.2.11 LTS
# www.blender.org
o tmp_export_long-piece-3-collision.004
v -0.206991 0.213033 0.360001
v -0.206991 0.188047 0.360001
v -0.206991 0.213033 0.309994
v -0.232001 0.213033 0.360001
v -0.232001 0.188050 0.360001
v -0.232003 0.188050 0.207516
v -0.207003 0.188050 0.207516
v -0.206991 0.213001 0.309994
v -0.207003 0.213033 0.207516
v -0.232003 0.213033 0.207516
vn 1.0000 -0.0000 -0.0000
vn -0.0000 1.0000 -0.0000
vn -0.0000 -0.0000 1.0000
vn -0.0001 -1.0000 -0.0000
vn -0.0000 -1.0000 -0.0000
vn 1.0000 -0.0002 -0.0001
vn 1.0000 -0.0000 -0.0001
vn -1.0000 -0.0000 -0.0000
vn -0.0000 -0.0000 -1.0000
s 0
f 1//1 2//1 8//1
f 1//1 8//1 3//1
f 1//2 3//2 9//2
f 1//2 9//2 10//2
f 1//2 10//2 4//2
f 1//3 4//3 5//3
f 1//3 5//3 2//3
f 2//4 5//4 6//4
f 2//5 6//5 7//5
f 2//6 7//6 8//6
f 3//7 8//7 7//7
f 3//7 7//7 9//7
f 4//8 10//8 6//8
f 4//8 6//8 5//8
f 6//9 10//9 9//9
f 6//9 9//9 7//9
