# Blender 4.2.11 LTS
# www.blender.org
o tmp_export_long-piece-3-collision.003
v -0.232001 0.163033 0.050040
v -0.207008 0.163033 0.050040
v -0.232001 0.163033 0.154574
v -0.232003 0.169062 0.050040
v -0.207003 0.163052 0.050040
v -0.207003 0.163033 0.154574
v -0.232003 0.181660 0.154574
v -0.232003 0.213033 0.050040
v -0.207003 0.213033 0.050040
v -0.207003 0.188033 0.154574
v -0.232003 0.188033 0.154574
v -0.232003 0.213033 0.152496
v -0.207003 0.213033 0.152496
vn -0.0000 -1.0000 -0.0000
vn -1.0000 -0.0004 -0.0000
vn 0.0043 -0.0000 -1.0000
vn -0.0000 -0.0000 -1.0000
vn 0.9703 -0.2419 -0.0000
vn -0.0000 -0.0000 1.0000
vn -1.0000 -0.0001 -0.0000
vn -1.0000 -0.0000 -0.0000
vn 1.0000 -0.0000 -0.0000
vn -0.0000 1.0000 -0.0000
vn -0.0000 0.0828 0.9966
s 0
f 1//1 2//1 6//1
f 1//1 6//1 3//1
f 1//2 3//2 4//2
f 1//3 4//3 8//3
f 1//4 8//4 9//4
f 1//4 9//4 5//4
f 1//4 5//4 2//4
f 2//5 5//5 6//5
f 3//6 6//6 10//6
f 3//6 10//6 11//6
f 3//6 11//6 7//6
f 3//7 7//7 4//7
f 4//8 7//8 11//8
f 4//8 11//8 12//8
f 4//8 12//8 8//8
f 5//9 9//9 13//9
f 5//9 13//9 10//9
f 5//9 10//9 6//9
f 8//10 12//10 13//10
f 8//10 13//10 9//10
f 10//11 13//11 12//11
f 10//11 12//11 11//11
