# Blender 4.2.11 LTS
# www.blender.org
o tmp_export_interlocking-puzzle-4-1-collision.001
v 0.033989 0.033989 0.071264
v -0.041011 0.033989 0.071264
v 0.033989 -0.041011 0.071264
v 0.033989 0.033989 -0.040760
v -0.041011 -0.041011 0.071264
v -0.041011 0.033989 -0.040672
v 0.033989 -0.041011 -0.040672
v 0.033989 -0.002953 -0.040760
v -0.002953 0.033989 -0.040760
v -0.041011 -0.041011 -0.040672
v -0.002953 -0.002953 -0.040760
vn -0.0000 -0.0000 1.0000
vn 1.0000 -0.0000 -0.0000
vn -0.0000 1.0000 -0.0000
vn -1.0000 -0.0000 -0.0000
vn -0.0000 -1.0000 -0.0000
vn -0.0000 -0.0000 -1.0000
vn -0.0023 -0.0000 -1.0000
vn -0.0000 -0.0023 -1.0000
s 0
f 1//1 2//1 5//1
f 1//1 5//1 3//1
f 1//2 3//2 7//2
f 1//2 7//2 8//2
f 1//2 8//2 4//2
f 1//3 4//3 9//3
f 1//3 9//3 6//3
f 1//3 6//3 2//3
f 2//4 6//4 10//4
f 2//4 10//4 5//4
f 3//5 5//5 10//5
f 3//5 10//5 7//5
f 4//6 8//6 11//6
f 4//6 11//6 9//6
f 6//7 9//7 11//7
f 6//7 11//7 10//7
f 7//8 10//8 11//8
f 7//8 11//8 8//8
