# Blender 4.2.11 LTS
# www.blender.org
o tmp_export_interlocking-puzzle-4
v -7.612499 -7.477500 -0.090000
v -7.612499 -0.090000 -0.090000
v -7.612499 -7.477500 7.522500
v -7.612499 7.522500 7.522500
v -7.612499 7.522500 -7.477500
v -7.612499 -0.090000 -7.477500
v -29.999996 7.522500 7.522500
v -29.999996 -7.477500 7.522500
v -29.999996 7.522500 -7.477500
v -29.999996 -7.477500 -7.477500
v 30.000006 7.522500 7.522500
v 7.612494 7.522500 7.522500
v 30.000006 -7.477500 7.522500
v 7.612494 -7.477500 7.522500
v 7.612494 -7.477500 -0.090000
v 7.612494 -0.090000 -0.090000
v 7.612494 7.522500 -7.477500
v 7.612494 -0.090000 -7.477500
v 30.000006 7.522500 -7.477500
v 30.000006 -7.477500 -7.477500
vn 1.0000 -0.0000 -0.0000
vn -0.0000 -0.0000 1.0000
vn -1.0000 -0.0000 -0.0000
vn -0.0000 1.0000 -0.0000
vn -0.0000 -0.0000 -1.0000
vn -0.0000 -1.0000 -0.0000
s 0
f 1//1 2//1 3//1
f 3//1 2//1 4//1
f 4//1 2//1 5//1
f 5//1 2//1 6//1
f 4//2 7//2 3//2
f 3//2 7//2 8//2
f 7//3 9//3 8//3
f 8//3 9//3 10//3
f 4//4 5//4 7//4
f 7//4 5//4 9//4
f 11//2 12//2 13//2
f 13//2 12//2 14//2
f 15//3 14//3 16//3
f 16//3 14//3 12//3
f 16//3 12//3 17//3
f 17//3 18//3 16//3
f 11//4 19//4 12//4
f 12//4 19//4 17//4
f 13//1 20//1 11//1
f 11//1 20//1 19//1
f 16//2 2//2 15//2
f 15//2 2//2 1//2
f 19//5 20//5 18//5
f 18//5 20//5 10//5
f 18//5 10//5 6//5
f 6//5 10//5 9//5
f 6//5 9//5 5//5
f 18//5 17//5 19//5
f 20//6 15//6 10//6
f 10//6 15//6 1//6
f 10//6 1//6 8//6
f 8//6 1//6 3//6
f 20//6 13//6 15//6
f 15//6 13//6 14//6
f 16//4 18//4 2//4
f 2//4 18//4 6//4
