# Blender 4.2.11 LTS
# www.blender.org
o tmp_export_interlocking-puzzle-4-1-collision.003
v 0.033990 0.033987 0.040788
v -0.002953 0.033987 0.040788
v 0.033990 -0.002955 0.040788
v 0.033990 0.033987 -0.071273
v -0.002953 -0.002955 0.040788
v -0.041010 0.033987 0.040646
v -0.041010 -0.041013 0.040646
v 0.033990 -0.041005 0.040646
v 0.033990 -0.041005 -0.071273
v -0.041010 0.033987 -0.071273
v -0.041010 -0.041005 -0.071273
vn -0.0000 -0.0000 1.0000
vn 1.0000 -0.0000 -0.0000
vn -0.0000 1.0000 -0.0000
vn -0.0037 -0.0000 1.0000
vn -0.0000 -0.0037 1.0000
vn -0.0000 -0.0000 -1.0000
vn -1.0000 -0.0000 -0.0000
vn -0.0000 -1.0000 -0.0001
vn 0.0001 -1.0000 -0.0000
s 0
f 1//1 2//1 5//1
f 1//1 5//1 3//1
f 1//2 3//2 8//2
f 1//2 8//2 9//2
f 1//2 9//2 4//2
f 1//3 4//3 10//3
f 1//3 10//3 6//3
f 1//3 6//3 2//3
f 2//4 6//4 7//4
f 2//4 7//4 5//4
f 3//5 5//5 7//5
f 3//5 7//5 8//5
f 4//6 9//6 11//6
f 4//6 11//6 10//6
f 6//7 10//7 11//7
f 6//7 11//7 7//7
f 7//8 11//8 9//8
f 7//9 9//9 8//9
