# Blender 4.2.11 LTS
# www.blender.org
o tmp_export_bt_cube3x3_bricks.004
v 7.452194 5.952255 -17.547619
v 5.952194 4.452255 -17.547619
v 7.452194 4.452255 -19.047619
v 7.452194 5.952255 4.452381
v 5.952194 4.452255 4.452381
v 29.452194 5.952255 -17.547619
v 29.452194 5.952255 4.452381
v 30.952194 4.452255 -17.547619
v 29.452194 4.452255 5.952381
v 30.952194 4.452255 4.452381
v 30.952194 -17.547745 4.452381
v 30.952194 -17.547745 -17.547619
v 29.452194 -17.547745 5.952381
v 29.452194 -19.047745 -17.547619
v 29.452194 -19.047745 4.452381
v 7.452194 -17.547745 5.952381
v 7.452194 -19.047745 4.452381
v 5.952194 -17.547745 -17.547619
v 5.952194 -17.547745 4.452381
v 7.452194 -19.047745 -17.547619
v 7.452194 -17.547745 -19.047619
v 29.452194 -17.547745 -19.047619
v 29.452194 4.452255 -19.047619
v 4.452194 -17.547745 5.952381
v 4.452194 -19.047745 4.452381
v 4.452194 -19.047745 -17.547619
v 4.452194 4.452255 5.952381
v 4.452194 5.952255 7.452381
v 5.952194 4.452255 7.452381
v 4.452194 5.952255 4.452381
v -17.547806 5.952255 4.452381
v -17.547806 4.452255 5.952381
v -17.547806 5.952255 7.452381
v -19.047806 4.452255 7.452381
v -17.547806 -17.547745 5.952381
v -19.047806 -17.547745 7.452381
v -19.047806 4.452255 4.452381
v -19.047806 -17.547745 -17.547619
v -17.547806 5.952255 -17.547619
v -19.047806 -17.547745 4.452381
v -19.047806 4.452255 -17.547619
v -17.547806 4.452255 -19.047619
v -17.547806 -17.547745 -19.047619
v 4.452194 4.452255 -19.047619
v 4.452194 5.952255 -17.547619
v 5.952194 7.452255 -17.547619
v 4.452194 7.452255 -19.047619
v 5.952194 7.452255 4.452381
v 5.952194 29.452255 -17.547619
v 4.452194 29.452255 5.952381
v 5.952194 29.452255 4.452381
v 4.452194 7.452255 5.952381
v -17.547806 7.452255 5.952381
v -17.547806 29.452255 5.952381
v -19.047806 29.452255 4.452381
v -17.547806 30.952255 4.452381
v -17.547806 30.952255 -17.547619
v 4.452194 30.952255 4.452381
v 4.452194 30.952255 -17.547619
v 4.452194 29.452255 -19.047619
v -17.547806 29.452255 -19.047619
v -19.047806 29.452255 -17.547619
v -17.547806 7.452255 -19.047619
v -19.047806 7.452255 -17.547619
v -19.047806 7.452255 4.452381
v 4.452194 -17.547745 -19.047619
v -17.547806 -19.047745 -17.547619
v -17.547806 -19.047745 4.452381
v -19.047806 -17.547745 29.452381
v -17.547806 -19.047745 29.452381
v -19.047806 4.452255 29.452381
v -17.547806 -19.047745 7.452381
v 4.452194 -19.047745 7.452381
v 5.952194 -17.547745 7.452381
v 4.452194 -19.047745 29.452381
v 5.952194 -17.547745 29.452381
v 4.452194 -17.547745 30.952381
v 4.452194 4.452255 30.952381
v 5.952194 4.452255 29.452381
v 4.452194 5.952255 29.452381
v -17.547806 5.952255 29.452381
v -17.547806 4.452255 30.952381
v -17.547806 -17.547745 30.952381
v 7.452194 4.452255 5.952381
vn -0.7071 0.7071 -0.0000
vn -0.5774 0.5774 -0.5774
vn -0.0000 0.7071 -0.7071
vn -0.0000 1.0000 -0.0000
vn 0.7071 0.7071 -0.0000
vn -0.0000 0.7071 0.7071
vn 0.5774 0.5774 0.5774
vn 1.0000 -0.0000 -0.0000
vn 0.7071 -0.0000 0.7071
vn 0.7071 -0.7071 -0.0000
vn 0.5774 -0.5774 0.5774
vn -0.0000 -0.7071 0.7071
vn -0.0000 -1.0000 -0.0000
vn -0.7071 -0.7071 -0.0000
vn -0.5774 -0.5774 0.5774
vn -0.0000 -0.7071 -0.7071
vn -0.5774 -0.5774 -0.5774
vn 0.7071 -0.0000 -0.7071
vn 0.5774 -0.5774 -0.5774
vn -0.0000 -0.0000 -1.0000
vn 0.5774 0.5774 -0.5774
vn -0.7071 -0.0000 -0.7071
vn -0.7071 -0.0000 0.7071
vn -0.5774 0.5774 0.5774
vn -1.0000 -0.0000 -0.0000
vn -0.0000 -0.0000 1.0000
s 0
f 5//1 1//1 2//1
f 1//2 3//2 2//2
f 6//3 3//3 1//3
f 7//4 1//4 4//4
f 4//1 1//1 5//1
f 6//4 1//4 7//4
f 7//5 8//5 6//5
f 10//5 8//5 7//5
f 4//6 9//6 7//6
f 9//7 10//7 7//7
f 11//8 8//8 10//8
f 10//9 9//9 11//9
f 12//8 8//8 11//8
f 11//10 14//10 12//10
f 11//9 9//9 13//9
f 13//11 15//11 11//11
f 15//10 14//10 11//10
f 13//12 16//12 15//12
f 17//13 14//13 15//13
f 15//12 16//12 17//12
f 17//14 18//14 20//14
f 19//14 18//14 17//14
f 20//13 14//13 17//13
f 16//15 19//15 17//15
f 22//16 20//16 21//16
f 20//17 18//17 21//17
f 14//16 20//16 22//16
f 12//18 22//18 8//18
f 12//19 14//19 22//19
f 21//20 23//20 22//20
f 8//18 22//18 23//18
f 3//20 23//20 21//20
f 23//3 3//3 6//3
f 6//21 8//21 23//21
f 21//22 18//22 3//22
f 19//10 26//10 18//10
f 19//23 16//23 5//23
f 19//9 27//9 24//9
f 24//11 25//11 19//11
f 25//10 26//10 19//10
f 5//9 27//9 19//9
f 27//3 32//3 28//3
f 28//21 29//21 27//21
f 29//18 24//18 27//18
f 31//6 27//6 30//6
f 27//7 5//7 30//7
f 32//6 27//6 31//6
f 28//3 32//3 33//3
f 33//2 32//2 34//2
f 32//22 36//22 34//22
f 37//23 35//23 32//23
f 35//22 36//22 32//22
f 32//24 31//24 37//24
f 37//25 38//25 40//25
f 41//25 38//25 37//25
f 40//23 35//23 37//23
f 31//1 39//1 37//1
f 37//1 39//1 41//1
f 39//2 42//2 41//2
f 42//22 38//22 41//22
f 45//3 42//3 39//3
f 42//20 44//20 43//20
f 43//22 38//22 42//22
f 44//3 42//3 45//3
f 45//21 2//21 44//21
f 30//10 45//10 48//10
f 30//5 2//5 45//5
f 48//10 45//10 46//10
f 46//19 45//19 47//19
f 45//16 39//16 47//16
f 52//11 30//11 48//11
f 48//8 49//8 51//8
f 46//8 49//8 48//8
f 48//9 50//9 52//9
f 51//9 50//9 48//9
f 52//26 54//26 53//26
f 52//12 53//12 30//12
f 50//26 54//26 52//26
f 55//23 53//23 54//23
f 54//24 56//24 55//24
f 54//6 50//6 56//6
f 58//4 57//4 56//4
f 56//1 57//1 55//1
f 56//6 50//6 58//6
f 59//4 57//4 58//4
f 58//5 49//5 59//5
f 51//5 49//5 58//5
f 50//7 51//7 58//7
f 60//3 61//3 59//3
f 59//21 49//21 60//21
f 59//3 61//3 57//3
f 57//2 61//2 62//2
f 61//22 64//22 62//22
f 61//20 60//20 63//20
f 63//22 64//22 61//22
f 31//14 64//14 39//14
f 39//17 64//17 63//17
f 65//14 64//14 31//14
f 62//25 64//25 55//25
f 55//25 64//25 65//25
f 65//23 53//23 55//23
f 53//15 65//15 31//15
f 63//20 60//20 47//20
f 47//16 39//16 63//16
f 55//1 57//1 62//1
f 49//18 47//18 60//18
f 30//12 53//12 31//12
f 46//18 47//18 49//18
f 43//20 44//20 66//20
f 2//18 66//18 44//18
f 18//18 66//18 2//18
f 18//19 26//19 66//19
f 66//16 67//16 43//16
f 26//16 67//16 66//16
f 67//17 38//17 43//17
f 68//14 38//14 67//14
f 67//13 26//13 68//13
f 40//14 38//14 68//14
f 35//15 40//15 68//15
f 25//12 35//12 68//12
f 68//13 26//13 25//13
f 72//17 36//17 35//17
f 71//25 36//25 69//25
f 69//14 36//14 70//14
f 70//14 36//14 72//14
f 34//25 36//25 71//25
f 24//16 72//16 35//16
f 72//13 73//13 70//13
f 73//16 72//16 24//16
f 76//10 73//10 74//10
f 74//19 73//19 24//19
f 70//13 73//13 75//13
f 75//10 73//10 76//10
f 74//8 29//8 76//8
f 76//9 78//9 77//9
f 77//11 75//11 76//11
f 76//8 29//8 79//8
f 79//9 78//9 76//9
f 79//5 29//5 80//5
f 78//7 79//7 80//7
f 28//4 33//4 80//4
f 80//5 29//5 28//5
f 80//4 33//4 81//4
f 81//6 78//6 80//6
f 81//1 33//1 71//1
f 82//6 78//6 81//6
f 82//24 81//24 71//24
f 71//23 83//23 82//23
f 78//26 82//26 77//26
f 77//26 82//26 83//26
f 75//12 83//12 70//12
f 83//15 69//15 70//15
f 69//23 83//23 71//23
f 77//12 83//12 75//12
f 74//18 24//18 29//18
f 71//1 33//1 34//1
f 24//12 35//12 25//12
f 5//5 2//5 30//5
f 3//22 18//22 2//22
f 13//26 84//26 16//26
f 5//23 16//23 84//23
f 84//24 4//24 5//24
f 84//6 9//6 4//6
f 9//26 84//26 13//26
