# Blender 4.2.11 LTS
# www.blender.org
o tmp_export_obj_8-collision.030
v 0.492494 0.666472 0.012626
v 0.482265 0.666472 0.012626
v 0.492494 0.478917 0.012626
v 0.479855 0.666472 0.000000
v 0.292319 0.666472 0.000000
v 0.292319 0.666453 0.012599
v 0.292319 0.476507 0.012626
v 0.492396 0.477506 0.012626
v 0.479855 0.478917 0.000000
v 0.292319 0.478917 0.000000
v 0.292319 0.466277 0.012626
v 0.492161 0.476095 0.012626
v 0.491769 0.474743 0.012626
v 0.491240 0.473430 0.012626
v 0.490554 0.472195 0.012626
v 0.489731 0.471039 0.012626
v 0.488790 0.469981 0.012626
v 0.487732 0.469040 0.012626
v 0.486576 0.468217 0.012626
v 0.485342 0.467531 0.012626
v 0.484029 0.467002 0.012626
v 0.482657 0.466610 0.012626
v 0.481266 0.466375 0.012626
v 0.479855 0.466277 0.012626
vn -0.0000 -0.0000 1.0000
vn 0.7067 -0.0000 -0.7075
vn -0.0000 1.0000 -0.0000
vn -0.0001 1.0000 0.0015
vn -0.0001 0.0001 1.0000
vn 0.7059 -0.0490 -0.7066
vn -0.0000 -0.0000 -1.0000
vn -1.0000 -0.0000 -0.0000
vn 0.6981 -0.1163 -0.7065
vn 0.6797 -0.1970 -0.7065
vn 0.6563 -0.2645 -0.7067
vn 0.6184 -0.3435 -0.7068
vn 0.5763 -0.4103 -0.7068
vn 0.5287 -0.4700 -0.7068
vn 0.4700 -0.5287 -0.7068
vn 0.4103 -0.5763 -0.7068
vn 0.3435 -0.6183 -0.7069
vn 0.2645 -0.6563 -0.7067
vn 0.1944 -0.6805 -0.7065
vn 0.1180 -0.6979 -0.7064
vn 0.0490 -0.7059 -0.7066
vn -0.0000 -0.7067 -0.7075
s 0
f 1//1 2//1 7//1
f 1//1 7//1 11//1
f 1//1 11//1 24//1
f 1//1 24//1 23//1
f 1//1 23//1 22//1
f 1//1 22//1 21//1
f 1//1 21//1 20//1
f 1//1 20//1 19//1
f 1//1 19//1 18//1
f 1//1 18//1 17//1
f 1//1 17//1 16//1
f 1//1 16//1 15//1
f 1//1 15//1 14//1
f 1//1 14//1 13//1
f 1//1 13//1 12//1
f 1//1 12//1 8//1
f 1//1 8//1 3//1
f 1//2 3//2 9//2
f 1//2 9//2 4//2
f 1//3 4//3 5//3
f 1//3 5//3 2//3
f 2//4 5//4 6//4
f 2//5 6//5 7//5
f 3//6 8//6 9//6
f 4//7 9//7 10//7
f 4//7 10//7 5//7
f 5//8 10//8 11//8
f 5//8 11//8 7//8
f 5//8 7//8 6//8
f 8//9 12//9 9//9
f 9//10 12//10 13//10
f 9//11 13//11 14//11
f 9//12 14//12 15//12
f 9//13 15//13 16//13
f 9//14 16//14 17//14
f 9//15 17//15 18//15
f 9//16 18//16 19//16
f 9//17 19//17 20//17
f 9//18 20//18 21//18
f 9//19 21//19 22//19
f 9//20 22//20 23//20
f 9//21 23//21 24//21
f 9//22 24//22 11//22
f 9//22 11//22 10//22
