# Blender 4.2.11 LTS
# www.blender.org
o tmp_export_obj_8-collision.022
v 0.102259 0.532279 0.118865
v 0.102265 0.666530 0.041319
v 0.089666 0.532279 0.118865
v 0.102267 0.507830 0.118865
v 0.102267 0.532279 0.118792
v 0.102267 0.666530 0.041298
v 0.089666 0.666530 0.041319
v 0.089666 0.478920 0.118865
v 0.102267 0.476615 0.118865
v 0.102267 0.666530 0.012638
v 0.089666 0.666530 0.015009
v 0.089666 0.478920 0.015009
v 0.089683 0.478269 0.118865
v 0.089849 0.476615 0.118865
v 0.102267 0.476615 0.012648
v 0.092039 0.666530 0.012638
v 0.102267 0.637211 0.012628
v 0.089988 0.666530 0.014687
v 0.092039 0.637211 0.012628
v 0.092039 0.478920 0.012628
v 0.092120 0.477507 0.012628
v 0.089761 0.477247 0.015009
v 0.089683 0.478269 0.035693
v 0.089848 0.476615 0.034549
v 0.101816 0.476615 0.012628
v 0.102267 0.476707 0.012628
v 0.091694 0.666530 0.012981
v 0.092271 0.476615 0.012628
v 0.089869 0.476615 0.015009
vn -0.0000 0.5002 0.8659
vn -0.0000 -0.0000 1.0000
vn 0.0020 -0.0000 1.0000
vn 0.9949 0.0003 0.1013
vn 0.9932 0.0585 0.1011
vn -0.0000 1.0000 -0.0000
vn 0.9976 0.0346 0.0597
vn -1.0000 -0.0000 -0.0000
vn 1.0000 -0.0000 -0.0000
vn -0.9997 -0.0246 -0.0000
vn -0.0000 -1.0000 -0.0000
vn -0.0000 0.0004 -1.0000
vn -0.7076 0.0001 -0.7066
vn -0.7084 -0.0000 -0.7059
vn -0.7078 -0.0402 -0.7053
vn -0.9984 -0.0567 -0.0010
vn -0.9970 -0.0770 -0.0000
vn -0.9950 -0.1001 0.0002
vn -0.9909 -0.1349 -0.0000
vn 0.0451 -0.2182 -0.9749
vn -0.7049 0.0003 -0.7093
vn -0.0000 -0.0000 -1.0000
vn -0.7070 0.0002 -0.7072
vn -0.6990 -0.1188 -0.7052
vn -0.6990 -0.1187 -0.7052
vn -0.9859 -0.1674 -0.0011
s 0
f 1//1 2//1 7//1
f 1//1 7//1 3//1
f 1//2 3//2 8//2
f 1//2 8//2 13//2
f 1//2 13//2 14//2
f 1//2 14//2 9//2
f 1//3 9//3 4//3
f 1//4 4//4 5//4
f 1//5 5//5 2//5
f 2//6 6//6 10//6
f 2//6 10//6 16//6
f 2//6 16//6 27//6
f 2//6 27//6 18//6
f 2//6 18//6 11//6
f 2//6 11//6 7//6
f 2//7 5//7 6//7
f 3//8 7//8 11//8
f 3//8 11//8 12//8
f 3//8 12//8 8//8
f 4//9 9//9 15//9
f 4//9 15//9 26//9
f 4//9 26//9 17//9
f 4//9 17//9 10//9
f 4//9 10//9 6//9
f 4//9 6//9 5//9
f 8//10 12//10 23//10
f 8//10 23//10 13//10
f 9//11 14//11 24//11
f 9//11 24//11 29//11
f 9//11 29//11 28//11
f 9//11 28//11 25//11
f 9//11 25//11 15//11
f 10//12 17//12 19//12
f 10//12 19//12 16//12
f 11//13 18//13 19//13
f 11//14 19//14 20//14
f 11//14 20//14 12//14
f 12//15 20//15 21//15
f 12//15 21//15 22//15
f 12//16 22//16 23//16
f 13//17 23//17 22//17
f 13//18 22//18 14//18
f 14//19 22//19 24//19
f 15//20 25//20 26//20
f 16//21 19//21 27//21
f 17//22 26//22 25//22
f 17//22 25//22 28//22
f 17//22 28//22 21//22
f 17//22 21//22 20//22
f 17//22 20//22 19//22
f 18//23 27//23 19//23
f 21//24 28//24 29//24
f 21//25 29//25 22//25
f 22//26 29//26 24//26
