# Blender 4.2.11 LTS
# www.blender.org
o tmp_export_obj_8-collision.012
v 0.158033 0.476504 0.201868
v 0.102268 0.476596 0.201868
v 0.158033 0.463906 0.201868
v 0.158033 0.476504 0.112523
v 0.089854 0.476596 0.201868
v 0.102268 0.476596 0.112523
v 0.104671 0.463906 0.201868
v 0.132517 0.463906 0.112523
v 0.158033 0.463907 0.112523
v 0.089854 0.476557 0.201868
v 0.089854 0.476596 0.112523
v 0.104064 0.463919 0.201868
v 0.104284 0.463914 0.112523
v 0.104671 0.463906 0.112523
v 0.090094 0.475460 0.201868
v 0.089854 0.476557 0.142765
v 0.089907 0.476303 0.112523
v 0.089854 0.476564 0.112523
v 0.104030 0.463920 0.201868
v 0.104030 0.463920 0.112523
v 0.104177 0.463916 0.112523
v 0.090221 0.474884 0.201868
v 0.090221 0.474884 0.112523
v 0.103443 0.463978 0.201868
v 0.102582 0.464064 0.112523
v 0.090768 0.473263 0.201868
v 0.090301 0.474637 0.112523
v 0.102322 0.464090 0.201868
v 0.102322 0.464090 0.112523
v 0.091249 0.472248 0.201868
v 0.090768 0.473263 0.112523
v 0.100647 0.464454 0.201868
v 0.100647 0.464454 0.112523
v 0.091503 0.471715 0.201868
v 0.091503 0.471715 0.112523
v 0.099031 0.465007 0.201868
v 0.099031 0.465007 0.112523
v 0.092097 0.470762 0.201868
v 0.092410 0.470262 0.112523
v 0.098497 0.465259 0.201868
v 0.097716 0.465628 0.112523
v 0.092410 0.470262 0.201868
v 0.092571 0.470058 0.112523
v 0.097483 0.465740 0.201868
v 0.097483 0.465740 0.112523
v 0.093478 0.468921 0.201868
v 0.093478 0.468921 0.112523
v 0.096028 0.466645 0.201868
v 0.096248 0.466507 0.112523
v 0.094686 0.467711 0.201868
v 0.093658 0.468737 0.112523
v 0.096028 0.466645 0.112523
v 0.094686 0.467711 0.112523
vn -0.0000 -0.0000 1.0000
vn 0.0002 -0.0000 1.0000
vn 1.0000 -0.0000 -0.0000
vn 0.0016 1.0000 -0.0000
vn -0.0000 1.0000 -0.0000
vn -0.0000 -1.0000 -0.0000
vn -0.0000 -0.0000 -1.0000
vn -0.0001 -0.0000 -1.0000
vn -1.0000 -0.0000 -0.0000
vn -1.0000 0.0003 -0.0000
vn -0.0205 -0.9998 -0.0000
vn -0.0193 -0.9998 -0.0000
vn -0.9787 -0.2052 -0.0000
vn -0.9768 -0.2140 -0.0000
vn -0.0375 -0.9993 -0.0000
vn -0.0254 -0.9997 -0.0000
vn -0.0232 -0.9997 -0.0000
vn -0.9766 -0.2149 -0.0000
vn -0.9797 -0.2005 -0.0000
vn -0.9764 -0.2159 -0.0000
vn -0.0989 -0.9951 -0.0000
vn -0.0990 -0.9951 -0.0000
vn -0.9513 -0.3082 -0.0000
vn -0.9475 -0.3199 -0.0000
vn -0.0992 -0.9951 -0.0000
vn -0.0998 -0.9950 -0.0000
vn -0.9468 -0.3219 -0.0000
vn -0.9038 -0.4279 -0.0000
vn -0.2123 -0.9772 -0.0000
vn -0.9035 -0.4286 -0.0000
vn -0.9030 -0.4297 -0.0000
vn -0.3238 -0.9461 -0.0000
vn -0.8486 -0.5291 -0.0000
vn -0.8482 -0.5297 -0.0000
vn -0.4271 -0.9042 -0.0000
vn -0.8474 -0.5309 -0.0000
vn -0.7861 -0.6181 -0.0000
vn -0.4282 -0.9037 -0.0000
vn -0.4317 -0.9020 -0.0000
vn -0.7821 -0.6231 -0.0000
vn -0.7814 -0.6240 -0.0000
vn -0.5284 -0.8490 -0.0000
vn -0.5280 -0.8492 -0.0000
vn -0.7142 -0.7000 -0.0000
vn -0.7077 -0.7066 -0.0000
vn -0.6221 -0.7830 -0.0000
vn -0.5307 -0.8476 -0.0000
vn -0.7065 -0.7077 -0.0000
s 0
f 1//1 2//1 5//1
f 1//1 5//1 10//1
f 1//1 10//1 15//1
f 1//1 15//1 22//1
f 1//1 22//1 26//1
f 1//1 26//1 30//1
f 1//1 30//1 34//1
f 1//1 34//1 38//1
f 1//1 38//1 42//1
f 1//1 42//1 46//1
f 1//1 46//1 50//1
f 1//1 50//1 48//1
f 1//1 48//1 44//1
f 1//1 44//1 40//1
f 1//1 40//1 36//1
f 1//1 36//1 32//1
f 1//1 32//1 28//1
f 1//1 28//1 24//1
f 1//1 24//1 19//1
f 1//2 19//2 12//2
f 1//1 12//1 7//1
f 1//1 7//1 3//1
f 1//3 3//3 9//3
f 1//3 9//3 4//3
f 1//4 4//4 6//4
f 1//4 6//4 2//4
f 2//5 6//5 11//5
f 2//5 11//5 5//5
f 3//6 7//6 14//6
f 3//6 14//6 8//6
f 3//6 8//6 9//6
f 4//7 9//7 8//7
f 4//7 8//7 14//7
f 4//7 14//7 13//7
f 4//7 13//7 21//7
f 4//8 21//8 20//8
f 4//7 20//7 25//7
f 4//7 25//7 29//7
f 4//7 29//7 33//7
f 4//7 33//7 37//7
f 4//7 37//7 41//7
f 4//7 41//7 45//7
f 4//7 45//7 49//7
f 4//7 49//7 52//7
f 4//7 52//7 53//7
f 4//7 53//7 51//7
f 4//7 51//7 47//7
f 4//7 47//7 43//7
f 4//7 43//7 39//7
f 4//7 39//7 35//7
f 4//7 35//7 31//7
f 4//7 31//7 27//7
f 4//7 27//7 23//7
f 4//7 23//7 17//7
f 4//7 17//7 18//7
f 4//7 18//7 11//7
f 4//7 11//7 6//7
f 5//9 11//9 18//9
f 5//10 18//10 16//10
f 5//9 16//9 10//9
f 7//11 12//11 13//11
f 7//12 13//12 14//12
f 10//13 16//13 17//13
f 10//14 17//14 15//14
f 12//15 19//15 20//15
f 12//16 20//16 21//16
f 12//17 21//17 13//17
f 15//18 17//18 22//18
f 16//19 18//19 17//19
f 17//20 23//20 22//20
f 19//21 24//21 20//21
f 20//22 24//22 25//22
f 22//23 23//23 27//23
f 22//24 27//24 26//24
f 24//25 28//25 25//25
f 25//26 28//26 29//26
f 26//27 27//27 31//27
f 26//28 31//28 30//28
f 28//29 32//29 33//29
f 28//29 33//29 29//29
f 30//30 31//30 35//30
f 30//31 35//31 34//31
f 32//32 36//32 37//32
f 32//32 37//32 33//32
f 34//33 35//33 38//33
f 35//34 39//34 38//34
f 36//35 40//35 37//35
f 37//35 40//35 41//35
f 38//36 39//36 42//36
f 39//37 43//37 42//37
f 40//38 44//38 41//38
f 41//39 44//39 45//39
f 42//40 43//40 46//40
f 43//41 47//41 46//41
f 44//42 48//42 49//42
f 44//43 49//43 45//43
f 46//44 47//44 51//44
f 46//45 51//45 50//45
f 48//46 50//46 53//46
f 48//46 53//46 52//46
f 48//47 52//47 49//47
f 50//48 51//48 53//48
