# Blender 4.2.11 LTS
# www.blender.org
o tmp_export_obj_8-collision.015
v 0.292299 0.466278 0.012637
v 0.292299 0.463905 0.015006
v 0.292299 0.476504 0.012637
v 0.479866 0.466278 0.012637
v 0.292299 0.463905 0.035028
v 0.479866 0.463905 0.015006
v 0.292299 0.476504 0.035028
v 0.482243 0.476576 0.012637
v 0.481272 0.466357 0.012637
v 0.426496 0.463905 0.112601
v 0.481530 0.464000 0.015006
v 0.480500 0.463920 0.035693
v 0.480242 0.463914 0.112601
v 0.479866 0.463905 0.112601
v 0.426496 0.476504 0.112601
v 0.482243 0.476576 0.112601
v 0.492247 0.476576 0.012637
v 0.482659 0.466594 0.012637
v 0.483194 0.464282 0.015006
v 0.482204 0.464090 0.035693
v 0.482204 0.464090 0.112601
v 0.480500 0.463920 0.112601
v 0.493991 0.476576 0.112601
v 0.493278 0.476576 0.013645
v 0.492168 0.476094 0.012637
v 0.484026 0.466986 0.012637
v 0.484819 0.464747 0.015006
v 0.483868 0.464454 0.035693
v 0.483868 0.464454 0.112601
v 0.494664 0.476573 0.112601
v 0.494664 0.476576 0.107444
v 0.494645 0.476576 0.015006
v 0.494486 0.475567 0.015006
v 0.491772 0.474733 0.012637
v 0.485334 0.467528 0.012637
v 0.484125 0.464540 0.112601
v 0.486364 0.465391 0.015006
v 0.485492 0.465006 0.035693
v 0.485492 0.465006 0.112601
v 0.494367 0.475144 0.112601
v 0.494664 0.476558 0.107072
v 0.494684 0.476576 0.035135
v 0.494308 0.474885 0.112601
v 0.494308 0.474885 0.035693
v 0.494011 0.473951 0.015006
v 0.491237 0.473426 0.012637
v 0.493377 0.472396 0.015006
v 0.486582 0.468214 0.012637
v 0.487830 0.466205 0.015006
v 0.487037 0.465741 0.035693
v 0.487037 0.465741 0.112601
v 0.493753 0.473263 0.112601
v 0.493753 0.473263 0.035693
v 0.490544 0.472186 0.012637
v 0.492564 0.470924 0.015006
v 0.493139 0.471955 0.112601
v 0.493020 0.471715 0.112601
v 0.493020 0.471715 0.035693
v 0.487731 0.469033 0.012637
v 0.489216 0.467178 0.015006
v 0.488503 0.466646 0.035693
v 0.488503 0.466646 0.112601
v 0.487275 0.465881 0.112601
v 0.489732 0.471031 0.012637
v 0.492109 0.470262 0.112601
v 0.492109 0.470262 0.035693
v 0.491594 0.469554 0.015006
v 0.488781 0.469976 0.012637
v 0.490465 0.468298 0.015006
v 0.489831 0.467710 0.035693
v 0.489831 0.467710 0.112601
v 0.491059 0.468922 0.112601
v 0.491059 0.468922 0.035693
v 0.490029 0.467898 0.112601
vn -1.0000 -0.0000 -0.0000
vn -0.0000 -0.0000 -1.0000
vn -0.0000 -0.7064 -0.7078
vn -0.0000 -1.0000 -0.0000
vn -0.0004 1.0000 -0.0000
vn 0.0398 -0.7059 -0.7072
vn -0.5005 -0.0000 0.8658
vn 0.0405 -0.7061 -0.7070
vn 0.0573 -0.9984 -0.0010
vn 0.0236 -0.9997 -0.0000
vn 0.0230 -0.9997 -0.0000
vn -0.0013 1.0000 0.0022
vn -0.0000 1.0000 -0.0000
vn 0.1190 -0.6969 -0.7072
vn 0.1180 -0.6974 -0.7069
vn -0.0000 -0.0000 1.0000
vn 0.1314 -0.9913 -0.0000
vn 0.0992 -0.9951 0.0002
vn 0.0780 -0.9970 -0.0000
vn 0.1668 -0.9860 -0.0012
vn 0.0242 -0.9997 -0.0000
vn 0.6948 -0.1141 -0.7100
vn 0.1948 -0.6794 -0.7074
vn 0.1946 -0.6795 -0.7074
vn 0.2753 -0.9614 -0.0010
vn 0.2480 -0.9688 -0.0000
vn 0.2141 -0.9768 0.0002
vn 0.1905 -0.9817 -0.0000
vn 0.0055 1.0000 0.0007
vn 0.7011 -0.1100 -0.7045
vn 0.6958 -0.1210 -0.7080
vn 0.6782 -0.1975 -0.7078
vn 0.2706 -0.6527 -0.7076
vn 0.3153 -0.9490 0.0002
vn 0.2942 -0.9557 -0.0000
vn 0.2719 -0.6526 -0.7072
vn 0.3845 -0.9231 -0.0010
vn 0.3592 -0.9333 -0.0000
vn 0.3229 -0.9464 0.0003
vn 0.9791 -0.2036 0.0005
vn 0.9955 -0.0949 0.0003
vn 0.9325 0.3611 0.0003
vn 0.9879 -0.1551 -0.0019
vn 0.9805 -0.1967 0.0002
vn 0.9789 -0.2045 0.0003
vn 0.9747 -0.2233 0.0002
vn 0.9675 -0.2528 -0.0000
vn 0.9593 -0.2822 -0.0010
vn 0.6783 -0.1996 -0.7071
vn 0.6547 -0.2670 -0.7072
vn 0.6542 -0.2676 -0.7074
vn 0.3405 -0.6196 -0.7072
vn 0.3436 -0.6190 -0.7063
vn 0.4853 -0.8744 -0.0010
vn 0.4609 -0.8875 -0.0000
vn 0.4292 -0.9032 0.0003
vn 0.4036 -0.9149 -0.0000
vn 0.9462 -0.3237 0.0002
vn 0.9529 -0.3033 -0.0000
vn 0.9364 -0.3510 -0.0000
vn 0.9259 -0.3777 -0.0010
vn 0.6188 -0.3414 -0.7075
vn 0.6158 -0.3442 -0.7088
vn 0.9173 -0.3983 -0.0000
vn 0.9053 -0.4249 0.0003
vn 0.8957 -0.4447 0.0002
vn 0.8859 -0.4638 -0.0000
vn 0.8756 -0.4830 -0.0008
vn 0.4100 -0.5754 -0.7077
vn 0.4069 -0.5795 -0.7062
vn 0.5746 -0.8184 -0.0012
vn 0.5483 -0.8363 -0.0000
vn 0.5288 -0.8487 0.0002
vn 0.5078 -0.8615 -0.0000
vn 0.5052 -0.8630 -0.0000
vn 0.5771 -0.4059 -0.7086
vn 0.8666 -0.4990 -0.0000
vn 0.8473 -0.5312 0.0004
vn 0.8239 -0.5667 -0.0000
vn 0.8161 -0.5780 -0.0005
vn 0.5764 -0.4083 -0.7079
vn 0.4722 -0.5252 -0.7079
vn 0.4718 -0.5258 -0.7078
vn 0.6549 -0.7557 -0.0000
vn 0.6256 -0.7802 0.0003
vn 0.5980 -0.8015 -0.0000
vn 0.6679 -0.7443 -0.0007
vn 0.5252 -0.4725 -0.7078
vn 0.5244 -0.4730 -0.7080
vn 0.7871 -0.6169 0.0003
vn 0.8087 -0.5882 -0.0000
vn 0.7630 -0.6464 -0.0000
vn 0.7434 -0.6688 -0.0012
vn 0.7241 -0.6897 -0.0000
vn 0.7052 -0.7090 0.0002
vn 0.6872 -0.7265 0.0001
vn 0.6800 -0.7332 -0.0000
s 0
f 1//1 2//1 5//1
f 1//1 5//1 7//1
f 1//1 7//1 3//1
f 1//2 3//2 8//2
f 1//2 8//2 17//2
f 1//2 17//2 25//2
f 1//2 25//2 34//2
f 1//2 34//2 46//2
f 1//2 46//2 54//2
f 1//2 54//2 64//2
f 1//2 64//2 68//2
f 1//2 68//2 59//2
f 1//2 59//2 48//2
f 1//2 48//2 35//2
f 1//2 35//2 26//2
f 1//2 26//2 18//2
f 1//2 18//2 9//2
f 1//2 9//2 4//2
f 1//3 4//3 6//3
f 1//3 6//3 2//3
f 2//4 6//4 14//4
f 2//4 14//4 10//4
f 2//4 10//4 5//4
f 3//5 7//5 16//5
f 3//5 16//5 8//5
f 4//6 9//6 6//6
f 5//7 10//7 15//7
f 5//7 15//7 7//7
f 6//8 9//8 11//8
f 6//9 11//9 12//9
f 6//10 12//10 13//10
f 6//11 13//11 14//11
f 7//12 15//12 16//12
f 8//13 16//13 23//13
f 8//13 23//13 31//13
f 8//13 31//13 42//13
f 8//13 42//13 32//13
f 8//13 32//13 24//13
f 8//13 24//13 17//13
f 9//14 18//14 19//14
f 9//15 19//15 11//15
f 10//16 14//16 13//16
f 10//16 13//16 22//16
f 10//16 22//16 21//16
f 10//16 21//16 29//16
f 10//16 29//16 36//16
f 10//16 36//16 39//16
f 10//16 39//16 51//16
f 10//16 51//16 63//16
f 10//16 63//16 62//16
f 10//16 62//16 71//16
f 10//16 71//16 74//16
f 10//16 74//16 72//16
f 10//16 72//16 65//16
f 10//16 65//16 57//16
f 10//16 57//16 56//16
f 10//16 56//16 52//16
f 10//16 52//16 43//16
f 10//16 43//16 40//16
f 10//16 40//16 30//16
f 10//16 30//16 23//16
f 10//16 23//16 16//16
f 10//16 16//16 15//16
f 11//17 20//17 21//17
f 11//18 21//18 22//18
f 11//19 22//19 12//19
f 11//20 19//20 20//20
f 12//21 22//21 13//21
f 17//22 24//22 25//22
f 18//23 26//23 27//23
f 18//24 27//24 19//24
f 19//25 27//25 28//25
f 19//26 28//26 29//26
f 19//27 29//27 21//27
f 19//28 21//28 20//28
f 23//29 30//29 31//29
f 24//30 32//30 33//30
f 24//31 33//31 25//31
f 25//32 33//32 34//32
f 26//33 35//33 27//33
f 27//34 36//34 29//34
f 27//35 29//35 28//35
f 27//36 35//36 37//36
f 27//37 37//37 38//37
f 27//38 38//38 39//38
f 27//39 39//39 36//39
f 30//40 40//40 41//40
f 30//41 41//41 42//41
f 30//42 42//42 31//42
f 32//43 42//43 33//43
f 33//44 42//44 41//44
f 33//45 41//45 40//45
f 33//46 40//46 43//46
f 33//47 43//47 44//47
f 33//48 44//48 45//48
f 33//49 45//49 34//49
f 34//50 45//50 47//50
f 34//51 47//51 46//51
f 35//52 48//52 37//52
f 37//53 48//53 49//53
f 37//54 49//54 50//54
f 37//55 50//55 51//55
f 37//56 51//56 39//56
f 37//57 39//57 38//57
f 43//58 52//58 45//58
f 43//59 45//59 44//59
f 45//60 52//60 53//60
f 45//61 53//61 47//61
f 46//62 47//62 55//62
f 46//63 55//63 54//63
f 47//64 53//64 52//64
f 47//65 52//65 56//65
f 47//66 56//66 57//66
f 47//67 57//67 58//67
f 47//68 58//68 55//68
f 48//69 59//69 60//69
f 48//70 60//70 49//70
f 49//71 60//71 61//71
f 49//72 61//72 62//72
f 49//73 62//73 63//73
f 49//74 63//74 51//74
f 49//75 51//75 50//75
f 54//76 55//76 64//76
f 55//77 58//77 57//77
f 55//78 57//78 65//78
f 55//79 65//79 66//79
f 55//80 66//80 67//80
f 55//81 67//81 64//81
f 59//82 68//82 69//82
f 59//83 69//83 60//83
f 60//84 70//84 71//84
f 60//85 71//85 62//85
f 60//86 62//86 61//86
f 60//87 69//87 70//87
f 64//88 67//88 69//88
f 64//89 69//89 68//89
f 65//90 72//90 67//90
f 65//91 67//91 66//91
f 67//92 72//92 73//92
f 67//93 73//93 69//93
f 69//94 73//94 72//94
f 69//95 72//95 74//95
f 69//96 74//96 71//96
f 69//97 71//97 70//97
