# Blender 4.2.11 LTS
# www.blender.org
o tmp_export_obj_8-collision.020
v 0.494677 0.856452 0.201868
v 0.494677 0.856429 0.201868
v 0.494677 0.856452 0.142772
v 0.494624 0.856711 0.112599
v 0.494317 0.858125 0.201868
v 0.482263 0.856429 0.201868
v 0.494677 0.856429 0.142309
v 0.494677 0.856448 0.112599
v 0.494317 0.858125 0.112599
v 0.493763 0.859747 0.201868
v 0.426500 0.856505 0.201868
v 0.482263 0.856429 0.112599
v 0.493957 0.856429 0.112599
v 0.493763 0.859747 0.112599
v 0.493282 0.860762 0.201868
v 0.426500 0.869104 0.201868
v 0.426500 0.856511 0.112599
v 0.493649 0.859987 0.112599
v 0.493029 0.861294 0.201868
v 0.493029 0.861294 0.112599
v 0.479861 0.869104 0.201868
v 0.426500 0.869104 0.112599
v 0.492435 0.862248 0.201868
v 0.492889 0.861519 0.112599
v 0.480468 0.869091 0.201868
v 0.480254 0.869096 0.112599
v 0.479887 0.869104 0.112599
v 0.492121 0.862749 0.201868
v 0.492121 0.862749 0.112599
v 0.480508 0.869090 0.201868
v 0.480508 0.869090 0.112599
v 0.491427 0.863627 0.201868
v 0.491961 0.862954 0.112599
v 0.482210 0.868920 0.201868
v 0.482210 0.868920 0.112599
v 0.491060 0.864089 0.201868
v 0.491060 0.864089 0.112599
v 0.483885 0.868555 0.201868
v 0.483625 0.868612 0.112599
v 0.490266 0.864883 0.201868
v 0.490873 0.864276 0.112599
v 0.485507 0.868003 0.201868
v 0.483885 0.868555 0.112599
v 0.489845 0.865299 0.201868
v 0.489845 0.865299 0.112599
v 0.487049 0.867270 0.201868
v 0.486815 0.867383 0.112599
v 0.485507 0.868003 0.112599
v 0.488504 0.866364 0.201868
v 0.489638 0.865465 0.112599
v 0.487549 0.866958 0.201868
v 0.488283 0.866504 0.112599
v 0.487049 0.867270 0.112599
v 0.488504 0.866364 0.112599
vn 1.0000 -0.0000 -0.0000
vn 1.0000 0.0021 -0.0000
vn 1.0000 -0.0085 -0.0000
vn 0.9794 0.2019 -0.0000
vn 0.9776 0.2104 -0.0000
vn 0.0002 -0.0000 1.0000
vn -0.0000 -0.0000 1.0000
vn -0.0001 -0.0000 1.0000
vn 0.0001 -0.0000 1.0000
vn -0.0002 -0.0000 1.0000
vn -0.0000 -1.0000 -0.0000
vn 0.9800 0.1990 -0.0000
vn -0.0000 -0.0000 -1.0000
vn -0.0001 -0.0000 -1.0000
vn 0.0001 -0.0000 -1.0000
vn -0.0002 -0.0000 -1.0000
vn 0.9772 0.2122 -0.0000
vn 0.9463 0.3232 -0.0000
vn -0.0014 -1.0000 -0.0000
vn 0.0259 -0.9997 -0.0006
vn 0.9038 0.4280 -0.0000
vn -1.0000 -0.0000 -0.0000
vn -0.0015 -1.0000 -0.0001
vn 0.9034 0.4288 -0.0000
vn 0.9027 0.4302 -0.0000
vn -0.0000 1.0000 -0.0000
vn 0.8489 0.5285 -0.0000
vn 0.8484 0.5294 -0.0000
vn 0.0204 0.9998 -0.0000
vn 0.0203 0.9998 -0.0000
vn 0.8483 0.5296 -0.0000
vn 0.8471 0.5314 -0.0000
vn 0.0312 0.9995 -0.0000
vn 0.0244 0.9997 -0.0000
vn 0.7894 0.6138 -0.0000
vn 0.7846 0.6200 -0.0000
vn 0.0994 0.9950 -0.0000
vn 0.7829 0.6221 -0.0000
vn 0.7827 0.6224 -0.0000
vn 0.2128 0.9771 -0.0000
vn 0.2125 0.9772 -0.0000
vn 0.7080 0.7062 -0.0000
vn 0.7070 0.7072 -0.0000
vn 0.3222 0.9467 -0.0000
vn 0.3223 0.9466 -0.0000
vn 0.2143 0.9768 -0.0000
vn 0.7057 0.7085 -0.0000
vn 0.7040 0.7102 -0.0000
vn 0.4295 0.9031 -0.0000
vn 0.4285 0.9035 -0.0000
vn 0.6236 0.7817 -0.0000
vn 0.6216 0.7833 -0.0000
vn 0.5282 0.8491 -0.0000
vn 0.5269 0.8499 -0.0000
vn 0.4351 0.9004 -0.0000
vn 0.6213 0.7836 -0.0000
vn 0.5369 0.8436 -0.0000
vn 0.5286 0.8489 -0.0000
s 0
f 1//1 2//1 7//1
f 1//2 7//2 8//2
f 1//3 8//3 3//3
f 1//4 3//4 4//4
f 1//5 4//5 5//5
f 1//6 5//6 10//6
f 1//7 10//7 15//7
f 1//8 15//8 19//8
f 1//9 19//9 23//9
f 1//10 23//10 28//10
f 1//7 28//7 32//7
f 1//9 32//9 36//9
f 1//7 36//7 40//7
f 1//9 40//9 44//9
f 1//7 44//7 49//7
f 1//7 49//7 51//7
f 1//7 51//7 46//7
f 1//7 46//7 42//7
f 1//7 42//7 38//7
f 1//7 38//7 34//7
f 1//7 34//7 30//7
f 1//10 30//10 25//10
f 1//7 25//7 21//7
f 1//7 21//7 16//7
f 1//7 16//7 11//7
f 1//7 11//7 6//7
f 1//7 6//7 2//7
f 2//11 6//11 12//11
f 2//11 12//11 13//11
f 2//11 13//11 7//11
f 3//12 8//12 4//12
f 4//13 8//13 13//13
f 4//13 13//13 12//13
f 4//13 12//13 17//13
f 4//13 17//13 22//13
f 4//13 22//13 27//13
f 4//13 27//13 26//13
f 4//13 26//13 31//13
f 4//13 31//13 35//13
f 4//13 35//13 39//13
f 4//13 39//13 43//13
f 4//13 43//13 48//13
f 4//13 48//13 47//13
f 4//14 47//14 53//14
f 4//13 53//13 52//13
f 4//15 52//15 54//15
f 4//13 54//13 50//13
f 4//15 50//15 45//15
f 4//13 45//13 41//13
f 4//13 41//13 37//13
f 4//13 37//13 33//13
f 4//14 33//14 29//14
f 4//13 29//13 24//13
f 4//16 24//16 20//16
f 4//15 20//15 18//15
f 4//13 18//13 14//13
f 4//14 14//14 9//14
f 4//17 9//17 5//17
f 5//18 9//18 14//18
f 5//18 14//18 10//18
f 6//19 11//19 12//19
f 7//20 13//20 8//20
f 10//21 14//21 15//21
f 11//22 16//22 22//22
f 11//22 22//22 17//22
f 11//23 17//23 12//23
f 14//21 18//21 15//21
f 15//24 18//24 20//24
f 15//25 20//25 19//25
f 16//26 21//26 27//26
f 16//26 27//26 22//26
f 19//27 20//27 23//27
f 20//28 24//28 23//28
f 21//29 25//29 26//29
f 21//30 26//30 27//30
f 23//31 24//31 29//31
f 23//32 29//32 28//32
f 25//33 30//33 31//33
f 25//34 31//34 26//34
f 28//35 29//35 33//35
f 28//36 33//36 32//36
f 30//37 34//37 35//37
f 30//37 35//37 31//37
f 32//38 33//38 37//38
f 32//39 37//39 36//39
f 34//40 38//40 39//40
f 34//41 39//41 35//41
f 36//42 37//42 41//42
f 36//43 41//43 40//43
f 38//44 42//44 48//44
f 38//45 48//45 43//45
f 38//46 43//46 39//46
f 40//47 41//47 45//47
f 40//48 45//48 44//48
f 42//49 46//49 47//49
f 42//50 47//50 48//50
f 44//51 45//51 50//51
f 44//52 50//52 49//52
f 46//53 51//53 52//53
f 46//54 52//54 53//54
f 46//55 53//55 47//55
f 49//56 50//56 54//56
f 49//57 54//57 52//57
f 49//58 52//58 51//58
