# Blender 4.2.11 LTS
# www.blender.org
o tmp_export_obj_8-collision.021
v 0.426481 0.463905 0.267518
v 0.292268 0.463905 0.344992
v 0.292268 0.476505 0.344992
v 0.426500 0.476505 0.267518
v 0.479855 0.463905 0.267518
v 0.292268 0.463905 0.392600
v 0.292268 0.476505 0.392600
v 0.481990 0.476505 0.267518
v 0.480412 0.463917 0.267518
v 0.479855 0.463905 0.392600
v 0.481990 0.476505 0.392600
v 0.481990 0.464068 0.267518
v 0.480505 0.463920 0.267518
v 0.480505 0.463920 0.356906
v 0.481545 0.464000 0.392600
v 0.481990 0.464075 0.392600
v 0.481990 0.464060 0.368808
vn -0.4999 -0.0000 -0.8661
vn -0.4999 0.0007 -0.8661
vn -0.0000 -0.0000 -1.0000
vn -0.0000 -1.0000 -0.0000
vn -1.0000 -0.0000 -0.0000
vn -0.0000 1.0000 -0.0000
vn 0.0221 -0.9998 -0.0000
vn -0.0000 -0.0000 1.0000
vn 1.0000 -0.0000 -0.0000
vn 0.0267 -0.9996 -0.0000
vn 0.0230 -0.9997 -0.0000
vn 0.0561 -0.9984 0.0006
vn 0.1306 -0.9914 -0.0001
vn 0.0991 -0.9951 -0.0002
vn 0.0769 -0.9970 -0.0000
vn 0.1664 -0.9861 0.0006
s 0
f 1//1 2//1 3//1
f 1//2 3//2 4//2
f 1//3 4//3 8//3
f 1//3 8//3 12//3
f 1//3 12//3 13//3
f 1//3 13//3 9//3
f 1//3 9//3 5//3
f 1//4 5//4 10//4
f 1//4 10//4 6//4
f 1//4 6//4 2//4
f 2//5 6//5 7//5
f 2//5 7//5 3//5
f 3//6 7//6 11//6
f 3//6 11//6 8//6
f 3//6 8//6 4//6
f 5//7 9//7 10//7
f 6//8 10//8 15//8
f 6//8 15//8 16//8
f 6//8 16//8 11//8
f 6//8 11//8 7//8
f 8//9 11//9 16//9
f 8//9 16//9 17//9
f 8//9 17//9 12//9
f 9//10 13//10 14//10
f 9//11 14//11 10//11
f 10//12 14//12 15//12
f 12//13 17//13 15//13
f 12//14 15//14 13//14
f 13//15 15//15 14//15
f 15//16 17//16 16//16
