# Blender 4.2.11 LTS
# www.blender.org
o tmp_export_obj_8-collision.006
v 0.167182 0.856505 0.272794
v 0.167182 0.869105 0.272794
v 0.291975 0.856505 0.344830
v 0.167182 0.856505 0.392600
v 0.167182 0.869105 0.392600
v 0.291975 0.869105 0.344830
v 0.291975 0.856505 0.392577
v 0.291975 0.856509 0.392600
v 0.291975 0.869105 0.392600
vn 0.4999 -0.0000 -0.8661
vn -0.0000 -1.0000 -0.0000
vn -1.0000 -0.0000 -0.0000
vn -0.0000 1.0000 -0.0000
vn 1.0000 -0.0000 -0.0000
vn 1.0000 0.0010 -0.0000
vn -0.0000 -0.9878 0.1559
vn -0.0000 -0.0000 1.0000
s 0
f 1//1 2//1 6//1
f 1//1 6//1 3//1
f 1//2 3//2 7//2
f 1//2 7//2 4//2
f 1//3 4//3 5//3
f 1//3 5//3 2//3
f 2//4 5//4 9//4
f 2//4 9//4 6//4
f 3//5 6//5 9//5
f 3//5 9//5 8//5
f 3//6 8//6 7//6
f 4//7 7//7 8//7
f 4//8 8//8 9//8
f 4//8 9//8 5//8
