# Blender 4.2.11 LTS
# www.blender.org
o tmp_export_obj_8-collision.003
v 0.102265 0.666472 0.392600
v 0.102265 0.666472 0.351273
v 0.089666 0.666472 0.392600
v 0.102485 0.476510 0.392600
v 0.102265 0.532698 0.274038
v 0.089666 0.666472 0.351273
v 0.102485 0.476510 0.274038
v 0.089666 0.478907 0.392600
v 0.102485 0.464087 0.392600
v 0.089666 0.532698 0.274038
v 0.102485 0.464087 0.274038
v 0.089666 0.478907 0.274038
v 0.089679 0.478372 0.274038
v 0.089682 0.478273 0.356901
v 0.089762 0.477243 0.392600
v 0.101328 0.464285 0.392600
v 0.102485 0.464067 0.365733
v 0.102378 0.464087 0.274038
v 0.089682 0.478273 0.274038
v 0.089852 0.476569 0.274038
v 0.089852 0.476569 0.356901
v 0.090043 0.475578 0.392600
v 0.099712 0.464761 0.392600
v 0.100646 0.464464 0.356901
v 0.100646 0.464464 0.274038
v 0.090216 0.474885 0.274038
v 0.090216 0.474885 0.356901
v 0.090508 0.473954 0.392600
v 0.098157 0.465395 0.392600
v 0.099024 0.465018 0.356901
v 0.099024 0.465018 0.274038
v 0.100124 0.464642 0.274038
v 0.090590 0.473795 0.274038
v 0.090768 0.473280 0.274038
v 0.090768 0.473280 0.356901
v 0.091152 0.472408 0.392600
v 0.097477 0.465751 0.274038
v 0.096686 0.466207 0.392600
v 0.097477 0.465751 0.356901
v 0.091266 0.472230 0.274038
v 0.091502 0.471735 0.274038
v 0.091502 0.471735 0.356901
v 0.091966 0.470942 0.392600
v 0.096024 0.466663 0.274038
v 0.095315 0.467178 0.392600
v 0.096024 0.466663 0.356901
v 0.092407 0.470269 0.274038
v 0.092407 0.470269 0.356901
v 0.092940 0.469555 0.392600
v 0.095593 0.467000 0.274038
v 0.094683 0.467713 0.274038
v 0.094061 0.468307 0.392600
v 0.094683 0.467713 0.356901
v 0.093472 0.468921 0.274038
v 0.093472 0.468921 0.356901
vn -0.0000 1.0000 -0.0000
vn -0.0000 -0.0000 1.0000
vn -0.0001 -0.0000 1.0000
vn 0.0001 -0.0000 1.0000
vn -0.0010 -0.0000 1.0000
vn 1.0000 0.0012 -0.0000
vn -0.0000 0.5000 -0.8660
vn 1.0000 0.0039 -0.0068
vn -1.0000 -0.0000 -0.0000
vn 1.0000 -0.0000 -0.0000
vn -0.0009 -0.0000 -1.0000
vn -0.0000 -0.0000 -1.0000
vn 0.0001 -0.0000 -1.0000
vn -0.9997 -0.0234 -0.0000
vn -0.9997 -0.0239 -0.0000
vn -0.9984 -0.0572 0.0006
vn -0.1688 -0.9856 0.0007
vn -0.0000 -1.0000 -0.0002
vn -0.9997 -0.0254 -0.0000
vn -0.9970 -0.0777 -0.0000
vn -0.9950 -0.0997 -0.0002
vn -0.9911 -0.1329 -0.0000
vn -0.9860 -0.1665 0.0006
vn -0.2823 -0.9593 0.0006
vn -0.2528 -0.9675 -0.0000
vn -0.2123 -0.9772 -0.0002
vn -0.1851 -0.9827 -0.0000
vn -0.9774 -0.2112 -0.0002
vn -0.9820 -0.1891 -0.0000
vn -0.9702 -0.2423 -0.0000
vn -0.9613 -0.2755 0.0007
vn -0.3776 -0.9260 0.0006
vn -0.3508 -0.9365 -0.0000
vn -0.3240 -0.9461 -0.0002
vn -0.3233 -0.9463 -0.0002
vn -0.3033 -0.9529 -0.0000
vn -0.9459 -0.3246 -0.0002
vn -0.9541 -0.2995 -0.0000
vn -0.9451 -0.3269 -0.0002
vn -0.9331 -0.3597 -0.0000
vn -0.9231 -0.3845 0.0005
vn -0.4282 -0.9037 -0.0003
vn -0.3982 -0.9173 -0.0000
vn -0.4832 -0.8755 0.0005
vn -0.4644 -0.8856 -0.0000
vn -0.9035 -0.4286 -0.0002
vn -0.9152 -0.4031 -0.0000
vn -0.9028 -0.4300 -0.0002
vn -0.8873 -0.4612 -0.0000
vn -0.8742 -0.4856 0.0006
vn -0.4988 -0.8667 -0.0000
vn -0.5314 -0.8471 -0.0003
vn -0.5781 -0.8160 0.0003
vn -0.5674 -0.8234 -0.0000
vn -0.8628 -0.5055 -0.0000
vn -0.8510 -0.5251 -0.0002
vn -0.8184 -0.5746 0.0007
vn -0.8370 -0.5472 -0.0000
vn -0.5878 -0.8090 -0.0000
vn -0.6152 -0.7884 -0.0003
vn -0.6170 -0.7870 -0.0003
vn -0.6690 -0.7433 0.0007
vn -0.6458 -0.7635 -0.0000
vn -0.7844 -0.6202 -0.0002
vn -0.8009 -0.5988 -0.0000
vn -0.7660 -0.6428 -0.0000
vn -0.7441 -0.6680 0.0008
vn -0.6907 -0.7232 -0.0000
vn -0.7064 -0.7078 -0.0002
vn -0.7221 -0.6918 -0.0000
s 0
f 1//1 2//1 6//1
f 1//1 6//1 3//1
f 1//2 3//2 8//2
f 1//3 8//3 15//3
f 1//2 15//2 22//2
f 1//2 22//2 28//2
f 1//4 28//4 36//4
f 1//2 36//2 43//2
f 1//2 43//2 49//2
f 1//2 49//2 52//2
f 1//2 52//2 45//2
f 1//2 45//2 38//2
f 1//2 38//2 29//2
f 1//2 29//2 23//2
f 1//2 23//2 16//2
f 1//2 16//2 9//2
f 1//5 9//5 4//5
f 1//6 4//6 7//6
f 1//6 7//6 2//6
f 2//7 5//7 10//7
f 2//7 10//7 6//7
f 2//8 7//8 5//8
f 3//9 6//9 10//9
f 3//9 10//9 12//9
f 3//9 12//9 8//9
f 4//10 9//10 17//10
f 4//10 17//10 11//10
f 4//10 11//10 7//10
f 5//11 7//11 11//11
f 5//12 11//12 18//12
f 5//12 18//12 25//12
f 5//12 25//12 32//12
f 5//12 32//12 31//12
f 5//12 31//12 37//12
f 5//12 37//12 44//12
f 5//12 44//12 50//12
f 5//12 50//12 51//12
f 5//12 51//12 54//12
f 5//12 54//12 47//12
f 5//12 47//12 41//12
f 5//12 41//12 40//12
f 5//12 40//12 34//12
f 5//12 34//12 33//12
f 5//12 33//12 26//12
f 5//12 26//12 20//12
f 5//12 20//12 19//12
f 5//13 19//13 13//13
f 5//13 13//13 12//13
f 5//12 12//12 10//12
f 8//14 12//14 13//14
f 8//15 13//15 14//15
f 8//16 14//16 15//16
f 9//17 16//17 17//17
f 11//18 17//18 18//18
f 13//19 19//19 14//19
f 14//20 19//20 15//20
f 15//21 19//21 20//21
f 15//22 20//22 21//22
f 15//23 21//23 22//23
f 16//24 23//24 24//24
f 16//25 24//25 25//25
f 16//26 25//26 18//26
f 16//27 18//27 17//27
f 20//28 26//28 22//28
f 20//29 22//29 21//29
f 22//30 26//30 27//30
f 22//31 27//31 28//31
f 23//32 29//32 30//32
f 23//33 30//33 31//33
f 23//34 31//34 32//34
f 23//35 32//35 25//35
f 23//36 25//36 24//36
f 26//37 33//37 28//37
f 26//38 28//38 27//38
f 28//39 33//39 34//39
f 28//40 34//40 35//40
f 28//41 35//41 36//41
f 29//42 37//42 31//42
f 29//43 31//43 30//43
f 29//44 38//44 39//44
f 29//45 39//45 37//45
f 34//46 40//46 36//46
f 34//47 36//47 35//47
f 36//48 40//48 41//48
f 36//49 41//49 42//49
f 36//50 42//50 43//50
f 37//51 39//51 38//51
f 37//52 38//52 44//52
f 38//53 45//53 46//53
f 38//54 46//54 44//54
f 41//55 43//55 42//55
f 41//56 47//56 43//56
f 43//57 48//57 49//57
f 43//58 47//58 48//58
f 44//59 46//59 45//59
f 44//60 45//60 50//60
f 45//61 51//61 50//61
f 45//62 52//62 53//62
f 45//63 53//63 51//63
f 47//64 54//64 49//64
f 47//65 49//65 48//65
f 49//66 54//66 55//66
f 49//67 55//67 52//67
f 51//68 53//68 52//68
f 51//69 52//69 54//69
f 52//70 55//70 54//70
