# Blender 4.2.11 LTS
# www.blender.org
o tmp_export_obj_8-collision.018
v 0.102267 0.799274 0.117944
v 0.089666 0.799274 0.117944
v 0.102265 0.666533 0.041320
v 0.102267 0.666533 0.041300
v 0.102267 0.799274 0.012628
v 0.089666 0.799274 0.015009
v 0.089666 0.666533 0.041320
v 0.102267 0.666533 0.012628
v 0.092039 0.799274 0.012628
v 0.090096 0.666533 0.014576
v 0.089666 0.666533 0.015009
v 0.092039 0.666533 0.012628
vn -0.0000 -0.4999 0.8661
vn 0.9976 -0.0340 0.0602
vn 1.0000 -0.0000 -0.0000
vn -0.0000 1.0000 -0.0000
vn -1.0000 -0.0000 -0.0000
vn -0.0000 -1.0000 -0.0000
vn -0.0000 -0.0000 -1.0000
vn -0.7084 -0.0000 -0.7058
vn -0.7102 -0.0000 -0.7040
vn -0.7080 -0.0000 -0.7062
s 0
f 1//1 2//1 7//1
f 1//1 7//1 3//1
f 1//2 3//2 4//2
f 1//3 4//3 8//3
f 1//3 8//3 5//3
f 1//4 5//4 9//4
f 1//4 9//4 6//4
f 1//4 6//4 2//4
f 2//5 6//5 11//5
f 2//5 11//5 7//5
f 3//6 7//6 11//6
f 3//6 11//6 10//6
f 3//6 10//6 12//6
f 3//6 12//6 8//6
f 3//6 8//6 4//6
f 5//7 8//7 12//7
f 5//7 12//7 9//7
f 6//8 9//8 10//8
f 6//9 10//9 11//9
f 9//10 12//10 10//10
