# Blender 4.2.11 LTS
# www.blender.org
o tmp_export_obj_8-collision.016
v 0.092284 0.476596 0.012628
v 0.092363 0.476094 0.012628
v 0.091154 0.476596 0.013733
v 0.101836 0.476596 0.012628
v 0.092759 0.474734 0.012628
v 0.090044 0.475566 0.015004
v 0.089886 0.476596 0.015004
v 0.102272 0.476596 0.012647
v 0.292299 0.476504 0.012628
v 0.093294 0.473426 0.012628
v 0.091154 0.472396 0.015004
v 0.090520 0.473950 0.015004
v 0.089866 0.476564 0.112523
v 0.089866 0.476557 0.107067
v 0.089846 0.476596 0.034531
v 0.090223 0.474884 0.035695
v 0.090223 0.474884 0.112523
v 0.102272 0.476596 0.112523
v 0.292299 0.476504 0.035020
v 0.292299 0.466278 0.012628
v 0.093988 0.472186 0.012628
v 0.091967 0.470924 0.015004
v 0.091511 0.471715 0.035695
v 0.091511 0.471715 0.112523
v 0.090778 0.473263 0.112523
v 0.090778 0.473263 0.035695
v 0.090302 0.474637 0.112523
v 0.089866 0.476596 0.112523
v 0.158037 0.476504 0.112523
v 0.292299 0.463906 0.035020
v 0.292299 0.463906 0.015004
v 0.104669 0.466278 0.012628
v 0.094800 0.471031 0.012628
v 0.092957 0.469554 0.015004
v 0.092422 0.470262 0.035695
v 0.092422 0.470262 0.112523
v 0.158037 0.463907 0.112523
v 0.158037 0.463906 0.112494
v 0.104669 0.463906 0.015004
v 0.103005 0.463999 0.015004
v 0.103262 0.466357 0.012628
v 0.095752 0.469976 0.012628
v 0.094067 0.468299 0.015004
v 0.093473 0.468921 0.035695
v 0.093473 0.468921 0.112523
v 0.092581 0.470058 0.112523
v 0.132532 0.463906 0.112523
v 0.104669 0.463906 0.112523
v 0.104352 0.463912 0.112523
v 0.104293 0.463914 0.112523
v 0.104035 0.463920 0.035695
v 0.104035 0.463920 0.112523
v 0.102589 0.464064 0.112523
v 0.102331 0.464090 0.112523
v 0.102331 0.464090 0.035695
v 0.101340 0.464281 0.015004
v 0.101875 0.466594 0.012628
v 0.096802 0.469033 0.012628
v 0.094701 0.467711 0.035695
v 0.094701 0.467711 0.112523
v 0.095316 0.467178 0.015004
v 0.100904 0.464398 0.112523
v 0.100647 0.464454 0.112523
v 0.100647 0.464454 0.035695
v 0.099715 0.464747 0.015004
v 0.100508 0.466987 0.012628
v 0.097951 0.468213 0.012628
v 0.094900 0.467548 0.112523
v 0.096703 0.466204 0.015004
v 0.096029 0.466645 0.035695
v 0.096029 0.466645 0.112523
v 0.099279 0.464922 0.112523
v 0.099041 0.465007 0.112523
v 0.099041 0.465007 0.035695
v 0.098169 0.465391 0.015004
v 0.099200 0.467529 0.012628
v 0.097496 0.465740 0.035695
v 0.097496 0.465740 0.112523
v 0.096247 0.466507 0.112523
vn -0.6950 -0.1098 -0.7106
vn -0.0000 1.0000 -0.0034
vn -0.0000 1.0000 -0.0000
vn -0.0000 1.0000 -0.0011
vn -0.0000 -0.0000 -1.0000
vn -0.6792 -0.1979 -0.7067
vn -0.6967 -0.1218 -0.7069
vn -0.7038 -0.1083 -0.7021
vn 0.0005 1.0000 -0.0080
vn -0.6552 -0.2680 -0.7063
vn -0.6556 -0.2675 -0.7061
vn -0.6793 -0.1999 -0.7061
vn -0.9804 -0.1971 0.0002
vn -0.9814 -0.1920 0.0002
vn -0.9884 -0.1521 -0.0020
vn -0.9593 -0.2823 -0.0010
vn -0.9675 -0.2530 -0.0000
vn -0.9782 -0.2078 0.0003
vn 0.0005 1.0000 -0.0000
vn 1.0000 -0.0000 -0.0000
vn -0.6166 -0.3449 -0.7077
vn -0.6197 -0.3420 -0.7064
vn -0.8858 -0.4642 -0.0000
vn -0.9037 -0.4281 0.0003
vn -0.9173 -0.3983 -0.0000
vn -0.9259 -0.3778 -0.0010
vn -0.8755 -0.4832 -0.0008
vn -0.9363 -0.3511 -0.0000
vn -0.9450 -0.3271 0.0002
vn -0.9522 -0.3054 -0.0000
vn -0.9529 -0.3032 -0.0000
vn -1.0000 -0.0000 0.0003
vn -0.9869 -0.1616 0.0002
vn -0.0002 -0.0000 1.0000
vn -0.0000 -0.0000 1.0000
vn 0.0001 -0.0000 1.0000
vn 0.0016 1.0000 0.0029
vn 0.4999 -0.0000 0.8661
vn -0.0000 -0.7078 -0.7064
vn -0.5780 -0.4065 -0.7076
vn -0.5751 -0.4158 -0.7045
vn -0.8103 -0.5860 -0.0009
vn -0.8237 -0.5670 -0.0000
vn -0.8472 -0.5313 0.0004
vn -0.8665 -0.4991 -0.0000
vn 0.0246 -0.9988 0.0416
vn -0.0000 -1.0000 -0.0000
vn -0.0396 -0.7072 -0.7059
vn -0.0400 -0.7071 -0.7060
vn -0.5253 -0.4738 -0.7068
vn -0.5315 -0.4702 -0.7046
vn -0.7752 -0.6317 -0.0000
vn -0.7868 -0.6173 0.0002
vn -0.7892 -0.6141 0.0001
vn -0.7978 -0.6029 -0.0000
vn -0.7490 -0.6625 -0.0016
vn -0.0000 -0.9991 0.0423
vn -0.0196 -0.9998 -0.0000
vn -0.0211 -0.9998 -0.0000
vn -0.0218 -0.9998 -0.0000
vn -0.0559 -0.9984 -0.0011
vn -0.0769 -0.9970 -0.0000
vn -0.0991 -0.9951 0.0002
vn -0.1008 -0.9949 0.0002
vn -0.1334 -0.9911 -0.0000
vn -0.1670 -0.9860 -0.0011
vn -0.1183 -0.6984 -0.7058
vn -0.1194 -0.6979 -0.7062
vn -0.4726 -0.5265 -0.7067
vn -0.6797 -0.7335 -0.0000
vn -0.7017 -0.7125 0.0003
vn -0.7231 -0.6907 -0.0000
vn -0.4726 -0.5266 -0.7066
vn -0.6680 -0.7442 -0.0007
vn -0.0241 -0.9997 -0.0000
vn -0.2110 -0.9775 0.0002
vn -0.1896 -0.9819 -0.0000
vn -0.2121 -0.9773 0.0002
vn -0.2416 -0.9704 -0.0000
vn -0.2756 -0.9613 -0.0012
vn -0.1951 -0.6805 -0.7063
vn -0.1953 -0.6803 -0.7064
vn -0.4109 -0.5760 -0.7067
vn -0.6553 -0.7554 -0.0000
vn -0.6346 -0.7728 0.0002
vn -0.4076 -0.5805 -0.7049
vn -0.5746 -0.8184 -0.0013
vn -0.5984 -0.8012 -0.0000
vn -0.6245 -0.7811 0.0003
vn -0.3240 -0.9460 0.0003
vn -0.3002 -0.9539 -0.0000
vn -0.3347 -0.9423 0.0002
vn -0.3596 -0.9331 -0.0000
vn -0.3843 -0.9232 -0.0009
vn -0.2721 -0.6537 -0.7062
vn -0.2707 -0.6538 -0.7066
vn -0.3404 -0.6208 -0.7062
vn -0.3441 -0.6201 -0.7050
vn -0.5057 -0.8627 -0.0000
vn -0.5238 -0.8518 0.0002
vn -0.5346 -0.8451 0.0001
vn -0.5476 -0.8367 -0.0000
vn -0.4852 -0.8744 -0.0010
vn -0.4284 -0.9036 0.0003
vn -0.4029 -0.9152 -0.0000
vn -0.4600 -0.8879 -0.0000
s 0
f 1//1 2//1 3//1
f 1//2 3//2 7//2
f 1//3 7//3 15//3
f 1//3 15//3 28//3
f 1//3 28//3 18//3
f 1//3 18//3 8//3
f 1//4 8//4 4//4
f 1//5 4//5 9//5
f 1//5 9//5 20//5
f 1//5 20//5 32//5
f 1//5 32//5 41//5
f 1//5 41//5 57//5
f 1//5 57//5 66//5
f 1//5 66//5 76//5
f 1//5 76//5 67//5
f 1//5 67//5 58//5
f 1//5 58//5 42//5
f 1//5 42//5 33//5
f 1//5 33//5 21//5
f 1//5 21//5 10//5
f 1//5 10//5 5//5
f 1//5 5//5 2//5
f 2//6 5//6 6//6
f 2//7 6//7 3//7
f 3//8 6//8 7//8
f 4//9 8//9 9//9
f 5//10 10//10 11//10
f 5//11 11//11 12//11
f 5//12 12//12 6//12
f 6//13 13//13 14//13
f 6//14 14//14 15//14
f 6//15 15//15 7//15
f 6//16 12//16 16//16
f 6//17 16//17 17//17
f 6//18 17//18 13//18
f 8//19 18//19 19//19
f 8//19 19//19 9//19
f 9//20 19//20 30//20
f 9//20 30//20 31//20
f 9//20 31//20 20//20
f 10//21 21//21 22//21
f 10//22 22//22 11//22
f 11//23 23//23 24//23
f 11//24 24//24 25//24
f 11//25 25//25 26//25
f 11//26 26//26 12//26
f 11//27 22//27 23//27
f 12//28 26//28 25//28
f 12//29 25//29 27//29
f 12//30 27//30 17//30
f 12//31 17//31 16//31
f 13//32 28//32 15//32
f 13//33 15//33 14//33
f 13//34 17//34 27//34
f 13//35 27//35 25//35
f 13//35 25//35 24//35
f 13//35 24//35 36//35
f 13//35 36//35 46//35
f 13//35 46//35 45//35
f 13//35 45//35 60//35
f 13//36 60//36 68//36
f 13//35 68//35 71//35
f 13//35 71//35 79//35
f 13//35 79//35 78//35
f 13//35 78//35 73//35
f 13//35 73//35 72//35
f 13//35 72//35 63//35
f 13//35 63//35 62//35
f 13//35 62//35 54//35
f 13//35 54//35 53//35
f 13//35 53//35 52//35
f 13//35 52//35 50//35
f 13//35 50//35 49//35
f 13//35 49//35 48//35
f 13//35 48//35 47//35
f 13//35 47//35 37//35
f 13//35 37//35 29//35
f 13//35 29//35 18//35
f 13//35 18//35 28//35
f 18//37 29//37 19//37
f 19//38 29//38 37//38
f 19//38 37//38 30//38
f 20//39 31//39 39//39
f 20//39 39//39 32//39
f 21//40 33//40 22//40
f 22//41 33//41 34//41
f 22//42 34//42 35//42
f 22//43 35//43 36//43
f 22//44 36//44 24//44
f 22//45 24//45 23//45
f 30//46 37//46 38//46
f 30//47 38//47 47//47
f 30//47 47//47 48//47
f 30//47 48//47 39//47
f 30//47 39//47 31//47
f 32//48 39//48 40//48
f 32//49 40//49 41//49
f 33//50 42//50 43//50
f 33//51 43//51 34//51
f 34//52 44//52 45//52
f 34//53 45//53 46//53
f 34//54 46//54 36//54
f 34//55 36//55 35//55
f 34//56 43//56 44//56
f 37//57 47//57 38//57
f 39//58 48//58 49//58
f 39//59 49//59 50//59
f 39//60 50//60 51//60
f 39//61 51//61 40//61
f 40//62 51//62 52//62
f 40//63 52//63 53//63
f 40//64 53//64 54//64
f 40//65 54//65 55//65
f 40//66 55//66 56//66
f 40//67 56//67 41//67
f 41//68 56//68 57//68
f 42//69 58//69 43//69
f 43//70 59//70 60//70
f 43//71 60//71 45//71
f 43//72 45//72 44//72
f 43//73 58//73 61//73
f 43//74 61//74 59//74
f 50//75 52//75 51//75
f 54//76 62//76 56//76
f 54//77 56//77 55//77
f 56//78 62//78 63//78
f 56//79 63//79 64//79
f 56//80 64//80 65//80
f 56//81 65//81 57//81
f 57//82 65//82 66//82
f 58//83 67//83 61//83
f 59//84 61//84 60//84
f 60//85 61//85 68//85
f 61//86 67//86 69//86
f 61//87 69//87 70//87
f 61//88 70//88 71//88
f 61//89 71//89 68//89
f 63//90 72//90 65//90
f 63//91 65//91 64//91
f 65//92 72//92 73//92
f 65//93 73//93 74//93
f 65//94 74//94 75//94
f 65//95 75//95 76//95
f 65//96 76//96 66//96
f 67//97 76//97 75//97
f 67//98 75//98 69//98
f 69//99 77//99 78//99
f 69//100 78//100 79//100
f 69//101 79//101 71//101
f 69//102 71//102 70//102
f 69//103 75//103 77//103
f 73//104 78//104 75//104
f 73//105 75//105 74//105
f 75//106 78//106 77//106
