# Blender 4.2.11 LTS
# www.blender.org
o tmp_export_obj_8-collision.013
v 0.494865 0.666472 0.392600
v 0.482267 0.666472 0.392600
v 0.494865 0.478919 0.392600
v 0.494865 0.666472 0.351276
v 0.482267 0.666472 0.351276
v 0.481990 0.476522 0.392600
v 0.494865 0.478919 0.273892
v 0.494772 0.477235 0.392600
v 0.494853 0.478266 0.356901
v 0.494865 0.532415 0.273892
v 0.482267 0.532415 0.273892
v 0.481990 0.476522 0.273892
v 0.481990 0.464079 0.392600
v 0.494853 0.478266 0.273892
v 0.494681 0.476562 0.356901
v 0.494681 0.476562 0.273892
v 0.494490 0.475571 0.392600
v 0.481990 0.464079 0.273892
v 0.481990 0.464059 0.368812
v 0.483205 0.464297 0.392600
v 0.494317 0.474897 0.273892
v 0.494025 0.473966 0.392600
v 0.494317 0.474897 0.356901
v 0.482041 0.464079 0.273892
v 0.482214 0.464099 0.273892
v 0.482214 0.464099 0.356901
v 0.483342 0.464337 0.273892
v 0.483887 0.464456 0.273892
v 0.483887 0.464456 0.356901
v 0.484821 0.464753 0.392600
v 0.494137 0.474362 0.273892
v 0.493765 0.473273 0.356901
v 0.493765 0.473273 0.273892
v 0.493381 0.472401 0.392600
v 0.485508 0.465010 0.273892
v 0.485508 0.465010 0.356901
v 0.486375 0.465407 0.392600
v 0.493031 0.471727 0.273892
v 0.492566 0.470935 0.392600
v 0.493031 0.471727 0.356901
v 0.487056 0.465744 0.273892
v 0.487056 0.465744 0.356901
v 0.487847 0.466219 0.392600
v 0.492735 0.471252 0.273892
v 0.492125 0.470281 0.356901
v 0.492125 0.470281 0.273892
v 0.491593 0.469568 0.392600
v 0.488035 0.466358 0.273892
v 0.488508 0.466655 0.273892
v 0.488508 0.466655 0.356901
v 0.489219 0.467190 0.392600
v 0.491779 0.469825 0.273892
v 0.490473 0.468299 0.392600
v 0.491060 0.468934 0.356901
v 0.491060 0.468934 0.273892
v 0.489412 0.467368 0.273892
v 0.489850 0.467725 0.273892
v 0.489850 0.467725 0.356901
v 0.490666 0.468537 0.273892
vn -0.0000 -0.0000 1.0000
vn -0.0001 -0.0000 1.0000
vn 0.0006 -0.0000 1.0000
vn 1.0000 -0.0000 -0.0000
vn -0.0000 1.0000 -0.0000
vn -1.0000 0.0015 -0.0000
vn 0.9985 -0.0552 0.0007
vn 0.9998 -0.0192 -0.0000
vn 0.9998 -0.0193 -0.0000
vn -0.0000 0.4999 -0.8661
vn -1.0000 0.0049 -0.0086
vn -1.0000 -0.0000 -0.0000
vn 0.0006 -0.0000 -1.0000
vn -0.0002 -0.0000 -1.0000
vn 0.0002 -0.0000 -1.0000
vn 0.0001 -0.0000 -1.0000
vn -0.0000 -0.0000 -1.0000
vn -0.0001 -0.0000 -1.0000
vn -0.0003 -0.0000 -1.0000
vn 0.9910 -0.1335 -0.0000
vn 0.9950 -0.1001 -0.0002
vn 0.9969 -0.0781 -0.0000
vn 0.9859 -0.1673 0.0006
vn 0.1766 -0.9843 0.0008
vn 0.9818 -0.1898 -0.0000
vn 0.9769 -0.2138 -0.0002
vn 0.9605 -0.2784 0.0006
vn 0.9687 -0.2482 -0.0000
vn -0.0000 -1.0000 -0.0002
vn 0.1138 -0.9935 -0.0001
vn 0.1748 -0.9846 -0.0000
vn 0.1875 -0.9823 0.0002
vn 0.2129 -0.9771 -0.0001
vn 0.2264 -0.9740 -0.0000
vn 0.2714 -0.9625 0.0009
vn 0.1959 -0.9806 -0.0000
vn 0.2063 -0.9785 -0.0001
vn 0.9541 -0.2996 -0.0000
vn 0.9476 -0.3193 -0.0002
vn 0.9365 -0.3506 -0.0000
vn 0.9464 -0.3229 -0.0002
vn 0.9248 -0.3805 0.0007
vn 0.3032 -0.9529 -0.0000
vn 0.3238 -0.9461 -0.0002
vn 0.3511 -0.9363 -0.0000
vn 0.3878 -0.9217 0.0008
vn 0.9150 -0.4036 -0.0000
vn 0.9034 -0.4288 -0.0002
vn 0.8742 -0.4855 0.0006
vn 0.8878 -0.4602 -0.0000
vn 0.4281 -0.9037 -0.0001
vn 0.4156 -0.9095 -0.0000
vn 0.4436 -0.8962 -0.0000
vn 0.4832 -0.8755 0.0009
vn 0.8625 -0.5060 -0.0000
vn 0.8488 -0.5288 -0.0002
vn 0.8290 -0.5593 -0.0000
vn 0.8467 -0.5320 -0.0002
vn 0.8147 -0.5798 0.0006
vn 0.5313 -0.8472 -0.0001
vn 0.5150 -0.8572 -0.0000
vn 0.5324 -0.8465 -0.0001
vn 0.5508 -0.8346 -0.0000
vn 0.5778 -0.8162 0.0007
vn 0.8017 -0.5977 -0.0000
vn 0.7958 -0.6055 -0.0001
vn 0.7494 -0.6622 0.0006
vn 0.7654 -0.6436 -0.0000
vn 0.7787 -0.6274 -0.0001
vn 0.6196 -0.7850 -0.0002
vn 0.6013 -0.7990 -0.0000
vn 0.6309 -0.7759 -0.0001
vn 0.6463 -0.7630 -0.0000
vn 0.6626 -0.7490 0.0005
vn 0.7088 -0.7054 -0.0003
vn 0.7336 -0.6796 -0.0000
vn 0.6782 -0.7348 -0.0000
vn 0.7057 -0.7085 -0.0003
s 0
f 1//1 2//1 6//1
f 1//1 6//1 13//1
f 1//1 13//1 20//1
f 1//1 20//1 30//1
f 1//1 30//1 37//1
f 1//1 37//1 43//1
f 1//1 43//1 51//1
f 1//1 51//1 53//1
f 1//1 53//1 47//1
f 1//1 47//1 39//1
f 1//1 39//1 34//1
f 1//2 34//2 22//2
f 1//1 22//1 17//1
f 1//1 17//1 8//1
f 1//3 8//3 3//3
f 1//4 3//4 7//4
f 1//4 7//4 10//4
f 1//4 10//4 4//4
f 1//5 4//5 5//5
f 1//5 5//5 2//5
f 2//6 5//6 12//6
f 2//6 12//6 6//6
f 3//7 8//7 9//7
f 3//8 9//8 14//8
f 3//9 14//9 7//9
f 4//10 10//10 11//10
f 4//10 11//10 5//10
f 5//11 11//11 12//11
f 6//12 12//12 18//12
f 6//12 18//12 19//12
f 6//12 19//12 13//12
f 7//13 14//13 16//13
f 7//14 16//14 21//14
f 7//15 21//15 31//15
f 7//16 31//16 33//16
f 7//17 33//17 38//17
f 7//17 38//17 44//17
f 7//17 44//17 46//17
f 7//16 46//16 52//16
f 7//17 52//17 55//17
f 7//18 55//18 59//18
f 7//17 59//17 57//17
f 7//17 57//17 56//17
f 7//17 56//17 49//17
f 7//17 49//17 48//17
f 7//17 48//17 41//17
f 7//17 41//17 35//17
f 7//17 35//17 28//17
f 7//17 28//17 27//17
f 7//17 27//17 25//17
f 7//19 25//19 24//19
f 7//17 24//17 18//17
f 7//17 18//17 12//17
f 7//17 12//17 11//17
f 7//17 11//17 10//17
f 8//20 15//20 16//20
f 8//21 16//21 14//21
f 8//22 14//22 9//22
f 8//23 17//23 15//23
f 13//24 19//24 20//24
f 15//25 17//25 16//25
f 16//26 17//26 21//26
f 17//27 22//27 23//27
f 17//28 23//28 21//28
f 18//29 24//29 19//29
f 19//30 24//30 25//30
f 19//31 25//31 26//31
f 19//32 26//32 20//32
f 20//33 27//33 28//33
f 20//34 28//34 29//34
f 20//35 29//35 30//35
f 20//36 26//36 25//36
f 20//37 25//37 27//37
f 21//38 23//38 22//38
f 21//39 22//39 31//39
f 22//40 32//40 33//40
f 22//41 33//41 31//41
f 22//42 34//42 32//42
f 28//43 30//43 29//43
f 28//44 35//44 30//44
f 30//45 35//45 36//45
f 30//46 36//46 37//46
f 32//47 34//47 33//47
f 33//48 34//48 38//48
f 34//49 39//49 40//49
f 34//50 40//50 38//50
f 35//51 41//51 37//51
f 35//52 37//52 36//52
f 37//53 41//53 42//53
f 37//54 42//54 43//54
f 38//55 40//55 39//55
f 38//56 39//56 44//56
f 39//57 45//57 46//57
f 39//58 46//58 44//58
f 39//59 47//59 45//59
f 41//60 48//60 43//60
f 41//61 43//61 42//61
f 43//62 48//62 49//62
f 43//63 49//63 50//63
f 43//64 50//64 51//64
f 45//65 47//65 46//65
f 46//66 47//66 52//66
f 47//67 53//67 54//67
f 47//68 54//68 55//68
f 47//69 55//69 52//69
f 49//70 56//70 51//70
f 49//71 51//71 50//71
f 51//72 56//72 57//72
f 51//73 57//73 58//73
f 51//74 58//74 53//74
f 53//75 59//75 55//75
f 53//76 55//76 54//76
f 53//77 58//77 57//77
f 53//78 57//78 59//78
