# Blender 4.2.11 LTS
# www.blender.org
o tmp_export_obj_8-collision.034
v 0.102317 0.868880 0.392588
v 0.102317 0.868920 0.356974
v 0.101328 0.868722 0.392588
v 0.102317 0.856772 0.392588
v 0.102317 0.868900 0.273751
v 0.100646 0.868543 0.356905
v 0.099711 0.868246 0.392588
v 0.101198 0.868662 0.273751
v 0.100646 0.868543 0.273751
v 0.102266 0.666472 0.392588
v 0.102317 0.856495 0.392577
v 0.102317 0.856495 0.273751
v 0.099025 0.867988 0.273751
v 0.099025 0.867988 0.356905
v 0.098158 0.867612 0.392588
v 0.089666 0.666472 0.392588
v 0.102266 0.666472 0.351273
v 0.102266 0.800770 0.273751
v 0.097477 0.867255 0.273751
v 0.097477 0.867255 0.356905
v 0.096686 0.866799 0.392588
v 0.089666 0.666472 0.351273
v 0.089666 0.854097 0.392588
v 0.102261 0.800731 0.273751
v 0.096504 0.866661 0.273751
v 0.096023 0.866363 0.273751
v 0.096023 0.866363 0.356905
v 0.095315 0.865828 0.392588
v 0.089666 0.800731 0.273751
v 0.089762 0.855781 0.392588
v 0.089681 0.854731 0.356905
v 0.089679 0.854632 0.273751
v 0.089666 0.854097 0.273751
v 0.095127 0.865650 0.273751
v 0.094683 0.865293 0.356905
v 0.094060 0.864699 0.392588
v 0.094683 0.865293 0.273751
v 0.089852 0.856435 0.273751
v 0.089737 0.855306 0.273751
v 0.089681 0.854731 0.273751
v 0.090043 0.857426 0.392588
v 0.089852 0.856435 0.356905
v 0.093472 0.864085 0.273751
v 0.093472 0.864085 0.356905
v 0.092940 0.863450 0.392588
v 0.090216 0.858120 0.273751
v 0.090509 0.859051 0.392588
v 0.090216 0.858120 0.356905
v 0.092407 0.862737 0.273751
v 0.092407 0.862737 0.356905
v 0.091966 0.862083 0.392588
v 0.090769 0.859745 0.273751
v 0.091153 0.860597 0.392588
v 0.090769 0.859745 0.356905
v 0.091502 0.861290 0.273751
v 0.091502 0.861290 0.356905
vn -0.1584 0.9874 0.0011
vn -0.0000 -0.0000 1.0000
vn 1.0000 -0.0000 -0.0000
vn 1.0000 -0.0005 -0.0000
vn -0.2046 0.9788 -0.0002
vn -0.2821 0.9594 0.0006
vn -0.2080 0.9781 -0.0003
vn -0.2105 0.9776 -0.0003
vn -0.2529 0.9675 -0.0000
vn 1.0000 -0.0003 0.0064
vn -0.0000 -0.0000 -1.0000
vn 0.0047 -0.0000 -1.0000
vn -0.0001 -0.0000 -1.0000
vn 0.0002 -0.0000 -1.0000
vn 0.0001 -0.0000 -1.0000
vn -0.0045 -0.0000 -1.0000
vn -0.3030 0.9530 -0.0000
vn -0.3238 0.9461 -0.0002
vn -0.3515 0.9362 -0.0000
vn -0.3780 0.9258 0.0006
vn -0.0000 -1.0000 -0.0000
vn 1.0000 -0.0003 -0.0000
vn 1.0000 -0.0009 -0.0016
vn -0.4280 0.9038 -0.0003
vn -0.3984 0.9172 -0.0000
vn -0.4639 0.8859 -0.0000
vn -0.4831 0.8756 0.0005
vn -1.0000 -0.0000 -0.0000
vn -0.0000 -0.5000 -0.8660
vn 0.9701 -0.1218 -0.2101
vn -0.5212 0.8534 -0.0002
vn -0.4991 0.8665 -0.0000
vn -0.5261 0.8504 -0.0002
vn -0.5497 0.8354 -0.0000
vn -0.5780 0.8160 0.0008
vn -0.9984 0.0565 0.0006
vn -0.9997 0.0235 -0.0000
vn -0.9997 0.0231 -0.0000
vn -0.6226 0.7825 -0.0002
vn -0.6027 0.7979 -0.0000
vn -0.6691 0.7431 0.0007
vn -0.6269 0.7791 -0.0002
vn -0.6464 0.7630 -0.0000
vn -0.9948 0.1014 -0.0002
vn -0.9953 0.0965 -0.0002
vn -0.9971 0.0764 -0.0000
vn -0.9857 0.1685 0.0006
vn -0.9906 0.1369 -0.0000
vn -0.9997 0.0249 -0.0000
vn -0.6904 0.7234 -0.0000
vn -0.7064 0.7078 -0.0002
vn -0.7222 0.6916 -0.0000
vn -0.7441 0.6680 0.0008
vn -0.9820 0.1890 -0.0000
vn -0.9774 0.2113 -0.0002
vn -0.9613 0.2755 0.0007
vn -0.9702 0.2425 -0.0000
vn -0.7845 0.6201 -0.0002
vn -0.7658 0.6431 -0.0000
vn -0.8014 0.5982 -0.0000
vn -0.8147 0.5799 0.0006
vn -0.9541 0.2994 -0.0000
vn -0.9468 0.3218 -0.0002
vn -0.9231 0.3846 0.0007
vn -0.9363 0.3511 -0.0000
vn -0.8292 0.5590 -0.0000
vn -0.8477 0.5305 -0.0002
vn -0.8772 0.4802 0.0007
vn -0.8628 0.5055 -0.0000
vn -0.9117 0.4108 -0.0000
vn -0.9035 0.4285 -0.0002
vn -0.8932 0.4497 -0.0000
s 0
f 1//1 2//1 3//1
f 1//2 3//2 7//2
f 1//2 7//2 15//2
f 1//2 15//2 21//2
f 1//2 21//2 28//2
f 1//2 28//2 36//2
f 1//2 36//2 45//2
f 1//2 45//2 51//2
f 1//2 51//2 53//2
f 1//2 53//2 47//2
f 1//2 47//2 41//2
f 1//2 41//2 30//2
f 1//2 30//2 23//2
f 1//2 23//2 16//2
f 1//2 16//2 10//2
f 1//2 10//2 4//2
f 1//3 4//3 11//3
f 1//3 11//3 12//3
f 1//3 12//3 5//3
f 1//4 5//4 2//4
f 2//5 5//5 3//5
f 3//6 6//6 7//6
f 3//7 5//7 8//7
f 3//8 8//8 9//8
f 3//9 9//9 6//9
f 4//10 10//10 11//10
f 5//11 12//11 18//11
f 5//12 18//12 24//12
f 5//11 24//11 29//11
f 5//11 29//11 33//11
f 5//13 33//13 32//13
f 5//14 32//14 40//14
f 5//11 40//11 39//11
f 5//11 39//11 38//11
f 5//11 38//11 46//11
f 5//11 46//11 52//11
f 5//11 52//11 55//11
f 5//11 55//11 49//11
f 5//11 49//11 43//11
f 5//11 43//11 37//11
f 5//11 37//11 34//11
f 5//11 34//11 26//11
f 5//11 26//11 25//11
f 5//11 25//11 19//11
f 5//11 19//11 13//11
f 5//15 13//15 9//15
f 5//16 9//16 8//16
f 6//17 9//17 7//17
f 7//18 9//18 13//18
f 7//19 13//19 14//19
f 7//20 14//20 15//20
f 10//21 16//21 22//21
f 10//21 22//21 17//21
f 10//22 17//22 12//22
f 10//22 12//22 11//22
f 12//23 17//23 18//23
f 13//24 19//24 15//24
f 13//25 15//25 14//25
f 15//26 19//26 20//26
f 15//27 20//27 21//27
f 16//28 23//28 33//28
f 16//28 33//28 29//28
f 16//28 29//28 22//28
f 17//29 22//29 29//29
f 17//29 29//29 24//29
f 17//30 24//30 18//30
f 19//31 25//31 21//31
f 19//32 21//32 20//32
f 21//33 25//33 26//33
f 21//34 26//34 27//34
f 21//35 27//35 28//35
f 23//36 30//36 31//36
f 23//37 31//37 32//37
f 23//38 32//38 33//38
f 26//39 34//39 28//39
f 26//40 28//40 27//40
f 28//41 35//41 36//41
f 28//42 34//42 37//42
f 28//43 37//43 35//43
f 30//44 38//44 39//44
f 30//45 39//45 40//45
f 30//46 40//46 31//46
f 30//47 41//47 42//47
f 30//48 42//48 38//48
f 31//49 40//49 32//49
f 35//50 37//50 36//50
f 36//51 37//51 43//51
f 36//52 43//52 44//52
f 36//53 44//53 45//53
f 38//54 42//54 41//54
f 38//55 41//55 46//55
f 41//56 47//56 48//56
f 41//57 48//57 46//57
f 43//58 49//58 45//58
f 43//59 45//59 44//59
f 45//60 49//60 50//60
f 45//61 50//61 51//61
f 46//62 48//62 47//62
f 46//63 47//63 52//63
f 47//64 53//64 54//64
f 47//65 54//65 52//65
f 49//66 51//66 50//66
f 49//67 55//67 51//67
f 51//68 56//68 53//68
f 51//69 55//69 56//69
f 52//70 54//70 53//70
f 52//71 53//71 55//71
f 53//72 56//72 55//72
