# Blender 4.2.11 LTS
# www.blender.org
o tmp_export_obj_8-collision.019
v 0.102361 0.856495 0.012628
v 0.102361 0.856490 0.012765
v 0.102361 0.866498 0.012628
v 0.292280 0.856505 0.012628
v 0.102361 0.856490 0.012892
v 0.292299 0.856505 0.035001
v 0.102361 0.867635 0.013752
v 0.103253 0.866653 0.012628
v 0.292299 0.856651 0.012628
v 0.102361 0.856499 0.112523
v 0.292299 0.856505 0.035020
v 0.131721 0.856499 0.112523
v 0.102361 0.868900 0.015004
v 0.102993 0.869010 0.015004
v 0.104685 0.869104 0.015004
v 0.104685 0.866732 0.012628
v 0.292299 0.866732 0.012628
v 0.102361 0.868922 0.112523
v 0.292299 0.869104 0.035020
v 0.158050 0.856508 0.112523
v 0.158050 0.856505 0.112494
v 0.102361 0.868922 0.035010
v 0.104034 0.869090 0.035695
v 0.103774 0.869064 0.112523
v 0.104034 0.869090 0.112523
v 0.104294 0.869096 0.112523
v 0.104685 0.869104 0.112523
v 0.292299 0.869104 0.015004
v 0.158050 0.869104 0.112523
v 0.104183 0.869094 0.112523
vn -1.0000 -0.0000 -0.0000
vn -0.0000 -0.0000 -1.0000
vn 0.0001 -0.9994 -0.0355
vn 0.0001 -1.0000 -0.0000
vn -0.1207 0.6980 -0.7059
vn 0.9920 -0.1264 -0.0008
vn 0.0001 -1.0000 0.0001
vn -0.0000 -1.0000 0.0001
vn 1.0000 -0.0000 -0.0000
vn -0.1214 0.6983 -0.7054
vn -0.1204 0.6981 -0.7058
vn -0.0392 0.7072 -0.7059
vn -0.0390 0.7072 -0.7059
vn -0.0000 -0.0000 1.0000
vn -0.0001 -0.0000 1.0000
vn 0.5000 -0.0000 0.8660
vn 0.0490 -0.9950 0.0866
vn 0.0002 -1.0000 0.0004
vn 0.0003 -0.9967 0.0817
vn -0.1713 0.9852 -0.0011
vn -0.0554 0.9985 -0.0011
vn -0.1374 0.9905 -0.0000
vn -0.1000 0.9950 0.0002
vn -0.0991 0.9951 0.0002
vn -0.0768 0.9970 -0.0000
vn -0.0189 0.9998 -0.0000
vn -0.0000 1.0000 -0.0000
vn -0.0000 0.7077 -0.7065
vn -0.0212 0.9998 -0.0000
vn -0.0252 0.9997 -0.0000
vn -0.0219 0.9998 -0.0000
s 0
f 1//1 2//1 5//1
f 1//1 5//1 10//1
f 1//1 10//1 18//1
f 1//1 18//1 22//1
f 1//1 22//1 13//1
f 1//1 13//1 7//1
f 1//1 7//1 3//1
f 1//2 3//2 8//2
f 1//2 8//2 16//2
f 1//2 16//2 17//2
f 1//2 17//2 9//2
f 1//2 9//2 4//2
f 1//3 4//3 2//3
f 2//4 4//4 6//4
f 2//4 6//4 11//4
f 2//4 11//4 5//4
f 3//5 7//5 8//5
f 4//6 9//6 6//6
f 5//7 11//7 12//7
f 5//8 12//8 10//8
f 6//9 9//9 17//9
f 6//9 17//9 28//9
f 6//9 28//9 19//9
f 6//9 19//9 11//9
f 7//10 13//10 14//10
f 7//11 14//11 8//11
f 8//12 14//12 15//12
f 8//13 15//13 16//13
f 10//14 12//14 20//14
f 10//14 20//14 29//14
f 10//14 29//14 27//14
f 10//14 27//14 26//14
f 10//14 26//14 30//14
f 10//15 30//15 25//15
f 10//14 25//14 24//14
f 10//14 24//14 18//14
f 11//16 19//16 29//16
f 11//16 29//16 20//16
f 11//17 20//17 21//17
f 11//18 21//18 12//18
f 12//19 21//19 20//19
f 13//20 22//20 14//20
f 14//21 23//21 15//21
f 14//22 22//22 18//22
f 14//23 18//23 24//23
f 14//24 24//24 25//24
f 14//25 25//25 23//25
f 15//26 26//26 27//26
f 15//27 27//27 29//27
f 15//27 29//27 19//27
f 15//27 19//27 28//27
f 15//28 28//28 17//28
f 15//28 17//28 16//28
f 15//29 23//29 26//29
f 23//30 25//30 30//30
f 23//31 30//31 26//31
