# Blender 4.2.11 LTS
# www.blender.org
o tmp_export_obj_8-collision.008
v 0.494864 0.800729 0.118791
v 0.482268 0.800745 0.118791
v 0.494866 0.822927 0.118791
v 0.494866 0.800740 0.118807
v 0.494866 0.800740 0.201868
v 0.482268 0.800740 0.201868
v 0.482268 0.800740 0.118807
v 0.482268 0.856424 0.118791
v 0.494866 0.854101 0.118791
v 0.494866 0.854101 0.201868
v 0.482268 0.856424 0.201868
v 0.494684 0.856424 0.118791
v 0.494858 0.854505 0.118791
v 0.494853 0.854706 0.201868
v 0.494684 0.856424 0.201868
v 0.494796 0.855306 0.118791
v 0.494852 0.854744 0.118791
v 0.494852 0.854744 0.201868
vn -0.0000 -0.0000 -1.0000
vn -0.0001 -0.0000 -1.0000
vn 0.0005 -0.0000 -1.0000
vn -0.0008 -0.0000 -1.0000
vn 0.9887 -0.0001 -0.1502
vn 0.9727 -0.2320 -0.0000
vn -0.0000 -1.0000 0.0001
vn -0.0009 -1.0000 -0.0000
vn -0.0012 -0.9478 -0.3190
vn -1.0000 -0.0000 -0.0000
vn 1.0000 -0.0000 -0.0000
vn 0.0002 -0.0000 1.0000
vn -0.0116 -0.0000 0.9999
vn 0.0001 -0.0000 1.0000
vn -0.0000 -0.0000 1.0000
vn -0.0000 1.0000 -0.0000
vn 0.9998 0.0213 -0.0000
vn 0.9997 0.0224 -0.0000
vn 0.9950 0.0999 -0.0000
vn 0.9997 0.0258 -0.0000
vn 0.9995 0.0328 -0.0000
vn 0.9951 0.0994 -0.0000
vn 0.9952 0.0984 -0.0000
s 0
f 1//1 2//1 8//1
f 1//1 8//1 12//1
f 1//2 12//2 16//2
f 1//1 16//1 17//1
f 1//3 17//3 13//3
f 1//4 13//4 9//4
f 1//1 9//1 3//1
f 1//5 3//5 4//5
f 1//6 4//6 5//6
f 1//7 5//7 6//7
f 1//8 6//8 7//8
f 1//9 7//9 2//9
f 2//10 7//10 6//10
f 2//10 6//10 11//10
f 2//10 11//10 8//10
f 3//11 9//11 10//11
f 3//11 10//11 5//11
f 3//11 5//11 4//11
f 5//12 10//12 14//12
f 5//13 14//13 18//13
f 5//14 18//14 15//14
f 5//15 15//15 11//15
f 5//15 11//15 6//15
f 8//16 11//16 15//16
f 8//16 15//16 12//16
f 9//17 13//17 10//17
f 10//18 13//18 14//18
f 12//19 15//19 16//19
f 13//20 17//20 14//20
f 14//21 17//21 18//21
f 15//22 18//22 16//22
f 16//23 18//23 17//23
