# Blender 4.2.11 LTS
# www.blender.org
o tmp_export_obj_8-collision.024
v 0.092039 0.478939 0.012626
v 0.095999 0.637263 0.008669
v 0.104682 0.478939 0.000001
v 0.092137 0.477527 0.012626
v 0.092039 0.854071 0.012626
v 0.104682 0.854071 0.000001
v 0.292299 0.478939 0.000001
v 0.104682 0.466277 0.012626
v 0.103271 0.466395 0.012626
v 0.101860 0.466630 0.012626
v 0.100507 0.467022 0.012626
v 0.099194 0.467571 0.012626
v 0.097978 0.468237 0.012626
v 0.096802 0.469060 0.012626
v 0.095744 0.470001 0.012626
v 0.094803 0.471060 0.012626
v 0.093979 0.472236 0.012626
v 0.093293 0.473451 0.012626
v 0.092764 0.474783 0.012626
v 0.092372 0.476116 0.012626
v 0.092137 0.855482 0.012626
v 0.092372 0.856854 0.012626
v 0.092764 0.858226 0.012626
v 0.093293 0.859559 0.012626
v 0.093979 0.860774 0.012626
v 0.094803 0.861950 0.012626
v 0.095744 0.863009 0.012626
v 0.096802 0.863949 0.012626
v 0.097978 0.864773 0.012626
v 0.099194 0.865439 0.012626
v 0.100507 0.865988 0.012626
v 0.101860 0.866380 0.012626
v 0.103271 0.866615 0.012626
v 0.104682 0.866733 0.012626
v 0.292299 0.854071 0.000001
v 0.292299 0.466277 0.012626
v 0.292299 0.866733 0.012626
vn -0.7066 -0.0000 -0.7076
vn -0.7057 -0.0490 -0.7068
vn -0.0000 -0.0000 1.0000
vn -0.7069 -0.0000 -0.7073
vn -0.7064 -0.0000 -0.7078
vn -0.0000 -0.7061 -0.7081
vn -0.0587 -0.7049 -0.7069
vn -0.1163 -0.6980 -0.7065
vn -0.1970 -0.6796 -0.7066
vn -0.2728 -0.6530 -0.7065
vn -0.3402 -0.6205 -0.7066
vn -0.4057 -0.5796 -0.7067
vn -0.4699 -0.5287 -0.7069
vn -0.5286 -0.4699 -0.7069
vn -0.5795 -0.4057 -0.7068
vn -0.6160 -0.3478 -0.7068
vn -0.6576 -0.2611 -0.7067
vn -0.6789 -0.1997 -0.7066
vn -0.6980 -0.1164 -0.7066
vn -0.0000 -0.0000 -1.0000
vn -0.7057 0.0490 -0.7068
vn -0.6975 0.1196 -0.7066
vn -0.6806 0.1945 -0.7064
vn -0.6576 0.2611 -0.7067
vn -0.6159 0.3478 -0.7069
vn -0.5796 0.4057 -0.7067
vn -0.5286 0.4699 -0.7069
vn -0.4699 0.5287 -0.7069
vn -0.4057 0.5796 -0.7067
vn -0.3402 0.6205 -0.7066
vn -0.2728 0.6530 -0.7065
vn -0.1970 0.6796 -0.7066
vn -0.1163 0.6980 -0.7065
vn -0.0587 0.7049 -0.7069
vn -0.0000 0.7061 -0.7081
vn 1.0000 -0.0000 -0.0000
s 0
f 1//1 2//1 3//1
f 1//2 3//2 4//2
f 1//3 4//3 20//3
f 1//3 20//3 19//3
f 1//3 19//3 18//3
f 1//3 18//3 17//3
f 1//3 17//3 16//3
f 1//3 16//3 15//3
f 1//3 15//3 14//3
f 1//3 14//3 13//3
f 1//3 13//3 12//3
f 1//3 12//3 11//3
f 1//3 11//3 10//3
f 1//3 10//3 9//3
f 1//3 9//3 8//3
f 1//3 8//3 36//3
f 1//3 36//3 37//3
f 1//3 37//3 34//3
f 1//3 34//3 33//3
f 1//3 33//3 32//3
f 1//3 32//3 31//3
f 1//3 31//3 30//3
f 1//3 30//3 29//3
f 1//3 29//3 28//3
f 1//3 28//3 27//3
f 1//3 27//3 26//3
f 1//3 26//3 25//3
f 1//3 25//3 24//3
f 1//3 24//3 23//3
f 1//3 23//3 22//3
f 1//3 22//3 21//3
f 1//3 21//3 5//3
f 1//4 5//4 2//4
f 2//1 5//1 6//1
f 2//5 6//5 3//5
f 3//6 7//6 36//6
f 3//6 36//6 8//6
f 3//7 8//7 9//7
f 3//8 9//8 10//8
f 3//9 10//9 11//9
f 3//10 11//10 12//10
f 3//11 12//11 13//11
f 3//12 13//12 14//12
f 3//13 14//13 15//13
f 3//14 15//14 16//14
f 3//15 16//15 17//15
f 3//16 17//16 18//16
f 3//17 18//17 19//17
f 3//18 19//18 20//18
f 3//19 20//19 4//19
f 3//20 6//20 35//20
f 3//20 35//20 7//20
f 5//21 21//21 6//21
f 6//22 21//22 22//22
f 6//23 22//23 23//23
f 6//24 23//24 24//24
f 6//25 24//25 25//25
f 6//26 25//26 26//26
f 6//27 26//27 27//27
f 6//28 27//28 28//28
f 6//29 28//29 29//29
f 6//30 29//30 30//30
f 6//31 30//31 31//31
f 6//32 31//32 32//32
f 6//33 32//33 33//33
f 6//34 33//34 34//34
f 6//35 34//35 37//35
f 6//35 37//35 35//35
f 7//36 35//36 37//36
f 7//36 37//36 36//36
