# Blender 4.2.11 LTS
# www.blender.org
o tmp_export_obj_8-collision.010
v 0.494684 0.476576 0.201868
v 0.482263 0.476576 0.201868
v 0.494316 0.474885 0.201868
v 0.494684 0.476576 0.142765
v 0.426500 0.476504 0.201868
v 0.482256 0.476576 0.112601
v 0.493763 0.473263 0.201868
v 0.493849 0.473514 0.112601
v 0.494316 0.474885 0.112601
v 0.494677 0.476573 0.112601
v 0.494003 0.476576 0.112601
v 0.426500 0.463905 0.201868
v 0.426500 0.476504 0.112601
v 0.493028 0.471715 0.201868
v 0.493763 0.473263 0.112601
v 0.479860 0.463905 0.201868
v 0.426500 0.463905 0.112601
v 0.492121 0.470262 0.201868
v 0.493028 0.471715 0.112601
v 0.480468 0.463919 0.201868
v 0.479860 0.463905 0.112601
v 0.480247 0.463914 0.112601
v 0.491060 0.468922 0.201868
v 0.492121 0.470262 0.112601
v 0.480508 0.463920 0.201868
v 0.480354 0.463916 0.112601
v 0.480508 0.463920 0.112601
v 0.489845 0.467710 0.201868
v 0.491060 0.468922 0.112601
v 0.482210 0.464090 0.201868
v 0.482210 0.464090 0.112601
v 0.489384 0.467344 0.201868
v 0.489845 0.467710 0.112601
v 0.483885 0.464454 0.201868
v 0.483885 0.464454 0.112601
v 0.488503 0.466646 0.201868
v 0.488503 0.466646 0.112601
v 0.485507 0.465006 0.201868
v 0.485507 0.465006 0.112601
v 0.487055 0.465741 0.201868
v 0.487055 0.465741 0.112601
vn -0.0000 -0.0000 1.0000
vn 0.0007 -0.0000 1.0000
vn 0.0001 -0.0000 1.0000
vn -0.0001 -0.0000 1.0000
vn -0.0002 -0.0000 1.0000
vn 0.9773 -0.2121 -0.0000
vn 0.9773 -0.2120 -0.0000
vn -0.0000 1.0000 -0.0000
vn -0.0013 1.0000 -0.0000
vn 0.9463 -0.3233 -0.0000
vn 0.9465 -0.3226 -0.0000
vn 0.9780 -0.2088 -0.0002
vn 0.0055 1.0000 -0.0001
vn -1.0000 -0.0000 -0.0000
vn -0.0000 -0.0000 -1.0000
vn 0.0001 -0.0000 -1.0000
vn 0.9035 -0.4285 -0.0000
vn 0.9035 -0.4286 -0.0000
vn 0.9449 -0.3274 -0.0000
vn -0.0000 -1.0000 -0.0000
vn 0.8482 -0.5296 -0.0000
vn 0.8483 -0.5296 -0.0000
vn 0.0224 -0.9997 -0.0000
vn 0.0225 -0.9997 -0.0000
vn 0.7839 -0.6209 -0.0000
vn 0.7838 -0.6210 -0.0000
vn 0.0234 -0.9997 -0.0000
vn 0.0242 -0.9997 -0.0000
vn 0.0312 -0.9995 -0.0000
vn 0.7063 -0.7080 -0.0000
vn 0.7063 -0.7079 -0.0000
vn 0.0993 -0.9951 -0.0000
vn 0.6220 -0.7830 -0.0000
vn 0.2127 -0.9771 -0.0000
vn 0.6212 -0.7837 -0.0000
vn 0.6215 -0.7834 -0.0000
vn 0.3222 -0.9467 -0.0000
vn 0.5301 -0.8479 -0.0000
vn 0.4285 -0.9035 -0.0000
vn 0.4285 -0.9036 -0.0000
s 0
f 1//1 2//1 5//1
f 1//1 5//1 12//1
f 1//1 12//1 16//1
f 1//1 16//1 20//1
f 1//2 20//2 25//2
f 1//1 25//1 30//1
f 1//1 30//1 34//1
f 1//1 34//1 38//1
f 1//1 38//1 40//1
f 1//1 40//1 36//1
f 1//1 36//1 32//1
f 1//1 32//1 28//1
f 1//1 28//1 23//1
f 1//1 23//1 18//1
f 1//3 18//3 14//3
f 1//4 14//4 7//4
f 1//5 7//5 3//5
f 1//6 3//6 9//6
f 1//7 9//7 4//7
f 1//8 4//8 11//8
f 1//8 11//8 6//8
f 1//8 6//8 2//8
f 2//9 6//9 5//9
f 3//10 7//10 8//10
f 3//11 8//11 9//11
f 4//12 9//12 10//12
f 4//13 10//13 11//13
f 5//9 6//9 13//9
f 5//14 13//14 17//14
f 5//14 17//14 12//14
f 6//15 11//15 10//15
f 6//15 10//15 9//15
f 6//15 9//15 8//15
f 6//15 8//15 15//15
f 6//15 15//15 19//15
f 6//15 19//15 24//15
f 6//15 24//15 29//15
f 6//15 29//15 33//15
f 6//15 33//15 37//15
f 6//15 37//15 41//15
f 6//15 41//15 39//15
f 6//15 39//15 35//15
f 6//15 35//15 31//15
f 6//15 31//15 27//15
f 6//15 27//15 26//15
f 6//16 26//16 22//16
f 6//15 22//15 21//15
f 6//15 21//15 17//15
f 6//15 17//15 13//15
f 7//17 14//17 19//17
f 7//18 19//18 15//18
f 7//19 15//19 8//19
f 12//20 17//20 21//20
f 12//20 21//20 16//20
f 14//21 18//21 24//21
f 14//22 24//22 19//22
f 16//23 21//23 22//23
f 16//24 22//24 20//24
f 18//25 23//25 29//25
f 18//26 29//26 24//26
f 20//27 22//27 26//27
f 20//28 26//28 27//28
f 20//29 27//29 25//29
f 23//30 28//30 33//30
f 23//31 33//31 29//31
f 25//32 27//32 31//32
f 25//32 31//32 30//32
f 28//33 32//33 33//33
f 30//34 31//34 35//34
f 30//34 35//34 34//34
f 32//35 36//35 37//35
f 32//36 37//36 33//36
f 34//37 35//37 39//37
f 34//37 39//37 38//37
f 36//38 40//38 41//38
f 36//38 41//38 37//38
f 38//39 39//39 41//39
f 38//40 41//40 40//40
