# Blender 4.2.11 LTS
# www.blender.org
o tmp_export_6_part_puzzle_cube.001
v -21.769947 17.044205 8.867522
v -21.203655 17.044205 8.867522
v -21.217091 17.025206 8.867522
v -21.784092 17.044205 8.847522
v -21.217091 17.044205 8.848523
v -0.568092 -12.937794 8.867522
v -0.015235 -12.955795 8.867522
v -0.580818 -12.955795 8.867522
v -0.568092 -12.955795 8.849523
v -21.784092 -12.935795 -21.132477
v -21.798235 -12.955795 -21.132477
v -43.000092 -12.955795 8.849523
v -43.000092 -12.937794 8.867522
v -0.015235 17.044205 -21.132477
v -0.001090 17.024204 -21.132477
v -45.001091 17.044205 -21.132477
v -21.769947 -12.955795 -21.132477
v -0.001090 -12.955795 8.847522
v 21.772469 -12.955795 -21.132477
v 0.569909 -12.955795 8.848523
v 21.785912 -12.936794 -21.132477
v 0.569909 -12.936794 8.867522
v 21.785912 17.044205 8.848523
v 43.001907 -12.936794 8.867522
v 43.001907 -12.955795 8.848523
v 21.799347 -12.955795 -21.132477
v 0.013055 17.044205 -21.132477
v 44.998909 17.044205 -21.132477
v 44.998909 17.044205 8.867522
v 44.998909 -12.955795 -21.132477
v 21.799347 17.044205 8.867522
v 44.998909 -12.955795 8.867522
v 42.988472 -12.955795 8.867522
v 21.214912 17.044205 8.848523
v 21.201469 17.044205 8.867522
v 21.214912 17.025206 8.867522
v 21.772469 17.044205 8.867522
v 0.013055 -12.955795 8.867522
v 0.583344 -12.955795 8.867522
v -21.798235 17.044205 8.867522
v -45.001091 17.044205 8.867522
v -45.001091 -12.955795 -21.132477
v -45.001091 -12.955795 8.867522
v -42.987362 -12.955795 8.867522
vn -0.0000 1.0000 -0.0000
vn -0.0000 -0.0000 1.0000
vn -0.7070 -0.5000 0.5001
vn -0.7072 0.4999 -0.4999
vn -0.7070 -0.5000 0.5000
vn -0.7071 -0.5000 0.5000
vn -0.0000 -0.0000 -1.0000
vn 0.7070 -0.5001 0.5000
vn 0.7072 -0.4998 0.5001
vn 0.7071 -0.5000 0.5000
vn -0.0000 -1.0000 -0.0000
vn 0.7070 -0.5002 0.5000
vn 0.7071 -0.5000 0.5001
vn -0.7071 -0.5000 0.5001
vn 1.0000 -0.0000 -0.0000
vn -0.7071 0.4999 -0.5001
vn -0.7071 0.5001 0.5000
vn -0.7069 -0.5002 -0.5001
vn -0.7071 0.5000 0.5000
vn 0.7070 -0.5000 0.5002
vn -0.7070 0.5000 0.5001
vn 0.7071 0.5000 -0.5000
vn 0.7070 0.5000 0.5001
vn 0.7071 0.5000 0.5000
vn -0.0000 1.0000 -0.0001
vn -1.0000 -0.0000 -0.0000
vn 0.7071 0.5000 -0.5001
vn 0.7071 0.5001 0.5000
vn 0.7071 -0.5000 -0.5000
s 0
f 2//1 5//1 1//1
f 1//2 3//2 2//2
f 1//2 6//2 3//2
f 1//3 4//3 6//3
f 4//1 1//1 5//1
f 7//2 3//2 6//2
f 7//2 6//2 8//2
f 8//4 6//4 9//4
f 9//5 6//5 10//5
f 4//6 10//6 6//6
f 10//7 11//7 16//7
f 11//8 10//8 12//8
f 12//9 10//9 13//9
f 4//10 13//10 10//10
f 14//7 10//7 16//7
f 14//7 15//7 10//7
f 10//7 15//7 17//7
f 9//6 10//6 17//6
f 17//11 18//11 9//11
f 17//11 19//11 18//11
f 19//7 17//7 15//7
f 19//11 20//11 18//11
f 19//12 21//12 20//12
f 19//7 15//7 21//7
f 22//13 20//13 21//13
f 22//10 21//10 23//10
f 23//6 21//6 24//6
f 25//14 24//14 21//14
f 25//6 21//6 26//6
f 28//7 26//7 21//7
f 27//7 21//7 15//7
f 28//7 21//7 27//7
f 29//1 28//1 31//1
f 29//15 30//15 28//15
f 28//7 30//7 26//7
f 27//1 23//1 28//1
f 23//1 31//1 28//1
f 31//2 24//2 29//2
f 31//6 23//6 24//6
f 26//11 30//11 25//11
f 32//11 25//11 30//11
f 29//15 32//15 30//15
f 32//2 29//2 24//2
f 24//2 33//2 32//2
f 33//11 25//11 32//11
f 33//16 24//16 25//16
f 27//1 34//1 23//1
f 27//17 15//17 34//17
f 37//1 34//1 35//1
f 34//18 36//18 35//18
f 18//19 36//19 34//19
f 37//1 23//1 34//1
f 18//19 34//19 15//19
f 22//20 23//20 37//20
f 22//2 37//2 36//2
f 35//2 36//2 37//2
f 36//2 38//2 22//2
f 38//21 36//21 18//21
f 39//2 22//2 38//2
f 38//11 20//11 39//11
f 38//11 18//11 20//11
f 20//22 22//22 39//22
f 7//11 9//11 18//11
f 7//23 18//23 3//23
f 5//24 18//24 15//24
f 5//24 3//24 18//24
f 40//1 16//1 41//1
f 40//25 4//25 16//25
f 16//1 4//1 14//1
f 16//26 42//26 41//26
f 42//7 16//7 11//7
f 43//26 41//26 42//26
f 43//11 42//11 12//11
f 11//11 12//11 42//11
f 43//11 12//11 44//11
f 44//2 13//2 43//2
f 41//2 43//2 13//2
f 12//27 13//27 44//27
f 13//2 40//2 41//2
f 13//10 4//10 40//10
f 5//28 15//28 14//28
f 5//1 14//1 4//1
f 8//11 9//11 7//11
f 2//29 3//29 5//29
