# Blender 4.2.11 LTS
# www.blender.org
o tmp_export_geometry_10.001
v -0.311304 0.300389 0.240342
v -0.311304 0.250390 0.240342
v -0.311304 0.300389 0.235957
v -0.508898 0.300389 0.240342
v -0.312098 0.249715 0.240342
v -0.311304 0.250390 0.235957
v -0.508898 0.300389 0.235957
v -0.509076 0.300221 0.235957
v -0.509235 0.300057 0.240342
v -0.312157 0.249666 0.240342
v -0.312157 0.249666 0.235957
v -0.513459 0.295841 0.235957
v -0.513915 0.295385 0.240342
v -0.513915 0.249666 0.240342
v -0.513915 0.249666 0.235957
v -0.513915 0.295385 0.235957
vn 1.0000 -0.0000 -0.0000
vn -0.0000 1.0000 -0.0000
vn -0.0000 -0.0000 1.0000
vn -0.0001 -0.0000 1.0000
vn 0.6482 -0.7615 -0.0000
vn -0.0000 -0.0000 -1.0000
vn -0.6869 0.7267 -0.0000
vn -0.7025 0.7117 0.0012
vn 0.6409 -0.7676 -0.0000
vn 0.6476 -0.7619 -0.0002
vn -0.7068 0.7074 0.0002
vn -0.7065 0.7077 0.0009
vn -0.0000 -1.0000 -0.0000
vn -0.7075 0.7067 -0.0000
vn -1.0000 -0.0000 -0.0000
s 0
f 1//1 2//1 6//1
f 1//1 6//1 3//1
f 1//2 3//2 7//2
f 1//2 7//2 4//2
f 1//3 4//3 9//3
f 1//3 9//3 13//3
f 1//3 13//3 14//3
f 1//3 14//3 10//3
f 1//4 10//4 5//4
f 1//3 5//3 2//3
f 2//5 5//5 6//5
f 3//6 6//6 11//6
f 3//6 11//6 15//6
f 3//6 15//6 16//6
f 3//6 16//6 12//6
f 3//6 12//6 8//6
f 3//6 8//6 7//6
f 4//7 7//7 8//7
f 4//8 8//8 9//8
f 5//9 10//9 11//9
f 5//10 11//10 6//10
f 8//11 12//11 13//11
f 8//12 13//12 9//12
f 10//13 14//13 15//13
f 10//13 15//13 11//13
f 12//14 16//14 13//14
f 13//15 16//15 15//15
f 13//15 15//15 14//15
