# Blender 4.2.11 LTS
# www.blender.org
o tmp_export_geometry_6.003
v -0.258985 0.295387 0.198855
v -0.263919 0.295387 0.203805
v -0.258985 0.255391 0.198855
v -0.258985 0.300389 0.193853
v -0.263919 0.255391 0.203805
v -0.268915 0.300384 0.203805
v -0.258985 0.250389 0.193853
v -0.258985 0.300389 0.156293
v -0.268920 0.300389 0.203790
v -0.268920 0.250389 0.203805
v -0.268997 0.300389 0.203805
v -0.258985 0.250389 0.193740
v -0.311375 0.300389 0.156293
v -0.258985 0.295387 0.151291
v -0.311375 0.250394 0.203805
v -0.268920 0.250389 0.203790
v -0.311375 0.300389 0.203805
v -0.258985 0.250394 0.156293
v -0.311375 0.250394 0.156293
v -0.311375 0.295387 0.151291
v -0.258985 0.255391 0.151291
v -0.311375 0.255391 0.151291
vn 0.7083 -0.0000 0.7059
vn 1.0000 -0.0000 -0.0000
vn 0.5786 0.5767 0.5767
vn 0.5778 0.5776 0.5767
vn 0.0003 -0.0000 1.0000
vn -0.0000 -0.0000 1.0000
vn 0.5786 -0.5767 0.5767
vn -0.0000 1.0000 -0.0000
vn -0.0000 1.0000 0.0004
vn 0.2257 0.9480 0.2244
vn 0.5777 -0.5776 0.5767
vn 0.0571 0.9565 0.2861
vn -0.0000 -1.0000 -0.0000
vn -0.0000 0.7071 -0.7071
vn -0.0001 -1.0000 -0.0000
vn -0.0001 -1.0000 -0.0001
vn -0.0000 -1.0000 -0.0001
vn -1.0000 -0.0000 -0.0000
vn -0.0000 -0.0000 -1.0000
vn -0.0000 -0.7074 -0.7068
s 0
f 1//1 2//1 5//1
f 1//1 5//1 3//1
f 1//2 3//2 7//2
f 1//2 7//2 12//2
f 1//2 12//2 18//2
f 1//2 18//2 21//2
f 1//2 21//2 14//2
f 1//2 14//2 8//2
f 1//2 8//2 4//2
f 1//3 4//3 2//3
f 2//4 4//4 6//4
f 2//5 6//5 11//5
f 2//6 11//6 17//6
f 2//6 17//6 15//6
f 2//6 15//6 10//6
f 2//6 10//6 5//6
f 3//7 5//7 7//7
f 4//8 8//8 13//8
f 4//8 13//8 17//8
f 4//8 17//8 11//8
f 4//9 11//9 9//9
f 4//10 9//10 6//10
f 5//11 10//11 7//11
f 6//12 9//12 11//12
f 7//13 10//13 16//13
f 7//13 16//13 12//13
f 8//14 14//14 20//14
f 8//14 20//14 13//14
f 10//15 15//15 19//15
f 10//15 19//15 16//15
f 12//16 16//16 19//16
f 12//17 19//17 18//17
f 13//18 20//18 22//18
f 13//18 22//18 19//18
f 13//18 19//18 15//18
f 13//18 15//18 17//18
f 14//19 21//19 22//19
f 14//19 22//19 20//19
f 18//20 19//20 22//20
f 18//20 22//20 21//20
