# Blender 4.2.11 LTS
# www.blender.org
o tmp_export_geometry_4.004
v -0.166445 0.245391 0.198791
v -0.208917 0.245391 0.198791
v -0.166445 0.205420 0.198791
v -0.166445 0.245391 0.151291
v -0.208913 0.205394 0.198791
v -0.213913 0.245391 0.193774
v -0.213913 0.245387 0.193788
v -0.213913 0.205394 0.193788
v -0.166445 0.205389 0.198787
v -0.166445 0.205394 0.151291
v -0.208903 0.245391 0.151291
v -0.208913 0.200389 0.193788
v -0.166445 0.200389 0.193788
v -0.213913 0.245391 0.156294
v -0.213913 0.205394 0.156294
v -0.208913 0.205394 0.151291
v -0.166445 0.200389 0.156294
v -0.208913 0.245387 0.151291
v -0.208913 0.200389 0.156294
vn -0.0000 -0.0000 1.0000
vn 1.0000 -0.0000 -0.0000
vn -0.0000 1.0000 -0.0000
vn -0.2889 0.9134 0.2867
vn -0.7076 -0.0000 0.7066
vn -0.7073 -0.0001 0.7069
vn 0.0001 -0.1491 0.9888
vn -0.0000 -0.0000 -1.0000
vn -0.5776 -0.5771 0.5773
vn -0.0000 -0.7070 0.7072
vn -1.0000 -0.0000 -0.0000
vn -0.7074 -0.7068 -0.0000
vn -0.0000 -0.7070 -0.7072
vn -0.3930 0.8322 -0.3911
vn -0.0000 -1.0000 -0.0000
vn -0.7073 -0.0000 -0.7069
vn -0.5776 -0.5771 -0.5773
s 0
f 1//1 2//1 5//1
f 1//1 5//1 3//1
f 1//2 3//2 9//2
f 1//2 9//2 13//2
f 1//2 13//2 17//2
f 1//2 17//2 10//2
f 1//2 10//2 4//2
f 1//3 4//3 11//3
f 1//3 11//3 14//3
f 1//3 14//3 6//3
f 1//3 6//3 2//3
f 2//4 6//4 7//4
f 2//5 7//5 8//5
f 2//6 8//6 5//6
f 3//7 5//7 9//7
f 4//8 10//8 16//8
f 4//8 16//8 18//8
f 4//8 18//8 11//8
f 5//9 8//9 12//9
f 5//10 12//10 13//10
f 5//10 13//10 9//10
f 6//11 14//11 15//11
f 6//11 15//11 8//11
f 6//11 8//11 7//11
f 8//12 15//12 19//12
f 8//12 19//12 12//12
f 10//13 17//13 19//13
f 10//13 19//13 16//13
f 11//14 18//14 14//14
f 12//15 19//15 17//15
f 12//15 17//15 13//15
f 14//16 18//16 16//16
f 14//16 16//16 15//16
f 15//17 16//17 19//17
