# Blender 4.2.11 LTS
# www.blender.org
o tmp_export_geometry_11.001
v -0.311304 0.300389 0.246289
v -0.311304 0.295380 0.251291
v -0.311304 0.300389 0.240343
v -0.508898 0.300389 0.246289
v -0.311304 0.255392 0.251291
v -0.508898 0.295380 0.251291
v -0.311304 0.250392 0.240343
v -0.508898 0.300389 0.240343
v -0.513915 0.295380 0.246289
v -0.317155 0.249667 0.251291
v -0.311304 0.250392 0.246290
v -0.508898 0.249667 0.251291
v -0.513915 0.268370 0.246290
v -0.312098 0.249717 0.240343
v -0.513915 0.295380 0.240343
v -0.312871 0.249667 0.247014
v -0.312177 0.249667 0.246290
v -0.513915 0.249667 0.246290
v -0.312177 0.249667 0.240343
v -0.513915 0.249667 0.240343
vn 1.0000 -0.0000 -0.0000
vn -0.0000 1.0000 -0.0000
vn -0.0000 0.7066 0.7076
vn -0.0000 -0.0000 1.0000
vn -0.0000 -0.0000 -1.0000
vn -0.0004 -0.0000 -1.0000
vn -0.7065 0.7077 -0.0000
vn -0.5765 0.5774 0.5782
vn 0.5690 -0.5816 0.5814
vn -0.7060 -0.0000 0.7082
vn -0.7060 -0.0000 0.7083
vn 0.6482 -0.7615 -0.0000
vn -1.0000 -0.0000 -0.0000
vn 0.5464 -0.6340 0.5473
vn -0.0000 -1.0000 -0.0000
vn -0.0000 -1.0000 -0.0002
vn 0.5449 -0.6560 0.5222
vn 0.6390 -0.7692 0.0021
vn 0.5306 -0.8476 -0.0000
s 0
f 1//1 2//1 5//1
f 1//1 5//1 11//1
f 1//1 11//1 7//1
f 1//1 7//1 3//1
f 1//2 3//2 8//2
f 1//2 8//2 4//2
f 1//3 4//3 6//3
f 1//3 6//3 2//3
f 2//4 6//4 12//4
f 2//4 12//4 10//4
f 2//4 10//4 5//4
f 3//5 7//5 14//5
f 3//6 14//6 19//6
f 3//5 19//5 20//5
f 3//5 20//5 15//5
f 3//5 15//5 8//5
f 4//7 8//7 15//7
f 4//7 15//7 9//7
f 4//8 9//8 6//8
f 5//9 10//9 11//9
f 6//10 9//10 13//10
f 6//10 13//10 18//10
f 6//11 18//11 12//11
f 7//12 11//12 14//12
f 9//13 15//13 20//13
f 9//13 20//13 18//13
f 9//13 18//13 13//13
f 10//14 16//14 11//14
f 10//15 12//15 18//15
f 10//15 18//15 20//15
f 10//15 20//15 19//15
f 10//15 19//15 17//15
f 10//16 17//16 16//16
f 11//17 16//17 17//17
f 11//18 17//18 14//18
f 14//19 17//19 19//19
