# Blender 4.2.11 LTS
# www.blender.org
o tmp_export_geometry_5.003
v -0.218910 0.250393 0.156294
v -0.213912 0.245397 0.156294
v -0.218910 0.250393 0.193788
v -0.218910 0.255394 0.151291
v -0.213912 0.245397 0.193774
v -0.208905 0.245397 0.151291
v -0.208915 0.245397 0.198791
v -0.218910 0.255394 0.198791
v -0.218910 0.295388 0.151291
v -0.166445 0.245397 0.151291
v -0.166445 0.245397 0.198791
v -0.218910 0.295388 0.198791
v -0.218910 0.297428 0.153333
v -0.166445 0.295388 0.151291
v -0.166445 0.295388 0.198791
v -0.218910 0.300384 0.193788
v -0.218910 0.298941 0.154848
v -0.166445 0.300384 0.156294
v -0.166445 0.300384 0.193788
v -0.218910 0.300384 0.156294
vn -0.7070 -0.7072 -0.0000
vn -1.0000 -0.0000 -0.0000
vn -0.5773 -0.5775 -0.5773
vn -0.5770 -0.5775 -0.5776
vn -0.0000 -1.0000 -0.0000
vn -0.5775 -0.5793 0.5753
vn -0.5775 -0.5774 0.5772
vn -0.0000 -0.0000 -1.0000
vn -0.0000 -0.0000 1.0000
vn -0.0000 0.7072 -0.7070
vn 1.0000 -0.0000 -0.0000
vn -0.0000 0.7076 0.7066
vn -0.0000 0.7078 -0.7064
vn -0.0000 0.7076 -0.7066
vn -0.0000 1.0000 -0.0000
vn -0.0000 0.7079 -0.7063
s 0
f 1//1 2//1 5//1
f 1//1 5//1 3//1
f 1//2 3//2 8//2
f 1//2 8//2 12//2
f 1//2 12//2 16//2
f 1//2 16//2 20//2
f 1//2 20//2 17//2
f 1//2 17//2 13//2
f 1//2 13//2 9//2
f 1//2 9//2 4//2
f 1//3 4//3 2//3
f 2//4 4//4 6//4
f 2//5 6//5 10//5
f 2//5 10//5 11//5
f 2//5 11//5 7//5
f 2//5 7//5 5//5
f 3//6 5//6 7//6
f 3//7 7//7 8//7
f 4//8 9//8 14//8
f 4//8 14//8 10//8
f 4//8 10//8 6//8
f 7//9 11//9 15//9
f 7//9 15//9 12//9
f 7//9 12//9 8//9
f 9//10 13//10 14//10
f 10//11 14//11 18//11
f 10//11 18//11 19//11
f 10//11 19//11 15//11
f 10//11 15//11 11//11
f 12//12 15//12 19//12
f 12//12 19//12 16//12
f 13//13 17//13 18//13
f 13//14 18//14 14//14
f 16//15 19//15 18//15
f 16//15 18//15 20//15
f 17//16 20//16 18//16
