# Blender 4.2.11 LTS
# www.blender.org
o tmp_export_geometry_7.002
v 16.373188 -0.971930 -8.589799
v 16.353149 -1.204991 -8.567904
v 16.337826 -0.996000 -8.919537
v 16.344015 -0.922655 -8.919537
v 16.322798 -0.761523 -8.919537
v 16.353149 -0.814762 -8.567904
v 16.345488 -1.138726 -7.523077
v 16.296572 -1.430973 -8.539001
v 16.303350 -1.227929 -8.919537
v 16.322798 -1.151752 -8.919537
v 16.322504 -1.373486 -7.504685
v 16.264748 -0.607187 -8.919537
v 16.296572 -0.665806 -8.539001
v 16.322504 -0.983257 -7.504685
v 16.194614 -1.314584 -6.452414
v 16.204634 -1.642795 -8.506160
v 16.229975 -1.449946 -8.919537
v 16.264748 -1.372354 -8.919537
v 16.262980 -1.601167 -7.481914
v 16.169567 -1.550194 -6.437087
v 16.171335 -0.466727 -8.919537
v 16.204634 -0.531860 -8.506160
v 16.262980 -0.835718 -7.481914
v 16.169567 -1.159965 -6.437087
v 15.921453 -1.496955 -5.391384
v 16.119768 -1.654123 -8.919537
v 16.171335 -1.577946 -8.919537
v 16.168390 -1.814122 -7.458268
v 16.081459 -1.833662 -8.469377
v 16.107685 -1.778724 -6.422198
v 15.894048 -1.733415 -5.380437
v 16.046688 -0.347223 -8.919537
v 16.081459 -0.419719 -8.469377
v 16.168390 -0.703187 -7.458268
v 16.107685 -1.013558 -6.422198
v 15.894048 -1.343469 -5.380437
v 15.563128 -1.667433 -4.445960
v 15.561066 -1.688671 -4.445960
v 16.046688 -1.761167 -8.919537
v 16.041679 -2.006122 -7.435935
v 16.011328 -1.992812 -6.409061
v 15.887859 -2.171502 -7.415353
v 15.930292 -1.997626 -8.433030
v 15.894636 -1.917485 -8.919537
v 15.830987 -1.962795 -5.373430
v 15.536608 -1.903609 -4.445960
v 15.894636 -0.254905 -8.919537
v 15.930292 -0.335046 -8.433030
v 16.041679 -0.592178 -7.435935
v 16.011328 -0.882160 -6.409061
v 15.830987 -1.197628 -5.373430
v 15.536608 -1.513663 -4.445960
v 15.883144 -2.185945 -6.400303
v 15.734039 -2.177732 -5.372554
v 15.713118 -2.305166 -7.396086
v 15.728147 -2.352174 -6.397676
v 15.553109 -2.486404 -6.397238
v 15.758497 -2.130157 -8.395371
v 15.721663 -2.041520 -8.919537
v 15.530714 -1.925414 -4.445960
v 15.472663 -2.133555 -4.445960
v 15.721663 -0.194020 -8.919537
v 15.758497 -0.282657 -8.395371
v 15.887859 -0.508922 -7.415353
v 15.883144 -0.772284 -6.400303
v 15.734039 -1.066797 -5.372554
v 15.472663 -1.368389 -4.445960
v 15.606151 -2.371431 -5.378247
v 15.452626 -2.537944 -5.391384
v 15.463528 -2.153661 -4.445960
v 15.372179 -2.350475 -4.445960
v 15.361570 -2.366617 -4.445960
v 15.524527 -2.402015 -7.378132
v 15.364223 -2.584103 -6.399866
v 15.278768 -2.672457 -5.411528
v 15.092239 -2.770439 -5.435174
v 15.572263 -2.225874 -8.357712
v 15.534840 -2.127892 -8.919537
v 15.534840 -0.166551 -8.919537
v 15.572263 -0.264533 -8.357712
v 15.713118 -0.457665 -7.396086
v 15.728147 -0.689594 -6.397676
v 15.606151 -0.957487 -5.378247
v 15.372179 -1.239540 -4.445960
v 15.238397 -2.548139 -4.445960
v 15.075737 -2.720315 -4.445960
v 15.069844 -2.724846 -4.445960
v 14.893628 -2.860775 -4.452529
v 15.328862 -2.456953 -7.361930
v 15.168559 -2.639607 -6.405120
v 14.899228 -2.826226 -5.461886
v 14.711815 -2.958757 -4.498070
v 14.524107 -3.014261 -4.546677
v 15.379251 -2.279962 -8.320929
v 15.341238 -2.172635 -8.919537
v 15.341238 -0.172781 -8.919537
v 15.524527 -0.440674 -7.378132
v 15.553109 -0.638904 -6.397238
v 15.452626 -0.875080 -5.391384
v 15.238397 -1.134195 -4.445960
v 14.921033 -2.838970 -4.445960
v 14.890388 -2.862191 -4.445960
v 14.707689 -2.838686 -5.491225
v 14.337578 -3.026438 -4.597473
v 14.683821 -2.969518 -4.445960
v 14.469298 -3.035784 -4.445960
v 14.254186 -3.059571 -4.445960
v 15.148227 -2.174617 -8.919537
v 15.148227 -0.213277 -8.919537
v 14.469298 -1.035930 -4.445960
v 14.683821 -1.008177 -4.445960
v 15.092239 -0.809098 -5.435174
v 15.364223 -0.622762 -6.399866
v 15.278768 -0.824957 -5.411528
v 15.075737 -1.057735 -4.445960
v 14.047324 -3.040881 -4.445960
v 14.962877 -2.134971 -8.919537
v 14.962877 -0.287471 -8.919537
v 14.254186 -1.098230 -4.445960
v 14.890388 -1.014691 -4.445960
v 14.893628 -1.013275 -4.452529
v 14.711815 -0.997416 -4.498070
v 14.921033 -1.021487 -4.445960
v 13.856081 -2.981695 -4.445960
v 14.792850 -2.055963 -8.919537
v 14.792850 -0.393099 -8.919537
v 14.047324 -1.193380 -4.445960
v 13.688116 -2.885412 -4.445960
v 14.643450 -1.941556 -8.919537
v 14.643450 -0.527612 -8.919537
v 13.856081 -1.319115 -4.445960
v 13.550209 -2.756279 -4.445960
v 14.521160 -1.797131 -8.919537
v 14.621645 -0.555647 -8.919537
v 13.550209 -1.645061 -4.445960
v 13.688116 -1.471468 -4.445960
v 13.447958 -2.600528 -4.445960
v 14.430401 -1.629769 -8.919537
v 14.521160 -0.686479 -8.919537
v 13.505124 -1.728601 -4.445960
v 13.384897 -2.424670 -4.445960
v 14.374413 -1.447114 -8.919537
v 14.430401 -0.864603 -8.919537
v 13.447958 -1.835078 -4.445960
v 13.363091 -2.236352 -4.445960
v 14.355848 -1.256248 -8.919537
v 14.374413 -1.056885 -8.919537
v 13.384897 -2.034441 -4.445960
v 13.418195 -1.928812 -4.445960
v 13.374289 -2.132423 -4.445960
vn 0.9906 -0.0945 -0.0993
vn 0.9914 -0.0836 -0.1002
vn 0.9891 0.1302 -0.0680
vn 0.9887 0.1351 -0.0649
vn 0.9917 0.1202 0.0446
vn 0.9963 -0.0845 0.0127
vn 0.9594 -0.2555 -0.1192
vn 0.9619 -0.2456 -0.1202
vn 0.9904 -0.0955 -0.1000
vn 0.9953 -0.0964 0.0134
vn 0.9697 -0.2441 -0.0107
vn -0.0001 -0.0000 -1.0000
vn 0.0001 -0.0000 -1.0000
vn -0.0000 -0.0000 -1.0000
vn 0.9356 0.3519 -0.0275
vn 0.9331 0.3588 -0.0228
vn 0.9369 0.3401 0.0809
vn 0.9888 0.1402 0.0507
vn 0.9793 0.1260 0.1587
vn 0.9883 -0.0869 0.1250
vn 0.9007 -0.4122 -0.1371
vn 0.9038 -0.4050 -0.1380
vn 0.9591 -0.2564 -0.1197
vn 0.9672 -0.2539 -0.0101
vn 0.9147 -0.4026 -0.0357
vn 0.9874 -0.0968 0.1254
vn 0.9652 -0.2425 0.0981
vn 0.8326 0.5537 0.0157
vn 0.8268 0.5621 0.0220
vn 0.8319 0.5431 0.1137
vn 0.9284 0.3611 0.0875
vn 0.9205 0.3423 0.1885
vn 0.9763 0.1420 0.1634
vn 0.9549 0.1282 0.2679
vn 0.9682 -0.0877 0.2342
vn 0.8184 -0.5540 -0.1528
vn 0.9005 -0.4126 -0.1373
vn 0.9119 -0.4090 -0.0353
vn 0.8333 -0.5495 -0.0610
vn 0.8168 -0.5565 -0.1524
vn 0.9621 -0.2541 0.0984
vn 0.9146 -0.3988 0.0672
vn 0.9668 -0.1012 0.2346
vn 0.9480 -0.2434 0.2050
vn 0.6909 0.7206 0.0579
vn 0.6891 0.7110 0.1401
vn 0.8181 0.5624 0.1202
vn 0.6823 0.7282 0.0646
vn 0.8131 0.5428 0.2103
vn 0.9104 0.3650 0.1947
vn 0.8911 0.3469 0.2926
vn 0.9500 0.1501 0.2738
vn 0.9178 0.1373 0.3726
vn 0.9365 -0.0910 0.3386
vn 0.9365 -0.0929 0.3381
vn 0.8162 -0.5572 -0.1528
vn 0.8298 -0.5547 -0.0606
vn 0.9114 -0.4061 0.0673
vn 0.8359 -0.5480 0.0318
vn 0.7241 -0.6843 -0.0863
vn 0.7227 -0.6856 -0.0870
vn 0.7066 -0.6881 -0.1651
vn 0.7070 -0.6877 -0.1653
vn 0.9453 -0.2536 0.2049
vn 0.9027 -0.3959 0.1687
vn 0.9350 -0.1064 0.3383
vn 0.9199 -0.2435 0.3075
vn 0.5165 0.8507 0.0971
vn 0.5050 0.8568 0.1041
vn 0.5114 0.8442 0.1606
vn 0.6663 0.7309 0.1476
vn 0.6644 0.7139 0.2212
vn 0.7976 0.5634 0.2155
vn 0.7829 0.5439 0.3020
vn 0.8816 0.3669 0.2970
vn 0.8520 0.3497 0.3896
vn 0.9125 0.1574 0.3777
vn -0.0000 -0.0000 1.0000
vn -0.0001 -0.0000 1.0000
vn 0.0016 -0.0000 1.0000
vn 0.8334 -0.5517 0.0318
vn 0.7318 -0.6815 -0.0063
vn 0.8988 -0.4047 0.1682
vn 0.8293 -0.5448 0.1247
vn 0.5960 -0.7952 -0.1110
vn 0.7313 -0.6820 -0.0063
vn 0.6078 -0.7928 -0.0454
vn 0.6035 -0.7959 -0.0477
vn 0.5774 -0.7978 -0.1737
vn 0.5912 -0.7985 -0.1130
vn 0.5737 -0.8000 -0.1756
vn 0.9186 -0.2483 0.3074
vn 0.9167 -0.2557 0.3071
vn 0.8789 -0.3954 0.2668
vn 0.3292 0.9353 0.1299
vn 0.3217 0.9310 0.1725
vn 0.4865 0.8576 0.1668
vn 0.3162 0.9388 0.1365
vn 0.4869 0.8449 0.2215
vn 0.6429 0.7320 0.2257
vn 0.6331 0.7149 0.2967
vn 0.7660 0.5655 0.3057
vn 0.7420 0.5472 0.3874
vn 0.8415 0.3704 0.3933
vn 0.8264 -0.5493 0.1243
vn 0.7302 -0.6791 0.0746
vn 0.7299 -0.6794 0.0744
vn 0.8775 -0.3988 0.2665
vn 0.8744 -0.4059 0.2658
vn 0.8155 -0.5360 0.2185
vn 0.8119 -0.5424 0.2158
vn 0.4424 -0.8866 -0.1352
vn 0.4586 -0.8844 -0.0870
vn 0.4479 -0.8893 -0.0921
vn 0.6103 -0.7919 0.0209
vn 0.6084 -0.7934 0.0196
vn 0.4683 -0.8828 -0.0363
vn 0.4595 -0.8872 -0.0418
vn 0.4302 -0.8919 -0.1394
vn 0.4206 -0.8892 -0.1799
vn 0.4125 -0.8923 -0.1831
vn 0.1437 0.9774 0.1552
vn 0.1307 0.9755 0.1768
vn 0.2950 0.9388 0.1778
vn 0.1280 0.9784 0.1621
vn 0.2965 0.9312 0.2119
vn 0.4616 0.8581 0.2248
vn 0.4559 0.8459 0.2768
vn 0.6124 0.7320 0.2986
vn 0.5952 0.7155 0.3658
vn 0.7264 0.5665 0.3893
vn 0.8082 -0.5484 0.2148
vn 0.7201 -0.6762 0.1559
vn 0.7181 -0.6784 0.1554
vn 0.6071 -0.7896 0.0897
vn 0.6063 -0.7902 0.0892
vn 0.6033 -0.7928 0.0866
vn 0.2546 -0.9539 -0.1591
vn 0.2738 -0.9526 -0.1325
vn 0.2570 -0.9563 -0.1395
vn 0.2893 -0.9518 -0.1023
vn 0.2740 -0.9553 -0.1108
vn 0.4712 -0.8819 0.0161
vn 0.4640 -0.8858 0.0104
vn 0.2994 -0.9516 -0.0697
vn 0.2868 -0.9548 -0.0786
vn 0.2370 -0.9575 -0.1643
vn 0.2330 -0.9553 -0.1821
vn 0.2213 -0.9574 -0.1857
vn -0.0317 0.9843 0.1738
vn 0.1053 0.9778 0.1810
vn -0.0353 0.9839 0.1752
vn 0.1063 0.9752 0.1940
vn 0.2722 0.9382 0.2138
vn 0.2702 0.9310 0.2456
vn 0.4359 0.8563 0.2772
vn 0.4249 0.8439 0.3276
vn 0.5758 0.7312 0.3657
vn 0.6058 -0.7899 0.0948
vn 0.5992 -0.7908 0.1251
vn 0.4664 -0.8837 0.0396
vn 0.0785 -0.9816 -0.1742
vn 0.0719 -0.9817 -0.1764
vn 0.0688 -0.9817 -0.1776
vn 0.0910 -0.9815 -0.1682
vn 0.0845 -0.9816 -0.1712
vn 0.1071 -0.9817 -0.1578
vn 0.4601 -0.8855 0.0643
vn 0.2949 -0.9547 -0.0387
vn 0.2938 -0.9549 -0.0442
vn 0.1087 -0.9826 -0.1508
vn 0.1066 -0.9820 -0.1561
vn 0.0660 -0.9817 -0.1784
vn 0.0608 -0.9818 -0.1799
vn 0.0101 -0.9813 -0.1921
vn -0.2031 0.9680 0.1472
vn -0.1266 0.9783 0.1641
vn -0.0536 0.9830 0.1757
vn -0.0492 0.9832 0.1760
vn -0.0429 0.9835 0.1760
vn 0.0808 0.9774 0.1952
vn 0.0805 0.9751 0.2065
vn 0.2423 0.9388 0.2446
vn 0.2369 0.9320 0.2745
vn 0.4022 0.8557 0.3257
vn -0.0880 -0.9737 -0.2102
vn -0.2034 -0.9507 -0.2341
vn -0.3694 0.9229 0.1087
vn -0.2757 0.9520 0.1332
vn 0.0307 0.9739 0.2251
vn 0.0305 0.9755 0.2178
vn -0.0415 0.9827 0.1806
vn 0.0571 0.9771 0.2048
vn 0.0327 0.9772 0.2097
vn 0.0558 0.9753 0.2139
vn 0.2161 0.9380 0.2710
vn 0.2195 0.9369 0.2720
vn -0.2865 -0.9259 -0.2461
vn -0.4062 -0.8742 -0.2660
vn -0.5266 0.8477 0.0639
vn -0.4159 0.9041 0.0980
vn 0.2064 0.9306 0.3024
vn -0.4784 -0.8346 -0.2729
vn -0.5828 -0.7610 -0.2850
vn -0.6691 0.7431 0.0137
vn -0.5484 0.8342 0.0578
vn -0.6547 -0.6992 -0.2873
vn -0.7301 -0.6182 -0.2910
vn -0.7887 0.6134 -0.0395
vn -0.7825 0.6216 -0.0359
vn -0.6718 0.7406 0.0128
vn -0.8009 -0.5258 -0.2866
vn -0.8428 -0.4570 -0.2843
vn -0.7924 0.6086 -0.0416
vn -0.8765 0.4731 -0.0889
vn -0.9065 -0.3250 -0.2696
vn -0.9217 -0.2825 -0.2656
vn -0.8868 0.4519 -0.0967
vn -0.8775 0.4711 -0.0896
vn -0.9649 -0.1117 -0.2378
vn -0.9674 -0.0941 -0.2353
vn -0.9493 0.2764 -0.1496
vn -0.9440 0.2976 -0.1428
vn -0.9434 0.2996 -0.1422
vn -0.9756 0.1051 -0.1928
vn -0.9762 0.0909 -0.1967
vn -0.9756 0.1056 -0.1927
s 0
f 1//1 2//1 3//1
f 1//2 3//2 4//2
f 1//3 4//3 5//3
f 1//4 5//4 6//4
f 1//5 6//5 7//5
f 1//6 7//6 2//6
f 2//7 8//7 9//7
f 2//8 9//8 10//8
f 2//9 10//9 3//9
f 2//10 7//10 11//10
f 2//11 11//11 8//11
f 3//12 10//12 9//12
f 3//13 9//13 18//13
f 3//14 18//14 17//14
f 3//14 17//14 27//14
f 3//14 27//14 26//14
f 3//14 26//14 39//14
f 3//14 39//14 44//14
f 3//14 44//14 59//14
f 3//14 59//14 78//14
f 3//14 78//14 95//14
f 3//14 95//14 108//14
f 3//14 108//14 117//14
f 3//14 117//14 125//14
f 3//14 125//14 129//14
f 3//14 129//14 133//14
f 3//14 133//14 138//14
f 3//14 138//14 142//14
f 3//14 142//14 146//14
f 3//14 146//14 147//14
f 3//14 147//14 143//14
f 3//14 143//14 139//14
f 3//14 139//14 134//14
f 3//14 134//14 130//14
f 3//14 130//14 126//14
f 3//14 126//14 118//14
f 3//14 118//14 109//14
f 3//14 109//14 96//14
f 3//14 96//14 79//14
f 3//14 79//14 62//14
f 3//14 62//14 47//14
f 3//14 47//14 32//14
f 3//14 32//14 21//14
f 3//14 21//14 12//14
f 3//14 12//14 5//14
f 3//14 5//14 4//14
f 5//15 12//15 6//15
f 6//16 12//16 13//16
f 6//17 13//17 14//17
f 6//18 14//18 7//18
f 7//19 14//19 15//19
f 7//20 15//20 11//20
f 8//21 16//21 17//21
f 8//22 17//22 18//22
f 8//23 18//23 9//23
f 8//24 11//24 19//24
f 8//25 19//25 16//25
f 11//26 15//26 20//26
f 11//27 20//27 19//27
f 12//28 21//28 13//28
f 13//29 21//29 22//29
f 13//30 22//30 23//30
f 13//31 23//31 14//31
f 14//32 23//32 24//32
f 14//33 24//33 15//33
f 15//34 24//34 25//34
f 15//35 25//35 20//35
f 16//36 26//36 27//36
f 16//37 27//37 17//37
f 16//38 19//38 28//38
f 16//39 28//39 29//39
f 16//40 29//40 26//40
f 19//41 20//41 30//41
f 19//42 30//42 28//42
f 20//43 25//43 31//43
f 20//44 31//44 30//44
f 21//45 32//45 22//45
f 22//46 33//46 34//46
f 22//47 34//47 23//47
f 22//48 32//48 33//48
f 23//49 34//49 35//49
f 23//50 35//50 24//50
f 24//51 35//51 36//51
f 24//52 36//52 25//52
f 25//53 36//53 37//53
f 25//54 37//54 38//54
f 25//55 38//55 31//55
f 26//56 29//56 39//56
f 28//57 40//57 29//57
f 28//58 30//58 41//58
f 28//59 41//59 40//59
f 29//60 40//60 42//60
f 29//61 42//61 43//61
f 29//62 43//62 44//62
f 29//63 44//63 39//63
f 30//64 31//64 45//64
f 30//65 45//65 41//65
f 31//66 38//66 46//66
f 31//67 46//67 45//67
f 32//68 47//68 33//68
f 33//69 47//69 48//69
f 33//70 48//70 49//70
f 33//71 49//71 34//71
f 34//72 49//72 50//72
f 34//73 50//73 35//73
f 35//74 50//74 51//74
f 35//75 51//75 36//75
f 36//76 51//76 52//76
f 36//77 52//77 37//77
f 37//78 52//78 67//78
f 37//78 67//78 84//78
f 37//78 84//78 100//78
f 37//78 100//78 115//78
f 37//78 115//78 123//78
f 37//78 123//78 120//78
f 37//78 120//78 111//78
f 37//78 111//78 110//78
f 37//78 110//78 119//78
f 37//78 119//78 127//78
f 37//78 127//78 131//78
f 37//78 131//78 136//78
f 37//78 136//78 135//78
f 37//78 135//78 140//78
f 37//78 140//78 144//78
f 37//78 144//78 149//78
f 37//78 149//78 148//78
f 37//78 148//78 150//78
f 37//78 150//78 145//78
f 37//78 145//78 141//78
f 37//78 141//78 137//78
f 37//78 137//78 132//78
f 37//78 132//78 128//78
f 37//78 128//78 124//78
f 37//78 124//78 116//78
f 37//78 116//78 107//78
f 37//78 107//78 106//78
f 37//78 106//78 105//78
f 37//78 105//78 102//78
f 37//78 102//78 101//78
f 37//78 101//78 87//78
f 37//79 87//79 86//79
f 37//78 86//78 85//78
f 37//78 85//78 72//78
f 37//78 72//78 71//78
f 37//78 71//78 70//78
f 37//78 70//78 61//78
f 37//78 61//78 60//78
f 37//79 60//79 46//79
f 37//80 46//80 38//80
f 40//81 41//81 53//81
f 40//82 53//82 42//82
f 41//83 45//83 54//83
f 41//84 54//84 53//84
f 42//85 55//85 43//85
f 42//86 53//86 56//86
f 42//87 56//87 57//87
f 42//88 57//88 55//88
f 43//89 58//89 44//89
f 43//90 55//90 58//90
f 44//91 58//91 59//91
f 45//92 46//92 60//92
f 45//93 60//93 61//93
f 45//94 61//94 54//94
f 47//95 62//95 48//95
f 48//96 63//96 64//96
f 48//97 64//97 49//97
f 48//98 62//98 63//98
f 49//99 64//99 65//99
f 49//100 65//100 50//100
f 50//101 65//101 66//101
f 50//102 66//102 51//102
f 51//103 66//103 67//103
f 51//104 67//104 52//104
f 53//105 54//105 68//105
f 53//106 68//106 69//106
f 53//107 69//107 56//107
f 54//108 61//108 70//108
f 54//109 70//109 71//109
f 54//110 71//110 72//110
f 54//111 72//111 68//111
f 55//112 73//112 58//112
f 55//113 57//113 74//113
f 55//114 74//114 73//114
f 56//115 69//115 75//115
f 56//116 75//116 57//116
f 57//117 75//117 76//117
f 57//118 76//118 74//118
f 58//119 73//119 77//119
f 58//120 77//120 59//120
f 59//121 77//121 78//121
f 62//122 79//122 63//122
f 63//123 80//123 81//123
f 63//124 81//124 64//124
f 63//125 79//125 80//125
f 64//126 81//126 82//126
f 64//127 82//127 65//127
f 65//128 82//128 83//128
f 65//129 83//129 66//129
f 66//130 83//130 84//130
f 66//131 84//131 67//131
f 68//132 72//132 85//132
f 68//133 85//133 69//133
f 69//134 85//134 86//134
f 69//135 86//135 87//135
f 69//136 87//136 88//136
f 69//137 88//137 75//137
f 73//138 89//138 77//138
f 73//139 74//139 90//139
f 73//140 90//140 89//140
f 74//141 76//141 91//141
f 74//142 91//142 90//142
f 75//143 88//143 92//143
f 75//144 92//144 76//144
f 76//145 92//145 93//145
f 76//146 93//146 91//146
f 77//147 89//147 94//147
f 77//148 94//148 78//148
f 78//149 94//149 95//149
f 79//150 96//150 80//150
f 80//151 97//151 81//151
f 80//152 96//152 97//152
f 81//153 97//153 98//153
f 81//154 98//154 82//154
f 82//155 98//155 99//155
f 82//156 99//156 83//156
f 83//157 99//157 100//157
f 83//158 100//158 84//158
f 87//159 101//159 88//159
f 88//160 101//160 102//160
f 88//161 102//161 92//161
f 89//162 90//162 103//162
f 89//163 103//163 104//163
f 89//164 104//164 94//164
f 90//165 91//165 104//165
f 90//166 104//166 103//166
f 91//167 93//167 104//167
f 92//168 102//168 105//168
f 92//169 105//169 106//169
f 92//170 106//170 93//170
f 93//171 106//171 107//171
f 93//172 107//172 104//172
f 94//173 104//173 107//173
f 94//174 107//174 95//174
f 95//175 107//175 108//175
f 96//176 109//176 110//176
f 96//177 110//177 111//177
f 96//178 111//178 112//178
f 96//179 112//179 113//179
f 96//180 113//180 97//180
f 97//181 113//181 98//181
f 98//182 113//182 114//182
f 98//183 114//183 99//183
f 99//184 114//184 115//184
f 99//185 115//185 100//185
f 107//186 116//186 108//186
f 108//187 116//187 117//187
f 109//188 118//188 119//188
f 109//189 119//189 110//189
f 111//190 120//190 121//190
f 111//191 121//191 122//191
f 111//192 122//192 112//192
f 112//193 114//193 113//193
f 112//194 122//194 121//194
f 112//195 121//195 114//195
f 114//196 121//196 123//196
f 114//197 123//197 115//197
f 116//198 124//198 117//198
f 117//199 124//199 125//199
f 118//200 126//200 127//200
f 118//201 127//201 119//201
f 120//202 123//202 121//202
f 124//203 128//203 125//203
f 125//204 128//204 129//204
f 126//205 130//205 131//205
f 126//206 131//206 127//206
f 128//207 132//207 129//207
f 129//208 132//208 133//208
f 130//209 134//209 135//209
f 130//210 135//210 136//210
f 130//211 136//211 131//211
f 132//212 137//212 133//212
f 133//213 137//213 138//213
f 134//214 139//214 135//214
f 135//215 139//215 140//215
f 137//216 141//216 138//216
f 138//217 141//217 142//217
f 139//218 143//218 144//218
f 139//219 144//219 140//219
f 141//220 145//220 142//220
f 142//221 145//221 146//221
f 143//222 147//222 148//222
f 143//223 148//223 149//223
f 143//224 149//224 144//224
f 145//225 150//225 147//225
f 145//226 147//226 146//226
f 147//227 150//227 148//227
