# Blender 4.2.11 LTS
# www.blender.org
o tmp_export_geometry_10.002
v 5.187934 0.000001 -14.024055
v 5.187934 -0.194987 -14.042172
v 5.187934 0.082421 -14.031682
v 2.406728 0.000001 -11.067335
v 5.187934 -0.306381 -14.078411
v 2.406728 -0.159357 -11.094514
v 2.406728 -0.194987 -11.100713
v 5.187934 0.194990 -14.042172
v 2.406728 0.194990 -11.100713
v 5.187934 -0.382536 -14.103682
v 2.406728 -0.365504 -11.198459
v 5.187934 0.382538 -14.103682
v 2.406728 0.382538 -11.208472
v 5.187934 -0.491385 -14.167098
v 2.406728 -0.382536 -11.208472
v 5.187934 0.555405 -14.204765
v 2.406728 0.555405 -11.374880
v 5.187934 0.706932 -14.340657
v 5.187934 -0.555402 -14.204765
v 2.406728 -0.555402 -11.374880
v 5.187934 -0.706929 -14.340657
v 5.187934 -0.658574 -14.296791
v 2.406728 0.706932 -11.582294
v 5.187934 0.831442 -14.504204
v 2.406728 -0.566561 -11.389661
v 5.187934 -0.799529 -14.461768
v 2.406728 0.831442 -11.832144
v 5.187934 0.923846 -14.688254
v 2.406728 -0.706929 -11.582294
v 5.187934 -0.831440 -14.504204
v 2.406728 0.923846 -12.112987
v 5.187934 0.980620 -14.884225
v 2.406728 -0.742951 -11.653816
v 5.187934 -0.906812 -14.653447
v 2.406728 0.980620 -12.411948
v 5.187934 1.000001 -15.084486
v 2.406728 -0.831440 -11.832144
v 5.187934 -0.923844 -14.688254
v 2.406728 0.982578 -12.441511
v 5.187934 0.989625 -15.188431
v 5.164247 0.980620 -15.265675
v 4.349080 0.980620 -14.765498
v 4.416874 1.000001 -14.608150
v 2.406728 0.999806 -12.701851
v 2.406728 -0.882536 -11.986155
v 5.187934 -0.974353 -14.862291
v 2.406728 -0.923844 -12.112987
v 5.187934 0.981207 -15.271873
v 5.187934 0.980620 -15.276642
v 5.117962 0.923846 -15.421116
v 4.286458 0.923846 -14.912833
v 3.508320 0.923846 -14.312525
v 3.589183 0.980620 -14.172819
v 3.675492 0.999806 -14.023577
v 2.983934 0.999806 -13.363667
v 2.406728 0.985318 -12.907357
v 5.187934 -0.980617 -14.884225
v 2.406728 -0.971808 -12.364267
v 5.187934 0.923846 -15.452586
v 4.231733 0.831442 -15.043481
v 5.187934 0.842405 -15.590861
v 5.187934 0.831442 -15.609457
v 5.077666 0.831442 -15.559392
v 3.436169 0.831442 -14.437450
v 2.692064 0.831442 -13.752270
v 2.780823 0.923846 -13.634974
v 2.879384 0.980620 -13.503851
v 2.406728 0.980620 -12.968866
v 5.187934 -0.999216 -15.076858
v 2.406728 -0.980617 -12.411948
v 4.185992 0.706932 -15.154577
v 3.375181 0.706932 -14.542827
v 5.187934 0.706932 -15.741534
v 5.044722 0.706932 -15.676210
v 2.616646 0.706932 -13.851447
v 2.406728 0.706932 -13.621146
v 2.406728 0.785436 -13.506234
v 2.406728 0.831442 -13.436620
v 2.406728 0.879015 -13.325522
v 2.406728 0.923846 -13.216809
v 2.406728 0.945577 -13.123831
v 5.187934 -0.999803 -15.084486
v 2.406728 -0.999999 -12.701851
v 4.151142 0.555405 -15.240881
v 3.327535 0.555405 -14.625316
v 2.556747 0.555405 -13.928691
v 5.187934 0.582617 -15.825453
v 5.020490 0.555405 -15.767282
v 2.406728 0.555405 -13.765620
v 2.406728 0.665624 -13.661675
v 4.416874 -0.999803 -14.608150
v 4.349080 -0.980617 -14.765498
v 5.187934 -0.989623 -15.188431
v 2.983934 -0.999999 -13.363667
v 2.406728 -0.980617 -12.968866
v 4.128816 0.382538 -15.298574
v 3.295407 0.382538 -14.680626
v 2.515363 0.382538 -13.981141
v 2.406728 0.521340 -13.786123
v 5.187934 0.555405 -15.843573
v 5.187934 0.382538 -15.910803
v 5.006877 0.382538 -15.827838
v 3.675492 -0.999803 -14.023577
v 3.589183 -0.980617 -14.172819
v 3.508320 -0.923844 -14.312525
v 4.286458 -0.923844 -14.912833
v 5.164247 -0.980617 -15.265675
v 5.187934 -0.980617 -15.276642
v 2.879384 -0.980617 -13.503851
v 2.406728 -0.923844 -13.216809
v 4.120648 0.194990 -15.324324
v 3.280977 0.194990 -14.705896
v 2.494398 0.194990 -14.004981
v 2.406728 0.194990 -13.911049
v 2.406728 0.355131 -13.871473
v 2.406728 0.382538 -13.863845
v 5.187934 0.194990 -15.937982
v 5.005243 0.194990 -15.854062
v 2.780823 -0.923844 -13.634974
v 3.436169 -0.831440 -14.437450
v 2.692064 -0.831440 -13.752270
v 4.231733 -0.831440 -15.043481
v 5.117962 -0.923844 -15.421116
v 5.187934 -0.923844 -15.452586
v 2.406728 -0.831440 -13.436620
v 4.120648 -0.194987 -15.324324
v 3.280977 -0.194987 -14.705896
v 2.494398 -0.194987 -14.004981
v 2.406728 -0.194987 -13.911049
v 5.187934 -0.194987 -15.938458
v 5.005243 -0.194987 -15.854062
v 3.375181 -0.706929 -14.542827
v 2.616646 -0.706929 -13.851447
v 2.406728 -0.706929 -13.621146
v 4.185992 -0.706929 -15.154577
v 5.077666 -0.831440 -15.559392
v 5.187934 -0.831440 -15.609457
v 4.128816 -0.382536 -15.298574
v 5.006877 -0.382536 -15.827838
v 3.295407 -0.382536 -14.680626
v 2.515363 -0.382536 -13.981141
v 2.406728 -0.382536 -13.863845
v 5.187934 -0.345927 -15.916525
v 2.556747 -0.555402 -13.928691
v 3.327535 -0.555402 -14.625316
v 2.406728 -0.555402 -13.765620
v 4.151142 -0.555402 -15.240881
v 5.044722 -0.706929 -15.676210
v 5.187934 -0.706929 -15.741534
v 5.187934 -0.815778 -15.626146
v 5.020490 -0.555402 -15.767282
v 5.187934 -0.382536 -15.910803
v 5.187934 -0.523687 -15.856446
v 5.187934 -0.682849 -15.758223
v 5.187934 -0.555402 -15.843573
vn 1.0000 -0.0000 -0.0000
vn 1.0000 -0.0001 -0.0000
vn 0.7269 0.0633 0.6838
vn 0.7269 -0.0635 0.6838
vn 0.7217 -0.1164 0.6824
vn 0.7215 -0.1187 0.6822
vn 0.7091 -0.2181 0.6705
vn 0.7269 0.0637 0.6838
vn -1.0000 -0.0000 -0.0000
vn -1.0000 0.0001 -0.0000
vn 0.7216 0.1168 0.6823
vn 0.7084 -0.2223 0.6699
vn 0.6703 -0.3691 0.6438
vn 0.7089 0.2198 0.6702
vn 0.6700 0.3698 0.6437
vn 0.6688 -0.3743 0.6424
vn 0.6678 -0.3772 0.6417
vn 0.6684 0.3755 0.6421
vn 0.6054 0.5314 0.5926
vn 0.5899 0.5600 0.5818
vn 0.6677 -0.3775 0.6416
vn 0.5899 -0.5600 0.5818
vn 0.6029 -0.5360 0.5909
vn 0.6064 -0.5293 0.5934
vn 0.5161 0.6815 0.5188
vn 0.5040 0.6974 0.5095
vn 0.5137 -0.6848 0.5170
vn 0.5173 -0.6799 0.5198
vn 0.3961 0.8206 0.4120
vn 0.3937 0.8227 0.4100
vn 0.5034 -0.6983 0.5089
vn 0.5126 -0.6863 0.5161
vn 0.2780 0.9125 0.3002
vn 0.2495 0.9301 0.2695
vn 0.3970 -0.8197 0.4129
vn 0.3978 -0.8189 0.4136
vn 0.1636 0.9692 0.1841
vn 0.0853 0.9917 0.0960
vn 0.3924 -0.8239 0.4088
vn 0.3884 -0.8277 0.4050
vn 0.0565 0.9962 0.0660
vn -0.0543 0.9936 -0.0992
vn -0.0604 0.9933 -0.0984
vn -0.0597 0.9935 -0.0967
vn 0.0002 1.0000 0.0003
vn 0.0564 0.9962 0.0659
vn 0.2802 -0.9111 0.3023
vn 0.2756 -0.9140 0.2977
vn 0.2499 -0.9299 0.2699
vn -0.0509 0.9937 -0.1002
vn -0.0565 0.9909 -0.1220
vn -0.1401 0.9428 -0.3026
vn -0.1776 0.9402 -0.2905
vn -0.1765 0.9413 -0.2877
vn -0.2058 0.9424 -0.2638
vn -0.0714 0.9932 -0.0916
vn -0.2102 0.9389 -0.2725
vn -0.0694 0.9937 -0.0876
vn -0.0015 1.0000 -0.0016
vn -0.0006 1.0000 -0.0005
vn -0.0804 0.9943 -0.0701
vn 0.2462 -0.9319 0.2662
vn 0.1645 -0.9689 0.1849
vn -0.1368 0.9427 -0.3042
vn -0.2873 0.8346 -0.4700
vn -0.2225 0.8400 -0.4948
vn -0.2236 0.8396 -0.4950
vn -0.2249 0.8392 -0.4952
vn -0.2882 0.8328 -0.4726
vn -0.3387 0.8292 -0.4446
vn -0.3315 0.8399 -0.4298
vn -0.3717 0.8360 -0.4037
vn -0.3639 0.8455 -0.3907
vn -0.2313 0.9406 -0.2484
vn -0.2256 0.9444 -0.2393
vn -0.0779 0.9935 -0.0827
vn -0.0758 0.9939 -0.0795
vn -0.0833 0.9938 -0.0739
vn -0.0859 0.9934 -0.0759
vn 0.1594 -0.9708 0.1794
vn 0.0851 -0.9918 0.0958
vn -0.3769 0.6899 -0.6180
vn -0.4403 0.6824 -0.5835
vn -0.4349 0.6963 -0.5710
vn -0.2973 0.6947 -0.6549
vn -0.2989 0.6938 -0.6552
vn -0.3784 0.6846 -0.6230
vn -0.4871 0.6908 -0.5344
vn -0.4799 0.7058 -0.5211
vn -0.5267 0.7015 -0.4801
vn -0.5267 0.7019 -0.4795
vn -0.5207 0.7122 -0.4707
vn -0.3996 0.8425 -0.3613
vn -0.3995 0.8427 -0.3609
vn -0.3920 0.8505 -0.3507
vn -0.2480 0.9430 -0.2219
vn -0.2473 0.9435 -0.2205
vn -0.2422 0.9463 -0.2140
vn 0.0667 -0.9948 0.0766
vn 0.0571 -0.9961 0.0666
vn -0.4440 0.5184 -0.7309
vn -0.5147 0.5106 -0.6887
vn -0.5110 0.5294 -0.6773
vn -0.5712 0.5237 -0.6320
vn -0.5666 0.5409 -0.6216
vn -0.3536 0.5233 -0.7753
vn -0.3543 0.5227 -0.7754
vn -0.4447 0.5126 -0.7345
vn -0.6212 0.5377 -0.5701
vn -0.6166 0.5514 -0.5620
vn -0.6210 0.5367 -0.5713
vn -0.0591 -0.9937 -0.0957
vn -0.0597 -0.9935 -0.0973
vn 0.0003 -1.0000 0.0002
vn -0.0003 -1.0000 -0.0005
vn -0.0827 -0.9940 -0.0721
vn -0.4885 0.3324 -0.8068
vn -0.5630 0.3261 -0.7594
vn -0.5619 0.3450 -0.7518
vn -0.6277 0.3406 -0.7000
vn -0.6256 0.3598 -0.6922
vn -0.6848 0.3567 -0.6354
vn -0.6815 0.3774 -0.6270
vn -0.3546 0.5182 -0.7783
vn -0.3909 0.3336 -0.8579
vn -0.3930 0.3314 -0.8577
vn -0.4887 0.3225 -0.8107
vn -0.0692 -0.9937 -0.0877
vn -0.0707 -0.9934 -0.0907
vn -0.0013 -1.0000 -0.0017
vn -0.2058 -0.9424 -0.2638
vn -0.2102 -0.9389 -0.2725
vn -0.1765 -0.9413 -0.2877
vn -0.0598 -0.9934 -0.0975
vn -0.0470 -0.9937 -0.1014
vn -0.0843 -0.9937 -0.0745
vn -0.0764 -0.9938 -0.0804
vn -0.2449 -0.9451 -0.2164
vn -0.5112 0.1387 -0.8482
vn -0.5876 0.1351 -0.7978
vn -0.5887 0.1523 -0.7939
vn -0.6577 0.1501 -0.7381
vn -0.6583 0.1669 -0.7341
vn -0.7209 0.1661 -0.6728
vn -0.7210 0.1662 -0.6727
vn -0.7209 0.1858 -0.6677
vn -0.6857 0.3556 -0.6351
vn -0.4130 0.1306 -0.9013
vn -0.4139 0.1296 -0.9011
vn -0.5098 0.1235 -0.8514
vn -0.0779 -0.9935 -0.0827
vn -0.2256 -0.9444 -0.2393
vn -0.2313 -0.9406 -0.2484
vn -0.3315 -0.8399 -0.4298
vn -0.3639 -0.8455 -0.3907
vn -0.3717 -0.8360 -0.4037
vn -0.2873 -0.8346 -0.4700
vn -0.1776 -0.9402 -0.2905
vn -0.3387 -0.8292 -0.4446
vn -0.1401 -0.9428 -0.3026
vn -0.1368 -0.9427 -0.3042
vn -0.2480 -0.9430 -0.2219
vn -0.3975 -0.8459 -0.3556
vn -0.5930 -0.0000 -0.8052
vn -0.5138 -0.0000 -0.8579
vn -0.6653 -0.0000 -0.7466
vn -0.7310 -0.0000 -0.6823
vn -0.7311 -0.0000 -0.6823
vn -0.4174 0.0011 -0.9087
vn -0.4194 -0.0000 -0.9078
vn -0.3997 -0.8425 -0.3613
vn -0.4349 -0.6963 -0.5710
vn -0.4799 -0.7058 -0.5211
vn -0.4871 -0.6908 -0.5344
vn -0.5262 -0.7049 -0.4756
vn -0.5267 -0.7015 -0.4801
vn -0.3769 -0.6899 -0.6180
vn -0.2882 -0.8328 -0.4726
vn -0.4403 -0.6824 -0.5835
vn -0.2249 -0.8392 -0.4952
vn -0.2225 -0.8400 -0.4948
vn -0.5876 -0.1351 -0.7978
vn -0.5098 -0.1235 -0.8514
vn -0.5112 -0.1387 -0.8482
vn -0.6577 -0.1501 -0.7381
vn -0.5887 -0.1523 -0.7939
vn -0.7209 -0.1661 -0.6728
vn -0.6583 -0.1669 -0.7341
vn -0.7232 -0.1686 -0.6698
vn -0.4146 -0.1309 -0.9005
vn -0.4158 -0.1295 -0.9002
vn -0.5666 -0.5409 -0.6216
vn -0.5712 -0.5237 -0.6320
vn -0.5110 -0.5294 -0.6773
vn -0.6218 -0.5404 -0.5668
vn -0.6210 -0.5367 -0.5713
vn -0.4440 -0.5184 -0.7309
vn -0.3784 -0.6846 -0.6230
vn -0.5147 -0.5106 -0.6887
vn -0.2989 -0.6938 -0.6552
vn -0.2979 -0.6944 -0.6550
vn -0.2967 -0.6964 -0.6535
vn -0.4887 -0.3225 -0.8107
vn -0.4885 -0.3324 -0.8068
vn -0.5630 -0.3261 -0.7594
vn -0.4124 -0.1407 -0.9001
vn -0.3932 -0.3304 -0.8580
vn -0.3938 -0.3314 -0.8574
vn -0.6277 -0.3406 -0.7000
vn -0.5619 -0.3450 -0.7518
vn -0.6854 -0.3567 -0.6348
vn -0.6256 -0.3598 -0.6922
vn -0.6869 -0.3591 -0.6319
vn -0.4447 -0.5126 -0.7345
vn -0.3558 -0.5226 -0.7748
vn -0.3510 -0.5334 -0.7696
vn -0.3889 -0.3465 -0.8536
vn -0.3540 -0.5204 -0.7771
s 0
f 1//1 2//1 5//1
f 1//1 5//1 10//1
f 1//1 10//1 14//1
f 1//1 14//1 19//1
f 1//1 19//1 22//1
f 1//1 22//1 21//1
f 1//1 21//1 26//1
f 1//1 26//1 30//1
f 1//1 30//1 34//1
f 1//1 34//1 38//1
f 1//1 38//1 46//1
f 1//1 46//1 57//1
f 1//1 57//1 69//1
f 1//2 69//2 82//2
f 1//1 82//1 93//1
f 1//1 93//1 108//1
f 1//1 108//1 124//1
f 1//1 124//1 137//1
f 1//1 137//1 150//1
f 1//1 150//1 149//1
f 1//1 149//1 154//1
f 1//1 154//1 155//1
f 1//1 155//1 153//1
f 1//1 153//1 152//1
f 1//1 152//1 143//1
f 1//1 143//1 130//1
f 1//1 130//1 117//1
f 1//1 117//1 101//1
f 1//1 101//1 100//1
f 1//1 100//1 87//1
f 1//1 87//1 73//1
f 1//1 73//1 62//1
f 1//1 62//1 61//1
f 1//1 61//1 59//1
f 1//1 59//1 49//1
f 1//2 49//2 48//2
f 1//1 48//1 40//1
f 1//1 40//1 36//1
f 1//1 36//1 32//1
f 1//1 32//1 28//1
f 1//1 28//1 24//1
f 1//1 24//1 18//1
f 1//1 18//1 16//1
f 1//1 16//1 12//1
f 1//1 12//1 8//1
f 1//1 8//1 3//1
f 1//3 3//3 4//3
f 1//4 4//4 2//4
f 2//5 4//5 6//5
f 2//6 6//6 7//6
f 2//7 7//7 5//7
f 3//8 8//8 4//8
f 4//9 9//9 13//9
f 4//9 13//9 17//9
f 4//9 17//9 23//9
f 4//9 23//9 27//9
f 4//9 27//9 31//9
f 4//9 31//9 35//9
f 4//9 35//9 39//9
f 4//9 39//9 44//9
f 4//9 44//9 56//9
f 4//9 56//9 68//9
f 4//9 68//9 81//9
f 4//9 81//9 80//9
f 4//9 80//9 79//9
f 4//9 79//9 78//9
f 4//9 78//9 77//9
f 4//9 77//9 76//9
f 4//9 76//9 90//9
f 4//9 90//9 89//9
f 4//9 89//9 99//9
f 4//9 99//9 116//9
f 4//9 116//9 115//9
f 4//9 115//9 114//9
f 4//9 114//9 129//9
f 4//9 129//9 142//9
f 4//9 142//9 146//9
f 4//9 146//9 134//9
f 4//9 134//9 125//9
f 4//9 125//9 110//9
f 4//9 110//9 95//9
f 4//9 95//9 83//9
f 4//9 83//9 70//9
f 4//9 70//9 58//9
f 4//9 58//9 47//9
f 4//9 47//9 45//9
f 4//9 45//9 37//9
f 4//9 37//9 33//9
f 4//9 33//9 29//9
f 4//9 29//9 25//9
f 4//9 25//9 20//9
f 4//9 20//9 15//9
f 4//9 15//9 11//9
f 4//9 11//9 7//9
f 4//10 7//10 6//10
f 4//11 8//11 9//11
f 5//12 7//12 10//12
f 7//13 11//13 10//13
f 8//14 12//14 9//14
f 9//15 12//15 13//15
f 10//16 11//16 14//16
f 11//17 15//17 14//17
f 12//18 16//18 13//18
f 13//19 16//19 18//19
f 13//20 18//20 17//20
f 14//21 15//21 19//21
f 15//22 20//22 21//22
f 15//23 21//23 22//23
f 15//24 22//24 19//24
f 17//25 18//25 24//25
f 17//26 24//26 23//26
f 20//27 25//27 26//27
f 20//28 26//28 21//28
f 23//29 24//29 28//29
f 23//30 28//30 27//30
f 25//31 29//31 30//31
f 25//32 30//32 26//32
f 27//33 28//33 31//33
f 28//34 32//34 31//34
f 29//35 33//35 34//35
f 29//36 34//36 30//36
f 31//37 32//37 35//37
f 32//38 36//38 35//38
f 33//39 37//39 34//39
f 34//40 37//40 38//40
f 35//41 36//41 39//41
f 36//42 40//42 41//42
f 36//43 41//43 42//43
f 36//44 42//44 43//44
f 36//45 43//45 44//45
f 36//46 44//46 39//46
f 37//47 45//47 38//47
f 38//48 45//48 47//48
f 38//49 47//49 46//49
f 40//50 48//50 41//50
f 41//51 48//51 49//51
f 41//52 49//52 50//52
f 41//53 50//53 51//53
f 41//54 51//54 42//54
f 42//55 52//55 53//55
f 42//56 53//56 43//56
f 42//57 51//57 52//57
f 43//58 53//58 54//58
f 43//59 54//59 55//59
f 43//60 55//60 44//60
f 44//61 55//61 56//61
f 46//62 47//62 57//62
f 47//63 58//63 57//63
f 49//64 59//64 50//64
f 50//65 60//65 51//65
f 50//66 59//66 61//66
f 50//67 61//67 62//67
f 50//68 62//68 63//68
f 50//69 63//69 60//69
f 51//70 60//70 64//70
f 51//71 64//71 52//71
f 52//72 64//72 65//72
f 52//73 65//73 66//73
f 52//74 66//74 53//74
f 53//75 66//75 67//75
f 53//76 67//76 54//76
f 54//77 67//77 55//77
f 55//78 67//78 56//78
f 56//79 67//79 68//79
f 57//80 58//80 70//80
f 57//81 70//81 69//81
f 60//82 63//82 71//82
f 60//83 71//83 72//83
f 60//84 72//84 64//84
f 62//85 73//85 63//85
f 63//86 73//86 74//86
f 63//87 74//87 71//87
f 64//88 72//88 75//88
f 64//89 75//89 65//89
f 65//90 75//90 76//90
f 65//91 76//91 77//91
f 65//92 77//92 78//92
f 65//93 78//93 66//93
f 66//94 78//94 79//94
f 66//95 79//95 80//95
f 66//96 80//96 67//96
f 67//97 80//97 81//97
f 67//98 81//98 68//98
f 69//99 70//99 82//99
f 70//100 83//100 82//100
f 71//101 74//101 84//101
f 71//102 84//102 85//102
f 71//103 85//103 72//103
f 72//104 85//104 86//104
f 72//105 86//105 75//105
f 73//106 87//106 74//106
f 74//107 87//107 88//107
f 74//108 88//108 84//108
f 75//109 89//109 90//109
f 75//110 90//110 76//110
f 75//111 86//111 89//111
f 82//112 91//112 92//112
f 82//113 92//113 93//113
f 82//114 83//114 94//114
f 82//115 94//115 91//115
f 83//116 95//116 94//116
f 84//117 88//117 96//117
f 84//118 96//118 97//118
f 84//119 97//119 85//119
f 85//120 97//120 98//120
f 85//121 98//121 86//121
f 86//122 98//122 99//122
f 86//123 99//123 89//123
f 87//124 100//124 88//124
f 88//125 100//125 101//125
f 88//126 101//126 102//126
f 88//127 102//127 96//127
f 91//128 103//128 104//128
f 91//129 104//129 92//129
f 91//130 94//130 103//130
f 92//131 104//131 105//131
f 92//132 105//132 106//132
f 92//133 106//133 107//133
f 92//134 107//134 93//134
f 93//135 107//135 108//135
f 94//136 95//136 109//136
f 94//137 109//137 103//137
f 95//138 110//138 109//138
f 96//139 102//139 111//139
f 96//140 111//140 112//140
f 96//141 112//141 97//141
f 97//142 112//142 113//142
f 97//143 113//143 98//143
f 98//144 113//144 114//144
f 98//145 114//145 115//145
f 98//146 115//146 116//146
f 98//147 116//147 99//147
f 101//148 117//148 102//148
f 102//149 117//149 118//149
f 102//150 118//150 111//150
f 103//151 109//151 104//151
f 104//152 109//152 119//152
f 104//153 119//153 105//153
f 105//154 120//154 106//154
f 105//155 119//155 121//155
f 105//156 121//156 120//156
f 106//157 122//157 123//157
f 106//158 123//158 107//158
f 106//159 120//159 122//159
f 107//160 123//160 108//160
f 108//161 123//161 124//161
f 109//162 110//162 119//162
f 110//163 125//163 119//163
f 111//164 126//164 127//164
f 111//164 127//164 112//164
f 111//165 118//165 131//165
f 111//165 131//165 126//165
f 112//166 127//166 128//166
f 112//166 128//166 113//166
f 113//167 128//167 129//167
f 113//168 129//168 114//168
f 117//169 130//169 118//169
f 118//170 130//170 131//170
f 119//171 125//171 121//171
f 120//172 132//172 122//172
f 120//173 121//173 133//173
f 120//174 133//174 132//174
f 121//175 125//175 134//175
f 121//176 134//176 133//176
f 122//177 135//177 136//177
f 122//178 136//178 123//178
f 122//179 132//179 135//179
f 123//180 136//180 137//180
f 123//181 137//181 124//181
f 126//182 138//182 127//182
f 126//183 131//183 139//183
f 126//184 139//184 138//184
f 127//185 140//185 128//185
f 127//186 138//186 140//186
f 128//187 141//187 129//187
f 128//188 140//188 141//188
f 129//189 141//189 142//189
f 130//190 143//190 139//190
f 130//191 139//191 131//191
f 132//192 133//192 144//192
f 132//193 144//193 145//193
f 132//194 145//194 135//194
f 133//195 134//195 146//195
f 133//196 146//196 144//196
f 135//197 147//197 148//197
f 135//198 148//198 136//198
f 135//199 145//199 147//199
f 136//200 148//200 149//200
f 136//201 149//201 150//201
f 136//202 150//202 137//202
f 138//203 139//203 151//203
f 138//204 151//204 147//204
f 138//205 147//205 140//205
f 139//206 143//206 152//206
f 139//207 152//207 153//207
f 139//208 153//208 151//208
f 140//209 145//209 141//209
f 140//210 147//210 145//210
f 141//211 144//211 142//211
f 141//212 145//212 144//212
f 142//213 144//213 146//213
f 147//214 151//214 148//214
f 148//215 151//215 154//215
f 148//216 154//216 149//216
f 151//217 153//217 155//217
f 151//218 155//218 154//218
