# Blender 4.2.11 LTS
# www.blender.org
o tmp_export_geometry_4.002
v 7.903056 -0.195006 -16.793091
v 7.903056 0.195092 -16.792820
v 8.390956 -0.099884 -16.772493
v 8.390956 -0.195006 -16.771950
v 7.897725 -0.382504 -16.756773
v 6.900916 -0.382504 -16.563803
v 6.903424 -0.195006 -16.596869
v 6.903424 0.195092 -16.596869
v 7.897725 0.382591 -16.756773
v 8.390956 0.195092 -16.771950
v 6.900916 0.382591 -16.563803
v 8.390956 -0.290324 -16.753250
v 8.390956 -0.382504 -16.734007
v 8.390956 -0.469193 -16.697960
v 7.892395 -0.555489 -16.684952
v 6.902170 -0.555489 -16.495234
v 5.940794 -0.555489 -16.188162
v 5.932954 -0.382504 -16.252937
v 5.933268 -0.195006 -16.282749
v 5.933268 0.195092 -16.282749
v 5.932954 0.382591 -16.252937
v 7.892395 0.555379 -16.684952
v 8.390956 0.382591 -16.734007
v 6.902170 0.555379 -16.495234
v 5.940794 0.555379 -16.188162
v 8.390956 -0.555489 -16.660830
v 7.886750 -0.707096 -16.581419
v 6.906874 -0.707096 -16.394955
v 5.955531 -0.707096 -16.091948
v 5.187934 -0.707096 -15.741782
v 5.187934 -0.555489 -15.843960
v 5.187934 -0.523717 -15.856427
v 5.187934 -0.382504 -15.910631
v 5.187934 -0.346025 -15.916595
v 5.187934 -0.195006 -15.938276
v 5.187934 0.195092 -15.938276
v 5.187934 0.382591 -15.910631
v 5.187934 0.555379 -15.843960
v 6.906874 0.706986 -16.394955
v 7.886750 0.706986 -16.581419
v 8.390956 0.555379 -16.660830
v 5.955531 0.706986 -16.091948
v 5.187934 0.706986 -15.741782
v 8.390956 -0.630018 -16.609606
v 7.881106 -0.831441 -16.450514
v 6.914399 -0.831441 -16.267302
v 8.390956 -0.707096 -16.555401
v 8.390956 -0.766719 -16.492523
v 5.976226 -0.831441 -15.968902
v 5.187934 -0.831441 -15.609522
v 6.914399 0.831331 -16.267302
v 5.976226 0.831331 -15.968902
v 7.881106 0.831331 -16.450514
v 8.390956 0.706986 -16.555401
v 5.187934 0.726207 -15.721456
v 5.187934 0.831331 -15.609522
v 7.874835 -0.923817 -16.297655
v 6.924119 -0.923817 -16.117695
v 8.390956 -0.831441 -16.423140
v 8.390956 -0.924602 -16.268656
v 6.001310 -0.923817 -15.824174
v 5.187934 -0.923817 -15.452869
v 6.924119 0.923708 -16.117695
v 6.001310 0.923708 -15.824174
v 7.874835 0.923708 -16.297655
v 8.390956 0.831135 -16.423140
v 5.187934 0.923708 -15.452869
v 7.868250 -0.980695 -16.128536
v 8.390956 -0.982852 -16.097910
v 6.935721 -0.980695 -15.951556
v 6.030472 -0.980695 -15.662914
v 5.187934 -0.979126 -15.281853
v 6.935721 0.980781 -15.951556
v 7.868250 0.980781 -16.128536
v 5.187934 0.928219 -15.439590
v 6.030472 0.980781 -15.662914
v 8.390956 0.922923 -16.268656
v 7.861352 -0.999915 -15.950201
v 8.390956 -1.003642 -15.918491
v 6.948264 -0.999915 -15.775932
v 6.062141 -0.999915 -15.491627
v 5.187934 -0.980695 -15.276975
v 6.948264 1.000001 -15.775932
v 7.861352 1.000001 -15.950201
v 8.390956 0.978623 -16.097910
v 5.187934 0.980781 -15.276975
v 6.062141 1.000001 -15.491627
v 8.390956 -0.985990 -15.737446
v 5.187934 -0.980695 -14.884529
v 5.187934 -0.999915 -15.084817
v 5.214587 -0.999915 -15.101078
v 5.187934 -0.989716 -15.188620
v 5.187934 1.000001 -15.084817
v 8.390956 0.996275 -15.918491
v 5.187934 0.989803 -15.188620
v 5.214587 1.000001 -15.101078
v 8.390956 -0.930878 -15.562093
v 5.187934 -0.923817 -14.688307
v 5.187934 -0.974419 -14.862576
v 5.187934 0.980781 -14.884529
v 8.390956 0.975289 -15.737446
v 8.390956 -0.840267 -15.399749
v 5.187934 -0.831441 -14.504551
v 5.187934 -0.906754 -14.653887
v 5.187934 0.923708 -14.688307
v 8.390956 0.916647 -15.562093
v 8.390956 -0.717491 -15.256918
v 5.187934 -0.707096 -14.341124
v 5.187934 -0.799472 -14.462000
v 5.187934 0.831331 -14.504551
v 8.390956 0.822506 -15.399749
v 8.390956 -0.567257 -15.139294
v 5.187934 -0.555489 -14.205339
v 5.187934 -0.658653 -14.296947
v 5.187934 0.706986 -14.341124
v 8.390956 0.696591 -15.256918
v 8.390956 -0.395449 -15.052023
v 5.187934 -0.382504 -14.103976
v 5.187934 -0.491355 -14.167126
v 5.187934 0.555379 -14.205339
v 8.390956 0.543612 -15.139294
v 8.390956 -0.208735 -14.998631
v 5.187934 -0.195006 -14.042725
v 5.187934 -0.306407 -14.078771
v 5.187934 0.382591 -14.103976
v 8.390956 0.422601 -15.078584
v 8.390956 -0.014372 -14.981828
v 5.187934 -0.000055 -14.024566
v 5.187934 -0.112436 -14.034864
v 5.187934 0.194896 -14.042725
v 8.390956 0.369646 -15.052023
v 8.390956 0.043093 -14.986706
v 5.187934 0.082515 -14.032154
v 8.390956 0.181167 -14.998631
vn 0.0420 0.0007 -0.9991
vn 0.0433 -0.0057 -0.9990
vn 0.0425 -0.1912 -0.9806
vn -0.1869 -0.1817 -0.9654
vn -0.1899 -0.1680 -0.9673
vn -0.1926 -0.0000 -0.9813
vn -0.1924 0.0007 -0.9813
vn 0.0419 0.1898 -0.9809
vn 0.0427 0.0018 -0.9991
vn -0.1896 0.1681 -0.9674
vn -0.1869 0.1803 -0.9657
vn 1.0000 -0.0000 -0.0000
vn 0.0429 -0.1923 -0.9804
vn 0.0451 -0.2041 -0.9779
vn 0.0426 -0.3836 -0.9225
vn 0.0424 -0.3842 -0.9223
vn -0.1746 -0.3730 -0.9113
vn -0.1770 -0.3638 -0.9145
vn -0.2844 -0.3551 -0.8905
vn -0.2867 -0.3473 -0.8928
vn -0.3017 -0.1617 -0.9396
vn -0.3046 -0.1491 -0.9407
vn -0.3080 -0.0000 -0.9514
vn -0.3046 0.1491 -0.9407
vn -0.3017 0.1617 -0.9396
vn 0.0426 0.3846 -0.9221
vn 0.0452 0.1981 -0.9791
vn -0.1770 0.3641 -0.9144
vn -0.1746 0.3733 -0.9111
vn -0.2867 0.3477 -0.8927
vn -0.2844 0.3554 -0.8904
vn 0.0444 -0.3948 -0.9177
vn -0.1557 -0.5531 -0.8184
vn -0.1574 -0.5482 -0.8214
vn 0.0399 -0.5645 -0.8245
vn -0.2570 -0.5355 -0.8045
vn -0.2557 -0.5389 -0.8027
vn -0.3531 -0.5255 -0.7740
vn -0.3545 -0.5226 -0.7754
vn -0.3913 -0.3382 -0.8559
vn -0.3921 -0.3360 -0.8564
vn -0.3942 -0.3293 -0.8580
vn -0.4130 -0.1469 -0.8988
vn -0.4131 -0.1423 -0.8995
vn -0.4160 -0.1292 -0.9001
vn -0.4195 -0.0000 -0.9077
vn -0.4158 0.1327 -0.8997
vn -0.4133 0.1423 -0.8994
vn -0.3940 0.3309 -0.8575
vn -0.3912 0.3386 -0.8557
vn -0.1574 0.5482 -0.8214
vn -0.1557 0.5531 -0.8184
vn 0.0399 0.5645 -0.8245
vn 0.0445 0.3896 -0.9199
vn -0.2570 0.5355 -0.8045
vn -0.2557 0.5389 -0.8027
vn -0.3545 0.5226 -0.7754
vn -0.3531 0.5255 -0.7740
vn 0.0405 -0.5660 -0.8234
vn -0.1300 -0.7161 -0.6858
vn -0.1309 -0.7140 -0.6878
vn 0.0422 -0.5747 -0.8173
vn 0.0355 -0.7252 -0.6876
vn 0.0354 -0.7253 -0.6875
vn -0.2147 -0.7059 -0.6750
vn -0.2153 -0.7048 -0.6760
vn -0.2978 -0.6960 -0.6533
vn -0.2983 -0.6954 -0.6538
vn -1.0000 -0.0000 -0.0000
vn -1.0000 -0.0001 -0.0000
vn -0.1309 0.7140 -0.6878
vn -0.2153 0.7048 -0.6760
vn -0.2147 0.7059 -0.6750
vn -0.1300 0.7161 -0.6858
vn 0.0355 0.7253 -0.6875
vn 0.0423 0.5704 -0.8203
vn -0.2991 0.6933 -0.6556
vn -0.2980 0.6958 -0.6535
vn -0.2978 0.6960 -0.6533
vn -0.0980 -0.8500 -0.5177
vn -0.0982 -0.8496 -0.5182
vn 0.0366 -0.7308 -0.6817
vn 0.0277 -0.8560 -0.5162
vn -0.1624 -0.8443 -0.5107
vn -0.2261 -0.8384 -0.4959
vn -0.2259 -0.8391 -0.4948
vn -0.0982 0.8496 -0.5182
vn -0.1624 0.8443 -0.5107
vn -0.2261 0.8384 -0.4959
vn -0.0980 0.8500 -0.5177
vn 0.0280 0.8560 -0.5162
vn 0.0370 0.7286 -0.6839
vn -0.2259 0.8391 -0.4948
vn -0.0606 -0.9454 -0.3203
vn 0.0167 -0.9463 -0.3228
vn 0.0147 -0.9479 -0.3182
vn -0.0606 -0.9456 -0.3195
vn -0.1005 -0.9434 -0.3160
vn -0.1400 -0.9414 -0.3067
vn -0.1004 -0.9439 -0.3148
vn -0.1396 -0.9422 -0.3047
vn -0.0608 0.9453 -0.3205
vn -0.0608 0.9450 -0.3213
vn -0.1008 0.9431 -0.3169
vn -0.1453 0.9368 -0.3182
vn -0.1403 0.9411 -0.3077
vn -0.1007 0.9435 -0.3157
vn 0.0194 0.9475 -0.3190
vn 0.0300 0.8593 -0.5106
vn -0.0205 -0.9939 -0.1079
vn 0.0026 -0.9934 -0.1151
vn -0.0006 -0.9942 -0.1072
vn -0.0205 -0.9940 -0.1073
vn -0.0339 -0.9938 -0.1063
vn -0.0471 -0.9936 -0.1028
vn -0.1389 -0.9427 -0.3032
vn -0.0338 -0.9939 -0.1053
vn -0.0205 0.9940 -0.1073
vn -0.0205 0.9939 -0.1079
vn -0.0339 0.9938 -0.1063
vn 0.0104 0.9942 -0.1068
vn 0.0221 0.9505 -0.3101
vn -0.1395 0.9422 -0.3046
vn -0.0471 0.9936 -0.1028
vn -0.0338 0.9939 -0.1053
vn -0.0054 -0.9996 -0.0281
vn 0.0242 -0.9950 0.0970
vn 0.0237 -0.9951 0.0955
vn -0.0020 -1.0000 -0.0033
vn -0.0027 -1.0000 -0.0058
vn -0.0037 -0.9999 -0.0116
vn -0.0468 -0.9937 -0.1015
vn -0.0470 -0.9937 -0.1015
vn -0.0000 1.0000 -0.0000
vn 0.0059 0.9998 0.0183
vn 0.0129 0.9951 -0.0979
vn -0.0470 0.9937 -0.1015
vn -0.0468 0.9937 -0.1015
vn 0.0794 -0.9510 0.2989
vn 0.0725 -0.9578 0.2781
vn 0.0714 -0.9590 0.2742
vn -0.0595 -0.9934 -0.0976
vn -0.0595 0.9934 -0.0976
vn 0.0260 0.9951 0.0955
vn 0.0323 0.9928 0.1151
vn 0.1326 -0.8655 0.4831
vn 0.1201 -0.8864 0.4470
vn 0.1184 -0.8897 0.4410
vn 0.0758 0.9574 0.2785
vn 0.0883 0.9447 0.3159
vn 0.1809 -0.7458 0.6411
vn 0.1653 -0.7836 0.5988
vn 0.1634 -0.7887 0.5926
vn 0.1235 0.8866 0.4457
vn 0.1412 0.8564 0.4966
vn 0.2217 -0.6011 0.7678
vn 0.2073 -0.6496 0.7315
vn 0.2046 -0.6596 0.7233
vn 0.1690 0.7844 0.5968
vn 0.1881 0.7367 0.6495
vn 0.2535 -0.4381 0.8624
vn 0.2431 -0.4868 0.8390
vn 0.2413 -0.4967 0.8337
vn 0.2103 0.6522 0.7282
vn 0.2273 0.5936 0.7720
vn 0.2748 -0.2644 0.9245
vn 0.2701 -0.2964 0.9161
vn 0.2694 -0.3028 0.9142
vn 0.2456 0.4905 0.8361
vn 0.2574 0.4333 0.8637
vn 0.2850 -0.0826 0.9550
vn 0.2846 -0.0875 0.9546
vn 0.2844 -0.0909 0.9544
vn 0.2720 0.2985 0.9148
vn 0.2574 0.4332 0.8637
vn 0.2857 0.0811 0.9549
vn 0.2857 0.0825 0.9548
vn 0.2853 0.0877 0.9544
vn 0.2852 0.0898 0.9543
vn 0.2770 0.2619 0.9245
s 0
f 1//1 2//1 3//1
f 1//2 3//2 4//2
f 1//3 4//3 5//3
f 1//4 5//4 6//4
f 1//5 6//5 7//5
f 1//6 7//6 8//6
f 1//7 8//7 2//7
f 2//8 9//8 10//8
f 2//9 10//9 3//9
f 2//10 8//10 11//10
f 2//11 11//11 9//11
f 3//12 10//12 23//12
f 3//12 23//12 41//12
f 3//12 41//12 54//12
f 3//12 54//12 66//12
f 3//12 66//12 77//12
f 3//12 77//12 85//12
f 3//12 85//12 94//12
f 3//12 94//12 101//12
f 3//12 101//12 106//12
f 3//12 106//12 111//12
f 3//12 111//12 116//12
f 3//12 116//12 121//12
f 3//12 121//12 126//12
f 3//12 126//12 131//12
f 3//12 131//12 134//12
f 3//12 134//12 132//12
f 3//12 132//12 127//12
f 3//12 127//12 122//12
f 3//12 122//12 117//12
f 3//12 117//12 112//12
f 3//12 112//12 107//12
f 3//12 107//12 102//12
f 3//12 102//12 97//12
f 3//12 97//12 88//12
f 3//12 88//12 79//12
f 3//12 79//12 69//12
f 3//12 69//12 60//12
f 3//12 60//12 59//12
f 3//12 59//12 48//12
f 3//12 48//12 47//12
f 3//12 47//12 44//12
f 3//12 44//12 26//12
f 3//12 26//12 14//12
f 3//12 14//12 13//12
f 3//12 13//12 12//12
f 3//12 12//12 4//12
f 4//13 12//13 5//13
f 5//14 12//14 13//14
f 5//15 13//15 14//15
f 5//16 14//16 15//16
f 5//17 15//17 16//17
f 5//18 16//18 6//18
f 6//19 16//19 17//19
f 6//20 17//20 18//20
f 6//21 18//21 7//21
f 7//22 18//22 19//22
f 7//23 19//23 20//23
f 7//23 20//23 8//23
f 8//24 20//24 21//24
f 8//25 21//25 11//25
f 9//26 22//26 23//26
f 9//27 23//27 10//27
f 9//28 11//28 24//28
f 9//29 24//29 22//29
f 11//30 21//30 25//30
f 11//31 25//31 24//31
f 14//32 26//32 15//32
f 15//33 27//33 28//33
f 15//34 28//34 16//34
f 15//35 26//35 27//35
f 16//36 29//36 17//36
f 16//37 28//37 29//37
f 17//38 29//38 30//38
f 17//39 30//39 31//39
f 17//40 31//40 18//40
f 18//41 31//41 32//41
f 18//42 32//42 33//42
f 18//43 33//43 34//43
f 18//44 34//44 19//44
f 19//45 34//45 35//45
f 19//46 35//46 36//46
f 19//46 36//46 20//46
f 20//47 36//47 37//47
f 20//48 37//48 21//48
f 21//49 37//49 38//49
f 21//50 38//50 25//50
f 22//51 24//51 39//51
f 22//52 39//52 40//52
f 22//53 40//53 41//53
f 22//54 41//54 23//54
f 24//55 25//55 42//55
f 24//56 42//56 39//56
f 25//57 38//57 43//57
f 25//58 43//58 42//58
f 26//59 44//59 27//59
f 27//60 45//60 46//60
f 27//61 46//61 28//61
f 27//62 44//62 47//62
f 27//63 47//63 48//63
f 27//64 48//64 45//64
f 28//65 46//65 49//65
f 28//66 49//66 29//66
f 29//67 49//67 50//67
f 29//68 50//68 30//68
f 30//69 50//69 62//69
f 30//69 62//69 72//69
f 30//70 72//70 82//70
f 30//69 82//69 92//69
f 30//69 92//69 90//69
f 30//69 90//69 89//69
f 30//69 89//69 99//69
f 30//69 99//69 98//69
f 30//69 98//69 104//69
f 30//69 104//69 103//69
f 30//69 103//69 109//69
f 30//69 109//69 108//69
f 30//69 108//69 114//69
f 30//69 114//69 113//69
f 30//69 113//69 119//69
f 30//69 119//69 118//69
f 30//69 118//69 124//69
f 30//69 124//69 123//69
f 30//69 123//69 129//69
f 30//69 129//69 128//69
f 30//69 128//69 133//69
f 30//69 133//69 130//69
f 30//69 130//69 125//69
f 30//69 125//69 120//69
f 30//69 120//69 115//69
f 30//69 115//69 110//69
f 30//69 110//69 105//69
f 30//69 105//69 100//69
f 30//69 100//69 93//69
f 30//69 93//69 95//69
f 30//69 95//69 86//69
f 30//69 86//69 75//69
f 30//69 75//69 67//69
f 30//69 67//69 56//69
f 30//69 56//69 55//69
f 30//69 55//69 43//69
f 30//69 43//69 38//69
f 30//69 38//69 37//69
f 30//69 37//69 36//69
f 30//69 36//69 35//69
f 30//69 35//69 34//69
f 30//69 34//69 33//69
f 30//69 33//69 32//69
f 30//69 32//69 31//69
f 39//71 51//71 40//71
f 39//72 42//72 52//72
f 39//73 52//73 51//73
f 40//74 51//74 53//74
f 40//75 53//75 54//75
f 40//76 54//76 41//76
f 42//77 43//77 55//77
f 42//78 55//78 56//78
f 42//79 56//79 52//79
f 45//80 57//80 58//80
f 45//81 58//81 46//81
f 45//82 48//82 59//82
f 45//83 59//83 60//83
f 45//83 60//83 57//83
f 46//84 58//84 49//84
f 49//85 61//85 50//85
f 49//84 58//84 61//84
f 50//86 61//86 62//86
f 51//87 63//87 53//87
f 51//88 52//88 63//88
f 52//89 56//89 64//89
f 52//88 64//88 63//88
f 53//90 63//90 65//90
f 53//91 65//91 66//91
f 53//92 66//92 54//92
f 56//93 67//93 64//93
f 57//94 68//94 58//94
f 57//95 60//95 69//95
f 57//96 69//96 68//96
f 58//97 68//97 70//97
f 58//98 70//98 61//98
f 61//99 71//99 62//99
f 61//100 70//100 71//100
f 62//101 71//101 72//101
f 63//102 73//102 74//102
f 63//103 74//103 65//103
f 63//104 64//104 73//104
f 64//105 67//105 75//105
f 64//106 75//106 76//106
f 64//107 76//107 73//107
f 65//108 74//108 77//108
f 65//109 77//109 66//109
f 68//110 78//110 70//110
f 68//111 69//111 79//111
f 68//112 79//112 78//112
f 70//113 78//113 80//113
f 70//114 80//114 71//114
f 71//115 81//115 82//115
f 71//116 82//116 72//116
f 71//117 80//117 81//117
f 73//118 83//118 84//118
f 73//119 84//119 74//119
f 73//120 76//120 83//120
f 74//121 84//121 85//121
f 74//122 85//122 77//122
f 75//123 86//123 76//123
f 76//124 86//124 87//124
f 76//125 87//125 83//125
f 78//126 79//126 80//126
f 79//127 88//127 89//127
f 79//128 89//128 90//128
f 79//129 90//129 91//129
f 79//130 91//130 81//130
f 79//131 81//131 80//131
f 81//132 91//132 82//132
f 82//133 91//133 92//133
f 83//134 87//134 96//134
f 83//134 96//134 93//134
f 83//134 93//134 84//134
f 84//135 93//135 94//135
f 84//136 94//136 85//136
f 86//137 95//137 96//137
f 86//138 96//138 87//138
f 88//139 97//139 98//139
f 88//140 98//140 99//140
f 88//141 99//141 89//141
f 90//142 92//142 91//142
f 93//143 96//143 95//143
f 93//144 100//144 94//144
f 94//145 100//145 101//145
f 97//146 102//146 103//146
f 97//147 103//147 104//147
f 97//148 104//148 98//148
f 100//149 105//149 101//149
f 101//150 105//150 106//150
f 102//151 107//151 108//151
f 102//152 108//152 109//152
f 102//153 109//153 103//153
f 105//154 110//154 106//154
f 106//155 110//155 111//155
f 107//156 112//156 113//156
f 107//157 113//157 114//157
f 107//158 114//158 108//158
f 110//159 115//159 111//159
f 111//160 115//160 116//160
f 112//161 117//161 118//161
f 112//162 118//162 119//162
f 112//163 119//163 113//163
f 115//164 120//164 116//164
f 116//165 120//165 121//165
f 117//166 122//166 123//166
f 117//167 123//167 124//167
f 117//168 124//168 118//168
f 120//169 125//169 121//169
f 121//170 125//170 126//170
f 122//171 127//171 128//171
f 122//172 128//172 129//172
f 122//173 129//173 123//173
f 125//174 130//174 131//174
f 125//175 131//175 126//175
f 127//176 132//176 128//176
f 128//177 132//177 134//177
f 128//178 134//178 133//178
f 130//179 133//179 134//179
f 130//180 134//180 131//180
