# Blender 4.2.11 LTS
# www.blender.org
o tmp_export_geometry_5.002
v -0.270297 0.197843 0.294873
v -0.265296 0.192840 0.294873
v -0.270297 0.197843 0.255152
v -0.310286 0.197843 0.294873
v -0.265296 0.155350 0.294873
v -0.265296 0.192840 0.255152
v -0.310134 0.197843 0.255152
v -0.310286 0.197843 0.276035
v -0.310295 0.197833 0.255152
v -0.315286 0.192840 0.294873
v -0.265296 0.155350 0.255152
v -0.270263 0.150380 0.294873
v -0.270297 0.150343 0.276035
v -0.269563 0.151077 0.255152
v -0.315286 0.192840 0.255152
v -0.315286 0.155350 0.294873
v -0.270292 0.150352 0.294873
v -0.273737 0.150343 0.294873
v -0.270297 0.150343 0.255152
v -0.315286 0.155350 0.255152
v -0.314856 0.154918 0.294873
v -0.310286 0.150343 0.294873
v -0.310286 0.150343 0.255152
v -0.313305 0.153365 0.255152
v -0.310672 0.150729 0.255152
vn 0.7072 0.7070 -0.0000
vn -0.0000 1.0000 -0.0000
vn -0.0000 -0.0000 1.0000
vn 0.0013 -0.0000 1.0000
vn 1.0000 -0.0000 -0.0000
vn -0.0000 -0.0000 -1.0000
vn -0.6887 0.7250 -0.0000
vn -0.7072 0.7070 -0.0000
vn 0.7074 -0.7068 0.0001
vn 0.7076 -0.7067 -0.0000
vn 0.7076 -0.7066 -0.0000
vn -0.0575 0.9983 -0.0004
vn -0.7073 0.7069 -0.0000
vn -1.0000 -0.0000 -0.0000
vn 0.6881 -0.7256 0.0002
vn 0.0027 -1.0000 0.0005
vn -0.0000 -1.0000 -0.0000
vn 0.7074 -0.7068 -0.0000
vn -0.7085 -0.7057 -0.0000
vn -0.7078 -0.7065 -0.0000
vn -0.7075 -0.7067 -0.0000
vn -0.7076 -0.7066 -0.0000
vn -0.7065 -0.7077 -0.0000
s 0
f 1//1 2//1 6//1
f 1//1 6//1 3//1
f 1//2 3//2 7//2
f 1//2 7//2 8//2
f 1//2 8//2 4//2
f 1//3 4//3 10//3
f 1//3 10//3 16//3
f 1//3 16//3 21//3
f 1//3 21//3 22//3
f 1//3 22//3 18//3
f 1//3 18//3 17//3
f 1//4 17//4 12//4
f 1//3 12//3 5//3
f 1//3 5//3 2//3
f 2//5 5//5 11//5
f 2//5 11//5 6//5
f 3//6 6//6 11//6
f 3//6 11//6 14//6
f 3//6 14//6 19//6
f 3//6 19//6 23//6
f 3//6 23//6 25//6
f 3//6 25//6 24//6
f 3//6 24//6 20//6
f 3//6 20//6 15//6
f 3//6 15//6 9//6
f 3//6 9//6 7//6
f 4//7 8//7 9//7
f 4//8 9//8 10//8
f 5//9 12//9 13//9
f 5//10 13//10 14//10
f 5//11 14//11 11//11
f 7//12 9//12 8//12
f 9//13 15//13 10//13
f 10//14 15//14 20//14
f 10//14 20//14 16//14
f 12//15 17//15 13//15
f 13//16 17//16 18//16
f 13//17 18//17 22//17
f 13//17 22//17 23//17
f 13//17 23//17 19//17
f 13//18 19//18 14//18
f 16//19 20//19 21//19
f 20//20 24//20 21//20
f 21//21 25//21 22//21
f 21//22 24//22 25//22
f 22//23 25//23 23//23
