# Blender 4.2.11 LTS
# www.blender.org
o tmp_export_geometry_11
v -0.315291 0.245341 0.202486
v -0.315287 0.202898 0.202486
v -0.315291 0.245341 0.244996
v -0.310288 0.250343 0.202486
v -0.315287 0.202898 0.244996
v -0.306925 0.202898 0.202486
v -0.310288 0.202898 0.250001
v -0.310288 0.245341 0.250001
v -0.310288 0.250343 0.244996
v -0.270280 0.250343 0.202486
v -0.265277 0.245076 0.202486
v -0.265292 0.202898 0.202505
v -0.310239 0.202898 0.250001
v -0.270295 0.245341 0.250001
v -0.270295 0.250343 0.244996
v -0.265277 0.245341 0.202486
v -0.265292 0.202898 0.244996
v -0.270285 0.202898 0.249991
v -0.265292 0.245341 0.244996
vn -1.0000 -0.0001 -0.0000
vn -0.7070 0.7072 -0.0000
vn -0.0000 -0.0000 -1.0000
vn -0.0000 -0.9999 0.0120
vn -0.0000 -1.0000 -0.0000
vn -0.7075 -0.0001 0.7067
vn -0.7072 -0.0000 0.7070
vn -0.5773 0.5775 0.5772
vn -0.0000 1.0000 -0.0000
vn 0.0004 -0.0004 -1.0000
vn -0.0000 -0.0000 1.0000
vn -0.0000 0.7073 0.7069
vn 0.7070 0.7072 0.0002
vn 1.0000 -0.0000 0.0003
vn 1.0000 -0.0003 -0.0000
vn 0.0002 -0.0002 1.0000
vn 0.7072 -0.0000 0.7070
vn 0.5773 0.5775 0.5772
s 0
f 1//1 2//1 5//1
f 1//1 5//1 3//1
f 1//2 3//2 9//2
f 1//2 9//2 4//2
f 1//3 4//3 10//3
f 1//3 10//3 16//3
f 1//3 16//3 11//3
f 1//3 11//3 6//3
f 1//3 6//3 2//3
f 2//4 6//4 12//4
f 2//5 12//5 17//5
f 2//5 17//5 18//5
f 2//5 18//5 13//5
f 2//5 13//5 7//5
f 2//5 7//5 5//5
f 3//6 5//6 7//6
f 3//7 7//7 8//7
f 3//8 8//8 9//8
f 4//9 9//9 15//9
f 4//9 15//9 10//9
f 6//10 11//10 12//10
f 7//11 13//11 14//11
f 7//11 14//11 8//11
f 8//12 14//12 15//12
f 8//12 15//12 9//12
f 10//13 15//13 19//13
f 10//13 19//13 16//13
f 11//14 16//14 19//14
f 11//14 19//14 17//14
f 11//15 17//15 12//15
f 13//16 18//16 14//16
f 14//17 18//17 19//17
f 14//18 19//18 15//18
f 17//17 19//17 18//17
