# Blender 4.2.11 LTS
# www.blender.org
o tmp_export_geometry_9
v -0.260270 0.150343 0.344718
v -0.260270 0.197840 0.344718
v -0.220293 0.150343 0.344718
v -0.260270 0.150343 0.494985
v -0.260270 0.197868 0.347545
v -0.220293 0.197840 0.344718
v -0.215291 0.155344 0.344718
v -0.220293 0.150343 0.494985
v -0.260270 0.155344 0.499985
v -0.220293 0.197868 0.347545
v -0.260270 0.197868 0.499985
v -0.215291 0.197868 0.352546
v -0.219967 0.197514 0.344718
v -0.215291 0.192834 0.344718
v -0.215291 0.155344 0.494985
v -0.220293 0.155344 0.499985
v -0.220293 0.197868 0.499985
v -0.215291 0.197868 0.494985
vn -0.0000 -0.0000 -1.0000
vn -0.0000 -1.0000 -0.0000
vn -1.0000 -0.0000 -0.0000
vn -0.0000 1.0000 -0.0099
vn 0.7071 -0.7071 -0.0000
vn -0.0000 -0.7071 0.7072
vn -0.0000 1.0000 -0.0000
vn 0.0099 0.9999 -0.0099
vn 0.6436 0.6439 -0.4136
vn 1.0000 -0.0000 -0.0000
vn 0.5773 -0.5773 0.5774
vn -0.0000 -0.0000 1.0000
vn 0.6440 0.6434 -0.4138
vn 0.7070 -0.0000 0.7072
s 0
f 1//1 2//1 6//1
f 1//1 6//1 13//1
f 1//1 13//1 14//1
f 1//1 14//1 7//1
f 1//1 7//1 3//1
f 1//2 3//2 8//2
f 1//2 8//2 4//2
f 1//3 4//3 9//3
f 1//3 9//3 11//3
f 1//3 11//3 5//3
f 1//3 5//3 2//3
f 2//4 5//4 10//4
f 2//4 10//4 6//4
f 3//5 7//5 15//5
f 3//5 15//5 8//5
f 4//6 8//6 16//6
f 4//6 16//6 9//6
f 5//7 11//7 17//7
f 5//7 17//7 18//7
f 5//7 18//7 12//7
f 5//7 12//7 10//7
f 6//8 10//8 12//8
f 6//9 12//9 13//9
f 7//10 14//10 12//10
f 7//10 12//10 18//10
f 7//10 18//10 15//10
f 8//11 15//11 16//11
f 9//12 16//12 17//12
f 9//12 17//12 11//12
f 12//13 14//13 13//13
f 15//14 18//14 17//14
f 15//14 17//14 16//14
