# Blender 4.2.11 LTS
# www.blender.org
o tmp_export_geometry_6.002
v -0.315291 0.245341 0.190200
v -0.315291 0.245341 0.202486
v -0.310600 0.250030 0.190200
v -0.315286 0.155345 0.190200
v -0.311176 0.249452 0.202486
v -0.315286 0.155345 0.202486
v -0.310287 0.250333 0.202486
v -0.310287 0.250333 0.190200
v -0.313401 0.153455 0.190200
v -0.313271 0.153328 0.202486
v -0.270280 0.250333 0.202486
v -0.260266 0.250333 0.190200
v -0.310600 0.150656 0.190200
v -0.311645 0.151703 0.202486
v -0.260266 0.250333 0.192501
v -0.265281 0.245341 0.202486
v -0.260266 0.245341 0.197500
v -0.260266 0.150353 0.190200
v -0.310287 0.150353 0.190200
v -0.310287 0.150353 0.202486
v -0.265281 0.155345 0.202486
v -0.260266 0.155345 0.197500
v -0.260266 0.150353 0.192501
v -0.270280 0.150353 0.202486
vn -0.7069 0.7073 -0.0000
vn 0.0002 -0.0000 -1.0000
vn -0.0000 -0.0000 -1.0000
vn -1.0000 -0.0001 -0.0000
vn -0.7067 0.7075 0.0001
vn -0.0000 -0.0000 1.0000
vn -0.0031 -0.0000 1.0000
vn -0.7040 0.7102 0.0004
vn -0.6968 0.7173 -0.0000
vn -0.7078 -0.7064 -0.0000
vn -0.7074 -0.7068 0.0001
vn -0.0000 1.0000 -0.0000
vn -0.7069 -0.7073 0.0001
vn -0.7067 -0.7075 0.0002
vn 0.5760 0.5767 0.5793
vn 0.5760 0.5784 0.5776
vn 1.0000 -0.0000 -0.0000
vn -0.6968 -0.7173 -0.0000
vn -0.7054 -0.7088 0.0004
vn 0.7050 -0.0000 0.7092
vn -0.0000 -1.0000 -0.0000
vn 0.5760 -0.5767 0.5793
vn 0.5760 -0.5784 0.5776
s 0
f 1//1 2//1 3//1
f 1//2 3//2 8//2
f 1//3 8//3 12//3
f 1//3 12//3 18//3
f 1//3 18//3 19//3
f 1//3 19//3 13//3
f 1//3 13//3 9//3
f 1//3 9//3 4//3
f 1//4 4//4 6//4
f 1//4 6//4 2//4
f 2//5 5//5 3//5
f 2//6 6//6 10//6
f 2//6 10//6 14//6
f 2//6 14//6 20//6
f 2//6 20//6 24//6
f 2//6 24//6 21//6
f 2//6 21//6 16//6
f 2//6 16//6 11//6
f 2//6 11//6 7//6
f 2//7 7//7 5//7
f 3//8 5//8 7//8
f 3//9 7//9 8//9
f 4//10 9//10 6//10
f 6//11 9//11 10//11
f 7//12 11//12 15//12
f 7//12 15//12 12//12
f 7//12 12//12 8//12
f 9//13 13//13 10//13
f 10//14 13//14 14//14
f 11//15 16//15 17//15
f 11//16 17//16 15//16
f 12//17 15//17 17//17
f 12//17 17//17 22//17
f 12//17 22//17 23//17
f 12//17 23//17 18//17
f 13//18 19//18 20//18
f 13//19 20//19 14//19
f 16//20 21//20 22//20
f 16//20 22//20 17//20
f 18//21 23//21 24//21
f 18//21 24//21 20//21
f 18//21 20//21 19//21
f 21//22 24//22 22//22
f 22//23 24//23 23//23
