# Blender 4.2.11 LTS
# www.blender.org
o tmp_export_geometry_3.003
v -0.215301 0.245335 0.494976
v -0.215301 0.202834 0.494976
v -0.215301 0.245335 0.357512
v -0.220303 0.250338 0.494976
v -0.220303 0.245335 0.500001
v -0.217660 0.202834 0.497358
v -0.215301 0.202834 0.357555
v -0.215301 0.202843 0.357512
v -0.215311 0.202834 0.357483
v -0.220303 0.245335 0.352501
v -0.220303 0.250338 0.357512
v -0.310289 0.250338 0.494976
v -0.310289 0.245335 0.500001
v -0.220303 0.202834 0.500001
v -0.220303 0.202834 0.352487
v -0.310289 0.245335 0.352501
v -0.281785 0.248752 0.355923
v -0.310289 0.250338 0.357512
v -0.315282 0.245335 0.494976
v -0.310289 0.202834 0.500001
v -0.310289 0.202834 0.352501
v -0.315282 0.202834 0.357497
v -0.315282 0.245335 0.357512
v -0.281795 0.248752 0.355923
v -0.315282 0.202834 0.494976
vn 1.0000 -0.0000 -0.0000
vn 1.0000 0.0003 -0.0000
vn 0.7072 0.7070 -0.0000
vn 0.5783 0.5781 0.5756
vn 0.7087 0.0002 0.7055
vn 0.7106 -0.0000 0.7036
vn -0.0000 -1.0000 0.0018
vn -0.0000 -1.0000 -0.0000
vn 0.9471 -0.0000 -0.3209
vn 0.7077 0.0003 -0.7065
vn 0.5777 0.5776 -0.5768
vn -0.0000 0.7086 0.7056
vn -0.0000 1.0000 -0.0000
vn -0.0000 -0.0000 1.0000
vn 0.7070 -0.0000 0.7072
vn 0.8394 -0.5316 -0.1136
vn 0.7074 0.0002 -0.7068
vn -0.0000 0.0003 -1.0000
vn -0.0000 0.7076 -0.7067
vn -0.0000 0.7085 -0.7057
vn -0.0000 0.7076 -0.7066
vn -0.0000 0.7160 -0.6981
vn -0.0000 0.7077 -0.7065
vn -0.5790 0.5777 0.5753
vn -0.7079 0.7063 -0.0000
vn -0.7094 -0.0000 0.7048
vn -0.0002 -0.0000 -1.0000
vn -0.7084 0.0002 -0.7058
vn -0.5785 0.5772 -0.5764
vn -0.7074 -0.0000 -0.7068
vn -1.0000 -0.0000 -0.0000
s 0
f 1//1 2//1 7//1
f 1//2 7//2 8//2
f 1//1 8//1 3//1
f 1//3 3//3 11//3
f 1//3 11//3 4//3
f 1//4 4//4 5//4
f 1//5 5//5 6//5
f 1//6 6//6 2//6
f 2//7 6//7 14//7
f 2//8 14//8 20//8
f 2//8 20//8 25//8
f 2//8 25//8 22//8
f 2//8 22//8 21//8
f 2//8 21//8 15//8
f 2//8 15//8 9//8
f 2//8 9//8 7//8
f 3//9 8//9 9//9
f 3//10 9//10 10//10
f 3//11 10//11 11//11
f 4//12 12//12 13//12
f 4//12 13//12 5//12
f 4//13 11//13 18//13
f 4//13 18//13 12//13
f 5//14 13//14 20//14
f 5//14 20//14 14//14
f 5//15 14//15 6//15
f 7//16 9//16 8//16
f 9//17 15//17 10//17
f 10//18 15//18 16//18
f 10//19 16//19 24//19
f 10//20 24//20 17//20
f 10//21 17//21 11//21
f 11//22 17//22 24//22
f 11//23 24//23 18//23
f 12//24 19//24 13//24
f 12//25 18//25 23//25
f 12//25 23//25 19//25
f 13//26 19//26 25//26
f 13//26 25//26 20//26
f 15//27 21//27 16//27
f 16//28 22//28 23//28
f 16//29 23//29 18//29
f 16//21 18//21 24//21
f 16//30 21//30 22//30
f 19//31 23//31 22//31
f 19//31 22//31 25//31
