# Blender 4.2.11 LTS
# www.blender.org
o tmp_export_geometry_10
v -0.315291 0.155346 0.294875
v -0.315286 0.192840 0.294875
v -0.314861 0.154913 0.294875
v -0.315286 0.155346 0.343378
v -0.315286 0.192840 0.343378
v -0.315065 0.193063 0.343378
v -0.315001 0.193128 0.343378
v -0.311607 0.196522 0.294875
v -0.313751 0.153807 0.343378
v -0.310288 0.150343 0.294875
v -0.310288 0.150343 0.343378
v -0.310288 0.197843 0.343378
v -0.310288 0.197843 0.294875
v -0.273734 0.150343 0.294875
v -0.260275 0.150343 0.343378
v -0.260275 0.197843 0.343378
v -0.270293 0.197843 0.294875
v -0.270287 0.150352 0.294875
v -0.270293 0.150343 0.295003
v -0.260275 0.150343 0.305003
v -0.260275 0.197843 0.305026
v -0.260297 0.197843 0.305003
v -0.260275 0.197838 0.305003
v -0.265295 0.192840 0.294875
v -0.265295 0.155346 0.294875
v -0.260275 0.155346 0.300003
v -0.260275 0.192821 0.300003
vn -0.0000 -0.0000 -1.0000
vn -0.7083 -0.7059 0.0001
vn -1.0000 -0.0000 0.0001
vn -1.0000 0.0001 -0.0000
vn -0.7108 0.7034 -0.0000
vn -0.7098 0.7044 -0.0000
vn -0.7075 0.7067 -0.0000
vn -0.7080 -0.7062 0.0001
vn -0.7069 -0.7073 -0.0000
vn -0.7072 -0.7070 -0.0000
vn -0.0183 -0.0000 0.9998
vn -0.0000 -0.0000 1.0000
vn -0.0001 -0.0000 1.0000
vn -0.7073 0.7070 -0.0000
vn -0.7074 0.7069 -0.0000
vn -0.0000 -1.0000 0.0001
vn -0.0000 -1.0000 -0.0000
vn -0.0000 1.0000 -0.0000
vn -0.0000 1.0000 0.0003
vn 0.0027 -0.9974 -0.0723
vn 1.0000 -0.0000 -0.0000
vn 1.0000 0.0001 -0.0000
vn 0.2067 0.9568 -0.2043
vn 0.5797 0.5792 -0.5731
vn 0.5794 -0.5793 -0.5733
vn 0.0692 -0.9952 -0.0693
vn 0.5857 -0.5730 -0.5733
vn 0.2068 0.9602 -0.1876
vn 0.5876 0.5712 -0.5731
vn 0.7146 -0.0000 -0.6995
s 0
f 1//1 2//1 8//1
f 1//1 8//1 13//1
f 1//1 13//1 17//1
f 1//1 17//1 24//1
f 1//1 24//1 25//1
f 1//1 25//1 18//1
f 1//1 18//1 14//1
f 1//1 14//1 10//1
f 1//1 10//1 3//1
f 1//2 3//2 4//2
f 1//3 4//3 5//3
f 1//4 5//4 2//4
f 2//5 5//5 6//5
f 2//6 6//6 7//6
f 2//7 7//7 8//7
f 3//8 9//8 4//8
f 3//9 10//9 11//9
f 3//10 11//10 9//10
f 4//11 9//11 11//11
f 4//12 11//12 15//12
f 4//12 15//12 16//12
f 4//12 16//12 12//12
f 4//12 12//12 7//12
f 4//12 7//12 6//12
f 4//13 6//13 5//13
f 7//14 12//14 13//14
f 7//15 13//15 8//15
f 10//16 14//16 19//16
f 10//17 19//17 20//17
f 10//17 20//17 15//17
f 10//17 15//17 11//17
f 12//18 16//18 21//18
f 12//19 21//19 22//19
f 12//18 22//18 17//18
f 12//18 17//18 13//18
f 14//20 18//20 19//20
f 15//21 20//21 26//21
f 15//21 26//21 27//21
f 15//21 27//21 23//21
f 15//22 23//22 21//22
f 15//21 21//21 16//21
f 17//23 22//23 23//23
f 17//24 23//24 24//24
f 18//25 25//25 20//25
f 18//26 20//26 19//26
f 20//27 25//27 26//27
f 21//28 23//28 22//28
f 23//29 27//29 24//29
f 24//30 27//30 26//30
f 24//30 26//30 25//30
