# Blender 4.2.11 LTS
# www.blender.org
o tmp_export_medium-piece-6-collision.001
v -0.181429 0.316122 0.154539
v -0.181429 0.316122 0.104539
v -0.206431 0.316122 0.154539
v -0.181429 0.061122 0.154539
v -0.206431 0.316122 0.104539
v -0.181429 0.061122 0.104539
v -0.206431 0.061122 0.154539
v -0.206431 0.061122 0.104539
vn -0.0000 1.0000 -0.0000
vn -0.0000 -0.0000 1.0000
vn 1.0000 -0.0000 -0.0000
vn -0.0000 -0.0000 -1.0000
vn -1.0000 -0.0000 -0.0000
vn -0.0000 -1.0000 -0.0000
s 0
f 1//1 2//1 5//1
f 1//1 5//1 3//1
f 1//2 3//2 7//2
f 1//2 7//2 4//2
f 1//3 4//3 6//3
f 1//3 6//3 2//3
f 2//4 6//4 8//4
f 2//4 8//4 5//4
f 3//5 5//5 8//5
f 3//5 8//5 7//5
f 4//6 7//6 8//6
f 4//6 8//6 6//6
