# Blender 4.2.11 LTS
# www.blender.org
o tmp_export_short-piece-3-collision.003
v -0.181628 0.267454 0.101626
v -0.181628 0.267454 0.051631
v -0.206629 0.267454 0.101626
v -0.181628 0.162589 0.101626
v -0.181628 0.162589 0.051631
v -0.206598 0.162589 0.051626
v -0.206627 0.217449 0.051626
v -0.206629 0.267454 0.051631
v -0.206629 0.217449 0.101626
v -0.206627 0.162589 0.101626
v -0.206627 0.162589 0.051626
v -0.206629 0.217449 0.051626
vn -0.0000 1.0000 -0.0000
vn -0.0000 -0.0000 1.0000
vn 1.0000 -0.0000 -0.0000
vn 0.0002 -0.0000 -1.0000
vn -0.0000 0.0001 -1.0000
vn -1.0000 -0.0000 -0.0000
vn -0.0000 -1.0000 -0.0000
vn -0.0000 -1.0000 -0.0005
vn -0.0000 -0.0000 -1.0000
s 0
f 1//1 2//1 8//1
f 1//1 8//1 3//1
f 1//2 3//2 9//2
f 1//2 9//2 10//2
f 1//2 10//2 4//2
f 1//3 4//3 5//3
f 1//3 5//3 2//3
f 2//4 5//4 6//4
f 2//4 6//4 7//4
f 2//5 7//5 12//5
f 2//5 12//5 8//5
f 3//6 8//6 12//6
f 3//6 12//6 9//6
f 4//7 10//7 11//7
f 4//8 11//8 6//8
f 4//7 6//7 5//7
f 6//9 11//9 12//9
f 6//9 12//9 7//9
f 9//6 12//6 11//6
f 9//6 11//6 10//6
