# Blender 4.2.11 LTS
# www.blender.org
o tmp_export_interlocking-puzzle-5-collision.003
v -0.075342 -0.018465 -0.038414
v -0.075342 0.018469 -0.038414
v 0.113013 -0.018465 -0.038414
v -0.075342 -0.018469 0.036527
v -0.075342 0.018469 -0.029156
v 0.113013 0.018469 -0.038414
v 0.113013 -0.018469 0.036571
v -0.075342 -0.018469 0.036571
v -0.075342 0.018465 0.036571
v 0.113013 0.018465 0.036571
vn -0.0000 -0.0000 -1.0000
vn -0.0000 -1.0000 -0.0000
vn -0.5643 -0.8256 -0.0000
vn -1.0000 -0.0000 -0.0000
vn -0.0000 1.0000 -0.0000
vn 1.0000 -0.0000 -0.0000
vn -0.0000 1.0000 0.0001
vn -0.0000 -0.0000 1.0000
s 0
f 1//1 2//1 6//1
f 1//1 6//1 3//1
f 1//2 3//2 4//2
f 1//3 4//3 8//3
f 1//4 8//4 9//4
f 1//4 9//4 5//4
f 1//4 5//4 2//4
f 2//5 5//5 6//5
f 3//6 6//6 10//6
f 3//6 10//6 7//6
f 3//2 7//2 4//2
f 4//2 7//2 8//2
f 5//7 9//7 10//7
f 5//5 10//5 6//5
f 7//8 10//8 9//8
f 7//8 9//8 8//8
