# Blender 4.2.11 LTS
# www.blender.org
o tmp_export_short-piece-5-collision.001
v -0.231674 0.316064 0.155756
v -0.231674 0.266064 0.155756
v -0.281671 0.316064 0.155756
v -0.231547 0.316059 0.205756
v -0.231547 0.316059 0.180756
v -0.281671 0.266064 0.155756
v -0.231547 0.266064 0.180756
v -0.281671 0.316059 0.205756
v -0.231547 0.266064 0.205756
v -0.281671 0.266064 0.205756
vn -0.0000 -0.0000 -1.0000
vn -0.0000 1.0000 0.0001
vn 0.0383 0.9993 -0.0000
vn 1.0000 -0.0000 -0.0051
vn -0.0000 -1.0000 -0.0000
vn -1.0000 -0.0000 -0.0000
vn -0.0000 -0.0000 1.0000
vn 1.0000 -0.0000 -0.0000
s 0
f 1//1 2//1 6//1
f 1//1 6//1 3//1
f 1//2 3//2 8//2
f 1//2 8//2 4//2
f 1//3 4//3 5//3
f 1//4 5//4 7//4
f 1//4 7//4 2//4
f 2//5 7//5 9//5
f 2//5 9//5 10//5
f 2//5 10//5 6//5
f 3//6 6//6 10//6
f 3//6 10//6 8//6
f 4//7 8//7 10//7
f 4//7 10//7 9//7
f 4//8 9//8 7//8
f 4//8 7//8 5//8
