# Blender 4.2.11 LTS
# www.blender.org
o tmp_export_piece_3-collision.002
v -0.019984 -0.029424 -0.016492
v -0.019984 -0.029424 0.017010
v -0.019984 0.007608 -0.016488
v -0.019690 0.007608 -0.017790
v -0.019690 -0.029424 -0.017790
v -0.019690 -0.029424 0.018308
v -0.019690 0.007608 0.018308
v -0.019984 0.007608 0.017006
v -0.019690 0.008910 -0.016488
v -0.018855 0.007608 -0.018834
v -0.019420 0.008781 -0.017790
v -0.018670 0.008417 -0.018834
v -0.018855 -0.029424 -0.018834
v -0.018855 -0.029424 0.019352
v -0.018855 0.007608 0.019352
v -0.018670 0.008417 0.019352
v -0.019420 0.008781 0.018308
v -0.019690 0.008910 0.017006
v -0.018855 0.009951 -0.016488
v -0.018670 0.009720 -0.017790
v -0.017587 0.007897 -0.019412
v -0.017653 0.007608 -0.019412
v -0.018820 -0.029424 -0.018853
v -0.018152 0.009071 -0.018834
v -0.017653 -0.029424 0.019930
v -0.017653 0.007608 0.019930
v -0.017587 0.007897 0.019930
v -0.018152 0.009071 0.019352
v -0.018670 0.009720 0.018308
v -0.018855 0.009951 0.017006
v -0.017653 0.010530 -0.016488
v -0.017587 0.010240 -0.017790
v -0.017401 0.008128 -0.019412
v -0.017653 -0.029424 -0.019412
v -0.017135 0.008257 -0.019412
v -0.017401 0.009431 -0.018834
v 0.017176 -0.029424 0.019930
v -0.017401 0.008128 0.019930
v -0.017135 0.008257 0.019930
v -0.017401 0.009431 0.019352
v -0.017587 0.010240 0.018308
v -0.017653 0.010530 0.017006
v 0.017176 0.010530 -0.016488
v 0.017111 0.010240 -0.017790
v 0.017176 -0.029424 -0.019412
v 0.016658 0.008257 -0.019412
v 0.016925 0.009431 -0.018834
v 0.018379 -0.029424 0.019352
v 0.017176 0.007608 0.019930
v 0.016658 0.008257 0.019930
v 0.016925 0.009431 0.019352
v 0.017111 0.010240 0.018308
v 0.017176 0.010530 0.017006
v 0.018379 0.009951 -0.016488
v 0.018193 0.009720 -0.017790
v 0.017675 0.009071 -0.018834
v 0.017176 0.007608 -0.019412
v 0.018344 -0.029424 -0.018853
v 0.016925 0.008128 -0.019412
v 0.019206 -0.029424 0.018320
v 0.018379 0.007608 0.019352
v 0.017111 0.007897 0.019930
v 0.016925 0.008128 0.019930
v 0.017675 0.009071 0.019352
v 0.018193 0.009720 0.018308
v 0.018379 0.009951 0.017006
v 0.019214 0.008910 -0.016488
v 0.018943 0.008781 -0.017790
v 0.018193 0.008417 -0.018834
v 0.017111 0.007897 -0.019412
v 0.018379 0.007608 -0.018834
v 0.018379 -0.029424 -0.018834
v 0.019508 -0.029424 0.017010
v 0.019214 0.007608 0.018308
v 0.018193 0.008417 0.019352
v 0.018943 0.008781 0.018308
v 0.019214 0.008910 0.017006
v 0.019512 0.007608 -0.016488
v 0.019214 0.007608 -0.017790
v 0.019214 -0.029424 -0.017790
v 0.019512 -0.029424 0.016968
v 0.019512 0.007608 0.017006
v 0.019512 -0.029424 -0.016488
vn -1.0000 -0.0000 -0.0000
vn -0.9755 -0.0000 -0.2202
vn -0.9753 -0.0000 -0.2208
vn -0.0000 -1.0000 -0.0000
vn -0.9753 -0.0000 0.2208
vn -0.9755 -0.0000 0.2202
vn -0.9755 0.2201 -0.0000
vn -0.9527 0.2149 -0.2150
vn -0.7808 -0.0000 -0.6247
vn -0.9507 0.2193 -0.2194
vn -0.7689 0.1774 -0.6143
vn -0.7686 0.1762 -0.6149
vn -0.7808 -0.0000 0.6247
vn -0.7686 0.1762 0.6149
vn -0.7689 0.1774 0.6143
vn -0.9507 0.2193 0.2194
vn -0.9527 0.2149 0.2150
vn -0.7798 0.6260 -0.0000
vn -0.7613 0.6111 -0.2168
vn -0.7623 0.6091 -0.2189
vn -0.4310 0.0978 -0.8970
vn -0.4331 0.0001 -0.9014
vn -0.4839 -0.0000 -0.8751
vn -0.4311 0.0988 -0.8969
vn -0.6172 0.4931 -0.6131
vn -0.6179 0.4901 -0.6148
vn -0.3465 0.2749 -0.8969
vn -0.4331 -0.0000 0.9014
vn -0.4310 0.0978 0.8970
vn -0.4311 0.0988 0.8969
vn -0.6179 0.4901 0.6148
vn -0.3465 0.2749 0.8969
vn -0.6172 0.4931 0.6131
vn -0.7623 0.6091 0.2189
vn -0.7613 0.6111 0.2168
vn -0.4337 0.9010 -0.0000
vn -0.4235 0.8797 -0.2163
vn -0.4228 0.8799 -0.2169
vn -0.3422 0.7122 -0.6129
vn -0.0000 -0.0000 -1.0000
vn -0.3438 0.2765 -0.8974
vn -0.4315 -0.0000 -0.9021
vn -0.1921 0.3972 -0.8974
vn -0.3417 0.7122 -0.6132
vn -0.1911 0.3983 -0.8971
vn -0.0000 -0.0000 1.0000
vn -0.3438 0.2765 0.8974
vn -0.1921 0.3972 0.8974
vn -0.1911 0.3983 0.8971
vn -0.3417 0.7122 0.6132
vn -0.3422 0.7122 0.6129
vn -0.4228 0.8799 0.2169
vn -0.4235 0.8797 0.2163
vn -0.0000 1.0000 -0.0000
vn -0.0000 0.9762 -0.2170
vn -0.0000 0.7902 -0.6129
vn -0.0000 0.4417 -0.8971
vn 0.4331 -0.0000 0.9014
vn -0.0000 0.4417 0.8971
vn -0.0000 0.7902 0.6129
vn -0.0000 0.9762 0.2170
vn 0.4337 0.9010 -0.0000
vn 0.4235 0.8797 -0.2163
vn 0.4228 0.8799 -0.2169
vn 0.3422 0.7122 -0.6129
vn 0.3417 0.7122 -0.6132
vn 0.4315 -0.0000 -0.9021
vn 0.1911 0.3983 -0.8971
vn 0.1921 0.3972 -0.8974
vn 0.7803 -0.0000 0.6254
vn 0.4310 0.0978 0.8970
vn 0.1921 0.3972 0.8974
vn 0.1911 0.3983 0.8971
vn 0.3417 0.7122 0.6132
vn 0.3422 0.7122 0.6129
vn 0.4228 0.8799 0.2169
vn 0.4235 0.8797 0.2163
vn 0.7613 0.6111 -0.2168
vn 0.7798 0.6260 -0.0000
vn 0.7623 0.6091 -0.2189
vn 0.6172 0.4931 -0.6131
vn 0.6179 0.4901 -0.6148
vn 0.3465 0.2749 -0.8969
vn 0.3438 0.2765 -0.8974
vn 0.4310 0.0978 -0.8970
vn 0.4331 0.0001 -0.9014
vn 0.4839 -0.0000 -0.8751
vn 0.9745 -0.0001 0.2244
vn 0.7808 -0.0000 0.6247
vn 0.7686 0.1762 0.6149
vn 0.4311 0.0988 0.8969
vn 0.3465 0.2749 0.8969
vn 0.3438 0.2765 0.8974
vn 0.6179 0.4901 0.6148
vn 0.6172 0.4931 0.6131
vn 0.7623 0.6091 0.2189
vn 0.7613 0.6111 0.2168
vn 0.9515 0.2175 -0.2176
vn 0.9507 0.2193 -0.2194
vn 0.9749 0.2228 -0.0000
vn 0.7689 0.1774 -0.6143
vn 0.7686 0.1762 -0.6149
vn 0.4311 0.0988 -0.8969
vn 0.7808 -0.0000 -0.6247
vn 0.9958 -0.0001 0.0911
vn 0.9748 -0.0001 0.2229
vn 0.9515 0.2175 0.2176
vn 0.9507 0.2193 0.2194
vn 0.7689 0.1774 0.6143
vn 1.0000 -0.0000 -0.0000
vn 0.9748 -0.0000 -0.2229
s 0
f 1//1 2//1 8//1
f 1//1 8//1 3//1
f 1//2 3//2 4//2
f 1//3 4//3 5//3
f 1//4 5//4 13//4
f 1//4 13//4 23//4
f 1//4 23//4 34//4
f 1//4 34//4 45//4
f 1//4 45//4 58//4
f 1//4 58//4 72//4
f 1//4 72//4 80//4
f 1//4 80//4 83//4
f 1//4 83//4 81//4
f 1//4 81//4 73//4
f 1//4 73//4 60//4
f 1//4 60//4 48//4
f 1//4 48//4 37//4
f 1//4 37//4 25//4
f 1//4 25//4 14//4
f 1//4 14//4 6//4
f 1//4 6//4 2//4
f 2//5 6//5 7//5
f 2//6 7//6 8//6
f 3//7 8//7 18//7
f 3//7 18//7 9//7
f 3//8 9//8 4//8
f 4//9 10//9 13//9
f 4//9 13//9 5//9
f 4//10 9//10 11//10
f 4//11 11//11 12//11
f 4//12 12//12 10//12
f 6//13 14//13 15//13
f 6//13 15//13 7//13
f 7//14 15//14 16//14
f 7//15 16//15 17//15
f 7//16 17//16 18//16
f 7//17 18//17 8//17
f 9//18 18//18 30//18
f 9//18 30//18 19//18
f 9//19 19//19 20//19
f 9//20 20//20 11//20
f 10//21 21//21 22//21
f 10//22 22//22 23//22
f 10//23 23//23 13//23
f 10//24 12//24 21//24
f 11//25 20//25 24//25
f 11//26 24//26 12//26
f 12//27 24//27 21//27
f 14//28 25//28 26//28
f 14//28 26//28 15//28
f 15//29 26//29 27//29
f 15//30 27//30 16//30
f 16//31 28//31 17//31
f 16//32 27//32 28//32
f 17//33 28//33 29//33
f 17//34 29//34 18//34
f 18//35 29//35 30//35
f 19//36 30//36 42//36
f 19//36 42//36 31//36
f 19//37 31//37 20//37
f 20//38 31//38 32//38
f 20//39 32//39 24//39
f 21//40 33//40 35//40
f 21//40 35//40 46//40
f 21//40 46//40 59//40
f 21//40 59//40 70//40
f 21//40 70//40 57//40
f 21//40 57//40 45//40
f 21//40 45//40 34//40
f 21//40 34//40 22//40
f 21//41 24//41 33//41
f 22//42 34//42 23//42
f 24//43 35//43 33//43
f 24//44 32//44 36//44
f 24//45 36//45 35//45
f 25//46 37//46 49//46
f 25//46 49//46 62//46
f 25//46 62//46 63//46
f 25//46 63//46 50//46
f 25//46 50//46 39//46
f 25//46 39//46 38//46
f 25//46 38//46 27//46
f 25//46 27//46 26//46
f 27//47 38//47 28//47
f 28//48 38//48 39//48
f 28//49 39//49 40//49
f 28//50 40//50 41//50
f 28//51 41//51 29//51
f 29//52 41//52 42//52
f 29//53 42//53 30//53
f 31//54 42//54 53//54
f 31//54 53//54 43//54
f 31//55 43//55 44//55
f 31//55 44//55 32//55
f 32//56 44//56 47//56
f 32//56 47//56 36//56
f 35//57 36//57 47//57
f 35//57 47//57 46//57
f 37//58 48//58 61//58
f 37//58 61//58 49//58
f 39//59 50//59 51//59
f 39//59 51//59 40//59
f 40//60 51//60 52//60
f 40//60 52//60 41//60
f 41//61 52//61 53//61
f 41//61 53//61 42//61
f 43//62 53//62 66//62
f 43//62 66//62 54//62
f 43//63 54//63 55//63
f 43//64 55//64 44//64
f 44//65 55//65 56//65
f 44//66 56//66 47//66
f 45//67 57//67 58//67
f 46//68 47//68 56//68
f 46//69 56//69 59//69
f 48//70 60//70 61//70
f 49//71 61//71 62//71
f 50//72 63//72 64//72
f 50//73 64//73 51//73
f 51//74 64//74 52//74
f 52//75 64//75 65//75
f 52//76 65//76 53//76
f 53//77 65//77 66//77
f 54//78 67//78 55//78
f 54//79 66//79 77//79
f 54//79 77//79 67//79
f 55//80 67//80 68//80
f 55//81 68//81 56//81
f 56//82 68//82 69//82
f 56//83 69//83 70//83
f 56//84 70//84 59//84
f 57//85 70//85 71//85
f 57//86 71//86 58//86
f 58//87 71//87 72//87
f 60//88 73//88 74//88
f 60//89 74//89 61//89
f 61//90 74//90 75//90
f 61//91 75//91 62//91
f 62//92 75//92 64//92
f 62//93 64//93 63//93
f 64//94 75//94 76//94
f 64//95 76//95 65//95
f 65//96 76//96 77//96
f 65//97 77//97 66//97
f 67//98 78//98 79//98
f 67//99 79//99 68//99
f 67//100 77//100 82//100
f 67//100 82//100 78//100
f 68//101 79//101 69//101
f 69//102 79//102 71//102
f 69//103 71//103 70//103
f 71//104 79//104 80//104
f 71//104 80//104 72//104
f 73//105 81//105 82//105
f 73//106 82//106 74//106
f 74//107 82//107 77//107
f 74//108 77//108 76//108
f 74//109 76//109 75//109
f 78//110 82//110 81//110
f 78//110 81//110 83//110
f 78//111 83//111 80//111
f 78//111 80//111 79//111
