# Blender 4.2.11 LTS
# www.blender.org
o tmp_export_piece_3-collision.004
v -0.036163 -0.015528 -0.019631
v -0.036163 0.019269 -0.019631
v 0.044199 -0.015528 -0.019631
v -0.036163 -0.016098 -0.019354
v -0.036163 0.020444 -0.019053
v 0.044199 0.019304 -0.019615
v 0.044199 0.019269 -0.019631
v 0.044199 -0.016691 -0.019057
v -0.036163 -0.016695 -0.019057
v -0.036163 0.021249 -0.018013
v 0.044199 0.021253 -0.018009
v 0.044199 0.020444 -0.019053
v 0.044199 -0.017511 -0.018013
v -0.036163 -0.017095 -0.018545
v -0.036163 0.021542 -0.016707
v 0.044199 0.021545 -0.016707
v 0.044199 -0.017800 -0.016707
v -0.036163 -0.017654 -0.017374
v -0.036163 -0.017511 -0.018009
v -0.036163 0.021545 0.016776
v 0.044199 0.021545 0.016787
v 0.044199 -0.017800 0.016787
v -0.036163 -0.017800 -0.016707
v -0.036163 0.021545 0.016787
v 0.044199 0.021253 0.018089
v 0.044199 -0.017511 0.018089
v -0.036163 -0.017519 0.018062
v -0.036163 -0.017800 0.016787
v -0.036163 0.021253 0.018089
v 0.044199 0.020444 0.019133
v 0.044199 -0.016703 0.019133
v -0.036163 -0.017511 0.018089
v -0.036163 0.020440 0.019133
v 0.044199 0.019269 0.019711
v -0.036163 0.019269 0.019711
v 0.044199 -0.016179 0.019391
v -0.036163 -0.016183 0.019391
v -0.036163 -0.016703 0.019133
v 0.044199 -0.015528 0.019711
v -0.036163 -0.015532 0.019711
vn -0.0000 -0.0000 -1.0000
vn -0.0000 -0.4375 -0.8992
vn -1.0000 -0.0005 -0.0000
vn -1.0000 -0.0000 -0.0000
vn -1.0000 -0.0002 -0.0000
vn -1.0000 0.0003 -0.0000
vn -0.0000 0.4413 -0.8974
vn -0.0000 0.4063 -0.9138
vn 1.0000 -0.0000 -0.0000
vn -0.0000 -0.4425 -0.8968
vn -0.0000 -0.4449 -0.8956
vn -0.0000 0.7908 -0.6121
vn -0.0000 0.7905 -0.6125
vn -0.0000 0.4424 -0.8968
vn -0.0000 -0.7862 -0.6179
vn -0.0000 -0.7877 -0.6160
vn -0.0000 0.9758 -0.2187
vn -0.0000 0.9756 -0.2194
vn -0.0000 -0.9764 -0.2160
vn -0.0000 -0.9758 -0.2188
vn -0.0000 -0.7897 -0.6135
vn -0.0000 1.0000 -0.0001
vn -0.0000 1.0000 -0.0000
vn -0.0000 -1.0000 -0.0000
vn -0.0000 -0.9767 -0.2145
vn -0.0000 0.9756 0.2194
vn -0.0000 -0.9763 0.2166
vn -0.0000 -0.9765 0.2154
vn -0.0000 0.7905 0.6125
vn -0.0000 -0.7905 0.6125
vn -0.0000 -0.9615 0.2748
vn -0.0000 0.7890 0.6143
vn -0.0000 0.4425 0.8968
vn -0.0000 0.4413 0.8974
vn -0.0000 -0.4419 0.8971
vn -0.0000 -0.4445 0.8958
vn -0.0000 -0.0000 1.0000
vn -0.0000 -0.4408 0.8976
s 0
f 1//1 2//1 7//1
f 1//1 7//1 3//1
f 1//2 3//2 4//2
f 1//3 4//3 9//3
f 1//4 9//4 14//4
f 1//4 14//4 19//4
f 1//4 19//4 18//4
f 1//4 18//4 23//4
f 1//4 23//4 28//4
f 1//4 28//4 27//4
f 1//5 27//5 32//5
f 1//4 32//4 38//4
f 1//4 38//4 37//4
f 1//4 37//4 40//4
f 1//4 40//4 35//4
f 1//4 35//4 33//4
f 1//4 33//4 29//4
f 1//4 29//4 24//4
f 1//6 24//6 20//6
f 1//4 20//4 15//4
f 1//4 15//4 10//4
f 1//4 10//4 5//4
f 1//4 5//4 2//4
f 2//7 5//7 6//7
f 2//8 6//8 7//8
f 3//9 7//9 6//9
f 3//9 6//9 12//9
f 3//9 12//9 11//9
f 3//9 11//9 16//9
f 3//9 16//9 21//9
f 3//9 21//9 25//9
f 3//9 25//9 30//9
f 3//9 30//9 34//9
f 3//9 34//9 39//9
f 3//9 39//9 36//9
f 3//9 36//9 31//9
f 3//9 31//9 26//9
f 3//9 26//9 22//9
f 3//9 22//9 17//9
f 3//9 17//9 13//9
f 3//9 13//9 8//9
f 3//10 8//10 4//10
f 4//11 8//11 9//11
f 5//12 10//12 11//12
f 5//13 11//13 12//13
f 5//14 12//14 6//14
f 8//15 13//15 9//15
f 9//16 13//16 14//16
f 10//17 15//17 16//17
f 10//18 16//18 11//18
f 13//19 17//19 18//19
f 13//20 18//20 19//20
f 13//21 19//21 14//21
f 15//22 20//22 16//22
f 16//23 20//23 24//23
f 16//23 24//23 21//23
f 17//24 22//24 28//24
f 17//24 28//24 23//24
f 17//25 23//25 18//25
f 21//26 24//26 29//26
f 21//26 29//26 25//26
f 22//27 26//27 27//27
f 22//28 27//28 28//28
f 25//29 29//29 30//29
f 26//30 31//30 38//30
f 26//30 38//30 32//30
f 26//31 32//31 27//31
f 29//32 33//32 30//32
f 30//33 33//33 35//33
f 30//34 35//34 34//34
f 31//35 36//35 37//35
f 31//36 37//36 38//36
f 34//37 35//37 40//37
f 34//37 40//37 39//37
f 36//38 39//38 40//38
f 36//38 40//38 37//38
