# Blender 4.2.11 LTS
# www.blender.org
o tmp_export_piece_3-collision.001
v 0.047315 0.034060 0.035626
v 0.047315 0.034060 -0.037867
v -0.027509 0.034060 0.035626
v 0.047253 0.033772 0.036931
v 0.048523 0.033485 0.035626
v 0.047253 0.033772 -0.039172
v -0.027509 0.034060 -0.037867
v 0.048523 0.033485 -0.037867
v -0.027447 0.033772 0.036931
v -0.028717 0.033485 0.035626
v 0.048336 0.033251 0.036931
v 0.047066 0.032964 0.037971
v 0.049084 0.032311 0.036931
v 0.049349 0.032443 0.035626
v 0.048336 0.033251 -0.039172
v 0.047066 0.032964 -0.040213
v -0.027447 0.033772 -0.039172
v -0.028717 0.033485 -0.037867
v 0.049349 0.032443 -0.037867
v 0.049084 0.032311 -0.039172
v -0.027260 0.032964 0.037971
v -0.028530 0.033251 0.036931
v -0.029543 0.032443 0.035626
v -0.029278 0.032311 0.036931
v 0.047814 0.032598 0.037971
v 0.048336 0.031953 0.037971
v 0.046801 0.031790 0.038554
v 0.049349 0.031136 0.036931
v 0.049653 0.031136 0.035626
v 0.048523 0.031136 0.037971
v 0.048336 0.031953 -0.040213
v 0.047814 0.032598 -0.040213
v 0.046801 0.031790 -0.040796
v -0.027260 0.032964 -0.040213
v -0.028530 0.033251 -0.039172
v -0.029278 0.032311 -0.039172
v -0.029543 0.032443 -0.037867
v 0.049653 0.031136 -0.037867
v 0.049349 0.031136 -0.039172
v 0.048523 0.031136 -0.040213
v -0.026995 0.031790 0.038554
v -0.028008 0.032598 0.037971
v -0.028530 0.031953 0.037971
v -0.029847 0.031136 0.035626
v -0.029543 0.031136 0.036931
v -0.028717 0.031136 0.037971
v 0.047253 0.031432 0.038554
v 0.047066 0.031657 0.038554
v 0.049349 -0.045366 0.036931
v 0.049450 -0.045366 0.036503
v 0.049653 -0.045366 0.035626
v 0.047315 0.031136 0.038554
v 0.048523 -0.045366 0.037971
v 0.047253 0.031432 -0.040796
v 0.047066 0.031657 -0.040796
v -0.026995 0.031790 -0.040796
v -0.028008 0.032598 -0.040213
v -0.028530 0.031953 -0.040213
v -0.029543 0.031136 -0.039172
v -0.029847 0.031136 -0.037867
v -0.028717 0.031136 -0.040213
v 0.049653 -0.045366 -0.037867
v 0.049450 -0.045366 -0.038745
v 0.049349 -0.045366 -0.039172
v 0.048796 -0.045366 -0.039871
v 0.048523 -0.045366 -0.040213
v 0.047315 0.031136 -0.040796
v -0.027260 0.031657 0.038554
v -0.027447 0.031432 0.038554
v -0.029956 -0.005929 -0.004368
v -0.029956 -0.006217 -0.003063
v -0.029956 -0.007033 -0.002022
v -0.029956 -0.008199 -0.001439
v -0.029847 -0.042357 0.035626
v -0.029543 -0.042357 0.036931
v -0.028717 -0.042357 0.037971
v -0.027509 0.031136 0.038554
v 0.047315 -0.045366 0.038554
v -0.027260 0.031657 -0.040796
v -0.027447 0.031432 -0.040796
v -0.029956 -0.008199 -0.040796
v -0.029956 -0.007033 -0.040213
v -0.029956 -0.007018 -0.040198
v -0.029956 -0.006217 -0.039172
v -0.029956 -0.005929 -0.037867
v -0.027509 0.031136 -0.040796
v 0.047315 -0.045366 -0.040796
v -0.029956 -0.043002 -0.001439
v -0.029956 -0.044176 -0.002022
v -0.029956 -0.044985 -0.003063
v -0.029956 -0.045280 -0.004368
v -0.029543 -0.043655 0.035626
v -0.029278 -0.043523 0.036931
v -0.028530 -0.043165 0.037971
v -0.027447 -0.042644 0.038554
v -0.027509 -0.042357 0.038554
v 0.012483 -0.045366 0.038554
v -0.029956 -0.043002 -0.040796
v -0.027509 -0.045366 -0.040796
v -0.029956 -0.045280 -0.037867
v -0.029847 -0.045366 -0.004445
v -0.028717 -0.044697 0.035626
v -0.028530 -0.044464 0.036931
v -0.028008 -0.043819 0.037971
v -0.027260 -0.042878 0.038554
v -0.026995 -0.043002 0.038554
v -0.027260 -0.044176 0.037971
v -0.027447 -0.044985 0.036931
v -0.027509 -0.045280 0.035626
v 0.011275 -0.045366 0.037971
v -0.029956 -0.044168 -0.040221
v -0.028717 -0.045366 -0.040213
v -0.029956 -0.044985 -0.039172
v -0.029535 -0.045366 -0.039180
v -0.029839 -0.045366 -0.037867
v -0.029839 -0.045366 -0.004368
v -0.029543 -0.045366 -0.003063
v -0.028717 -0.045366 -0.002022
vn -0.0000 1.0000 -0.0000
vn -0.0000 0.9765 0.2153
vn 0.4201 0.8818 0.2145
vn 0.4301 0.9028 -0.0000
vn -0.0000 0.9765 -0.2153
vn 0.4201 0.8818 -0.2145
vn -0.4301 0.9028 -0.0000
vn -0.4200 0.8818 0.2145
vn 0.4230 0.8795 0.2179
vn -0.0000 0.7897 0.6135
vn 0.3421 0.7113 0.6141
vn 0.7650 0.6065 0.2168
vn 0.7836 0.6212 -0.0000
vn 0.7639 0.6074 0.2181
vn 0.4230 0.8795 -0.2179
vn 0.3421 0.7113 -0.6141
vn -0.0000 0.7897 -0.6135
vn -0.4200 0.8818 -0.2145
vn 0.7650 0.6065 -0.2168
vn 0.7639 0.6074 -0.2181
vn -0.4230 0.8795 0.2179
vn -0.3421 0.7113 0.6141
vn -0.7836 0.6212 -0.0000
vn -0.7650 0.6065 0.2168
vn -0.7639 0.6074 0.2181
vn 0.3454 0.7071 0.6170
vn 0.6116 0.4948 0.6173
vn 0.6182 0.4916 0.6133
vn -0.0000 0.4445 0.8958
vn 0.1955 0.4001 0.8954
vn 0.9512 0.2147 0.2216
vn 0.9511 0.2213 0.2155
vn 0.7696 0.1763 0.6137
vn 0.7713 0.1741 0.6122
vn 0.9740 0.2266 -0.0000
vn 0.6116 0.4948 -0.6173
vn 0.3454 0.7071 -0.6170
vn 0.6182 0.4916 -0.6133
vn -0.0000 0.4445 -0.8958
vn 0.1955 0.4001 -0.8954
vn -0.3421 0.7113 -0.6141
vn -0.4230 0.8795 -0.2179
vn -0.7639 0.6074 -0.2181
vn -0.7650 0.6065 -0.2168
vn 0.9511 0.2213 -0.2155
vn 0.9512 0.2147 -0.2216
vn 0.7713 0.1741 -0.6122
vn 0.7696 0.1763 -0.6137
vn -0.3454 0.7071 0.6170
vn -0.1955 0.4001 0.8954
vn -0.6182 0.4916 0.6133
vn -0.6116 0.4948 0.6173
vn -0.9740 0.2266 -0.0000
vn -0.9511 0.2212 0.2155
vn -0.9512 0.2147 0.2215
vn -0.7713 0.1741 0.6122
vn -0.7696 0.1763 0.6137
vn 0.3466 0.2804 0.8951
vn 0.1982 0.3972 0.8961
vn 0.3415 0.2833 0.8962
vn 0.4338 0.0994 0.8955
vn -0.0000 -0.0000 1.0000
vn 0.9730 -0.0000 0.2308
vn 0.9739 -0.0000 0.2268
vn 0.7833 -0.0000 0.6216
vn 0.9744 -0.0000 0.2249
vn 1.0000 -0.0000 -0.0000
vn 0.4326 0.0913 0.8970
vn 0.4344 -0.0000 0.9007
vn 0.4338 0.0994 -0.8955
vn 0.3466 0.2804 -0.8951
vn 0.3415 0.2833 -0.8962
vn 0.1982 0.3972 -0.8961
vn -0.0000 -0.0000 -1.0000
vn -0.1955 0.4001 -0.8954
vn -0.3454 0.7071 -0.6170
vn -0.6116 0.4948 -0.6173
vn -0.6182 0.4916 -0.6133
vn -0.9512 0.2147 -0.2215
vn -0.9511 0.2212 -0.2155
vn -0.7696 0.1763 -0.6137
vn -0.7713 0.1741 -0.6122
vn 0.9744 -0.0000 -0.2249
vn 0.9739 -0.0000 -0.2268
vn 0.7841 -0.0000 -0.6206
vn 0.7833 -0.0000 -0.6216
vn 0.9730 -0.0000 -0.2308
vn 0.4344 -0.0000 -0.9007
vn 0.4326 0.0913 -0.8970
vn 0.7816 -0.0000 -0.6238
vn -0.1982 0.3972 0.8961
vn -0.3466 0.2804 0.8951
vn -0.3416 0.2833 0.8961
vn -0.4338 0.0994 0.8955
vn -1.0000 0.0029 -0.0000
vn -1.0000 0.0024 0.0005
vn -1.0000 0.0016 0.0013
vn -1.0000 0.0010 0.0019
vn -1.0000 -0.0000 0.0029
vn -0.9739 -0.0000 0.2268
vn -0.7833 -0.0000 0.6216
vn -0.4344 -0.0000 0.9007
vn -0.4326 0.0913 0.8970
vn -0.0000 -1.0000 -0.0000
vn -0.1982 0.3972 -0.8961
vn -0.3416 0.2833 -0.8961
vn -0.3466 0.2804 -0.8951
vn -0.4338 0.0994 -0.8955
vn -0.7829 0.0339 -0.6213
vn -0.9738 0.0196 -0.2268
vn -1.0000 0.0033 -0.0065
vn -1.0000 0.0030 -0.0030
vn -1.0000 0.0030 -0.0023
vn -1.0000 0.0029 -0.0006
vn -0.4326 0.0913 -0.8970
vn -0.4342 0.0270 -0.9004
vn -1.0000 -0.0000 -0.0000
vn -1.0000 0.0003 -0.0000
vn -1.0000 -0.0015 0.0030
vn -1.0000 -0.0040 0.0031
vn -0.9998 -0.0178 0.0040
vn -0.9735 -0.2278 0.0193
vn -0.9508 -0.2225 0.2156
vn -0.9509 -0.2160 0.2214
vn -0.7712 -0.1752 0.6120
vn -0.7691 -0.1779 0.6139
vn -0.4334 -0.1003 0.8956
vn -0.4325 -0.0937 0.8968
vn -0.6168 -0.7871 -0.0000
vn -0.6030 -0.7971 0.0303
vn -0.7832 -0.6209 0.0333
vn -0.7650 -0.6065 0.2168
vn -0.7639 -0.6074 0.2181
vn -0.6182 -0.4916 0.6133
vn -0.6162 -0.4926 0.6146
vn -0.3478 -0.2781 0.8954
vn -0.3473 -0.2784 0.8955
vn -0.0263 -0.4395 0.8978
vn -0.0326 -0.7864 0.6169
vn -0.0183 -0.9750 0.2216
vn -0.0025 -1.0000 0.0052
vn -0.3927 -0.4065 -0.8249
vn -0.3953 -0.4144 -0.8197
vn -0.6636 -0.7296 -0.1652
vn -0.5850 -0.7996 -0.1355
vn -0.5905 -0.8070 -0.0001
vn -0.0515 -0.9987 0.0052
vn -0.4346 -0.9002 0.0273
vn -0.4243 -0.8789 0.2179
vn -0.4229 -0.8793 0.2193
vn -0.3424 -0.7119 0.6132
vn -0.3404 -0.7119 0.6143
vn -0.1921 -0.4017 0.8954
vn -0.1887 -0.4020 0.8960
vn -0.0127 -0.9999 0.0029
vn -0.0030 -1.0000 0.0024
vn -0.0023 -1.0000 0.0023
vn -0.6044 -0.6286 -0.4894
vn -0.5963 -0.6491 -0.4723
s 0
f 1//1 2//1 7//1
f 1//1 7//1 3//1
f 1//2 3//2 9//2
f 1//2 9//2 4//2
f 1//3 4//3 5//3
f 1//4 5//4 8//4
f 1//4 8//4 2//4
f 2//5 6//5 17//5
f 2//5 17//5 7//5
f 2//6 8//6 6//6
f 3//7 7//7 18//7
f 3//7 18//7 10//7
f 3//8 10//8 9//8
f 4//9 11//9 5//9
f 4//10 9//10 21//10
f 4//10 21//10 12//10
f 4//11 12//11 11//11
f 5//12 13//12 14//12
f 5//13 14//13 19//13
f 5//13 19//13 8//13
f 5//14 11//14 13//14
f 6//15 8//15 15//15
f 6//16 15//16 16//16
f 6//17 16//17 34//17
f 6//17 34//17 17//17
f 7//18 17//18 18//18
f 8//19 19//19 20//19
f 8//20 20//20 15//20
f 9//21 10//21 22//21
f 9//22 22//22 21//22
f 10//23 18//23 37//23
f 10//23 37//23 23//23
f 10//24 23//24 24//24
f 10//25 24//25 22//25
f 11//26 12//26 25//26
f 11//27 25//27 26//27
f 11//28 26//28 13//28
f 12//29 21//29 41//29
f 12//29 41//29 27//29
f 12//30 27//30 25//30
f 13//31 28//31 29//31
f 13//32 29//32 14//32
f 13//33 26//33 30//33
f 13//34 30//34 28//34
f 14//35 29//35 38//35
f 14//35 38//35 19//35
f 15//36 31//36 32//36
f 15//37 32//37 16//37
f 15//38 20//38 31//38
f 16//39 33//39 56//39
f 16//39 56//39 34//39
f 16//40 32//40 33//40
f 17//41 34//41 35//41
f 17//42 35//42 18//42
f 18//43 35//43 36//43
f 18//44 36//44 37//44
f 19//45 38//45 20//45
f 20//46 38//46 39//46
f 20//47 39//47 40//47
f 20//48 40//48 31//48
f 21//49 22//49 42//49
f 21//50 42//50 41//50
f 22//51 24//51 43//51
f 22//52 43//52 42//52
f 23//53 37//53 60//53
f 23//53 60//53 44//53
f 23//54 44//54 24//54
f 24//55 44//55 45//55
f 24//56 45//56 46//56
f 24//57 46//57 43//57
f 25//58 47//58 26//58
f 25//59 27//59 48//59
f 25//60 48//60 47//60
f 26//61 47//61 30//61
f 27//62 41//62 68//62
f 27//62 68//62 69//62
f 27//62 69//62 77//62
f 27//62 77//62 96//62
f 27//62 96//62 95//62
f 27//62 95//62 105//62
f 27//62 105//62 106//62
f 27//62 106//62 97//62
f 27//62 97//62 78//62
f 27//62 78//62 52//62
f 27//62 52//62 47//62
f 27//62 47//62 48//62
f 28//63 49//63 50//63
f 28//64 50//64 29//64
f 28//65 30//65 53//65
f 28//65 53//65 49//65
f 29//66 50//66 51//66
f 29//67 51//67 62//67
f 29//67 62//67 38//67
f 30//68 47//68 52//68
f 30//69 52//69 78//69
f 30//69 78//69 53//69
f 31//70 40//70 54//70
f 31//71 54//71 32//71
f 32//72 54//72 55//72
f 32//73 55//73 33//73
f 33//74 55//74 54//74
f 33//74 54//74 67//74
f 33//74 67//74 87//74
f 33//74 87//74 99//74
f 33//74 99//74 98//74
f 33//74 98//74 81//74
f 33//74 81//74 86//74
f 33//74 86//74 80//74
f 33//74 80//74 79//74
f 33//74 79//74 56//74
f 34//75 56//75 57//75
f 34//76 57//76 35//76
f 35//77 57//77 58//77
f 35//78 58//78 36//78
f 36//79 59//79 60//79
f 36//80 60//80 37//80
f 36//81 58//81 61//81
f 36//82 61//82 59//82
f 38//83 62//83 63//83
f 38//84 63//84 39//84
f 39//85 64//85 65//85
f 39//86 65//86 40//86
f 39//87 63//87 64//87
f 40//88 66//88 87//88
f 40//88 87//88 67//88
f 40//89 67//89 54//89
f 40//90 65//90 66//90
f 41//91 42//91 68//91
f 42//92 43//92 69//92
f 42//93 69//93 68//93
f 43//94 46//94 69//94
f 44//95 60//95 85//95
f 44//95 85//95 70//95
f 44//96 70//96 71//96
f 44//97 71//97 72//97
f 44//98 72//98 73//98
f 44//99 73//99 88//99
f 44//99 88//99 74//99
f 44//100 74//100 75//100
f 44//100 75//100 45//100
f 45//101 75//101 76//101
f 45//101 76//101 46//101
f 46//102 76//102 96//102
f 46//102 96//102 77//102
f 46//103 77//103 69//103
f 49//104 53//104 78//104
f 49//104 78//104 97//104
f 49//104 97//104 110//104
f 49//104 110//104 118//104
f 49//104 118//104 117//104
f 49//104 117//104 116//104
f 49//104 116//104 101//104
f 49//104 101//104 115//104
f 49//104 115//104 114//104
f 49//104 114//104 112//104
f 49//104 112//104 99//104
f 49//104 99//104 87//104
f 49//104 87//104 66//104
f 49//104 66//104 65//104
f 49//104 65//104 64//104
f 49//104 64//104 63//104
f 49//104 63//104 62//104
f 49//104 62//104 51//104
f 49//104 51//104 50//104
f 56//105 79//105 57//105
f 57//106 79//106 80//106
f 57//107 80//107 58//107
f 58//108 80//108 61//108
f 59//109 61//109 81//109
f 59//110 81//110 60//110
f 60//111 81//111 82//111
f 60//112 82//112 83//112
f 60//113 83//113 84//113
f 60//114 84//114 85//114
f 61//115 80//115 86//115
f 61//116 86//116 81//116
f 70//117 85//117 84//117
f 70//117 84//117 83//117
f 70//118 83//118 82//118
f 70//117 82//117 81//117
f 70//117 81//117 98//117
f 70//117 98//117 111//117
f 70//117 111//117 113//117
f 70//117 113//117 100//117
f 70//117 100//117 91//117
f 70//117 91//117 90//117
f 70//117 90//117 89//117
f 70//117 89//117 88//117
f 70//117 88//117 73//117
f 70//117 73//117 72//117
f 70//117 72//117 71//117
f 74//119 88//119 89//119
f 74//120 89//120 90//120
f 74//121 90//121 91//121
f 74//122 91//122 92//122
f 74//123 92//123 93//123
f 74//124 93//124 75//124
f 75//125 93//125 76//125
f 76//126 93//126 94//126
f 76//127 94//127 95//127
f 76//128 95//128 96//128
f 91//129 100//129 101//129
f 91//130 101//130 102//130
f 91//131 102//131 92//131
f 92//132 102//132 93//132
f 93//133 102//133 103//133
f 93//134 103//134 94//134
f 94//135 103//135 104//135
f 94//136 104//136 95//136
f 95//137 104//137 105//137
f 97//138 106//138 107//138
f 97//139 107//139 108//139
f 97//140 108//140 109//140
f 97//141 109//141 110//141
f 98//142 99//142 111//142
f 99//143 112//143 111//143
f 100//144 113//144 114//144
f 100//145 114//145 115//145
f 100//146 115//146 101//146
f 101//147 116//147 109//147
f 101//148 109//148 102//148
f 102//149 109//149 103//149
f 103//150 109//150 108//150
f 103//151 108//151 104//151
f 104//152 108//152 107//152
f 104//153 107//153 105//153
f 105//154 107//154 106//154
f 109//155 116//155 117//155
f 109//156 117//156 118//156
f 109//157 118//157 110//157
f 111//158 112//158 113//158
f 112//159 114//159 113//159
