# Blender 4.2.11 LTS
# www.blender.org
o tmp_export_piece_3-collision.007
v -0.022235 -0.019384 -0.013492
v -0.022235 -0.019384 0.019957
v -0.022235 0.021146 -0.013538
v -0.022231 -0.019384 -0.013542
v -0.021937 -0.019384 0.021259
v -0.022235 0.021146 0.019957
v -0.021937 0.021146 -0.014840
v -0.021930 -0.019384 -0.014848
v -0.021102 -0.019384 0.022303
v -0.021937 0.021146 0.021259
v -0.021125 0.021146 -0.015857
v -0.021102 -0.019384 -0.015884
v -0.019900 -0.019384 0.022880
v -0.021102 0.021146 0.022303
v -0.021102 0.021146 -0.015884
v -0.021071 -0.019384 -0.015899
v 0.014930 -0.019384 0.022880
v -0.019900 0.021146 0.022880
v -0.019965 0.021146 -0.016434
v -0.019900 -0.019384 -0.016461
v 0.016117 -0.019384 0.022310
v 0.014930 0.021146 0.022880
v -0.019900 0.021146 -0.016461
v 0.014930 -0.019384 -0.016461
v 0.016132 -0.019384 0.022303
v 0.016132 0.021146 0.022303
v 0.014930 0.021146 -0.016461
v 0.015517 -0.019384 -0.016180
v 0.015127 0.021146 -0.016369
v 0.016148 -0.019384 0.022287
v 0.016967 0.021146 0.021259
v 0.016132 -0.019384 -0.015884
v 0.016132 0.021146 -0.015884
v 0.016967 -0.019384 0.021259
v 0.016979 -0.019384 0.021213
v 0.017261 0.021146 0.019957
v 0.016561 -0.019384 -0.015348
v 0.016550 0.021146 -0.015364
v 0.017261 -0.019384 0.019957
v 0.017261 0.021146 -0.013538
v 0.016967 -0.019384 -0.014840
v 0.016685 0.021146 -0.015194
v 0.017261 -0.019384 -0.013538
v 0.017114 0.021146 -0.014193
v 0.017118 -0.019384 -0.014173
v 0.016967 0.021146 -0.014840
vn -1.0000 -0.0000 -0.0000
vn -0.9970 -0.0001 -0.0771
vn -0.0000 -1.0000 0.0001
vn -0.0000 -1.0000 -0.0000
vn -0.9748 -0.0000 0.2229
vn -0.0000 1.0000 -0.0000
vn -0.9748 -0.0001 -0.2229
vn -0.9743 -0.0001 -0.2251
vn -0.7808 -0.0000 0.6247
vn -0.7815 -0.0000 -0.6240
vn -0.7814 -0.0000 -0.6240
vn -0.4331 -0.0000 0.9014
vn -0.7573 -0.0000 -0.6530
vn -0.4460 -0.0000 -0.8951
vn -0.0000 -0.0000 1.0000
vn -0.4361 -0.0000 -0.8999
vn -0.4327 -0.0001 -0.9015
vn 0.4329 -0.0000 0.9014
vn -0.3794 -0.0000 -0.9252
vn -0.0000 -0.0000 -1.0000
vn 0.4464 -0.0000 0.8948
vn 0.4331 -0.0000 0.9014
vn 0.4245 -0.0000 -0.9054
vn 0.4316 -0.0000 -0.9021
vn 0.7051 -0.0000 0.7091
vn 0.7808 0.0001 0.6247
vn 0.4345 -0.0000 -0.9007
vn 0.4348 -0.0000 -0.9005
vn 0.7820 -0.0000 0.6233
vn 0.9698 -0.0000 0.2439
vn 0.9755 -0.0000 0.2202
vn 0.7797 -0.0000 -0.6262
vn 0.7802 -0.0000 -0.6255
vn 0.9757 -0.0000 0.2193
vn 1.0000 -0.0000 -0.0000
vn 0.7814 -0.0000 -0.6241
vn 0.7815 -0.0000 -0.6240
vn 0.9757 -0.0000 -0.2189
vn 0.7822 -0.0000 -0.6230
vn 0.9752 -0.0000 -0.2214
vn 0.9753 -0.0000 -0.2207
vn 0.9756 -0.0000 -0.2196
s 0
f 1//1 2//1 6//1
f 1//1 6//1 3//1
f 1//2 3//2 4//2
f 1//3 4//3 8//3
f 1//4 8//4 12//4
f 1//4 12//4 16//4
f 1//4 16//4 20//4
f 1//4 20//4 24//4
f 1//4 24//4 28//4
f 1//4 28//4 32//4
f 1//4 32//4 37//4
f 1//4 37//4 41//4
f 1//4 41//4 45//4
f 1//4 45//4 43//4
f 1//4 43//4 39//4
f 1//4 39//4 35//4
f 1//4 35//4 34//4
f 1//4 34//4 30//4
f 1//4 30//4 25//4
f 1//4 25//4 21//4
f 1//4 21//4 17//4
f 1//4 17//4 13//4
f 1//4 13//4 9//4
f 1//4 9//4 5//4
f 1//4 5//4 2//4
f 2//5 5//5 10//5
f 2//5 10//5 6//5
f 3//6 6//6 10//6
f 3//6 10//6 14//6
f 3//6 14//6 18//6
f 3//6 18//6 22//6
f 3//6 22//6 26//6
f 3//6 26//6 31//6
f 3//6 31//6 36//6
f 3//6 36//6 40//6
f 3//6 40//6 44//6
f 3//6 44//6 46//6
f 3//6 46//6 42//6
f 3//6 42//6 38//6
f 3//6 38//6 33//6
f 3//6 33//6 29//6
f 3//6 29//6 27//6
f 3//6 27//6 23//6
f 3//6 23//6 19//6
f 3//6 19//6 15//6
f 3//6 15//6 11//6
f 3//6 11//6 7//6
f 3//7 7//7 4//7
f 4//8 7//8 8//8
f 5//9 9//9 14//9
f 5//9 14//9 10//9
f 7//10 11//10 8//10
f 8//11 11//11 12//11
f 9//12 13//12 18//12
f 9//12 18//12 14//12
f 11//13 15//13 12//13
f 12//14 15//14 16//14
f 13//15 17//15 22//15
f 13//15 22//15 18//15
f 15//16 19//16 16//16
f 16//17 19//17 20//17
f 17//18 21//18 22//18
f 19//19 23//19 20//19
f 20//20 23//20 27//20
f 20//20 27//20 24//20
f 21//21 25//21 26//21
f 21//22 26//22 22//22
f 24//23 27//23 29//23
f 24//24 29//24 28//24
f 25//25 30//25 26//25
f 26//26 30//26 31//26
f 28//27 29//27 32//27
f 29//28 33//28 32//28
f 30//29 34//29 31//29
f 31//30 34//30 35//30
f 31//31 35//31 36//31
f 32//32 33//32 38//32
f 32//33 38//33 37//33
f 35//34 39//34 36//34
f 36//35 39//35 43//35
f 36//35 43//35 40//35
f 37//36 38//36 42//36
f 37//37 42//37 41//37
f 40//38 43//38 44//38
f 41//39 42//39 46//39
f 41//40 46//40 44//40
f 41//41 44//41 45//41
f 43//42 45//42 44//42
