# Blender 4.2.11 LTS
# www.blender.org
o tmp_export_piece_3-collision.008
v -0.060416 -0.014601 -0.038561
v -0.060416 0.021861 -0.038561
v -0.060338 -0.014891 -0.038561
v -0.061427 -0.015411 -0.037978
v -0.061614 -0.014601 -0.037978
v -0.061614 0.021861 -0.037978
v 0.054410 0.021861 -0.038561
v -0.060152 -0.015122 -0.038561
v -0.060914 -0.016063 -0.037978
v -0.062174 -0.015773 -0.036938
v -0.062439 -0.014601 -0.036938
v -0.062439 0.021861 -0.036938
v 0.055577 0.021861 -0.037994
v 0.096202 0.021819 -0.035633
v 0.096202 0.021541 -0.036891
v 0.096202 0.021530 -0.036938
v 0.096202 0.020762 -0.037924
v 0.096202 0.020720 -0.037978
v 0.096202 0.019548 -0.038561
v -0.059887 -0.015253 -0.038561
v -0.061427 -0.016714 -0.036938
v -0.060152 -0.016425 -0.037978
v -0.060338 -0.017235 -0.036938
v -0.062439 -0.015905 -0.035633
v -0.062750 -0.014601 -0.035633
v -0.061614 -0.016946 -0.035633
v -0.062750 0.021861 -0.035633
v 0.055608 0.021861 -0.037978
v 0.056448 0.021861 -0.036938
v 0.056744 0.021861 -0.035633
v 0.096202 0.021819 0.037860
v 0.096202 -0.015253 -0.038561
v 0.096202 -0.016036 -0.038173
v -0.060416 -0.017524 -0.035633
v 0.096202 -0.016425 -0.037978
v 0.096202 -0.017235 -0.036938
v -0.062439 -0.015905 0.037860
v -0.062750 -0.014601 0.037860
v -0.061614 -0.016946 0.037860
v -0.062750 0.021861 0.037860
v 0.056744 0.021861 -0.002133
v 0.096202 0.021530 0.039165
v 0.056448 0.021861 -0.000836
v 0.055608 0.021861 0.000213
v 0.015621 0.021861 0.040206
v 0.015590 0.021861 0.040222
v 0.014423 0.021861 0.040789
v -0.060416 -0.017524 0.037860
v 0.096202 -0.017524 -0.035633
v -0.062174 -0.015773 0.039165
v -0.062439 -0.014601 0.039165
v -0.061427 -0.016714 0.039165
v -0.062439 0.021861 0.039165
v 0.096202 0.021518 0.039181
v -0.060416 0.021861 0.040789
v 0.096202 0.019548 0.040789
v 0.096202 0.020720 0.040206
v -0.060338 -0.017235 0.039165
v 0.096202 -0.017524 0.037860
v -0.060914 -0.016063 0.040206
v -0.061427 -0.015411 0.040206
v -0.061614 -0.014601 0.040206
v -0.062034 0.021861 0.039678
v -0.060416 -0.014601 0.040789
v -0.061614 0.021861 0.040206
v 0.096202 -0.015253 0.040789
v -0.060152 -0.016425 0.040206
v 0.096202 -0.017235 0.039165
v -0.059887 -0.015253 0.040789
v -0.060152 -0.015122 0.040789
v -0.060338 -0.014891 0.040789
v 0.096202 -0.016036 0.040400
v 0.096202 -0.016425 0.040206
vn -0.0000 -0.0000 -1.0000
vn 0.0001 -0.0000 -1.0000
vn -0.4255 -0.1144 -0.8977
vn -0.4351 -0.1003 -0.8948
vn -0.4373 -0.0000 -0.8993
vn -0.0000 1.0000 -0.0000
vn -0.0000 1.0000 -0.0002
vn -0.3435 -0.2772 -0.8973
vn -0.3482 -0.2744 -0.8963
vn -0.6196 -0.4883 -0.6146
vn -0.7693 -0.1774 -0.6138
vn -0.7718 -0.1741 -0.6115
vn -0.7838 -0.0000 -0.6210
vn 0.0012 1.0000 -0.0024
vn 0.0161 0.9764 -0.2154
vn 0.0171 0.9704 -0.2409
vn 0.0301 0.7890 -0.6137
vn 0.0301 0.7881 -0.6148
vn 0.0246 0.4449 -0.8952
vn -0.1964 -0.3963 -0.8969
vn -0.6189 -0.4913 -0.6129
vn -0.1911 -0.4019 -0.8955
vn -0.3386 -0.7123 -0.6148
vn -0.3404 -0.7123 -0.6139
vn -0.9498 -0.2268 -0.2153
vn -0.9501 -0.2144 -0.2266
vn -0.7645 -0.6069 -0.2170
vn -0.7654 -0.6063 -0.2160
vn -0.9727 -0.0000 -0.2320
vn 0.0012 1.0000 -0.0023
vn 0.0011 1.0000 -0.0009
vn 0.0011 1.0000 -0.0002
vn 0.0011 1.0000 -0.0000
vn 1.0000 -0.0001 -0.0000
vn 1.0000 0.0003 -0.0000
vn 1.0000 -0.0000 -0.0000
vn 1.0000 -0.0039 -0.0000
vn -0.0000 -0.4445 -0.8958
vn -0.0000 -0.4451 -0.8955
vn -0.4206 -0.8801 -0.2201
vn -0.4244 -0.8792 -0.2166
vn -0.0000 -0.4462 -0.8949
vn -0.0000 -0.7893 -0.6140
vn -0.0000 -0.9763 -0.2164
vn -0.7839 -0.6209 -0.0000
vn -0.9727 -0.2323 -0.0000
vn -1.0000 -0.0000 -0.0000
vn -0.4347 -0.9006 -0.0000
vn 0.0009 1.0000 0.0002
vn 0.0006 1.0000 0.0005
vn 0.0005 1.0000 0.0005
vn 0.0006 1.0000 0.0011
vn 0.0006 1.0000 0.0012
vn 0.0083 0.9763 0.2164
vn -0.0000 -1.0000 -0.0000
vn -0.7654 -0.6063 0.2160
vn -0.9498 -0.2268 0.2153
vn -0.9501 -0.2144 0.2266
vn -0.9727 -0.0000 0.2320
vn -0.4244 -0.8792 0.2166
vn -0.7645 -0.6069 0.2170
vn 0.0151 0.8018 0.5975
vn -0.0000 -0.0000 1.0000
vn 0.0126 0.4450 0.8954
vn 0.0154 0.7890 0.6142
vn -0.4206 -0.8801 0.2201
vn -0.0000 -0.9763 0.2164
vn -0.6189 -0.4913 0.6129
vn -0.6196 -0.4883 0.6146
vn -0.7693 -0.1774 0.6138
vn -0.7718 -0.1741 0.6115
vn -0.7838 -0.0000 0.6210
vn -0.7850 -0.0000 0.6195
vn -0.3404 -0.7123 0.6139
vn -0.4373 -0.0000 0.8993
vn -0.3386 -0.7123 0.6148
vn -0.0000 -0.7893 0.6140
vn -0.1911 -0.4019 0.8955
vn -0.1964 -0.3963 0.8969
vn -0.3436 -0.2772 0.8973
vn -0.3482 -0.2744 0.8963
vn -0.4255 -0.1144 0.8977
vn -0.4351 -0.1003 0.8948
vn -0.7826 -0.0000 0.6225
vn -0.0000 -0.4445 0.8958
vn -0.0000 -0.4462 0.8949
vn -0.0000 -0.4451 0.8955
s 0
f 1//1 2//1 7//1
f 1//1 7//1 19//1
f 1//1 19//1 32//1
f 1//1 32//1 20//1
f 1//1 20//1 8//1
f 1//2 8//2 3//2
f 1//3 3//3 4//3
f 1//4 4//4 5//4
f 1//5 5//5 6//5
f 1//5 6//5 2//5
f 2//6 6//6 12//6
f 2//6 12//6 27//6
f 2//6 27//6 40//6
f 2//6 40//6 53//6
f 2//6 53//6 63//6
f 2//6 63//6 65//6
f 2//6 65//6 55//6
f 2//6 55//6 47//6
f 2//6 47//6 46//6
f 2//6 46//6 45//6
f 2//6 45//6 44//6
f 2//6 44//6 43//6
f 2//6 43//6 41//6
f 2//6 41//6 30//6
f 2//6 30//6 29//6
f 2//6 29//6 28//6
f 2//7 28//7 13//7
f 2//6 13//6 7//6
f 3//8 8//8 9//8
f 3//9 9//9 4//9
f 4//10 9//10 10//10
f 4//11 10//11 5//11
f 5//12 10//12 11//12
f 5//13 11//13 12//13
f 5//13 12//13 6//13
f 7//14 13//14 14//14
f 7//15 14//15 15//15
f 7//16 15//16 16//16
f 7//17 16//17 17//17
f 7//18 17//18 18//18
f 7//19 18//19 19//19
f 8//20 20//20 9//20
f 9//21 21//21 10//21
f 9//22 20//22 22//22
f 9//23 22//23 23//23
f 9//24 23//24 21//24
f 10//25 24//25 25//25
f 10//26 25//26 11//26
f 10//27 21//27 26//27
f 10//28 26//28 24//28
f 11//29 25//29 27//29
f 11//29 27//29 12//29
f 13//30 28//30 14//30
f 14//31 28//31 29//31
f 14//32 29//32 30//32
f 14//33 30//33 41//33
f 14//33 41//33 31//33
f 14//34 31//34 42//34
f 14//35 42//35 54//35
f 14//36 54//36 57//36
f 14//36 57//36 56//36
f 14//36 56//36 66//36
f 14//36 66//36 72//36
f 14//36 72//36 73//36
f 14//36 73//36 68//36
f 14//36 68//36 59//36
f 14//36 59//36 49//36
f 14//36 49//36 36//36
f 14//36 36//36 35//36
f 14//36 35//36 33//36
f 14//36 33//36 32//36
f 14//36 32//36 19//36
f 14//36 19//36 18//36
f 14//36 18//36 17//36
f 14//36 17//36 16//36
f 14//37 16//37 15//37
f 20//38 32//38 33//38
f 20//39 33//39 22//39
f 21//40 23//40 34//40
f 21//41 34//41 26//41
f 22//42 33//42 35//42
f 22//43 35//43 36//43
f 22//43 36//43 23//43
f 23//44 36//44 49//44
f 23//44 49//44 34//44
f 24//45 26//45 39//45
f 24//45 39//45 37//45
f 24//46 37//46 38//46
f 24//46 38//46 25//46
f 25//47 38//47 40//47
f 25//47 40//47 27//47
f 26//48 34//48 48//48
f 26//48 48//48 39//48
f 31//49 41//49 43//49
f 31//50 43//50 44//50
f 31//51 44//51 45//51
f 31//52 45//52 46//52
f 31//53 46//53 47//53
f 31//54 47//54 42//54
f 34//55 49//55 59//55
f 34//55 59//55 48//55
f 37//56 39//56 50//56
f 37//57 50//57 38//57
f 38//58 50//58 51//58
f 38//59 51//59 53//59
f 38//59 53//59 40//59
f 39//60 48//60 52//60
f 39//61 52//61 50//61
f 42//62 47//62 54//62
f 47//63 55//63 64//63
f 47//63 64//63 71//63
f 47//63 71//63 70//63
f 47//63 70//63 69//63
f 47//63 69//63 66//63
f 47//63 66//63 56//63
f 47//64 56//64 57//64
f 47//65 57//65 54//65
f 48//66 58//66 52//66
f 48//67 59//67 68//67
f 48//67 68//67 58//67
f 50//68 52//68 60//68
f 50//69 60//69 61//69
f 50//70 61//70 62//70
f 50//71 62//71 51//71
f 51//72 62//72 63//72
f 51//73 63//73 53//73
f 52//74 58//74 60//74
f 55//75 65//75 62//75
f 55//75 62//75 64//75
f 58//76 67//76 60//76
f 58//77 68//77 73//77
f 58//77 73//77 67//77
f 60//78 67//78 69//78
f 60//79 69//79 70//79
f 60//80 70//80 71//80
f 60//81 71//81 61//81
f 61//82 71//82 64//82
f 61//83 64//83 62//83
f 62//84 65//84 63//84
f 66//85 69//85 72//85
f 67//86 73//86 72//86
f 67//87 72//87 69//87
