# Blender 4.2.11 LTS
# www.blender.org
o tmp_export_piece_3-collision.010
v 0.030538 0.029623 0.019352
v 0.030538 -0.008019 0.019352
v 0.030538 0.029623 -0.019990
v -0.007080 0.029623 0.019352
v -0.006560 -0.008019 0.019352
v 0.030538 -0.008663 0.019036
v 0.030538 -0.008019 -0.019990
v -0.007080 0.029623 -0.019990
v -0.008285 0.029623 0.018775
v -0.007080 -0.007366 0.019352
v -0.006830 -0.007890 0.019352
v -0.006830 -0.009191 0.018775
v 0.030538 -0.009191 0.018775
v 0.030538 -0.009191 -0.019412
v -0.006560 -0.008019 -0.019990
v -0.007080 -0.007366 -0.019990
v -0.008245 0.029623 -0.019431
v -0.008285 -0.007366 0.018775
v -0.009118 0.029623 0.017731
v -0.007013 -0.007655 0.019352
v -0.008097 -0.008179 0.018775
v -0.007581 -0.008828 0.018775
v -0.007013 -0.010000 0.017731
v -0.008097 -0.009480 0.017731
v 0.030538 -0.010000 0.017731
v 0.030538 -0.009992 -0.018380
v -0.006830 -0.009191 -0.019412
v -0.006830 -0.007890 -0.019990
v -0.008285 -0.007366 -0.019412
v -0.007013 -0.007655 -0.019990
v -0.008285 0.029623 -0.019412
v -0.009118 -0.007366 0.017731
v -0.008848 -0.008538 0.017731
v -0.009411 0.029623 0.016433
v -0.009415 -0.007366 0.016429
v -0.007080 -0.010289 0.016429
v -0.009118 -0.008667 0.016429
v -0.008285 -0.009711 0.016429
v 0.030538 -0.010289 0.016429
v 0.030538 -0.010289 -0.017070
v -0.007013 -0.010000 -0.018368
v -0.008097 -0.009480 -0.018368
v -0.007581 -0.008828 -0.019412
v -0.008097 -0.008179 -0.019412
v -0.008848 -0.008538 -0.018368
v -0.009118 -0.007366 -0.018368
v -0.009106 0.029623 -0.018380
v -0.009415 0.029623 0.016352
v -0.009415 -0.007366 -0.017066
v -0.007080 -0.010289 -0.017066
v -0.009118 -0.008667 -0.017066
v -0.008285 -0.009711 -0.017066
v -0.009411 0.029623 -0.017070
vn 1.0000 -0.0000 -0.0000
vn -0.0000 1.0000 -0.0000
vn -0.0000 1.0000 0.0001
vn -0.0000 -0.0000 1.0000
vn -0.0000 -0.4400 0.8980
vn -0.0000 -0.0000 -1.0000
vn -0.4324 -0.0000 0.9017
vn -0.1903 -0.3984 0.8972
vn -0.0000 -0.4421 0.8970
vn -0.0000 -0.4447 0.8957
vn -0.0000 -0.4421 -0.8970
vn -0.4321 -0.0000 -0.9018
vn -0.7816 -0.0000 0.6238
vn -0.4303 -0.0989 0.8972
vn -0.3471 -0.2722 0.8975
vn -0.3461 -0.2754 0.8969
vn -0.1927 -0.3982 0.8968
vn -0.0000 -0.7905 0.6125
vn -0.3438 -0.7104 0.6141
vn -0.3419 -0.7127 0.6125
vn -0.0000 -0.7901 -0.6130
vn -0.1903 -0.3984 -0.8972
vn -0.4324 -0.0000 -0.9017
vn -0.4303 -0.0989 -0.8972
vn -0.4417 -0.0000 -0.8972
vn -0.4304 -0.0994 0.8971
vn -0.7692 -0.1771 0.6139
vn -0.7688 -0.1776 0.6143
vn -0.9754 0.0001 0.2204
vn -0.9749 -0.0000 0.2226
vn -0.6177 -0.4917 0.6137
vn -0.6175 -0.4925 0.6133
vn -0.4222 -0.8802 0.2170
vn -0.0000 -0.9762 0.2168
vn -0.7629 -0.6085 0.2184
vn -0.7626 -0.6090 0.2178
vn -0.4225 -0.8801 0.2168
vn 0.0001 -0.9752 -0.2211
vn -0.0000 -0.7905 -0.6125
vn -0.3419 -0.7127 -0.6125
vn -0.3438 -0.7104 -0.6141
vn -0.1927 -0.3982 -0.8968
vn -0.3461 -0.2754 -0.8969
vn -0.3471 -0.2722 -0.8975
vn -0.7692 -0.1771 -0.6139
vn -0.7816 -0.0000 -0.6238
vn -0.4304 -0.0994 -0.8971
vn -0.7688 -0.1776 -0.6143
vn -0.7825 0.0001 -0.6226
vn -0.9516 -0.2174 0.2173
vn -0.9509 -0.2189 0.2188
vn -0.9988 0.0001 0.0486
vn -1.0000 -0.0000 -0.0000
vn -0.9749 -0.2227 -0.0000
vn -0.4327 -0.9015 -0.0000
vn -0.0000 -1.0000 -0.0000
vn -0.7814 -0.6240 -0.0000
vn -0.0000 -0.9762 -0.2168
vn -0.4222 -0.8802 -0.2170
vn -0.4225 -0.8801 -0.2168
vn -0.7626 -0.6090 -0.2178
vn -0.7629 -0.6085 -0.2184
vn -0.6175 -0.4925 -0.6133
vn -0.6177 -0.4917 -0.6137
vn -0.9509 -0.2189 -0.2188
vn -0.9516 -0.2174 -0.2173
vn -0.9749 0.0001 -0.2226
vn -0.9739 0.0002 -0.2269
vn -1.0000 0.0001 -0.0001
s 0
f 1//1 2//1 6//1
f 1//1 6//1 13//1
f 1//1 13//1 25//1
f 1//1 25//1 39//1
f 1//1 39//1 40//1
f 1//1 40//1 26//1
f 1//1 26//1 14//1
f 1//1 14//1 7//1
f 1//1 7//1 3//1
f 1//2 3//2 8//2
f 1//2 8//2 17//2
f 1//3 17//3 31//3
f 1//2 31//2 47//2
f 1//2 47//2 53//2
f 1//2 53//2 48//2
f 1//2 48//2 34//2
f 1//2 34//2 19//2
f 1//2 19//2 9//2
f 1//2 9//2 4//2
f 1//4 4//4 10//4
f 1//4 10//4 20//4
f 1//4 20//4 11//4
f 1//4 11//4 5//4
f 1//4 5//4 2//4
f 2//5 5//5 6//5
f 3//6 7//6 15//6
f 3//6 15//6 28//6
f 3//6 28//6 30//6
f 3//6 30//6 16//6
f 3//6 16//6 8//6
f 4//7 9//7 18//7
f 4//7 18//7 10//7
f 5//8 11//8 12//8
f 5//9 12//9 6//9
f 6//10 12//10 13//10
f 7//11 14//11 27//11
f 7//11 27//11 15//11
f 8//12 16//12 17//12
f 9//13 19//13 32//13
f 9//13 32//13 18//13
f 10//14 18//14 20//14
f 11//15 20//15 21//15
f 11//16 21//16 22//16
f 11//17 22//17 12//17
f 12//18 23//18 25//18
f 12//18 25//18 13//18
f 12//19 22//19 24//19
f 12//20 24//20 23//20
f 14//21 26//21 27//21
f 15//22 27//22 28//22
f 16//23 29//23 17//23
f 16//24 30//24 29//24
f 17//25 29//25 31//25
f 18//26 21//26 20//26
f 18//27 32//27 33//27
f 18//28 33//28 21//28
f 19//29 34//29 35//29
f 19//30 35//30 32//30
f 21//31 33//31 22//31
f 22//32 33//32 24//32
f 23//33 24//33 36//33
f 23//34 36//34 39//34
f 23//34 39//34 25//34
f 24//35 33//35 37//35
f 24//36 37//36 38//36
f 24//37 38//37 36//37
f 26//38 40//38 41//38
f 26//39 41//39 27//39
f 27//40 41//40 42//40
f 27//41 42//41 43//41
f 27//42 43//42 28//42
f 28//43 43//43 44//43
f 28//44 44//44 30//44
f 29//45 45//45 46//45
f 29//46 46//46 31//46
f 29//47 30//47 44//47
f 29//48 44//48 45//48
f 31//49 46//49 47//49
f 32//50 35//50 37//50
f 32//51 37//51 33//51
f 34//52 48//52 35//52
f 35//53 48//53 49//53
f 35//54 49//54 51//54
f 35//54 51//54 37//54
f 36//55 38//55 52//55
f 36//55 52//55 50//55
f 36//56 50//56 40//56
f 36//56 40//56 39//56
f 37//57 51//57 52//57
f 37//57 52//57 38//57
f 40//58 50//58 41//58
f 41//59 50//59 42//59
f 42//60 50//60 52//60
f 42//61 52//61 51//61
f 42//62 51//62 45//62
f 42//63 45//63 43//63
f 43//64 45//64 44//64
f 45//65 51//65 46//65
f 46//66 51//66 49//66
f 46//67 49//67 53//67
f 46//68 53//68 47//68
f 48//69 53//69 49//69
