# Blender 4.2.11 LTS
# www.blender.org
o tmp_export_piece_3-collision.011
v -0.016285 -0.009577 -0.050815
v -0.018661 -0.007241 -0.050815
v 0.018548 -0.009577 -0.050815
v -0.017489 -0.009577 -0.050232
v -0.018661 0.030400 -0.050815
v -0.018661 -0.008411 -0.050232
v 0.018548 0.030400 -0.050815
v 0.019751 -0.009577 -0.050232
v -0.018321 -0.009577 -0.049191
v -0.018661 0.030400 -0.011458
v -0.018661 -0.009217 -0.049199
v 0.019751 0.030400 -0.050232
v 0.020584 -0.009577 -0.049191
v -0.018615 -0.009577 -0.047886
v -0.018661 -0.007241 -0.011458
v -0.018615 0.030400 0.025607
v -0.018661 -0.009514 -0.047886
v 0.020584 0.030400 -0.049191
v 0.020781 -0.009577 -0.048329
v -0.018615 -0.009577 -0.014386
v -0.018661 -0.007886 -0.011777
v -0.018615 -0.006587 0.025607
v -0.018321 -0.006587 0.026912
v -0.018313 0.030400 0.026919
v -0.018661 -0.009514 -0.014386
v 0.020680 0.030400 -0.048764
v 0.020878 0.030400 -0.047886
v 0.020878 -0.009577 -0.047886
v -0.018321 -0.009577 -0.013082
v -0.016285 -0.009514 0.025607
v -0.017489 -0.008935 0.025607
v -0.018321 -0.007890 0.025607
v -0.018661 -0.008411 -0.012041
v -0.018661 -0.009225 -0.013082
v -0.018050 -0.007761 0.026912
v -0.017303 -0.007401 0.027952
v -0.017489 -0.006587 0.027952
v -0.017489 0.030400 0.027952
v 0.020878 0.030400 0.025607
v 0.020878 -0.009577 -0.014386
v -0.017489 -0.009577 -0.012041
v -0.016285 -0.009577 -0.011458
v 0.018548 -0.009514 0.025607
v -0.016219 -0.009225 0.026912
v -0.017303 -0.008700 0.026912
v -0.016784 -0.008051 0.027952
v -0.016033 -0.007112 0.028535
v -0.016219 -0.006877 0.028535
v -0.016285 -0.006587 0.028535
v -0.016285 0.030400 0.028535
v 0.020680 0.030400 0.026484
v 0.020878 -0.006587 0.025607
v 0.020584 -0.009577 -0.013082
v 0.020584 -0.007890 0.025607
v 0.019751 -0.008935 0.025607
v 0.018548 -0.009577 -0.011458
v 0.019751 -0.009577 -0.012041
v 0.018482 -0.009225 0.026912
v -0.016033 -0.008411 0.027952
v -0.015766 -0.007241 0.028535
v 0.018548 0.030400 0.028535
v 0.020584 0.030400 0.026912
v 0.020584 -0.006587 0.026912
v 0.020317 -0.007761 0.026912
v 0.019566 -0.008700 0.026912
v 0.019047 -0.008051 0.027952
v 0.018296 -0.008411 0.027952
v 0.018029 -0.007241 0.028535
v 0.018548 -0.006587 0.028535
v 0.019751 0.030400 0.027952
v 0.019751 -0.006587 0.027952
v 0.019566 -0.007401 0.027952
v 0.018296 -0.007112 0.028535
v 0.018482 -0.006877 0.028535
vn -0.0000 -0.0000 -1.0000
vn -0.0000 -1.0000 -0.0000
vn -0.3983 -0.4051 -0.8230
vn -0.4051 -0.4075 -0.8184
vn -1.0000 -0.0000 -0.0000
vn 0.4356 -0.0000 -0.9001
vn -0.6142 -0.6177 -0.4911
vn -0.0000 1.0000 -0.0000
vn -0.6337 -0.6099 -0.4759
vn 0.7810 -0.0000 -0.6245
vn -0.7151 -0.6801 -0.1612
vn -1.0000 -0.0000 0.0013
vn -0.7960 -0.5904 -0.1338
vn 0.9748 -0.0000 -0.2232
vn -0.8032 -0.5957 -0.0000
vn -1.0000 -0.0006 0.0013
vn -0.9755 -0.0000 0.2199
vn -0.9745 0.0002 0.2242
vn 0.9753 0.0001 -0.2209
vn 0.9769 -0.0000 -0.2135
vn 0.9756 0.0001 -0.2194
vn -0.0094 -1.0000 0.0021
vn -0.4334 -0.9008 0.0267
vn -0.7818 -0.6227 0.0320
vn -0.8028 -0.5954 0.0310
vn -1.0000 -0.0017 0.0013
vn -1.0000 -0.0078 0.0017
vn -0.9753 -0.2202 0.0172
vn -0.9527 -0.2151 0.2148
vn -0.7694 -0.1776 0.6136
vn -0.7689 -0.1755 0.6148
vn -0.7810 -0.0000 0.6245
vn -0.7816 -0.0000 0.6238
vn -0.9507 -0.2194 0.2191
vn 1.0000 -0.0000 -0.0000
vn -0.0022 -1.0000 0.0017
vn -0.0008 -1.0000 0.0017
vn -0.0000 -1.0000 0.0017
vn -0.0000 -0.9763 0.2166
vn -0.4233 -0.8797 0.2166
vn -0.4250 -0.8784 0.2186
vn -0.7634 -0.6080 0.2181
vn -0.7637 -0.6074 0.2187
vn -0.6180 -0.4916 0.6136
vn -0.6165 -0.4923 0.6145
vn -0.3476 -0.2776 0.8956
vn -0.3483 -0.2756 0.8960
vn -0.4335 -0.0990 0.8957
vn -0.4335 -0.0985 0.8958
vn -0.4356 -0.0000 0.9001
vn 0.9756 -0.0000 0.2194
vn 0.9753 -0.2202 0.0165
vn 0.7818 -0.6227 0.0320
vn 0.4334 -0.9008 0.0267
vn 0.0094 -1.0000 0.0021
vn 0.0008 -1.0000 0.0017
vn 0.0022 -1.0000 0.0017
vn 0.4233 -0.8797 0.2166
vn -0.0000 -0.7877 0.6160
vn -0.3405 -0.7102 0.6162
vn -0.3436 -0.7102 0.6145
vn -0.1926 -0.4018 0.8953
vn -0.1937 -0.4006 0.8955
vn -0.0000 -0.0000 1.0000
vn 0.9753 -0.0000 0.2209
vn 0.9755 -0.0000 0.2199
vn 0.9527 -0.2151 0.2148
vn 0.9520 -0.2166 0.2163
vn 0.7637 -0.6082 0.2165
vn 0.7622 -0.6094 0.2182
vn 0.4250 -0.8784 0.2186
vn 0.3436 -0.7102 0.6145
vn 0.3405 -0.7102 0.6162
vn -0.0000 -0.4457 0.8952
vn 0.4356 -0.0000 0.9001
vn 0.7810 -0.0000 0.6245
vn 0.7690 -0.1750 0.6149
vn 0.7686 -0.1754 0.6152
vn 0.6163 -0.4921 0.6148
vn 0.6162 -0.4926 0.6145
vn 0.3476 -0.2776 0.8956
vn 0.1937 -0.4006 0.8955
vn 0.1926 -0.4018 0.8953
vn 0.4335 -0.0985 0.8958
vn 0.4335 -0.0990 0.8957
vn 0.3482 -0.2756 0.8960
s 0
f 1//1 2//1 5//1
f 1//1 5//1 7//1
f 1//1 7//1 3//1
f 1//2 3//2 8//2
f 1//2 8//2 13//2
f 1//2 13//2 19//2
f 1//2 19//2 28//2
f 1//2 28//2 40//2
f 1//2 40//2 53//2
f 1//2 53//2 57//2
f 1//2 57//2 56//2
f 1//2 56//2 42//2
f 1//2 42//2 41//2
f 1//2 41//2 29//2
f 1//2 29//2 20//2
f 1//2 20//2 14//2
f 1//2 14//2 9//2
f 1//2 9//2 4//2
f 1//3 4//3 2//3
f 2//4 4//4 6//4
f 2//5 6//5 11//5
f 2//5 11//5 17//5
f 2//5 17//5 25//5
f 2//5 25//5 34//5
f 2//5 34//5 33//5
f 2//5 33//5 21//5
f 2//5 21//5 15//5
f 2//5 15//5 10//5
f 2//5 10//5 5//5
f 3//6 7//6 12//6
f 3//6 12//6 8//6
f 4//7 9//7 6//7
f 5//8 10//8 16//8
f 5//8 16//8 24//8
f 5//8 24//8 38//8
f 5//8 38//8 50//8
f 5//8 50//8 61//8
f 5//8 61//8 70//8
f 5//8 70//8 62//8
f 5//8 62//8 51//8
f 5//8 51//8 39//8
f 5//8 39//8 27//8
f 5//8 27//8 26//8
f 5//8 26//8 18//8
f 5//8 18//8 12//8
f 5//8 12//8 7//8
f 6//9 9//9 11//9
f 8//10 12//10 18//10
f 8//10 18//10 13//10
f 9//11 14//11 11//11
f 10//12 15//12 22//12
f 10//12 22//12 16//12
f 11//13 14//13 17//13
f 13//14 18//14 19//14
f 14//15 20//15 25//15
f 14//15 25//15 17//15
f 15//16 21//16 22//16
f 16//17 22//17 23//17
f 16//18 23//18 24//18
f 18//19 26//19 19//19
f 19//20 27//20 28//20
f 19//21 26//21 27//21
f 20//22 29//22 30//22
f 20//23 30//23 31//23
f 20//24 31//24 32//24
f 20//25 32//25 25//25
f 21//16 33//16 22//16
f 22//26 33//26 34//26
f 22//27 34//27 25//27
f 22//28 25//28 32//28
f 22//29 32//29 23//29
f 23//30 35//30 36//30
f 23//31 36//31 37//31
f 23//32 37//32 38//32
f 23//33 38//33 24//33
f 23//34 32//34 35//34
f 27//35 39//35 52//35
f 27//35 52//35 40//35
f 27//35 40//35 28//35
f 29//36 41//36 30//36
f 30//37 41//37 42//37
f 30//38 42//38 56//38
f 30//38 56//38 43//38
f 30//39 43//39 58//39
f 30//39 58//39 44//39
f 30//40 44//40 31//40
f 31//41 44//41 45//41
f 31//42 45//42 32//42
f 32//43 45//43 35//43
f 35//44 45//44 36//44
f 36//45 45//45 46//45
f 36//46 46//46 47//46
f 36//47 47//47 48//47
f 36//48 48//48 37//48
f 37//49 48//49 49//49
f 37//50 49//50 50//50
f 37//50 50//50 38//50
f 39//51 51//51 52//51
f 40//52 52//52 54//52
f 40//53 54//53 55//53
f 40//54 55//54 43//54
f 40//55 43//55 53//55
f 43//56 56//56 57//56
f 43//57 57//57 53//57
f 43//58 55//58 58//58
f 44//59 58//59 67//59
f 44//59 67//59 59//59
f 44//60 59//60 46//60
f 44//61 46//61 45//61
f 46//62 59//62 60//62
f 46//63 60//63 47//63
f 47//64 60//64 68//64
f 47//64 68//64 73//64
f 47//64 73//64 74//64
f 47//64 74//64 69//64
f 47//64 69//64 61//64
f 47//64 61//64 50//64
f 47//64 50//64 49//64
f 47//64 49//64 48//64
f 51//65 62//65 63//65
f 51//66 63//66 52//66
f 52//67 63//67 54//67
f 54//68 63//68 64//68
f 54//69 64//69 55//69
f 55//70 64//70 65//70
f 55//71 65//71 58//71
f 58//72 65//72 66//72
f 58//73 66//73 67//73
f 59//74 67//74 68//74
f 59//74 68//74 60//74
f 61//75 69//75 71//75
f 61//75 71//75 70//75
f 62//76 70//76 71//76
f 62//76 71//76 63//76
f 63//77 71//77 64//77
f 64//78 71//78 72//78
f 64//79 72//79 66//79
f 64//80 66//80 65//80
f 66//81 72//81 73//81
f 66//82 73//82 68//82
f 66//83 68//83 67//83
f 69//84 74//84 71//84
f 71//85 74//85 72//85
f 72//86 74//86 73//86
