# Blender 4.2.11 LTS
# www.blender.org
o tmp_export_short-piece-1-collision.001
v -0.281688 0.163094 0.207369
v -0.281693 0.188094 0.207369
v -0.281693 0.213094 0.207482
v -0.281693 0.213094 0.257479
v -0.281693 0.163094 0.257479
v -0.331688 0.163094 0.207369
v -0.331688 0.188094 0.207369
v -0.331688 0.213094 0.207482
v -0.331688 0.213094 0.257479
v -0.331688 0.163094 0.257479
vn 0.9991 0.0002 -0.0433
vn 1.0000 0.0001 -0.0000
vn 1.0000 -0.0000 0.0001
vn -0.0000 -1.0000 -0.0000
vn -0.0000 -0.0000 -1.0000
vn -0.0000 0.0045 -1.0000
vn -0.0000 1.0000 -0.0000
vn -0.0000 -0.0000 1.0000
vn -1.0000 -0.0000 -0.0000
s 0
f 1//1 2//1 3//1
f 1//2 3//2 4//2
f 1//3 4//3 5//3
f 1//4 5//4 10//4
f 1//4 10//4 6//4
f 1//5 6//5 7//5
f 1//5 7//5 2//5
f 2//6 7//6 8//6
f 2//6 8//6 3//6
f 3//7 8//7 9//7
f 3//7 9//7 4//7
f 4//8 9//8 10//8
f 4//8 10//8 5//8
f 6//9 10//9 9//9
f 6//9 9//9 8//9
f 6//9 8//9 7//9
