# Blender 4.2.11 LTS
# www.blender.org
o tmp_export_bt_cube3x3_bricks.003
v 1.499802 12.499908 -11.000000
v -0.000198 10.999908 -11.000000
v 1.499802 10.999908 -12.500000
v 1.499802 12.499908 11.000000
v -0.000198 10.999908 11.000000
v 23.499802 12.499908 -11.000000
v 23.499802 12.499908 11.000000
v 23.499802 10.999908 12.500000
v 24.999802 10.999908 11.000000
v 24.999802 10.999908 -11.000000
v 23.499802 10.999908 -12.500000
v 24.999802 -11.000092 -11.000000
v 23.499802 -11.000092 -12.500000
v 24.999802 -11.000092 11.000000
v 23.499802 -11.000092 12.500000
v 23.499802 -12.500092 -11.000000
v 23.499802 -12.500092 11.000000
v 1.499802 -12.500092 11.000000
v 23.499802 -14.000092 12.500000
v 24.999802 -14.000092 11.000000
v 24.999802 -14.000092 -11.000000
v 1.499802 -11.000092 12.500000
v 1.499802 10.999908 12.500000
v -0.000198 -11.000092 11.000000
v -1.500198 -11.000092 12.500000
v -1.500198 -12.500092 11.000000
v -1.500198 -12.500092 -11.000000
v -1.500198 10.999908 12.500000
v -0.000198 -11.000092 -11.000000
v 1.499802 -12.500092 -11.000000
v 1.499802 -11.000092 -12.500000
v -1.500198 -11.000092 -12.500000
v -23.500198 -11.000092 -12.500000
v -1.500198 10.999908 -12.500000
v -23.500198 -12.500092 -11.000000
v -25.000198 -11.000092 -11.000000
v -23.500198 -12.500092 11.000000
v -23.500198 -11.000092 12.500000
v -25.000198 -11.000092 11.000000
v -25.000198 10.999908 11.000000
v -23.500198 10.999908 12.500000
v -23.500198 12.499908 -11.000000
v -23.500198 12.499908 11.000000
v -25.000198 10.999908 -11.000000
v -23.500198 10.999908 -12.500000
v -1.500198 12.499908 -11.000000
v -1.500198 12.499908 11.000000
v -0.000198 13.999908 -11.000000
v -1.500198 13.999908 -12.500000
v -0.000198 13.999908 11.000000
v -0.000198 35.999908 11.000000
v -1.500198 13.999908 12.500000
v -0.000198 35.999908 -11.000000
v -1.500198 35.999908 12.500000
v -23.500198 35.999908 12.500000
v -23.500198 37.499908 11.000000
v -1.500198 37.499908 11.000000
v -23.500198 37.499908 -11.000000
v -1.500198 37.499908 -11.000000
v -23.500198 35.999908 -12.500000
v -1.500198 35.999908 -12.500000
v -23.500198 13.999908 -12.500000
v -25.000198 13.999908 -11.000000
v -25.000198 35.999908 -11.000000
v -25.000198 13.999908 11.000000
v -25.000198 35.999908 11.000000
v -23.500198 13.999908 12.500000
v -0.000198 -14.000092 -11.000000
v 1.499802 -14.000092 -12.500000
v -0.000198 -14.000092 11.000000
v -0.000198 -36.000092 11.000000
v 1.499802 -36.000092 12.500000
v -0.000198 -36.000092 -11.000000
v 1.499802 -14.000092 12.500000
v 23.499802 -36.000092 12.500000
v 24.999802 -36.000092 11.000000
v 23.499802 -37.500092 11.000000
v 23.499802 -37.500092 -11.000000
v 1.499802 -37.500092 11.000000
v 1.499802 -37.500092 -11.000000
v 1.499802 -36.000092 -12.500000
v 23.499802 -36.000092 -12.500000
v 24.999802 -36.000092 -11.000000
v 23.499802 -14.000092 -12.500000
v -23.500198 12.499908 11.000000
v -23.500198 10.999908 12.500000
v -25.000198 10.999908 11.000000
v -1.500198 12.499908 11.000000
v -1.500198 10.999908 12.500000
v -0.000198 10.999908 11.000000
v -1.500198 12.499908 -11.000000
v -1.500198 10.999908 -12.500000
v -0.000198 10.999908 -11.000000
v -1.500198 12.499908 -11.000000
v -1.500198 10.999908 -12.500000
v -0.000198 10.999908 -11.000000
vn -0.7071 0.7071 -0.0000
vn -0.5774 0.5774 -0.5774
vn -0.0000 0.7071 -0.7071
vn -0.0000 1.0000 -0.0000
vn -0.0000 0.7071 0.7071
vn 0.5774 0.5774 0.5774
vn 0.7071 0.7071 -0.0000
vn 0.5774 0.5774 -0.5774
vn 0.7071 -0.0000 -0.7071
vn 1.0000 -0.0000 -0.0000
vn 0.7071 -0.0000 0.7071
vn 0.7071 -0.7071 -0.0000
vn 0.5774 -0.5774 0.5774
vn -0.0000 -0.7071 0.7071
vn -0.0000 -0.0000 1.0000
vn -0.7071 -0.0000 0.7071
vn -0.5774 -0.5774 0.5774
vn -0.7071 -0.7071 -0.0000
vn -0.7071 -0.0000 -0.7071
vn -0.5774 -0.5774 -0.5774
vn 0.5774 -0.5774 -0.5774
vn -0.0000 -0.0000 -1.0000
vn -0.0000 -0.7071 -0.7071
vn -0.0000 -1.0000 -0.0000
vn -1.0000 -0.0000 -0.0000
vn -0.5774 0.5774 0.5774
s 0
f 5//1 1//1 2//1
f 1//2 3//2 2//2
f 6//3 3//3 1//3
f 7//4 1//4 4//4
f 4//1 1//1 5//1
f 6//4 1//4 7//4
f 4//5 8//5 7//5
f 8//6 9//6 7//6
f 9//7 10//7 7//7
f 7//7 10//7 6//7
f 6//8 10//8 11//8
f 10//9 13//9 11//9
f 12//10 10//10 14//10
f 12//9 13//9 10//9
f 14//10 10//10 9//10
f 14//11 8//11 15//11
f 9//11 8//11 14//11
f 14//12 16//12 12//12
f 15//13 17//13 14//13
f 17//12 16//12 14//12
f 18//5 19//5 17//5
f 17//14 22//14 18//14
f 15//14 22//14 17//14
f 17//7 21//7 16//7
f 19//6 20//6 17//6
f 20//7 21//7 17//7
f 15//15 23//15 22//15
f 5//16 22//16 23//16
f 24//16 22//16 5//16
f 22//17 24//17 18//17
f 24//18 29//18 18//18
f 24//11 28//11 25//11
f 25//13 26//13 24//13
f 26//12 27//12 24//12
f 24//12 27//12 29//12
f 5//11 28//11 24//11
f 3//19 29//19 2//19
f 31//19 29//19 3//19
f 29//9 32//9 2//9
f 18//18 29//18 30//18
f 30//20 29//20 31//20
f 29//21 27//21 32//21
f 33//22 34//22 32//22
f 32//23 35//23 33//23
f 2//9 32//9 34//9
f 27//23 35//23 32//23
f 35//20 36//20 33//20
f 37//18 36//18 35//18
f 35//24 27//24 37//24
f 39//18 36//18 37//18
f 26//14 38//14 37//14
f 38//17 39//17 37//17
f 37//24 27//24 26//24
f 40//25 36//25 39//25
f 39//16 38//16 40//16
f 44//25 36//25 40//25
f 40//16 38//16 41//16
f 41//26 43//26 40//26
f 40//1 42//1 44//1
f 43//1 42//1 40//1
f 42//2 45//2 44//2
f 45//19 36//19 44//19
f 46//3 45//3 42//3
f 45//22 34//22 33//22
f 33//19 36//19 45//19
f 34//3 45//3 46//3
f 46//8 2//8 34//8
f 47//7 2//7 46//7
f 47//12 46//12 50//12
f 50//12 46//12 48//12
f 48//21 46//21 49//21
f 46//23 42//23 49//23
f 50//10 53//10 51//10
f 51//11 54//11 50//11
f 50//11 54//11 52//11
f 52//13 47//13 50//13
f 48//10 53//10 50//10
f 54//15 55//15 52//15
f 55//5 54//5 56//5
f 56//5 54//5 57//5
f 54//6 51//6 57//6
f 51//7 53//7 57//7
f 57//4 58//4 56//4
f 59//4 58//4 57//4
f 57//7 53//7 59//7
f 59//3 60//3 58//3
f 61//3 60//3 59//3
f 59//8 53//8 61//8
f 60//22 61//22 62//22
f 62//22 61//22 49//22
f 53//9 49//9 61//9
f 62//19 63//19 60//19
f 42//20 63//20 62//20
f 49//23 42//23 62//23
f 60//19 63//19 64//19
f 64//25 63//25 66//25
f 66//25 63//25 65//25
f 65//18 63//18 43//18
f 43//18 63//18 42//18
f 66//16 67//16 55//16
f 55//26 56//26 66//26
f 66//1 58//1 64//1
f 56//1 58//1 66//1
f 65//16 67//16 66//16
f 52//15 55//15 67//15
f 47//14 67//14 43//14
f 67//17 65//17 43//17
f 52//14 67//14 47//14
f 58//2 60//2 64//2
f 48//9 49//9 53//9
f 5//7 2//7 47//7
f 28//6 5//6 47//6
f 43//5 28//5 47//5
f 41//5 28//5 43//5
f 28//15 41//15 25//15
f 25//15 41//15 38//15
f 25//14 38//14 26//14
f 3//22 11//22 31//22
f 13//23 30//23 31//23
f 31//22 11//22 13//22
f 16//3 69//3 30//3
f 16//23 30//23 13//23
f 18//1 30//1 70//1
f 70//1 30//1 68//1
f 30//2 69//2 68//2
f 70//25 73//25 71//25
f 71//16 72//16 70//16
f 70//16 72//16 74//16
f 74//26 18//26 70//26
f 68//25 73//25 70//25
f 74//5 19//5 18//5
f 19//15 74//15 75//15
f 75//15 74//15 72//15
f 76//11 19//11 75//11
f 75//13 77//13 76//13
f 75//14 72//14 77//14
f 77//12 78//12 76//12
f 79//24 78//24 77//24
f 77//14 72//14 79//14
f 80//24 78//24 79//24
f 79//18 73//18 80//18
f 71//18 73//18 79//18
f 72//17 71//17 79//17
f 82//23 80//23 81//23
f 80//20 73//20 81//20
f 78//23 80//23 82//23
f 83//9 82//9 21//9
f 83//21 78//21 82//21
f 81//22 84//22 82//22
f 21//9 82//9 84//9
f 69//22 84//22 81//22
f 84//3 69//3 16//3
f 16//8 21//8 84//8
f 76//12 78//12 83//12
f 83//10 21//10 76//10
f 81//19 73//19 69//19
f 76//10 21//10 20//10
f 20//11 19//11 76//11
f 69//19 73//19 68//19
f 23//26 4//26 5//26
f 23//5 8//5 4//5
f 8//15 23//15 15//15
f 12//21 16//21 13//21
f 11//3 3//3 6//3
f 86//26 85//26 87//26
f 89//6 90//6 88//6
f 91//8 93//8 92//8
f 94//8 96//8 95//8
