# Blender 4.2.11 LTS
# www.blender.org
o tmp_export_bt_cube3x3_bricks.001
v 8.047302 30.952286 -11.000000
v 6.547302 29.452286 -11.000000
v 8.047302 29.452286 -12.500000
v 8.047302 30.952286 11.000000
v 6.547302 29.452286 11.000000
v 30.047302 30.952286 -11.000000
v 30.047302 30.952286 11.000000
v 30.047302 29.452286 12.500000
v 31.547302 29.452286 11.000000
v 31.547302 29.452286 -11.000000
v 30.047302 29.452286 -12.500000
v 31.547302 7.452286 -11.000000
v 30.047302 7.452286 -12.500000
v 31.547302 7.452286 11.000000
v 30.047302 7.452286 12.500000
v 30.047302 5.952286 -11.000000
v 30.047302 5.952286 11.000000
v 8.047302 5.952286 11.000000
v 30.047302 4.452286 12.500000
v 31.547302 4.452286 11.000000
v 31.547302 4.452286 -11.000000
v 8.047302 7.452286 12.500000
v 8.047302 29.452286 12.500000
v 6.547302 7.452286 11.000000
v 6.547302 7.452286 -11.000000
v 8.047302 5.952286 -11.000000
v 8.047302 7.452286 -12.500000
v 6.547302 4.452286 -11.000000
v 8.047302 4.452286 -12.500000
v 6.547302 4.452286 11.000000
v 6.547302 -17.547714 11.000000
v 8.047302 -17.547714 12.500000
v 5.047302 4.452286 12.500000
v 5.047302 5.952286 11.000000
v 8.047302 4.452286 12.500000
v 30.047302 -17.547714 12.500000
v 31.547302 -17.547714 11.000000
v 30.047302 -19.047714 11.000000
v 30.047302 -19.047714 -11.000000
v 8.047302 -19.047714 11.000000
v 8.047302 -19.047714 -11.000000
v 6.547302 -17.547714 -11.000000
v 8.047302 -17.547714 -12.500000
v 5.047302 -17.547714 -12.500000
v 5.047302 -19.047714 -11.000000
v -16.952698 -19.047714 -11.000000
v 5.047302 -19.047714 11.000000
v -16.952698 -19.047714 11.000000
v -18.452698 -17.547714 -11.000000
v -16.952698 -17.547714 12.500000
v -18.452698 -17.547714 11.000000
v -19.952698 -17.547714 12.500000
v -19.952698 -19.047714 11.000000
v -19.952698 -19.047714 -11.000000
v -19.952698 4.452286 12.500000
v -18.452698 4.452286 11.000000
v -16.952698 4.452286 12.500000
v -16.952698 5.952286 -11.000000
v -16.952698 5.952286 11.000000
v -18.452698 4.452286 -11.000000
v -19.952698 5.952286 11.000000
v -41.952698 5.952286 -11.000000
v -41.952698 5.952286 11.000000
v -19.952698 5.952286 -11.000000
v -41.952698 4.452286 -12.500000
v -19.952698 4.452286 -12.500000
v -41.952698 -17.547714 -12.500000
v -19.952698 -17.547714 -12.500000
v -41.952698 -19.047714 -11.000000
v -43.452698 -17.547714 -11.000000
v -41.952698 -19.047714 11.000000
v -41.952698 -17.547714 12.500000
v -43.452698 -17.547714 11.000000
v -43.452698 4.452286 11.000000
v -41.952698 4.452286 12.500000
v -43.452698 4.452286 -11.000000
v -16.952698 4.452286 -12.500000
v -16.952698 -17.547714 -12.500000
v 5.047302 4.452286 -12.500000
v 5.047302 5.952286 -11.000000
v 5.047302 -17.547714 12.500000
v 30.047302 -17.547714 -12.500000
v 30.047302 4.452286 -12.500000
v 31.547302 -17.547714 -11.000000
v 31.547302 7.452286 11.000000
v 30.047302 7.452286 12.500000
v 30.047302 5.952286 11.000000
v 31.547302 7.452286 11.000000
v 30.047302 7.452286 12.500000
v 30.047302 5.952286 11.000000
v 31.547302 -17.547714 -11.000000
v 30.047302 -17.547714 -12.500000
v 30.047302 -19.047714 -11.000000
vn -0.7071 0.7071 -0.0000
vn -0.5774 0.5774 -0.5774
vn -0.0000 0.7071 -0.7071
vn -0.0000 1.0000 -0.0000
vn -0.0000 0.7071 0.7071
vn 0.5774 0.5774 0.5774
vn 0.7071 0.7071 -0.0000
vn 0.5774 0.5774 -0.5774
vn 0.7071 -0.0000 -0.7071
vn 1.0000 -0.0000 -0.0000
vn 0.7071 -0.0000 0.7071
vn 0.7071 -0.7071 -0.0000
vn 0.5774 -0.5774 0.5774
vn -0.0000 -0.7071 0.7071
vn -0.0000 -0.0000 1.0000
vn -0.7071 -0.0000 0.7071
vn -0.5774 -0.5774 0.5774
vn -0.7071 -0.7071 -0.0000
vn -1.0000 -0.0000 -0.0000
vn -0.7071 -0.0000 -0.7071
vn -0.5774 -0.5774 -0.5774
vn -0.0000 -0.0000 -1.0000
vn -0.0000 -0.7071 -0.7071
vn -0.5774 0.5774 0.5774
vn -0.0000 -1.0000 -0.0000
vn 0.5774 -0.5774 -0.5774
s 0
f 5//1 1//1 2//1
f 1//2 3//2 2//2
f 6//3 3//3 1//3
f 7//4 1//4 4//4
f 4//1 1//1 5//1
f 6//4 1//4 7//4
f 4//5 8//5 7//5
f 8//6 9//6 7//6
f 9//7 10//7 7//7
f 7//7 10//7 6//7
f 6//8 10//8 11//8
f 10//9 13//9 11//9
f 12//10 10//10 14//10
f 12//9 13//9 10//9
f 14//10 10//10 9//10
f 14//11 8//11 15//11
f 9//11 8//11 14//11
f 14//12 16//12 12//12
f 15//13 17//13 14//13
f 17//12 16//12 14//12
f 18//5 19//5 17//5
f 17//14 22//14 18//14
f 15//14 22//14 17//14
f 17//7 21//7 16//7
f 19//6 20//6 17//6
f 20//7 21//7 17//7
f 15//15 23//15 22//15
f 5//16 22//16 23//16
f 24//16 22//16 5//16
f 22//17 24//17 18//17
f 24//18 25//18 18//18
f 5//19 25//19 24//19
f 3//20 25//20 2//20
f 27//20 25//20 3//20
f 2//19 25//19 5//19
f 18//18 25//18 26//18
f 26//21 25//21 27//21
f 3//22 11//22 27//22
f 13//23 26//23 27//23
f 27//22 11//22 13//22
f 16//3 29//3 26//3
f 16//23 26//23 13//23
f 18//1 26//1 30//1
f 30//1 26//1 28//1
f 26//2 29//2 28//2
f 30//11 33//11 31//11
f 31//16 32//16 30//16
f 30//16 32//16 35//16
f 33//6 30//6 34//6
f 30//7 28//7 34//7
f 35//24 18//24 30//24
f 35//5 19//5 18//5
f 19//15 35//15 36//15
f 36//15 35//15 32//15
f 37//11 19//11 36//11
f 36//13 38//13 37//13
f 36//14 32//14 38//14
f 38//12 39//12 37//12
f 40//25 39//25 38//25
f 38//14 32//14 40//14
f 41//25 39//25 40//25
f 40//18 42//18 41//18
f 31//18 42//18 40//18
f 32//17 31//17 40//17
f 29//20 42//20 28//20
f 43//20 42//20 29//20
f 42//9 44//9 28//9
f 41//21 42//21 43//21
f 31//12 45//12 42//12
f 42//26 45//26 44//26
f 47//12 45//12 31//12
f 45//23 46//23 44//23
f 46//25 45//25 48//25
f 48//25 45//25 47//25
f 48//18 49//18 46//18
f 51//18 49//18 48//18
f 47//14 50//14 48//14
f 50//17 51//17 48//17
f 51//12 54//12 49//12
f 51//16 50//16 56//16
f 51//11 55//11 52//11
f 52//13 53//13 51//13
f 53//12 54//12 51//12
f 56//11 55//11 51//11
f 56//16 50//16 57//16
f 57//24 59//24 56//24
f 56//1 58//1 60//1
f 59//1 58//1 56//1
f 56//7 60//7 61//7
f 55//6 56//6 61//6
f 63//5 55//5 61//5
f 61//4 62//4 63//4
f 64//4 62//4 61//4
f 61//7 60//7 64//7
f 64//3 65//3 62//3
f 66//3 65//3 64//3
f 64//8 60//8 66//8
f 65//22 66//22 67//22
f 67//22 66//22 68//22
f 60//9 68//9 66//9
f 49//9 68//9 60//9
f 49//26 54//26 68//26
f 54//23 69//23 68//23
f 68//23 69//23 67//23
f 69//21 70//21 67//21
f 71//18 70//18 69//18
f 69//25 54//25 71//25
f 71//25 54//25 53//25
f 73//18 70//18 71//18
f 53//14 72//14 71//14
f 72//17 73//17 71//17
f 74//19 70//19 73//19
f 73//16 72//16 74//16
f 74//16 72//16 75//16
f 75//24 63//24 74//24
f 74//1 62//1 76//1
f 63//1 62//1 74//1
f 76//19 70//19 74//19
f 62//2 65//2 76//2
f 65//20 70//20 76//20
f 75//5 55//5 63//5
f 55//15 75//15 52//15
f 52//15 75//15 72//15
f 52//14 72//14 53//14
f 67//20 70//20 65//20
f 58//2 77//2 60//2
f 77//20 49//20 60//20
f 80//3 77//3 58//3
f 77//22 79//22 78//22
f 78//20 49//20 77//20
f 79//3 77//3 80//3
f 34//7 28//7 80//7
f 80//8 28//8 79//8
f 80//4 58//4 34//4
f 28//9 44//9 79//9
f 78//22 79//22 44//22
f 46//21 49//21 78//21
f 44//23 46//23 78//23
f 57//5 33//5 59//5
f 34//4 58//4 59//4
f 59//5 33//5 34//5
f 33//15 57//15 81//15
f 81//15 57//15 50//15
f 81//14 50//14 47//14
f 31//11 33//11 81//11
f 81//13 47//13 31//13
f 29//22 83//22 43//22
f 82//23 41//23 43//23
f 43//22 83//22 82//22
f 83//3 29//3 16//3
f 16//8 21//8 83//8
f 21//9 82//9 83//9
f 84//9 82//9 21//9
f 84//26 39//26 82//26
f 39//23 41//23 82//23
f 37//12 39//12 84//12
f 84//10 21//10 37//10
f 37//10 21//10 20//10
f 20//11 19//11 37//11
f 23//24 4//24 5//24
f 23//5 8//5 4//5
f 8//15 23//15 15//15
f 12//26 16//26 13//26
f 11//3 3//3 6//3
f 86//13 87//13 85//13
f 89//13 90//13 88//13
f 91//26 93//26 92//26
