# Blender 4.2.11 LTS
# www.blender.org
o tmp_export_luban-lock-sliding.011
v -7.794422 22.203308 8.972107
v -7.794422 22.203308 1.472107
v -7.794422 36.903305 8.972107
v 7.205578 22.203308 8.972107
v 7.205578 36.903305 8.972107
v 7.205578 22.203308 1.472107
v 7.205578 -23.396698 1.472107
v 7.205578 -38.096695 -6.027893
v 7.205578 36.903305 -6.027893
v -0.294415 -0.596695 1.472107
v -7.794422 -0.596695 1.472107
v -7.794422 36.903305 -6.027893
v -7.794422 -0.596695 -6.027893
v -0.294415 -0.596695 -6.027893
v -0.294415 -15.796692 -6.027893
v -7.794422 -15.796692 -6.027893
v -0.294415 -15.796692 1.472107
v -7.794422 -15.796692 1.472107
v -7.794422 -23.396698 1.472107
v -7.794422 -38.096695 -6.027893
v -7.794422 -23.396698 8.972107
v 7.205578 -23.396698 8.972107
v -7.794422 -38.096695 8.972107
v 7.205578 -38.096695 8.972107
vn -0.0000 -1.0000 -0.0000
vn -1.0000 -0.0000 -0.0000
vn -0.0000 -0.0000 1.0000
vn 1.0000 -0.0000 -0.0000
vn -0.0000 -0.0000 -1.0000
vn -0.0000 1.0000 -0.0000
s 0
f 2//1 6//1 1//1
f 1//2 3//2 2//2
f 1//3 5//3 3//3
f 1//1 6//1 4//1
f 4//3 5//3 1//3
f 10//3 7//3 6//3
f 7//4 8//4 6//4
f 6//4 8//4 9//4
f 6//4 9//4 4//4
f 11//3 6//3 2//3
f 10//3 6//3 11//3
f 2//2 12//2 11//2
f 11//2 12//2 13//2
f 13//1 14//1 11//1
f 11//1 14//1 10//1
f 9//5 14//5 12//5
f 14//5 13//5 12//5
f 8//5 14//5 9//5
f 8//5 15//5 14//5
f 14//2 15//2 10//2
f 15//6 16//6 17//6
f 16//5 15//5 8//5
f 10//2 15//2 17//2
f 17//6 16//6 18//6
f 18//3 19//3 17//3
f 17//3 19//3 7//3
f 17//3 7//3 10//3
f 18//2 16//2 19//2
f 19//2 16//2 20//2
f 19//2 20//2 21//2
f 22//6 19//6 21//6
f 7//6 19//6 22//6
f 21//3 23//3 22//3
f 22//3 23//3 24//3
f 22//4 24//4 7//4
f 24//1 23//1 8//1
f 7//4 24//4 8//4
f 21//2 20//2 23//2
f 8//1 23//1 20//1
f 8//5 20//5 16//5
f 2//2 3//2 12//2
f 3//6 5//6 12//6
f 12//6 5//6 9//6
f 4//4 9//4 5//4
