# Blender 4.2.11 LTS
# www.blender.org
o tmp_export_short-piece.002
v -5.499939 -5.000046 3.750000
v -15.499924 4.999954 3.750000
v -15.499924 -5.000046 3.750000
v -5.499939 4.999954 3.750000
v -5.499939 4.999954 -1.250000
v -5.499939 -5.000046 -1.250000
v -15.499924 -5.000046 -6.250000
v -15.499924 4.999954 -6.250000
v 15.500061 4.999954 -6.250000
v 15.500061 -5.000046 -6.250000
v 15.500061 -5.000046 3.750000
v 5.500061 4.999954 3.750000
v 5.500061 -5.000046 3.750000
v 15.500061 4.999954 3.750000
v 5.500061 -5.000046 -1.250000
v 5.500061 4.999954 -1.250000
vn -0.0000 -0.0000 1.0000
vn 1.0000 -0.0000 -0.0000
vn -1.0000 -0.0000 -0.0000
vn -0.0000 -0.0000 -1.0000
vn -0.0000 -1.0000 -0.0000
vn -0.0000 1.0000 -0.0000
s 0
f 1//1 2//1 3//1
f 2//1 1//1 4//1
f 5//2 1//2 6//2
f 1//2 5//2 4//2
f 2//3 7//3 3//3
f 7//3 2//3 8//3
f 9//4 7//4 8//4
f 7//4 9//4 10//4
f 11//1 12//1 13//1
f 12//1 11//1 14//1
f 7//5 6//5 3//5
f 6//5 7//5 15//5
f 3//5 6//5 1//5
f 10//5 15//5 7//5
f 15//5 10//5 11//5
f 15//5 11//5 13//5
f 9//2 11//2 10//2
f 11//2 9//2 14//2
f 9//6 16//6 14//6
f 16//6 9//6 5//6
f 14//6 16//6 12//6
f 8//6 5//6 9//6
f 5//6 8//6 2//6
f 5//6 2//6 4//6
f 12//3 15//3 13//3
f 15//3 12//3 16//3
f 15//1 5//1 6//1
f 5//1 15//1 16//1
