# Blender 4.2.11 LTS
# www.blender.org
o tmp_export_short-piece-2-collision.003
v -0.128043 0.108979 0.180600
v -0.128043 0.108974 0.205597
v -0.128043 0.058979 0.180600
v -0.232909 0.108974 0.180600
v -0.232909 0.108974 0.205597
v -0.128043 0.058979 0.205597
v -0.232909 0.058979 0.180600
v -0.232909 0.058979 0.205597
vn 1.0000 -0.0000 -0.0000
vn -0.0000 -0.0000 -1.0000
vn -0.0000 1.0000 -0.0000
vn -0.0000 1.0000 0.0002
vn -0.0000 -0.0000 1.0000
vn -0.0000 -1.0000 -0.0000
vn -1.0000 -0.0000 -0.0000
s 0
f 1//1 2//1 6//1
f 1//1 6//1 3//1
f 1//2 3//2 7//2
f 1//2 7//2 4//2
f 1//3 4//3 5//3
f 1//4 5//4 2//4
f 2//5 5//5 8//5
f 2//5 8//5 6//5
f 3//6 6//6 8//6
f 3//6 8//6 7//6
f 4//7 7//7 8//7
f 4//7 8//7 5//7
