# Blender 4.2.11 LTS
# www.blender.org
o tmp_export_short-piece-2-collision.001
v -0.233046 0.108979 0.155599
v -0.233046 0.058984 0.155599
v -0.283043 0.108979 0.155599
v -0.232919 0.108974 0.205599
v -0.232919 0.108974 0.180599
v -0.283043 0.058984 0.155599
v -0.232919 0.058979 0.180599
v -0.283043 0.108974 0.205599
v -0.232919 0.058979 0.205599
v -0.283043 0.058979 0.205599
v -0.233046 0.058979 0.180599
vn -0.0000 -0.0000 -1.0000
vn -0.0000 1.0000 0.0001
vn 0.0384 0.9993 -0.0000
vn 1.0000 -0.0000 -0.0051
vn -0.0000 -1.0000 -0.0002
vn -1.0000 -0.0000 -0.0000
vn -0.0000 -0.0000 1.0000
vn 1.0000 -0.0000 -0.0000
vn -0.0000 -1.0000 -0.0001
vn -0.0000 -1.0000 -0.0000
s 0
f 1//1 2//1 6//1
f 1//1 6//1 3//1
f 1//2 3//2 8//2
f 1//2 8//2 4//2
f 1//3 4//3 5//3
f 1//4 5//4 7//4
f 1//4 7//4 2//4
f 2//5 7//5 11//5
f 2//5 11//5 6//5
f 3//6 6//6 10//6
f 3//6 10//6 8//6
f 4//7 8//7 10//7
f 4//7 10//7 9//7
f 4//8 9//8 7//8
f 4//8 7//8 5//8
f 6//9 11//9 10//9
f 7//10 9//10 10//10
f 7//9 10//9 11//9
