# Blender 4.2.11 LTS
# www.blender.org
o tmp_export_piece_1-collision.009
v -0.042475 -0.007676 -0.046408
v -0.042475 -0.008849 -0.045825
v -0.042475 0.029993 -0.046408
v 0.034214 -0.007676 -0.046408
v -0.042475 -0.009115 -0.045484
v 0.034486 -0.008849 -0.045825
v -0.042475 0.029993 -0.007052
v 0.034735 0.029993 -0.046408
v 0.034486 -0.007547 -0.046408
v -0.042475 -0.009658 -0.044785
v 0.034665 -0.009658 -0.044785
v 0.035234 -0.008489 -0.045825
v 0.035756 -0.009138 -0.044785
v -0.042475 -0.007676 -0.007052
v -0.042421 0.029993 0.030013
v 0.035935 0.029993 -0.045825
v 0.034735 -0.007027 -0.046408
v 0.034665 -0.007316 -0.046408
v 0.035756 -0.007836 -0.045825
v -0.042475 -0.009756 -0.044357
v 0.034735 -0.009952 -0.043480
v 0.036503 -0.008196 -0.044785
v 0.036768 -0.008325 -0.043480
v 0.035935 -0.009369 -0.043480
v -0.042475 -0.008321 -0.007370
v -0.042421 -0.007027 0.030013
v -0.042125 -0.007027 0.031318
v -0.042117 0.029993 0.031326
v 0.036355 0.029993 -0.045305
v 0.035935 -0.007027 -0.045825
v 0.036768 -0.007027 -0.044785
v -0.042475 -0.009952 -0.043480
v 0.034735 -0.009952 0.030013
v 0.037072 -0.007027 -0.043480
v 0.036768 -0.008325 0.030013
v 0.035935 -0.009369 0.030013
v -0.042475 -0.008849 -0.007634
v -0.042475 -0.009381 -0.008318
v -0.042475 -0.009658 -0.008675
v -0.042475 -0.009674 -0.008737
v -0.042475 -0.009952 -0.009980
v -0.042125 -0.008325 0.030013
v -0.041860 -0.008196 0.031318
v -0.041112 -0.007836 0.032359
v -0.041291 -0.007027 0.032359
v -0.041291 0.029993 0.032359
v 0.036768 0.029993 -0.044785
v 0.035756 -0.009138 0.031318
v 0.034665 -0.009658 0.031318
v -0.040092 -0.009952 0.030013
v 0.037072 0.029993 -0.043480
v 0.037072 -0.007027 0.030013
v 0.036503 -0.008196 0.031318
v -0.041291 -0.009369 0.030013
v -0.041112 -0.009138 0.031318
v -0.040591 -0.008489 0.032359
v -0.039843 -0.007547 0.032942
v -0.040022 -0.007316 0.032942
v -0.040092 -0.007027 0.032942
v -0.041260 0.029993 0.032375
v 0.035756 -0.007836 0.032359
v 0.035234 -0.008489 0.032359
v 0.034486 -0.008849 0.032359
v -0.040022 -0.009658 0.031318
v 0.037072 0.029993 0.030013
v 0.036924 0.029993 0.030658
v 0.036768 -0.007027 0.031318
v -0.039843 -0.008849 0.032359
v -0.039570 -0.007676 0.032942
v -0.040092 0.029993 0.032942
v 0.035935 -0.007027 0.032359
v 0.034735 -0.007027 0.032942
v 0.034665 -0.007316 0.032942
v 0.034486 -0.007547 0.032942
v 0.034214 -0.007676 0.032942
v 0.036768 0.029993 0.031318
v 0.034735 0.029993 0.032942
v 0.035935 0.029993 0.032359
vn -1.0000 -0.0000 -0.0000
vn -1.0000 -0.0001 -0.0000
vn -0.0000 -0.0000 -1.0000
vn -0.0000 -0.4448 -0.8957
vn -0.0000 -0.7892 -0.6141
vn -0.0000 1.0000 -0.0000
vn 0.1898 -0.4009 -0.8962
vn -0.0000 -0.7894 -0.6139
vn -0.0000 -0.7894 -0.6138
vn 0.1928 -0.4007 -0.8957
vn 0.3420 -0.7107 -0.6147
vn 0.3402 -0.7130 -0.6131
vn -1.0000 -0.0000 0.0015
vn 0.4369 -0.0000 -0.8995
vn 0.3496 -0.2714 -0.8967
vn 0.3477 -0.2778 -0.8955
vn -0.0000 -0.9748 -0.2231
vn 0.4200 -0.8804 -0.2204
vn -0.0000 -0.9757 -0.2193
vn 0.6157 -0.4920 -0.6155
vn 0.6185 -0.4906 -0.6138
vn 0.7651 -0.6069 -0.2152
vn 0.7637 -0.6095 -0.2126
vn 0.4269 -0.8786 -0.2139
vn -1.0000 -0.0007 0.0015
vn -0.9752 -0.0000 0.2212
vn -0.9743 0.0002 0.2254
vn 0.7778 -0.0000 -0.6285
vn 0.4349 -0.0962 -0.8953
vn 0.4296 -0.1041 -0.8970
vn 0.7693 -0.1702 -0.6158
vn 0.7702 -0.1744 -0.6135
vn -0.0000 -0.9761 -0.2175
vn 0.4370 -0.8995 -0.0000
vn -0.0000 -1.0000 -0.0000
vn 0.9511 -0.2154 -0.2214
vn 0.9510 -0.2225 -0.2149
vn 0.9737 -0.2278 -0.0000
vn 0.7816 -0.6238 -0.0000
vn -1.0000 -0.0020 0.0015
vn -1.0000 -0.0078 0.0019
vn -1.0000 -0.0091 0.0020
vn -0.9748 -0.2222 0.0176
vn -0.9523 -0.2170 0.2147
vn -0.9523 -0.2156 0.2160
vn -0.7702 -0.1744 0.6135
vn -0.7693 -0.1702 0.6158
vn -0.7807 -0.0000 0.6250
vn -0.7812 -0.0000 0.6242
vn 0.7835 -0.0000 -0.6214
vn 0.7807 -0.0001 -0.6250
vn 0.9740 -0.0000 -0.2267
vn 0.4269 -0.8786 0.2139
vn 0.4200 -0.8804 0.2204
vn -0.0000 -0.9757 0.2193
vn 1.0000 -0.0000 -0.0000
vn 0.7651 -0.6069 0.2152
vn 0.7637 -0.6095 0.2126
vn 0.9510 -0.2225 0.2149
vn -0.4369 -0.8992 0.0260
vn -0.7812 -0.6234 0.0322
vn -0.7637 -0.6095 0.2126
vn -0.7651 -0.6069 0.2153
vn -0.6185 -0.4906 0.6138
vn -0.6158 -0.4920 0.6155
vn -0.3477 -0.2778 0.8955
vn -0.3496 -0.2714 0.8967
vn -0.4297 -0.1041 0.8970
vn -0.4349 -0.0962 0.8953
vn -0.4369 -0.0000 0.8995
vn -0.4462 -0.0000 0.8949
vn 0.6185 -0.4906 0.6138
vn 0.6158 -0.4920 0.6155
vn 0.3420 -0.7107 0.6147
vn 0.3402 -0.7130 0.6131
vn -0.0000 -0.7894 0.6139
vn -0.4200 -0.8804 0.2204
vn -0.4269 -0.8786 0.2140
vn 0.9747 -0.0000 0.2237
vn 0.9740 -0.0001 0.2267
vn 0.9511 -0.2154 0.2214
vn 0.7702 -0.1744 0.6135
vn -0.3402 -0.7130 0.6131
vn -0.3420 -0.7107 0.6147
vn -0.1928 -0.4007 0.8957
vn -0.1898 -0.4009 0.8962
vn -0.0000 -0.0000 1.0000
vn -0.4367 -0.0000 0.8996
vn 0.7693 -0.1702 0.6158
vn 0.4349 -0.0962 0.8953
vn 0.4297 -0.1041 0.8970
vn 0.3496 -0.2714 0.8967
vn 0.3477 -0.2778 0.8955
vn 0.1928 -0.4007 0.8957
vn 0.1898 -0.4009 0.8962
vn -0.0000 -0.4448 0.8957
vn 0.9733 -0.0000 0.2296
vn 0.7807 -0.0000 0.6250
vn 0.4369 -0.0000 0.8995
s 0
f 1//1 2//1 5//1
f 1//1 5//1 10//1
f 1//1 10//1 20//1
f 1//1 20//1 32//1
f 1//1 32//1 41//1
f 1//1 41//1 40//1
f 1//2 40//2 39//2
f 1//1 39//1 38//1
f 1//1 38//1 37//1
f 1//1 37//1 25//1
f 1//1 25//1 14//1
f 1//1 14//1 7//1
f 1//1 7//1 3//1
f 1//3 3//3 8//3
f 1//3 8//3 17//3
f 1//3 17//3 18//3
f 1//3 18//3 9//3
f 1//3 9//3 4//3
f 1//4 4//4 6//4
f 1//4 6//4 2//4
f 2//5 6//5 5//5
f 3//6 7//6 15//6
f 3//6 15//6 28//6
f 3//6 28//6 46//6
f 3//6 46//6 60//6
f 3//6 60//6 70//6
f 3//6 70//6 77//6
f 3//6 77//6 78//6
f 3//6 78//6 76//6
f 3//6 76//6 66//6
f 3//6 66//6 65//6
f 3//6 65//6 51//6
f 3//6 51//6 47//6
f 3//6 47//6 29//6
f 3//6 29//6 16//6
f 3//6 16//6 8//6
f 4//7 9//7 6//7
f 5//8 6//8 11//8
f 5//9 11//9 10//9
f 6//10 9//10 12//10
f 6//11 12//11 13//11
f 6//12 13//12 11//12
f 7//13 14//13 26//13
f 7//13 26//13 15//13
f 8//14 16//14 30//14
f 8//14 30//14 17//14
f 9//15 18//15 19//15
f 9//16 19//16 12//16
f 10//17 11//17 20//17
f 11//18 13//18 21//18
f 11//19 21//19 20//19
f 12//20 19//20 13//20
f 13//21 19//21 22//21
f 13//22 22//22 23//22
f 13//23 23//23 24//23
f 13//24 24//24 21//24
f 14//25 25//25 26//25
f 15//26 26//26 27//26
f 15//27 27//27 28//27
f 16//28 29//28 30//28
f 17//29 30//29 19//29
f 17//30 19//30 18//30
f 19//31 30//31 31//31
f 19//32 31//32 22//32
f 20//33 21//33 32//33
f 21//34 24//34 36//34
f 21//34 36//34 33//34
f 21//35 33//35 50//35
f 21//35 50//35 41//35
f 21//35 41//35 32//35
f 22//36 31//36 34//36
f 22//37 34//37 23//37
f 23//38 34//38 52//38
f 23//38 52//38 35//38
f 23//39 35//39 36//39
f 23//39 36//39 24//39
f 25//25 37//25 26//25
f 26//40 37//40 38//40
f 26//40 38//40 39//40
f 26//41 39//41 40//41
f 26//42 40//42 41//42
f 26//43 41//43 42//43
f 26//44 42//44 43//44
f 26//45 43//45 27//45
f 27//46 43//46 44//46
f 27//47 44//47 45//47
f 27//48 45//48 46//48
f 27//49 46//49 28//49
f 29//50 47//50 31//50
f 29//51 31//51 30//51
f 31//52 47//52 51//52
f 31//52 51//52 34//52
f 33//53 36//53 48//53
f 33//54 48//54 49//54
f 33//55 49//55 64//55
f 33//55 64//55 50//55
f 34//56 51//56 65//56
f 34//56 65//56 52//56
f 35//57 53//57 48//57
f 35//58 48//58 36//58
f 35//59 52//59 53//59
f 41//60 50//60 54//60
f 41//61 54//61 42//61
f 42//62 54//62 55//62
f 42//63 55//63 43//63
f 43//64 55//64 44//64
f 44//65 55//65 56//65
f 44//66 56//66 57//66
f 44//67 57//67 58//67
f 44//68 58//68 59//68
f 44//69 59//69 45//69
f 45//70 59//70 60//70
f 45//71 60//71 46//71
f 48//72 53//72 61//72
f 48//73 61//73 62//73
f 48//74 62//74 63//74
f 48//75 63//75 49//75
f 49//76 63//76 68//76
f 49//76 68//76 64//76
f 50//77 64//77 55//77
f 50//78 55//78 54//78
f 52//79 65//79 66//79
f 52//80 66//80 67//80
f 52//81 67//81 53//81
f 53//82 67//82 61//82
f 55//83 64//83 68//83
f 55//84 68//84 56//84
f 56//85 68//85 57//85
f 57//86 68//86 69//86
f 57//87 69//87 75//87
f 57//87 75//87 74//87
f 57//87 74//87 73//87
f 57//87 73//87 72//87
f 57//87 72//87 77//87
f 57//87 77//87 70//87
f 57//87 70//87 59//87
f 57//87 59//87 58//87
f 59//88 70//88 60//88
f 61//89 67//89 71//89
f 61//90 71//90 72//90
f 61//91 72//91 73//91
f 61//92 73//92 74//92
f 61//93 74//93 62//93
f 62//94 74//94 63//94
f 63//95 74//95 75//95
f 63//96 75//96 69//96
f 63//96 69//96 68//96
f 66//97 76//97 67//97
f 67//98 76//98 78//98
f 67//98 78//98 71//98
f 71//99 78//99 77//99
f 71//99 77//99 72//99
