# Blender 4.2.11 LTS
# www.blender.org
o tmp_export_piece_1-collision.002
v -0.022106 -0.045164 -0.017540
v -0.022106 -0.045164 0.014953
v -0.022106 0.035346 -0.017540
v -0.021808 -0.045164 -0.018843
v -0.021808 -0.045164 0.016256
v -0.022106 0.035346 0.014953
v -0.021808 0.035346 -0.018843
v -0.020973 -0.045164 -0.019887
v -0.020973 -0.045164 0.017299
v -0.020973 0.035346 0.017299
v -0.021808 0.035346 0.016252
v -0.020973 0.035346 -0.019887
v -0.019771 -0.045164 -0.020469
v -0.019771 -0.045164 0.017881
v -0.020958 0.035346 0.017307
v -0.019771 0.035346 -0.020465
v -0.019736 -0.045164 -0.020469
v 0.015035 0.035346 -0.020469
v 0.015059 -0.045164 0.017881
v -0.019771 0.035346 0.017881
v 0.015062 -0.045164 -0.020465
v 0.015059 0.035346 -0.020469
v 0.016261 -0.045164 0.017299
v 0.016014 0.035346 0.017419
v 0.015059 0.035346 0.017881
v 0.016269 -0.045164 -0.019879
v 0.016261 0.035346 -0.019887
v 0.016586 -0.045164 0.016894
v 0.016818 0.035346 0.016605
v 0.016261 0.035346 0.017299
v 0.017096 -0.045164 -0.018843
v 0.017096 0.035346 -0.018843
v 0.017096 -0.045164 0.016256
v 0.016926 0.035346 0.016470
v 0.017390 -0.045164 -0.017540
v 0.017382 0.035346 -0.017589
v 0.017390 -0.045164 0.014953
v 0.017332 0.035346 0.015220
v 0.017096 0.035346 0.016256
v 0.017390 0.035346 -0.017540
v 0.017390 0.035346 0.014953
vn -1.0000 -0.0000 -0.0000
vn -0.9749 -0.0000 -0.2228
vn -0.0000 -1.0000 -0.0000
vn -0.9749 -0.0000 0.2228
vn -0.0000 1.0000 -0.0000
vn -0.0000 1.0000 0.0003
vn -0.7808 -0.0000 -0.6248
vn -0.7808 -0.0000 0.6248
vn -0.7818 -0.0000 0.6235
vn -0.9747 -0.0000 0.2234
vn -0.4356 -0.0000 -0.9002
vn -0.4356 -0.0000 0.9002
vn -0.4370 -0.0000 0.8995
vn -0.4333 -0.0000 -0.9013
vn -0.0001 -0.0000 -1.0000
vn -0.0000 -0.0000 -1.0000
vn -0.0000 -0.0000 1.0000
vn 0.0001 -0.0000 -1.0000
vn 0.4356 -0.0000 0.9002
vn 0.4353 -0.0000 0.9003
vn 0.4356 -0.0000 -0.9002
vn 0.4367 -0.0000 -0.8996
vn 0.7804 -0.0000 0.6252
vn 0.7802 -0.0000 0.6255
vn 0.4367 -0.0000 0.8996
vn 0.7808 -0.0000 -0.6248
vn 0.7814 -0.0000 -0.6240
vn 0.7810 -0.0000 0.6246
vn 0.9749 -0.0000 -0.2225
vn 0.9755 -0.0000 -0.2201
vn 0.9755 -0.0000 0.2201
vn 0.9751 -0.0000 0.2220
vn 0.7827 -0.0000 0.6223
vn 0.9877 -0.0000 -0.1565
vn 1.0000 -0.0000 -0.0000
vn 0.9771 -0.0000 0.2127
s 0
f 1//1 2//1 6//1
f 1//1 6//1 3//1
f 1//2 3//2 7//2
f 1//2 7//2 4//2
f 1//3 4//3 8//3
f 1//3 8//3 13//3
f 1//3 13//3 17//3
f 1//3 17//3 21//3
f 1//3 21//3 26//3
f 1//3 26//3 31//3
f 1//3 31//3 35//3
f 1//3 35//3 37//3
f 1//3 37//3 33//3
f 1//3 33//3 28//3
f 1//3 28//3 23//3
f 1//3 23//3 19//3
f 1//3 19//3 14//3
f 1//3 14//3 9//3
f 1//3 9//3 5//3
f 1//3 5//3 2//3
f 2//4 5//4 6//4
f 3//5 6//5 11//5
f 3//5 11//5 10//5
f 3//5 10//5 15//5
f 3//5 15//5 20//5
f 3//5 20//5 25//5
f 3//5 25//5 24//5
f 3//5 24//5 30//5
f 3//5 30//5 29//5
f 3//5 29//5 34//5
f 3//5 34//5 39//5
f 3//5 39//5 38//5
f 3//5 38//5 41//5
f 3//5 41//5 40//5
f 3//5 40//5 36//5
f 3//5 36//5 32//5
f 3//5 32//5 27//5
f 3//5 27//5 22//5
f 3//6 22//6 18//6
f 3//5 18//5 16//5
f 3//5 16//5 12//5
f 3//5 12//5 7//5
f 4//7 7//7 12//7
f 4//7 12//7 8//7
f 5//8 9//8 10//8
f 5//9 10//9 11//9
f 5//10 11//10 6//10
f 8//11 12//11 13//11
f 9//12 14//12 15//12
f 9//13 15//13 10//13
f 12//14 16//14 13//14
f 13//15 16//15 18//15
f 13//16 18//16 22//16
f 13//16 22//16 17//16
f 14//17 19//17 25//17
f 14//17 25//17 20//17
f 14//12 20//12 15//12
f 17//18 22//18 21//18
f 19//19 23//19 24//19
f 19//20 24//20 25//20
f 21//21 22//21 27//21
f 21//22 27//22 26//22
f 23//23 28//23 34//23
f 23//23 34//23 29//23
f 23//24 29//24 30//24
f 23//25 30//25 24//25
f 26//26 27//26 32//26
f 26//27 32//27 31//27
f 28//28 33//28 34//28
f 31//29 32//29 36//29
f 31//30 36//30 35//30
f 33//31 37//31 38//31
f 33//32 38//32 39//32
f 33//33 39//33 34//33
f 35//34 36//34 40//34
f 35//35 40//35 41//35
f 35//35 41//35 37//35
f 37//36 41//36 38//36
