# Blender 4.2.11 LTS
# www.blender.org
o tmp_export_piece_1-collision.008
v 0.029990 0.016605 0.029498
v 0.029990 -0.018192 0.029498
v 0.029990 0.017780 0.028915
v -0.007129 0.016605 0.029498
v -0.007129 -0.018192 0.029498
v 0.029990 -0.019367 0.028915
v 0.029990 0.018588 0.027874
v -0.007396 0.017780 0.028915
v -0.007396 0.016478 0.029498
v -0.007396 -0.018065 0.029498
v -0.007396 -0.019367 0.028915
v 0.029990 -0.020176 0.027874
v -0.007580 0.018588 0.027874
v 0.029990 0.018685 0.027447
v -0.008665 0.018068 0.027874
v -0.008144 0.017418 0.028915
v -0.007580 0.016243 0.029498
v -0.008665 0.016767 0.028915
v -0.007580 -0.017830 0.029498
v -0.008665 -0.018354 0.028915
v -0.008144 -0.019005 0.028915
v -0.008665 -0.019656 0.027874
v -0.007580 -0.020176 0.027874
v 0.029990 -0.020465 0.026569
v -0.007647 0.018877 0.026569
v 0.029990 0.018877 0.026569
v -0.008850 0.018300 0.026569
v -0.009414 0.017129 0.027874
v -0.007647 0.015954 0.029498
v -0.009680 0.015954 0.027874
v -0.008850 0.015954 0.028915
v -0.007647 -0.017541 0.029498
v -0.008850 -0.017541 0.028915
v -0.009680 -0.017541 0.027874
v -0.009414 -0.018716 0.027874
v -0.008850 -0.019887 0.026569
v -0.007647 -0.020465 0.026569
v 0.029990 -0.020465 -0.046924
v -0.010045 0.018877 -0.013424
v 0.029990 0.018877 -0.046924
v -0.009680 0.017256 0.026569
v -0.009978 0.015954 0.026569
v -0.009978 -0.017541 0.026569
v -0.009680 -0.018843 0.026569
v -0.010045 -0.020465 -0.013424
v -0.010045 -0.020465 -0.046924
v -0.010045 -0.020322 -0.047568
v 0.029990 -0.020176 -0.048229
v -0.010045 0.018877 -0.046924
v -0.010045 0.018862 -0.013354
v 0.029990 0.018588 -0.048229
v -0.010045 0.018735 -0.047576
v -0.010045 0.017768 -0.011070
v -0.010045 0.017252 -0.010814
v -0.010045 0.016605 -0.010496
v -0.010045 0.018588 -0.012119
v -0.010045 0.018577 -0.012103
v -0.010045 0.018300 -0.011746
v -0.010045 -0.017541 -0.010496
v -0.010045 -0.018200 -0.010503
v -0.010045 -0.018847 -0.010822
v -0.010045 -0.019367 -0.011078
v -0.010045 -0.019382 -0.011094
v -0.010045 -0.020176 -0.012119
v -0.010045 -0.020191 -0.012173
v -0.010045 -0.020176 -0.048221
v -0.010045 -0.019367 -0.049269
v 0.029990 -0.019367 -0.049269
v 0.029990 0.018045 -0.048928
v -0.010045 0.018588 -0.048229
v -0.010045 0.018639 -0.048011
v -0.010045 -0.018192 -0.049852
v 0.029990 -0.018192 -0.049852
v 0.029990 0.017780 -0.049269
v -0.010045 0.017780 -0.049269
v -0.010045 0.016605 -0.049852
v 0.029990 0.016605 -0.049852
vn 1.0000 -0.0000 -0.0000
vn -0.0000 0.4442 0.8959
vn -0.0000 -0.0000 1.0000
vn -0.0000 -0.4442 0.8959
vn -0.0000 0.7896 0.6136
vn -0.1912 0.4009 0.8959
vn -0.1912 -0.4009 0.8959
vn -0.0000 -0.7896 0.6136
vn -0.0000 0.9755 0.2199
vn -0.3411 0.7120 0.6137
vn -0.3432 0.7094 0.6156
vn -0.1938 0.4007 0.8955
vn -0.3475 0.2783 0.8954
vn -0.3490 0.2736 0.8963
vn -0.3490 -0.2736 0.8963
vn -0.3475 -0.2783 0.8954
vn -0.1938 -0.4007 0.8955
vn -0.3432 -0.7095 0.6156
vn -0.3411 -0.7120 0.6137
vn -0.0000 -0.9764 0.2162
vn -0.0000 0.9764 0.2162
vn -0.4218 0.8805 0.2165
vn -0.0000 0.9768 0.2143
vn -0.4227 0.8802 0.2156
vn -0.7638 0.6083 0.2156
vn -0.6170 0.4914 0.6147
vn -0.6150 0.4924 0.6159
vn -0.4327 0.0998 0.8960
vn -0.7696 0.1746 0.6142
vn -0.7696 0.1744 0.6143
vn -0.4337 0.0983 0.8957
vn -0.4327 -0.0998 0.8960
vn -0.7696 -0.1744 0.6143
vn -0.7696 -0.1746 0.6142
vn -0.6170 -0.4914 0.6147
vn -0.6150 -0.4924 0.6159
vn -0.4337 -0.0983 0.8957
vn -0.7638 -0.6083 0.2156
vn -0.4227 -0.8802 0.2156
vn -0.4218 -0.8805 0.2165
vn -0.0000 -1.0000 -0.0000
vn -0.0000 1.0000 -0.0000
vn -0.4328 0.9011 0.0260
vn -0.7641 0.6081 0.2153
vn -0.7820 0.6224 0.0324
vn -0.9519 0.2178 0.2156
vn -0.9519 0.2159 0.2173
vn -0.4358 -0.0000 0.9000
vn -0.9749 -0.0000 0.2225
vn -0.7815 -0.0000 0.6238
vn -0.9519 -0.2159 0.2173
vn -0.9519 -0.2178 0.2156
vn -0.7641 -0.6081 0.2153
vn -0.7820 -0.6224 0.0324
vn -0.4328 -0.9011 0.0260
vn -0.0000 -0.9764 -0.2159
vn -0.0000 -0.9764 -0.2162
vn -1.0000 -0.0000 -0.0000
vn -1.0000 0.0001 -0.0000
vn -0.9998 -0.0207 -0.0000
vn -0.9999 0.0113 0.0025
vn -0.9747 0.2230 0.0179
vn -0.0000 0.9764 -0.2162
vn -0.0000 0.9764 -0.2161
vn -0.0000 0.9770 -0.2134
vn -1.0000 0.0009 0.0018
vn -1.0000 -0.0000 0.0018
vn -0.9999 0.0112 0.0025
vn -1.0000 0.0026 0.0019
vn -1.0000 0.0024 0.0019
vn -1.0000 -0.0009 0.0018
vn -1.0000 -0.0019 0.0019
vn -1.0000 -0.0024 0.0019
vn -1.0000 -0.0079 0.0023
vn -0.9999 -0.0114 0.0025
vn -0.9747 -0.2230 0.0179
vn -0.0000 -0.9757 -0.2189
vn -0.0001 -0.7918 -0.6108
vn -0.0000 -0.7896 -0.6136
vn -0.0000 0.7897 -0.6135
vn -0.0000 0.9745 -0.2244
vn -0.0000 -0.4442 -0.8959
vn -0.0000 0.7894 -0.6139
vn -0.0000 0.7896 -0.6136
vn -0.0000 -0.0000 -1.0000
vn -0.0000 0.4442 -0.8959
s 0
f 1//1 2//1 6//1
f 1//1 6//1 12//1
f 1//1 12//1 24//1
f 1//1 24//1 38//1
f 1//1 38//1 48//1
f 1//1 48//1 68//1
f 1//1 68//1 73//1
f 1//1 73//1 77//1
f 1//1 77//1 74//1
f 1//1 74//1 69//1
f 1//1 69//1 51//1
f 1//1 51//1 40//1
f 1//1 40//1 26//1
f 1//1 26//1 14//1
f 1//1 14//1 7//1
f 1//1 7//1 3//1
f 1//2 3//2 8//2
f 1//2 8//2 4//2
f 1//3 4//3 9//3
f 1//3 9//3 17//3
f 1//3 17//3 29//3
f 1//3 29//3 32//3
f 1//3 32//3 19//3
f 1//3 19//3 10//3
f 1//3 10//3 5//3
f 1//3 5//3 2//3
f 2//4 5//4 11//4
f 2//4 11//4 6//4
f 3//5 7//5 13//5
f 3//5 13//5 8//5
f 4//6 8//6 9//6
f 5//7 10//7 11//7
f 6//8 11//8 23//8
f 6//8 23//8 12//8
f 7//9 14//9 13//9
f 8//10 13//10 15//10
f 8//11 15//11 16//11
f 8//12 16//12 9//12
f 9//13 16//13 18//13
f 9//14 18//14 17//14
f 10//15 19//15 20//15
f 10//16 20//16 21//16
f 10//17 21//17 11//17
f 11//18 21//18 22//18
f 11//19 22//19 23//19
f 12//20 23//20 37//20
f 12//20 37//20 24//20
f 13//21 14//21 25//21
f 13//22 25//22 15//22
f 14//23 26//23 25//23
f 15//24 25//24 27//24
f 15//25 27//25 28//25
f 15//26 28//26 18//26
f 15//27 18//27 16//27
f 17//28 18//28 29//28
f 18//29 28//29 30//29
f 18//30 30//30 31//30
f 18//31 31//31 29//31
f 19//32 32//32 20//32
f 20//33 33//33 34//33
f 20//34 34//34 35//34
f 20//35 35//35 22//35
f 20//36 22//36 21//36
f 20//37 32//37 33//37
f 22//38 35//38 36//38
f 22//39 36//39 37//39
f 22//40 37//40 23//40
f 24//41 37//41 45//41
f 24//41 45//41 46//41
f 24//41 46//41 38//41
f 25//42 26//42 40//42
f 25//42 40//42 49//42
f 25//42 49//42 39//42
f 25//43 39//43 27//43
f 27//44 41//44 28//44
f 27//45 39//45 41//45
f 28//46 41//46 42//46
f 28//47 42//47 30//47
f 29//48 31//48 33//48
f 29//48 33//48 32//48
f 30//49 42//49 43//49
f 30//49 43//49 34//49
f 30//50 34//50 33//50
f 30//50 33//50 31//50
f 34//51 43//51 35//51
f 35//52 43//52 44//52
f 35//53 44//53 36//53
f 36//54 44//54 45//54
f 36//55 45//55 37//55
f 38//56 46//56 47//56
f 38//57 47//57 48//57
f 39//58 49//58 52//58
f 39//58 52//58 71//58
f 39//58 71//58 70//58
f 39//58 70//58 75//58
f 39//58 75//58 76//58
f 39//58 76//58 72//58
f 39//58 72//58 67//58
f 39//58 67//58 66//58
f 39//58 66//58 47//58
f 39//58 47//58 46//58
f 39//58 46//58 45//58
f 39//58 45//58 65//58
f 39//58 65//58 64//58
f 39//58 64//58 63//58
f 39//58 63//58 62//58
f 39//58 62//58 61//58
f 39//58 61//58 60//58
f 39//58 60//58 59//58
f 39//58 59//58 55//58
f 39//58 55//58 54//58
f 39//58 54//58 53//58
f 39//58 53//58 58//58
f 39//58 58//58 57//58
f 39//59 57//59 56//59
f 39//60 56//60 50//60
f 39//61 50//61 42//61
f 39//62 42//62 41//62
f 40//63 51//63 71//63
f 40//64 71//64 52//64
f 40//65 52//65 49//65
f 42//66 53//66 54//66
f 42//66 54//66 55//66
f 42//67 55//67 59//67
f 42//67 59//67 43//67
f 42//68 50//68 56//68
f 42//69 56//69 57//69
f 42//70 57//70 58//70
f 42//70 58//70 53//70
f 43//67 59//67 60//67
f 43//71 60//71 61//71
f 43//71 61//71 62//71
f 43//72 62//72 63//72
f 43//73 63//73 64//73
f 43//74 64//74 65//74
f 43//75 65//75 45//75
f 43//76 45//76 44//76
f 47//77 66//77 48//77
f 48//78 66//78 67//78
f 48//79 67//79 68//79
f 51//80 69//80 70//80
f 51//81 70//81 71//81
f 67//82 72//82 73//82
f 67//82 73//82 68//82
f 69//83 74//83 75//83
f 69//84 75//84 70//84
f 72//85 76//85 77//85
f 72//85 77//85 73//85
f 74//86 77//86 76//86
f 74//86 76//86 75//86
