# Blender 4.2.11 LTS
# www.blender.org
o tmp_export_piece_1-collision.007
v -0.012733 -0.005881 -0.016744
v -0.012733 -0.005881 0.016750
v -0.012733 0.031139 -0.016744
v -0.012436 -0.005881 -0.018046
v -0.012436 -0.007180 -0.016744
v -0.012436 -0.005881 0.018052
v -0.012733 0.031139 0.016750
v -0.012436 -0.007180 0.016750
v -0.012436 0.031139 -0.018046
v -0.011603 -0.005881 -0.019090
v -0.012166 -0.007051 -0.018046
v -0.011416 -0.007993 -0.018046
v -0.011603 -0.008224 -0.016744
v -0.011603 -0.005881 0.019096
v -0.012436 0.031139 0.018052
v -0.012166 -0.007051 0.018052
v -0.011603 -0.008224 0.016750
v -0.011416 -0.007993 0.018052
v -0.011603 0.031139 -0.019090
v -0.011564 0.031139 -0.019109
v -0.010399 -0.005881 -0.019672
v -0.010333 -0.006171 -0.019672
v -0.011416 -0.006691 -0.019090
v -0.010900 -0.007344 -0.019090
v -0.010333 -0.008513 -0.018046
v -0.010399 -0.008806 -0.016744
v -0.010333 -0.006171 0.019674
v -0.010399 -0.005881 0.019674
v -0.010399 0.031139 0.019674
v -0.011599 0.031139 0.019096
v -0.011416 -0.006691 0.019096
v -0.010900 -0.007344 0.019096
v -0.010399 -0.008806 0.016750
v -0.010333 -0.008513 0.018052
v -0.010399 0.031139 -0.019672
v -0.010149 -0.006401 -0.019672
v -0.010149 -0.007704 -0.019090
v 0.027212 -0.008611 -0.017623
v 0.027212 -0.007970 -0.018751
v 0.027212 -0.008513 -0.018046
v 0.027212 -0.008806 -0.016744
v -0.010149 -0.006401 0.019674
v 0.027212 0.031139 0.019674
v -0.010149 -0.007704 0.019096
v 0.027212 -0.008806 0.016750
v 0.027212 -0.008529 0.017995
v 0.027212 -0.008513 0.018052
v 0.027212 -0.008235 0.018414
v 0.027212 0.031139 -0.019672
v -0.009879 -0.006530 -0.019672
v 0.027212 -0.006914 -0.019483
v 0.027212 -0.007704 -0.019090
v -0.009879 -0.006530 0.019674
v 0.027212 -0.006530 0.019674
v 0.027212 -0.007719 0.019077
v 0.027212 -0.007704 0.019096
v 0.027212 -0.007176 0.019358
v 0.027212 -0.006530 -0.019672
vn -1.0000 -0.0000 -0.0000
vn -0.9749 -0.0000 -0.2225
vn -0.9515 -0.2178 -0.2172
vn -0.9748 -0.2231 -0.0000
vn -0.9749 -0.0000 0.2225
vn -0.9515 -0.2178 0.2172
vn -0.0000 1.0000 -0.0000
vn -0.0000 1.0000 0.0001
vn -0.7817 -0.0000 -0.6237
vn -0.7693 -0.1775 -0.6138
vn -0.9508 -0.2194 -0.2188
vn -0.7633 -0.6080 -0.2184
vn -0.7630 -0.6086 -0.2179
vn -0.7818 -0.6236 -0.0000
vn -0.7817 -0.0000 0.6237
vn -0.9508 -0.2194 0.2188
vn -0.7693 -0.1775 0.6138
vn -0.7630 -0.6086 0.2179
vn -0.7633 -0.6080 0.2184
vn -0.4417 -0.0000 -0.8972
vn -0.4349 -0.0000 -0.9005
vn -0.4327 -0.0994 -0.8960
vn -0.4329 -0.1004 -0.8959
vn -0.7687 -0.1782 -0.6143
vn -0.6192 -0.4894 -0.6140
vn -0.6185 -0.4927 -0.6122
vn -0.4223 -0.8794 -0.2197
vn -0.4251 -0.8787 -0.2170
vn -0.3422 -0.7127 -0.6124
vn -0.4355 -0.9002 -0.0000
vn -0.4304 -0.0989 0.8972
vn -0.4326 -0.0000 0.9016
vn -0.4337 -0.0000 0.9011
vn -0.7802 0.0001 0.6255
vn -0.7687 -0.1782 0.6143
vn -0.4306 -0.0998 0.8970
vn -0.6192 -0.4894 0.6140
vn -0.6185 -0.4927 0.6122
vn -0.4251 -0.8787 0.2170
vn -0.4223 -0.8794 0.2197
vn -0.3422 -0.7127 0.6124
vn -0.4347 -0.0000 -0.9006
vn -0.0000 -0.0000 -1.0000
vn -0.3471 -0.2765 -0.8961
vn -0.3487 -0.2756 -0.8958
vn -0.3415 -0.7127 -0.6128
vn -0.1918 -0.4002 -0.8961
vn -0.0001 -0.9756 -0.2198
vn -0.0001 -0.7902 -0.6128
vn -0.0000 -0.7919 -0.6107
vn -0.0000 -0.9744 -0.2248
vn -0.0000 -0.9761 -0.2173
vn -0.0000 -1.0000 -0.0000
vn -0.0000 -0.0000 1.0000
vn -0.3468 -0.2741 0.8970
vn -0.3453 -0.2750 0.8973
vn -0.3415 -0.7127 0.6128
vn -0.1908 -0.3981 0.8973
vn -0.0000 -0.9760 0.2178
vn -0.0001 -0.9756 0.2198
vn -0.0000 -0.7935 0.6085
vn -0.0001 -0.7902 0.6128
vn -0.0000 -0.9652 0.2614
vn -0.1915 -0.4003 -0.8962
vn -0.0000 -0.4442 -0.8959
vn -0.0000 -0.4453 -0.8954
vn -0.0000 -0.7868 -0.6172
vn 1.0000 -0.0000 -0.0000
vn 1.0000 0.0004 -0.0000
vn 1.0000 -0.0001 -0.0000
vn -0.1904 -0.3981 0.8973
vn -0.0000 -0.7761 0.6306
vn -0.0000 -0.4445 0.8958
vn -0.0000 -0.4418 0.8971
vn -0.0000 -0.7888 0.6146
vn -0.0000 -0.4418 -0.8971
vn -0.0000 -0.4397 0.8982
s 0
f 1//1 2//1 7//1
f 1//1 7//1 3//1
f 1//2 3//2 9//2
f 1//2 9//2 4//2
f 1//3 4//3 5//3
f 1//4 5//4 8//4
f 1//4 8//4 2//4
f 2//5 6//5 15//5
f 2//5 15//5 7//5
f 2//6 8//6 6//6
f 3//7 7//7 15//7
f 3//7 15//7 30//7
f 3//7 30//7 29//7
f 3//7 29//7 43//7
f 3//7 43//7 49//7
f 3//7 49//7 35//7
f 3//7 35//7 20//7
f 3//8 20//8 19//8
f 3//7 19//7 9//7
f 4//9 9//9 19//9
f 4//9 19//9 10//9
f 4//10 10//10 11//10
f 4//11 11//11 5//11
f 5//12 11//12 12//12
f 5//13 12//13 13//13
f 5//14 13//14 17//14
f 5//14 17//14 8//14
f 6//15 14//15 15//15
f 6//16 8//16 16//16
f 6//17 16//17 14//17
f 8//18 17//18 18//18
f 8//19 18//19 16//19
f 10//20 19//20 20//20
f 10//21 20//21 21//21
f 10//22 21//22 22//22
f 10//23 22//23 23//23
f 10//24 23//24 11//24
f 11//25 23//25 24//25
f 11//26 24//26 12//26
f 12//27 25//27 26//27
f 12//28 26//28 13//28
f 12//29 24//29 25//29
f 13//30 26//30 33//30
f 13//30 33//30 17//30
f 14//31 27//31 28//31
f 14//32 28//32 29//32
f 14//33 29//33 30//33
f 14//34 30//34 15//34
f 14//35 16//35 31//35
f 14//36 31//36 27//36
f 16//37 32//37 31//37
f 16//38 18//38 32//38
f 17//39 33//39 18//39
f 18//40 33//40 34//40
f 18//41 34//41 32//41
f 20//42 35//42 21//42
f 21//43 35//43 49//43
f 21//43 49//43 58//43
f 21//43 58//43 50//43
f 21//43 50//43 36//43
f 21//43 36//43 22//43
f 22//44 36//44 24//44
f 22//45 24//45 23//45
f 24//46 37//46 25//46
f 24//47 36//47 37//47
f 25//48 38//48 26//48
f 25//49 37//49 39//49
f 25//50 39//50 40//50
f 25//51 40//51 38//51
f 26//52 38//52 41//52
f 26//53 41//53 45//53
f 26//53 45//53 33//53
f 27//54 42//54 53//54
f 27//54 53//54 54//54
f 27//54 54//54 43//54
f 27//54 43//54 29//54
f 27//54 29//54 28//54
f 27//55 31//55 32//55
f 27//56 32//56 42//56
f 32//57 34//57 44//57
f 32//58 44//58 42//58
f 33//59 45//59 46//59
f 33//60 46//60 34//60
f 34//61 47//61 48//61
f 34//62 48//62 44//62
f 34//63 46//63 47//63
f 36//64 50//64 37//64
f 37//65 50//65 51//65
f 37//66 51//66 52//66
f 37//67 52//67 39//67
f 38//68 40//68 39//68
f 38//68 39//68 52//68
f 38//68 52//68 51//68
f 38//68 51//68 58//68
f 38//68 58//68 49//68
f 38//68 49//68 43//68
f 38//68 43//68 54//68
f 38//68 54//68 57//68
f 38//68 57//68 56//68
f 38//69 56//69 55//69
f 38//68 55//68 48//68
f 38//68 48//68 47//68
f 38//70 47//70 46//70
f 38//68 46//68 45//68
f 38//68 45//68 41//68
f 42//71 44//71 53//71
f 44//72 55//72 56//72
f 44//73 56//73 57//73
f 44//74 57//74 53//74
f 44//75 48//75 55//75
f 50//76 58//76 51//76
f 53//77 57//77 54//77
