# Blender 4.2.11 LTS
# www.blender.org
o tmp_export_keystone-piece-collision.001
v -0.231120 0.264348 0.310699
v -0.181125 0.264352 0.310699
v -0.231120 0.264352 0.260699
v -0.231115 0.214355 0.260699
v -0.231115 0.214355 0.310699
v -0.181125 0.264352 0.260699
v -0.181120 0.214355 0.310699
v -0.206120 0.214242 0.260699
v -0.206120 0.214242 0.285699
v -0.181120 0.214355 0.285699
v -0.181120 0.214242 0.260699
v -0.181120 0.214242 0.285699
vn -0.0001 1.0000 0.0001
vn -1.0000 -0.0001 -0.0000
vn -0.0000 -0.0000 1.0000
vn -0.0000 1.0000 -0.0000
vn 1.0000 0.0001 -0.0000
vn -0.0000 -0.0000 -1.0000
vn -0.0045 -1.0000 -0.0000
vn -0.0000 -1.0000 0.0045
vn 1.0000 -0.0000 -0.0000
vn -0.0000 -1.0000 -0.0000
s 0
f 1//1 2//1 3//1
f 1//2 3//2 4//2
f 1//2 4//2 5//2
f 1//3 5//3 7//3
f 1//3 7//3 2//3
f 2//4 6//4 3//4
f 2//5 7//5 10//5
f 2//5 10//5 6//5
f 3//6 6//6 11//6
f 3//6 11//6 8//6
f 3//6 8//6 4//6
f 4//7 8//7 9//7
f 4//7 9//7 5//7
f 5//8 9//8 12//8
f 5//8 12//8 7//8
f 6//5 10//5 11//5
f 7//9 12//9 11//9
f 7//9 11//9 10//9
f 8//10 11//10 12//10
f 8//10 12//10 9//10
