# Blender 4.2.11 LTS
# www.blender.org
o tmp_export_keystone-piece
v 15.500031 4.999939 -5.000000
v 5.500031 -0.000061 -5.000000
v 5.500031 4.999939 -5.000000
v -5.499969 4.999939 -5.000000
v -15.499954 -5.000061 -5.000000
v -15.499954 4.999939 -5.000000
v -5.499969 -0.000061 -5.000000
v 15.500031 -5.000061 -5.000000
v -5.499969 -5.000061 5.000000
v -15.499954 4.999939 5.000000
v -15.499954 -5.000061 5.000000
v -5.499969 4.999939 5.000000
v -5.499969 -0.000061 0.000000
v -5.499969 -5.000061 0.000000
v 15.500031 -5.000061 5.000000
v 5.500031 4.999939 5.000000
v 5.500031 -5.000061 5.000000
v 15.500031 4.999939 5.000000
v 5.500031 -5.000061 0.000000
v 5.500031 -0.000061 0.000000
vn -0.0000 -0.0000 -1.0000
vn -0.0000 -0.0000 1.0000
vn 1.0000 -0.0000 -0.0000
vn -0.0000 1.0000 -0.0000
vn -1.0000 -0.0000 -0.0000
vn -0.0000 -1.0000 -0.0000
s 0
f 1//1 2//1 3//1
f 4//1 5//1 6//1
f 5//1 4//1 7//1
f 5//1 7//1 8//1
f 8//1 7//1 2//1
f 8//1 2//1 1//1
f 9//2 10//2 11//2
f 10//2 9//2 12//2
f 4//3 13//3 7//3
f 13//3 9//3 14//3
f 9//3 13//3 12//3
f 12//3 13//3 4//3
f 10//4 4//4 6//4
f 4//4 10//4 12//4
f 10//5 5//5 11//5
f 5//5 10//5 6//5
f 15//2 16//2 17//2
f 16//2 15//2 18//2
f 5//6 14//6 11//6
f 14//6 5//6 19//6
f 11//6 14//6 9//6
f 8//6 19//6 5//6
f 19//6 8//6 15//6
f 19//6 15//6 17//6
f 1//3 15//3 8//3
f 15//3 1//3 18//3
f 16//4 1//4 3//4
f 1//4 16//4 18//4
f 16//5 19//5 17//5
f 19//5 16//5 20//5
f 20//5 16//5 2//5
f 2//5 16//5 3//5
f 19//2 13//2 14//2
f 13//2 19//2 20//2
f 13//4 2//4 7//4
f 2//4 13//4 20//4
