# Blender 4.2.11 LTS
# www.blender.org
o tmp_export_geometry_1.001
v 0.053790 0.000765 0.089887
v 0.053790 -0.088575 0.089887
v 0.053790 0.002247 0.089711
v -0.028195 0.001182 0.089848
v -0.016517 0.000765 0.089887
v -0.046149 -0.088575 0.089887
v 0.053790 -0.088575 -0.110035
v -0.046149 0.001811 0.089769
v 0.053790 0.003265 0.089437
v -0.046149 0.003206 0.089476
v -0.016517 0.002247 0.089711
v -0.046149 0.000397 0.089887
v -0.046385 -0.088575 -0.011092
v -0.028195 -0.088575 -0.110074
v 0.053790 -0.088537 -0.110074
v -0.046385 0.010396 -0.011092
v 0.053790 0.003691 0.089319
v -0.016517 0.003691 0.089319
v -0.028195 0.004030 0.089182
v -0.046149 0.004544 0.088967
v -0.046385 -0.088575 -0.110074
v 0.053790 0.000765 -0.110074
v -0.046149 0.005793 0.088282
v -0.046149 0.006937 0.087440
v -0.046149 0.007944 0.086422
v -0.046149 0.008807 0.085287
v -0.046149 0.009485 0.084034
v -0.046149 0.009989 0.082703
v -0.046149 0.010289 0.081294
v -0.046149 0.010396 0.079885
v -0.046385 0.010396 -0.100444
v 0.053790 0.004185 0.089104
v 0.053790 0.005067 0.088712
v -0.016517 0.005067 0.088712
v -0.028195 0.005357 0.088556
v -0.046385 0.000765 -0.110074
v 0.053790 0.002247 -0.109898
v 0.053790 0.005958 0.088164
v 0.053790 0.006326 0.087930
v -0.028195 0.006123 0.088067
v -0.016517 0.006326 0.087930
v 0.053790 0.007131 0.087244
v 0.053790 0.007460 0.086951
v -0.028195 0.007256 0.087147
v -0.016517 0.007460 0.086951
v 0.053790 0.008438 0.085816
v -0.016517 0.008438 0.085816
v 0.053790 0.009000 0.084935
v 0.053790 0.009233 0.084543
v -0.016517 0.009233 0.084543
v -0.028195 0.009330 0.084348
v 0.053790 0.009834 0.083173
v -0.028195 0.009698 0.083526
v -0.028195 0.009892 0.082997
v 0.053790 0.010105 0.082175
v 0.053790 0.010221 0.081744
v -0.016517 0.010221 0.081744
v 0.053790 0.010396 0.080257
v -0.028195 0.010357 0.080668
v -0.016517 0.010396 0.080257
v 0.031865 0.010396 -0.100444
v -0.046385 0.010221 -0.101931
v 0.053790 0.005522 0.088438
v -0.046385 0.002247 -0.109898
v 0.053790 0.002693 -0.109780
v -0.016517 0.009834 0.083173
v 0.053790 0.010396 -0.100405
v 0.053790 0.010221 -0.101931
v -0.046385 0.010037 -0.102617
v -0.046385 0.003691 -0.109506
v 0.053790 0.003691 -0.109506
v -0.028195 0.009872 -0.103223
v 0.053790 0.009834 -0.103360
v -0.046385 0.009834 -0.103360
v -0.046385 0.004418 -0.109193
v 0.053790 0.004640 -0.109095
v 0.053790 0.009717 -0.103634
v 0.053790 0.009650 -0.103791
v -0.046385 0.009543 -0.104026
v -0.046385 0.005067 -0.108900
v 0.053790 0.005067 -0.108900
v 0.053790 0.009233 -0.104730
v -0.046385 0.009233 -0.104730
v -0.046385 0.006326 -0.108117
v 0.053790 0.006326 -0.108117
v 0.053790 0.009078 -0.104985
v -0.028195 0.008516 -0.105885
v -0.046385 0.008855 -0.105337
v -0.046385 0.006927 -0.107608
v -0.028195 0.006443 -0.108019
v 0.053790 0.007460 -0.107138
v 0.053790 0.008438 -0.106003
v -0.046385 0.008438 -0.106003
v -0.046385 0.007460 -0.107138
v -0.046385 0.007973 -0.106551
v 0.053790 0.008138 -0.106355
vn 1.0000 -0.0000 -0.0000
vn 1.0000 0.0002 -0.0000
vn 1.0000 0.0001 -0.0000
vn 0.0001 0.1180 0.9930
vn -0.0000 0.0935 0.9956
vn -0.0000 -0.0000 1.0000
vn -0.0000 -1.0000 -0.0000
vn -0.0000 0.1245 0.9922
vn 0.0002 0.2601 0.9656
vn -0.0000 0.2378 0.9713
vn -0.0000 0.1335 0.9910
vn -0.0009 0.0695 0.9976
vn -0.0014 0.0827 0.9966
vn -1.0000 -0.0000 0.0023
vn 0.0003 -0.7107 -0.7035
vn -0.0011 0.2059 0.9786
vn -1.0000 0.0005 0.0024
vn -1.0000 0.0002 0.0023
vn 0.0002 0.2656 0.9641
vn -0.0000 0.3076 0.9515
vn -0.0008 0.3510 0.9364
vn -0.0010 0.3557 0.9346
vn -1.0000 0.0009 0.0024
vn -1.0000 -0.0000 -0.0000
vn -0.0000 -0.0000 -1.0000
vn -1.0000 0.0013 0.0024
vn -1.0000 0.0018 0.0025
vn -1.0000 0.0025 0.0025
vn -1.0000 0.0033 0.0025
vn -1.0000 0.0047 0.0025
vn -1.0000 0.0067 0.0025
vn -0.9999 0.0120 0.0026
vn -0.9994 0.0342 0.0026
vn -0.0000 1.0000 -0.0000
vn 0.0002 0.3994 0.9168
vn 0.0001 0.3888 0.9213
vn -0.0000 0.3745 0.9272
vn 0.0002 0.4058 0.9140
vn -0.0000 0.4374 0.8993
vn -0.0005 0.4593 0.8883
vn -0.0017 0.4806 0.8769
vn -0.0000 0.1180 -0.9930
vn 0.0001 0.5353 0.8446
vn 0.0001 0.5379 0.8430
vn -0.0000 0.5453 0.8382
vn -0.0012 0.5929 0.8053
vn -0.0010 0.5963 0.8027
vn -0.0000 0.6255 0.7802
vn 0.0002 0.6485 0.7612
vn 0.0002 0.6654 0.7465
vn 0.0001 0.6736 0.7391
vn -0.0011 0.7106 0.7036
vn -0.0008 0.7155 0.6986
vn -0.0000 0.7371 0.6757
vn 0.0002 0.7574 0.6529
vn -0.0000 0.7754 0.6315
vn -0.0009 0.7963 0.6049
vn -0.0000 0.8205 0.5717
vn 0.0003 0.8430 0.5379
vn 0.0001 0.8597 0.5108
vn -0.0000 0.8676 0.4973
vn -0.0007 0.8793 0.4763
vn -0.0007 0.8794 0.4761
vn -0.0003 0.8901 0.4558
vn -0.0000 0.8962 0.4436
vn 0.0003 0.9158 0.4015
vn 0.0002 0.9204 0.3910
vn -0.0011 0.9352 0.3540
vn -0.0006 0.9389 0.3442
vn -0.0001 0.9477 0.3191
vn -0.0000 0.9497 0.3133
vn 0.0003 0.9650 0.2622
vn 0.0003 0.9654 0.2608
vn -0.0000 0.9718 0.2357
vn -0.0009 0.9780 0.2085
vn -0.0000 0.9888 0.1490
vn 0.0001 0.9932 0.1164
vn 0.0001 0.9939 0.1100
vn -0.0011 0.9972 0.0754
vn -0.0009 0.9976 0.0693
vn -0.0000 0.9932 -0.1164
vn 0.0002 0.5156 0.8568
vn -0.0000 0.4743 0.8804
vn 0.0001 0.5321 0.8467
vn -0.0000 0.2548 -0.9670
vn -0.0000 0.5585 0.8295
vn -0.0000 0.6932 0.7207
vn -0.0000 0.9332 0.3593
vn -0.0005 0.9389 0.3442
vn -0.0000 0.9956 0.0938
vn 0.0002 0.9935 -0.1135
vn -0.0000 0.9657 -0.2596
vn -0.0000 0.2617 -0.9651
vn -0.0000 0.2648 -0.9643
vn -0.0000 0.9652 -0.2615
vn -0.0000 0.9651 -0.2618
vn -0.0001 0.9646 -0.2637
vn -0.0000 0.3958 -0.9184
vn -0.0000 0.3973 -0.9177
vn -0.0000 0.9623 -0.2721
vn -0.0000 0.9205 -0.3908
vn -0.0000 0.9176 -0.3975
vn -0.0000 0.9164 -0.4004
vn -0.0000 0.4121 -0.9111
vn -0.0000 0.4173 -0.9088
vn -0.0000 0.9142 -0.4053
vn -0.0000 0.9154 -0.4026
vn -0.0000 0.5279 -0.8493
vn -0.0000 0.8539 -0.5204
vn -0.0000 0.8494 -0.5278
vn -0.0001 0.8488 -0.5286
vn -0.0000 0.6464 -0.7630
vn -0.0000 0.6441 -0.7650
vn -0.0000 0.6471 -0.7624
vn 0.0001 0.6535 -0.7569
vn -0.0000 0.8468 -0.5320
vn -0.0000 0.8347 -0.5507
vn -0.0002 0.8476 -0.5306
vn -0.0000 0.6613 -0.7501
vn -0.0000 0.7527 -0.6583
vn -0.0000 0.7558 -0.6548
vn -0.0000 0.7611 -0.6487
vn -0.0000 0.7625 -0.6470
s 0
f 1//1 2//1 7//1
f 1//2 7//2 15//2
f 1//1 15//1 22//1
f 1//1 22//1 37//1
f 1//1 37//1 65//1
f 1//1 65//1 71//1
f 1//1 71//1 76//1
f 1//1 76//1 81//1
f 1//1 81//1 85//1
f 1//1 85//1 91//1
f 1//1 91//1 96//1
f 1//1 96//1 92//1
f 1//1 92//1 86//1
f 1//1 86//1 82//1
f 1//1 82//1 78//1
f 1//3 78//3 77//3
f 1//1 77//1 73//1
f 1//1 73//1 68//1
f 1//1 68//1 67//1
f 1//1 67//1 58//1
f 1//1 58//1 56//1
f 1//1 56//1 55//1
f 1//1 55//1 52//1
f 1//1 52//1 49//1
f 1//1 49//1 48//1
f 1//1 48//1 46//1
f 1//1 46//1 43//1
f 1//1 43//1 42//1
f 1//1 42//1 39//1
f 1//1 39//1 38//1
f 1//1 38//1 63//1
f 1//1 63//1 33//1
f 1//1 33//1 32//1
f 1//1 32//1 17//1
f 1//1 17//1 9//1
f 1//1 9//1 3//1
f 1//4 3//4 4//4
f 1//5 4//5 5//5
f 1//6 5//6 12//6
f 1//6 12//6 6//6
f 1//6 6//6 2//6
f 2//7 6//7 13//7
f 2//7 13//7 21//7
f 2//7 21//7 14//7
f 2//7 14//7 7//7
f 3//8 8//8 4//8
f 3//9 9//9 10//9
f 3//10 10//10 11//10
f 3//11 11//11 8//11
f 4//12 12//12 5//12
f 4//13 8//13 12//13
f 6//14 12//14 16//14
f 6//14 16//14 13//14
f 7//15 14//15 15//15
f 8//16 11//16 10//16
f 8//17 10//17 16//17
f 8//18 16//18 12//18
f 9//19 17//19 10//19
f 10//20 17//20 18//20
f 10//21 18//21 19//21
f 10//22 19//22 20//22
f 10//23 20//23 16//23
f 13//24 16//24 31//24
f 13//24 31//24 62//24
f 13//24 62//24 69//24
f 13//24 69//24 74//24
f 13//24 74//24 79//24
f 13//24 79//24 83//24
f 13//24 83//24 88//24
f 13//24 88//24 93//24
f 13//24 93//24 95//24
f 13//24 95//24 94//24
f 13//24 94//24 89//24
f 13//24 89//24 84//24
f 13//24 84//24 80//24
f 13//24 80//24 75//24
f 13//24 75//24 70//24
f 13//24 70//24 64//24
f 13//24 64//24 36//24
f 13//24 36//24 21//24
f 14//25 21//25 36//25
f 14//25 36//25 22//25
f 14//25 22//25 15//25
f 16//26 20//26 23//26
f 16//27 23//27 24//27
f 16//28 24//28 25//28
f 16//29 25//29 26//29
f 16//30 26//30 27//30
f 16//31 27//31 28//31
f 16//32 28//32 29//32
f 16//33 29//33 30//33
f 16//34 30//34 60//34
f 16//34 60//34 58//34
f 16//34 58//34 67//34
f 16//34 67//34 61//34
f 16//34 61//34 31//34
f 17//35 32//35 20//35
f 17//36 20//36 19//36
f 17//37 19//37 18//37
f 20//38 32//38 33//38
f 20//39 33//39 34//39
f 20//40 34//40 35//40
f 20//41 35//41 23//41
f 22//42 36//42 64//42
f 22//42 64//42 37//42
f 23//43 35//43 38//43
f 23//44 38//44 39//44
f 23//45 39//45 40//45
f 23//46 40//46 24//46
f 24//47 40//47 41//47
f 24//48 41//48 39//48
f 24//49 39//49 42//49
f 24//50 42//50 43//50
f 24//51 43//51 44//51
f 24//52 44//52 25//52
f 25//53 44//53 45//53
f 25//54 45//54 43//54
f 25//55 43//55 46//55
f 25//56 46//56 47//56
f 25//57 47//57 26//57
f 26//58 47//58 46//58
f 26//59 46//59 48//59
f 26//60 48//60 49//60
f 26//61 49//61 50//61
f 26//62 50//62 51//62
f 26//63 51//63 27//63
f 27//64 51//64 50//64
f 27//65 50//65 49//65
f 27//66 49//66 52//66
f 27//67 52//67 53//67
f 27//68 53//68 28//68
f 28//69 53//69 54//69
f 28//70 54//70 66//70
f 28//71 66//71 52//71
f 28//72 52//72 55//72
f 28//73 55//73 56//73
f 28//74 56//74 57//74
f 28//75 57//75 29//75
f 29//76 57//76 56//76
f 29//77 56//77 58//77
f 29//78 58//78 59//78
f 29//79 59//79 30//79
f 30//80 59//80 60//80
f 31//81 61//81 68//81
f 31//81 68//81 62//81
f 33//82 63//82 35//82
f 33//83 35//83 34//83
f 35//84 63//84 38//84
f 37//85 64//85 65//85
f 39//86 41//86 40//86
f 43//87 45//87 44//87
f 52//88 66//88 53//88
f 53//89 66//89 54//89
f 58//90 60//90 59//90
f 61//91 67//91 68//91
f 62//92 68//92 69//92
f 64//93 70//93 65//93
f 65//94 70//94 71//94
f 68//95 72//95 69//95
f 68//96 73//96 72//96
f 69//97 72//97 74//97
f 70//98 75//98 71//98
f 71//99 75//99 76//99
f 72//100 73//100 74//100
f 73//101 77//101 74//101
f 74//102 77//102 78//102
f 74//103 78//103 79//103
f 75//104 80//104 76//104
f 76//105 80//105 81//105
f 78//106 82//106 83//106
f 78//107 83//107 79//107
f 80//108 84//108 85//108
f 80//108 85//108 81//108
f 82//109 86//109 83//109
f 83//110 86//110 87//110
f 83//111 87//111 88//111
f 84//112 89//112 90//112
f 84//113 90//113 85//113
f 85//114 90//114 89//114
f 85//115 89//115 91//115
f 86//116 92//116 87//116
f 87//117 92//117 93//117
f 87//118 93//118 88//118
f 89//119 94//119 91//119
f 91//120 94//120 95//120
f 91//121 95//121 96//121
f 92//122 96//122 95//122
f 92//123 95//123 93//123
