# Blender 4.2.11 LTS
# www.blender.org
o tmp_export_interlocking-puzzle-1-2-collision.003
v 0.038058 0.049028 -0.000287
v 0.149971 0.048951 0.037489
v 0.150000 0.048951 -0.036712
v 0.038058 0.049028 -0.036661
v -0.038058 0.049028 -0.000287
v 0.149971 -0.007010 0.037489
v -0.150000 0.048951 0.037482
v 0.150000 -0.062983 -0.036712
v -0.149971 0.048951 -0.036712
v -0.038058 0.049028 -0.036661
v 0.094029 -0.062983 0.037482
v 0.149971 -0.062983 -0.002081
v -0.150000 -0.007010 0.037482
v -0.094029 -0.062983 0.037482
v -0.149971 -0.062983 -0.036712
v -0.149971 -0.062983 -0.002081
vn 0.0007 1.0000 -0.0000
vn -0.0000 1.0000 -0.0000
vn -0.0000 1.0000 0.0020
vn 1.0000 -0.0000 0.0004
vn -0.0000 -0.0000 1.0000
vn -0.0000 -0.0000 -1.0000
vn -0.0000 0.5522 -0.8337
vn -0.0000 0.5521 -0.8338
vn -0.0007 1.0000 -0.0000
vn 0.5001 -0.4999 0.7071
vn 1.0000 -0.0006 0.0008
vn -0.0000 -0.0001 1.0000
vn -1.0000 -0.0000 -0.0004
vn -0.0000 -1.0000 -0.0000
vn -1.0000 -0.0005 -0.0000
vn -0.5000 -0.5000 0.7071
s 0
f 1//1 2//1 3//1
f 1//1 3//1 4//1
f 1//2 4//2 10//2
f 1//2 10//2 5//2
f 1//3 5//3 2//3
f 2//4 6//4 8//4
f 2//4 8//4 3//4
f 2//3 5//3 7//3
f 2//5 7//5 13//5
f 2//5 13//5 6//5
f 3//6 8//6 15//6
f 3//6 15//6 9//6
f 3//7 9//7 10//7
f 3//8 10//8 4//8
f 5//9 10//9 7//9
f 6//10 11//10 12//10
f 6//11 12//11 8//11
f 6//5 13//5 14//5
f 6//12 14//12 11//12
f 7//9 10//9 9//9
f 7//13 9//13 15//13
f 7//13 15//13 13//13
f 8//14 12//14 11//14
f 8//14 11//14 14//14
f 8//14 14//14 16//14
f 8//14 16//14 15//14
f 13//15 15//15 16//15
f 13//16 16//16 14//16
