# Blender 4.2.11 LTS
# www.blender.org
o tmp_export_interlocking-puzzle-1-2-collision.004
v 0.150000 0.062993 -0.036712
v 0.149971 0.062993 -0.002081
v 0.149971 0.007014 0.037489
v 0.150000 -0.048944 -0.036712
v -0.149971 0.062993 -0.036712
v 0.094029 0.062993 0.037482
v -0.094029 0.062993 0.037482
v -0.150000 0.007014 0.037482
v 0.149971 -0.048944 0.037489
v 0.038058 -0.049053 -0.000287
v 0.038058 -0.049053 -0.036661
v -0.149971 -0.048944 -0.036712
v -0.149971 0.062993 -0.002081
v -0.150000 -0.048944 0.037482
v -0.038058 -0.049053 -0.000287
v -0.038058 -0.049053 -0.036661
vn 1.0000 0.0006 0.0008
vn 1.0000 -0.0000 0.0004
vn -0.0000 -0.0000 -1.0000
vn -0.0000 1.0000 -0.0000
vn 0.5001 0.4999 0.7071
vn -0.0000 0.0001 1.0000
vn -0.0000 -0.0000 1.0000
vn 0.0010 -1.0000 -0.0000
vn -0.0000 -0.4205 -0.9073
vn -1.0000 -0.0000 -0.0004
vn -1.0000 0.0005 -0.0000
vn -0.5001 0.5000 0.7071
vn -0.0000 -1.0000 0.0029
vn -0.0000 -1.0000 -0.0000
vn -0.0010 -1.0000 -0.0000
s 0
f 1//1 2//1 3//1
f 1//2 3//2 9//2
f 1//2 9//2 4//2
f 1//3 4//3 12//3
f 1//3 12//3 5//3
f 1//4 5//4 13//4
f 1//4 13//4 7//4
f 1//4 7//4 6//4
f 1//4 6//4 2//4
f 2//5 6//5 3//5
f 3//6 6//6 7//6
f 3//7 7//7 8//7
f 3//7 8//7 14//7
f 3//7 14//7 9//7
f 4//8 9//8 10//8
f 4//8 10//8 11//8
f 4//9 11//9 16//9
f 4//9 16//9 12//9
f 5//10 12//10 14//10
f 5//10 14//10 8//10
f 5//11 8//11 13//11
f 7//12 13//12 8//12
f 9//13 14//13 15//13
f 9//13 15//13 10//13
f 10//14 15//14 16//14
f 10//14 16//14 11//14
f 12//15 16//15 14//15
f 14//15 16//15 15//15
