# Blender 4.2.11 LTS
# www.blender.org
o tmp_export_bt_cube3x3_bricks.006
v 1.499802 5.952820 -17.547619
v -0.000198 4.452820 -17.547619
v 1.499802 4.452820 -19.047619
v 1.499802 5.952820 4.452381
v -0.000198 4.452820 4.452381
v 23.499802 5.952820 -17.547619
v 23.499802 5.952820 4.452381
v 24.999802 4.452820 -17.547619
v 23.499802 4.452820 5.952381
v 24.999802 4.452820 4.452381
v 24.999802 -17.547180 4.452381
v 24.999802 -17.547180 -17.547619
v 23.499802 -17.547180 5.952381
v 23.499802 -19.047180 -17.547619
v 23.499802 -19.047180 4.452381
v 1.499802 -17.547180 5.952381
v 1.499802 -19.047180 4.452381
v -0.000198 -17.547180 -17.547619
v -0.000198 -17.547180 4.452381
v 1.499802 -19.047180 -17.547619
v 1.499802 -17.547180 -19.047619
v 23.499802 -17.547180 -19.047619
v 23.499802 4.452820 -19.047619
v -1.500198 -17.547180 5.952381
v -1.500198 -19.047180 4.452381
v -1.500198 -19.047180 -17.547619
v -1.500198 4.452820 5.952381
v -1.500198 5.952820 4.452381
v -23.500198 4.452820 5.952381
v -23.500198 5.952820 4.452381
v -23.500198 5.952820 -17.547619
v -25.000198 4.452820 4.452381
v -23.500198 7.452820 5.952381
v -25.000198 7.452820 4.452381
v -25.000198 7.452820 -17.547619
v -23.500198 29.452820 -19.047619
v -25.000198 29.452820 -17.547619
v -23.500198 7.452820 -19.047619
v -25.000198 29.452820 4.452381
v -23.500198 29.452820 5.952381
v -23.500198 30.952820 -17.547619
v -23.500198 30.952820 4.452381
v -1.500198 29.452820 5.952381
v -1.500198 30.952820 4.452381
v -1.500198 30.952820 -17.547619
v -0.000198 29.452820 -17.547619
v -0.000198 29.452820 4.452381
v -0.000198 7.452820 4.452381
v -1.500198 7.452820 5.952381
v -1.500198 5.952820 -17.547619
v -0.000198 7.452820 -17.547619
v -1.500198 7.452820 -19.047619
v -1.500198 29.452820 -19.047619
v -23.500198 4.452820 -19.047619
v -1.500198 4.452820 -19.047619
v -23.500198 -17.547180 -19.047619
v -1.500198 -17.547180 -19.047619
v -23.500198 -19.047180 -17.547619
v -25.000198 -17.547180 -17.547619
v -23.500198 -19.047180 4.452381
v -23.500198 -17.547180 5.952381
v -25.000198 -17.547180 4.452381
v -25.000198 4.452820 -17.547619
v 1.499802 -19.047180 7.452381
v -0.000198 -17.547180 7.452381
v 1.499802 4.452820 5.952381
v 1.499802 5.952820 7.452381
v -0.000198 4.452820 7.452381
v 23.499802 5.952820 7.452381
v 24.999802 4.452820 7.452381
v 23.499802 5.952820 29.452381
v 23.499802 4.452820 30.952381
v 24.999802 4.452820 29.452381
v 1.499802 5.952820 29.452381
v 1.499802 4.452820 30.952381
v -0.000198 4.452820 29.452381
v -0.000198 -17.547180 29.452381
v 1.499802 -17.547180 30.952381
v 1.499802 -19.047180 29.452381
v 23.499802 -17.547180 30.952381
v 23.499802 -19.047180 29.452381
v 24.999802 -17.547180 29.452381
v 23.499802 -19.047180 7.452381
v 24.999802 -17.547180 7.452381
vn -0.7071 0.7071 -0.0000
vn -0.5774 0.5774 -0.5774
vn -0.0000 0.7071 -0.7071
vn -0.0000 1.0000 -0.0000
vn 0.7071 0.7071 -0.0000
vn -0.0000 0.7071 0.7071
vn 0.5774 0.5774 0.5774
vn 1.0000 -0.0000 -0.0000
vn 0.7071 -0.0000 0.7071
vn 0.7071 -0.7071 -0.0000
vn 0.5774 -0.5774 0.5774
vn -0.0000 -0.7071 0.7071
vn -0.0000 -1.0000 -0.0000
vn -0.7071 -0.7071 -0.0000
vn -0.5774 -0.5774 0.5774
vn -0.0000 -0.7071 -0.7071
vn -0.5774 -0.5774 -0.5774
vn 0.7071 -0.0000 -0.7071
vn 0.5774 -0.5774 -0.5774
vn -0.0000 -0.0000 -1.0000
vn 0.5774 0.5774 -0.5774
vn -0.7071 -0.0000 -0.7071
vn -0.7071 -0.0000 0.7071
vn -0.0000 -0.0000 1.0000
vn -0.5774 0.5774 0.5774
vn -1.0000 -0.0000 -0.0000
s 0
f 5//1 1//1 2//1
f 1//2 3//2 2//2
f 6//3 3//3 1//3
f 7//4 1//4 4//4
f 4//1 1//1 5//1
f 6//4 1//4 7//4
f 7//5 8//5 6//5
f 10//5 8//5 7//5
f 4//6 9//6 7//6
f 9//7 10//7 7//7
f 11//8 8//8 10//8
f 10//9 9//9 11//9
f 12//8 8//8 11//8
f 11//10 14//10 12//10
f 11//9 9//9 13//9
f 13//11 15//11 11//11
f 15//10 14//10 11//10
f 13//12 16//12 15//12
f 17//13 14//13 15//13
f 15//12 16//12 17//12
f 17//14 18//14 20//14
f 19//14 18//14 17//14
f 20//13 14//13 17//13
f 16//15 19//15 17//15
f 22//16 20//16 21//16
f 20//17 18//17 21//17
f 14//16 20//16 22//16
f 12//18 22//18 8//18
f 12//19 14//19 22//19
f 21//20 23//20 22//20
f 8//18 22//18 23//18
f 3//20 23//20 21//20
f 23//3 3//3 6//3
f 6//21 8//21 23//21
f 21//22 18//22 3//22
f 19//10 26//10 18//10
f 19//23 16//23 5//23
f 19//9 27//9 24//9
f 24//11 25//11 19//11
f 25//10 26//10 19//10
f 5//9 27//9 19//9
f 30//6 27//6 28//6
f 27//7 5//7 28//7
f 27//24 29//24 24//24
f 29//6 27//6 30//6
f 29//25 30//25 32//25
f 30//14 35//14 31//14
f 30//1 31//1 32//1
f 28//12 33//12 30//12
f 33//15 34//15 30//15
f 34//14 35//14 30//14
f 31//17 35//17 38//17
f 36//22 35//22 37//22
f 38//22 35//22 36//22
f 37//26 35//26 39//26
f 39//26 35//26 34//26
f 39//23 33//23 40//23
f 40//25 42//25 39//25
f 39//1 41//1 37//1
f 42//1 41//1 39//1
f 34//23 33//23 39//23
f 40//6 43//6 42//6
f 44//4 41//4 42//4
f 42//6 43//6 44//6
f 45//4 41//4 44//4
f 44//5 46//5 45//5
f 47//5 46//5 44//5
f 43//7 47//7 44//7
f 48//8 46//8 47//8
f 47//9 43//9 48//9
f 28//10 50//10 48//10
f 49//11 28//11 48//11
f 51//8 46//8 48//8
f 48//9 43//9 49//9
f 48//10 50//10 51//10
f 51//18 52//18 46//18
f 51//19 50//19 52//19
f 52//16 31//16 38//16
f 50//16 31//16 52//16
f 38//20 53//20 52//20
f 46//18 52//18 53//18
f 36//20 53//20 38//20
f 53//3 36//3 45//3
f 45//21 46//21 53//21
f 50//3 54//3 31//3
f 55//3 54//3 50//3
f 50//21 2//21 55//21
f 28//5 2//5 50//5
f 54//20 55//20 56//20
f 56//20 55//20 57//20
f 2//18 57//18 55//18
f 18//18 57//18 2//18
f 18//19 26//19 57//19
f 26//16 58//16 57//16
f 57//16 58//16 56//16
f 58//17 59//17 56//17
f 60//14 59//14 58//14
f 58//13 26//13 60//13
f 60//13 26//13 25//13
f 62//14 59//14 60//14
f 25//12 61//12 60//12
f 61//15 62//15 60//15
f 32//26 59//26 62//26
f 62//23 61//23 32//23
f 24//24 29//24 61//24
f 32//23 61//23 29//23
f 24//12 61//12 25//12
f 54//22 59//22 63//22
f 56//22 59//22 54//22
f 63//26 59//26 32//26
f 32//1 31//1 63//1
f 31//2 54//2 63//2
f 49//12 33//12 28//12
f 49//24 40//24 33//24
f 43//24 40//24 49//24
f 45//3 36//3 41//3
f 41//2 36//2 37//2
f 5//5 2//5 28//5
f 3//22 18//22 2//22
f 13//16 64//16 16//16
f 64//17 65//17 16//17
f 16//22 65//22 66//22
f 5//23 16//23 66//23
f 66//25 4//25 5//25
f 66//6 9//6 4//6
f 9//3 66//3 69//3
f 69//3 66//3 67//3
f 67//2 66//2 68//2
f 66//22 65//22 68//22
f 71//5 70//5 69//5
f 69//21 70//21 9//21
f 69//4 67//4 71//4
f 73//5 70//5 71//5
f 74//6 72//6 71//6
f 72//7 73//7 71//7
f 71//4 67//4 74//4
f 75//6 72//6 74//6
f 75//25 74//25 76//25
f 74//1 67//1 76//1
f 76//23 78//23 75//23
f 76//1 67//1 68//1
f 76//26 65//26 77//26
f 77//23 78//23 76//23
f 68//26 65//26 76//26
f 80//24 75//24 78//24
f 81//12 78//12 79//12
f 78//15 77//15 79//15
f 80//12 78//12 81//12
f 79//13 83//13 81//13
f 80//11 81//11 82//11
f 81//10 83//10 82//10
f 83//16 64//16 13//16
f 84//19 83//19 13//19
f 82//10 83//10 84//10
f 64//13 83//13 79//13
f 84//18 13//18 70//18
f 84//8 70//8 82//8
f 82//8 70//8 73//8
f 82//9 72//9 80//9
f 73//9 72//9 82//9
f 72//24 75//24 80//24
f 77//14 65//14 79//14
f 79//14 65//14 64//14
f 70//18 13//18 9//18
