# Blender 4.2.11 LTS
# www.blender.org
o tmp_export_interlocking-puzzle-2-1-collision.003
v -0.037507 0.135486 -0.022159
v -0.037500 0.135486 0.014779
v 0.037485 0.135486 -0.022159
v -0.037500 -0.090324 -0.022159
v -0.037500 -0.090324 0.014779
v 0.037485 0.135486 0.014775
v -0.037434 -0.090324 0.014779
v 0.037493 -0.090324 -0.022159
v 0.037485 -0.090324 0.014775
v 0.037493 -0.090324 0.014750
vn -0.0000 1.0000 -0.0000
vn -0.0000 -0.0000 -1.0000
vn -1.0000 -0.0000 -0.0000
vn -1.0000 -0.0000 0.0002
vn -0.0000 -0.0000 1.0000
vn 1.0000 -0.0000 -0.0000
vn -0.0000 -1.0000 -0.0000
vn -0.0000 -1.0000 -0.0004
vn 0.9604 -0.0000 0.2788
s 0
f 1//1 2//1 6//1
f 1//1 6//1 3//1
f 1//2 3//2 8//2
f 1//2 8//2 4//2
f 1//3 4//3 5//3
f 1//4 5//4 2//4
f 2//5 5//5 7//5
f 2//5 7//5 6//5
f 3//6 6//6 10//6
f 3//6 10//6 8//6
f 4//7 8//7 10//7
f 4//8 10//8 9//8
f 4//7 9//7 7//7
f 4//7 7//7 5//7
f 6//5 7//5 9//5
f 6//9 9//9 10//9
