# Blender 4.2.11 LTS
# www.blender.org
o tmp_export_interlocking-puzzle-2-1-collision.001
v -0.040910 0.023546 -0.037340
v -0.040903 -0.013503 -0.037340
v -0.040903 -0.013503 -0.000406
v -0.040903 -0.013391 0.037645
v -0.040903 0.023546 0.037645
v 0.034082 0.023546 -0.037340
v 0.034082 -0.013503 -0.037340
v 0.034090 -0.013503 -0.000406
v 0.034090 -0.013391 0.037645
v 0.034090 0.023546 0.037645
v 0.034090 -0.013391 -0.000406
vn -1.0000 -0.0002 -0.0000
vn -1.0000 -0.0000 0.0001
vn -0.0000 1.0000 -0.0000
vn -0.0000 -0.0000 -1.0000
vn -0.0000 -1.0000 -0.0000
vn -0.0000 -1.0000 0.0030
vn -0.0000 -0.0000 1.0000
vn 1.0000 0.0001 -0.0001
vn 1.0000 -0.0000 -0.0002
vn 1.0000 -0.0000 -0.0000
s 0
f 1//1 2//1 3//1
f 1//1 3//1 4//1
f 1//2 4//2 5//2
f 1//3 5//3 10//3
f 1//3 10//3 6//3
f 1//4 6//4 7//4
f 1//4 7//4 2//4
f 2//5 7//5 8//5
f 2//5 8//5 3//5
f 3//6 8//6 9//6
f 3//6 9//6 4//6
f 4//7 9//7 10//7
f 4//7 10//7 5//7
f 6//8 10//8 11//8
f 6//9 11//9 8//9
f 6//9 8//9 7//9
f 8//10 11//10 10//10
f 8//10 10//10 9//10
