# Blender 4.2.11 LTS
# www.blender.org
o tmp_export_1-collision.001
v 0.081830 0.081766 0.051737
v 0.081830 -0.068234 0.051737
v 0.081816 0.081766 -0.064106
v 0.081595 0.081766 0.051737
v 0.081816 -0.068234 -0.064106
v -0.068155 -0.068234 0.051737
v -0.068170 0.081766 -0.064094
v -0.068170 0.081766 -0.054024
v -0.068067 -0.067896 0.051737
v -0.068170 -0.068234 -0.064094
v -0.068155 -0.067999 0.051737
vn 1.0000 -0.0000 -0.0001
vn -0.0000 1.0000 -0.0000
vn -0.0000 -0.0000 1.0000
vn -0.0003 -0.0000 1.0000
vn -0.0000 -1.0000 -0.0000
vn -0.0001 -0.0000 -1.0000
vn -0.4997 0.4997 0.7076
vn -1.0000 -0.0000 0.0001
vn -1.0000 -0.0000 -0.0000
vn -0.5583 0.4785 0.6777
s 0
f 1//1 2//1 5//1
f 1//1 5//1 3//1
f 1//2 3//2 7//2
f 1//2 7//2 8//2
f 1//2 8//2 4//2
f 1//3 4//3 9//3
f 1//4 9//4 11//4
f 1//3 11//3 6//3
f 1//3 6//3 2//3
f 2//5 6//5 10//5
f 2//5 10//5 5//5
f 3//6 5//6 10//6
f 3//6 10//6 7//6
f 4//7 8//7 9//7
f 6//8 11//8 8//8
f 6//8 8//8 10//8
f 7//9 10//9 8//9
f 8//10 11//10 9//10
