# Blender 4.2.11 LTS
# www.blender.org
o tmp_export_1-collision.003
v -0.085698 -0.075004 -0.117058
v -0.085698 -0.074769 -0.117058
v 0.064288 -0.075004 -0.117058
v -0.085698 -0.075004 0.100942
v -0.085698 0.074996 -0.010801
v 0.064068 0.074996 -0.117058
v 0.064288 0.074996 -0.117058
v 0.064302 -0.075004 -0.004994
v -0.085624 -0.075004 0.101049
v -0.085698 0.074996 -0.004994
v 0.064302 0.074996 0.100942
v 0.064302 -0.075004 0.101049
v 0.064258 0.074893 0.101049
v 0.064302 0.074922 0.101049
vn -0.0001 -0.0000 -1.0000
vn -0.0000 -0.0000 -1.0000
vn -0.0000 -1.0000 -0.0000
vn -1.0000 -0.0000 -0.0000
vn -0.5008 0.5008 -0.7059
vn 1.0000 -0.0000 -0.0001
vn -0.7650 0.3715 0.5260
vn -0.0000 1.0000 -0.0000
vn 1.0000 -0.0000 -0.0000
vn -0.0000 -0.0000 1.0000
vn 0.0002 -0.0000 1.0000
vn -0.4999 0.4998 0.7073
vn -0.4364 0.6542 0.6178
vn -0.3715 0.7650 0.5260
s 0
f 1//1 2//1 6//1
f 1//2 6//2 7//2
f 1//2 7//2 3//2
f 1//3 3//3 8//3
f 1//3 8//3 12//3
f 1//3 12//3 9//3
f 1//3 9//3 4//3
f 1//4 4//4 10//4
f 1//4 10//4 5//4
f 1//4 5//4 2//4
f 2//5 5//5 6//5
f 3//6 7//6 8//6
f 4//7 9//7 10//7
f 5//8 10//8 11//8
f 5//8 11//8 7//8
f 5//8 7//8 6//8
f 7//6 11//6 8//6
f 8//9 11//9 14//9
f 8//9 14//9 12//9
f 9//10 12//10 14//10
f 9//11 14//11 13//11
f 9//12 13//12 10//12
f 10//13 13//13 14//13
f 10//14 14//14 11//14
