# Blender 4.2.11 LTS
# www.blender.org
o tmp_export_geometry_1.001
v -0.000000 2.300088 7.404138
v 0.448490 2.255509 7.404138
v -0.000000 2.300088 6.776173
v -0.448491 2.255509 7.404138
v -0.874916 0.610595 7.404339
v 0.448490 2.255509 6.776173
v 0.879869 2.124924 7.404138
v 0.194976 0.980734 5.356688
v -0.000000 0.999646 5.356688
v -0.194976 0.980734 5.356688
v -0.448491 2.255509 6.776173
v -0.879870 2.124924 7.404138
v -1.277477 1.912387 7.404138
v -1.626002 1.626001 7.404138
v -1.071243 0.432279 7.404339
v -0.186871 -1.050980 7.404339
v 2.124924 0.879869 7.404138
v 1.912387 1.277476 7.404138
v 1.626002 1.626001 7.404138
v 1.277476 1.912387 7.404138
v 0.879869 2.124924 6.776173
v 0.365636 0.928950 5.356688
v -0.382298 0.923547 5.356688
v -0.879870 2.124924 6.776173
v -1.277477 1.912387 6.776173
v -1.626002 1.626001 6.776173
v -1.912387 1.277476 7.404138
v -2.124925 0.879869 7.404138
v -2.255510 0.448490 7.404138
v -2.300089 -0.000000 7.404138
v -2.255510 -0.448491 7.404138
v -2.124925 -0.879870 7.404138
v -0.451642 -1.063138 7.404339
v -0.000000 -2.300089 7.404138
v 0.448490 -2.255510 7.404138
v 0.879869 -2.124925 7.404138
v 1.277476 -1.912388 7.404138
v 1.626002 -1.626002 7.404138
v 1.912387 -1.277477 7.404138
v 2.124924 -0.879870 7.404138
v 2.255509 -0.448491 7.404138
v 2.300088 -0.000000 7.404138
v 2.255509 0.448490 7.404138
v 2.124924 0.879869 6.776173
v 1.912387 1.277476 6.776173
v 1.626002 1.626001 6.776173
v 1.277476 1.912387 6.776173
v 0.555209 0.831237 5.356688
v 0.382297 0.923547 5.356688
v -0.398058 0.915442 5.356688
v -0.555209 0.831237 5.356688
v -0.706958 0.706957 5.356688
v -1.912387 1.277476 6.776173
v -0.718215 0.693448 5.356688
v -2.124925 0.879869 6.776173
v -2.255510 0.448490 6.776173
v -2.300089 -0.000000 6.776173
v -2.255510 -0.448491 6.776173
v -1.912387 -1.277477 7.404138
v -2.124925 -0.879870 6.776173
v -0.448491 -2.255510 7.404138
v -1.626002 -1.626002 7.404138
v -1.277477 -1.912388 7.404138
v -0.879870 -2.124925 7.404138
v -0.000000 -2.300089 6.776173
v 0.448490 -2.255510 6.776173
v 0.879869 -2.124925 6.776173
v 1.277476 -1.912388 6.776173
v 1.626002 -1.626002 6.776173
v 1.912387 -1.277477 6.776173
v 2.124924 -0.879870 6.776173
v 2.255509 -0.448491 6.776173
v 2.300088 -0.000000 6.776173
v 2.255509 0.448490 6.776173
v 0.980734 0.194976 5.356688
v 0.923547 0.382297 5.356688
v 0.915442 0.398057 5.356688
v 0.831237 0.555209 5.356688
v 0.706957 0.706957 5.356688
v 0.693448 0.718214 5.356688
v -0.831238 0.555209 5.356688
v -0.923548 0.382297 5.356688
v -0.928951 0.365636 5.356688
v -0.980735 0.194976 5.356688
v -0.999647 -0.000000 5.356688
v -0.980735 -0.194977 5.356688
v -1.912387 -1.277477 6.776173
v -0.923548 -0.382298 5.356688
v -0.915443 -0.398058 5.356688
v -0.448491 -2.255510 6.776173
v -1.626002 -1.626002 6.776173
v -1.277477 -1.912388 6.776173
v -0.879870 -2.124925 6.776173
v -0.194976 -0.980735 5.356688
v -0.000000 -0.999647 5.356688
v 0.194976 -0.980735 5.356688
v 0.382297 -0.923548 5.356688
v 0.398057 -0.915443 5.356688
v 0.555209 -0.831238 5.356688
v 0.706957 -0.706958 5.356688
v 0.718214 -0.693449 5.356688
v 0.831237 -0.555210 5.356688
v 0.923547 -0.382298 5.356688
v 0.928951 -0.365637 5.356688
v 0.980734 -0.194977 5.356688
v 0.999646 -0.000000 5.356688
v -0.831238 -0.555210 5.356688
v -0.706958 -0.706958 5.356688
v -0.693449 -0.718215 5.356688
v -0.555209 -0.831238 5.356688
v -0.382298 -0.923548 5.356688
v -0.365637 -0.928951 5.356688
vn 0.0989 0.9951 -0.0000
vn -0.0989 0.9951 -0.0000
vn -0.0000 0.0001 1.0000
vn 0.2897 0.9571 -0.0000
vn 0.0713 0.7355 -0.6738
vn -0.0713 0.7355 -0.6738
vn -0.0731 0.7355 -0.6736
vn 0.0731 0.7355 -0.6736
vn -0.2897 0.9571 -0.0000
vn -0.0001 0.0001 1.0000
vn -0.0000 -0.0000 1.0000
vn 0.0001 -0.0000 1.0000
vn 0.0001 0.0001 1.0000
vn 0.2141 0.7074 -0.6736
vn 0.4714 0.8819 -0.0000
vn 0.2146 0.7072 -0.6736
vn 0.0002 -0.0000 -1.0000
vn -0.0000 -0.0000 -1.0000
vn -0.2158 0.7067 -0.6738
vn -0.2141 0.7074 -0.6736
vn -0.4714 0.8819 -0.0000
vn -0.6349 0.7726 -0.0000
vn -0.7726 0.6349 -0.0000
vn -0.0002 0.0001 1.0000
vn -0.0002 -0.0000 1.0000
vn -0.0001 -0.0000 1.0000
vn -0.0001 -0.0001 1.0000
vn -0.0000 -0.0002 1.0000
vn -0.0000 -0.0001 1.0000
vn 0.0001 -0.0001 1.0000
vn 0.9571 0.2897 -0.0000
vn 0.8819 0.4714 -0.0000
vn 0.7726 0.6349 -0.0000
vn 0.6349 0.7726 -0.0000
vn 0.3484 0.6518 -0.6737
vn 0.3480 0.6519 -0.6737
vn 0.2278 0.7024 -0.6743
vn -0.3378 0.6567 -0.6742
vn -0.3484 0.6518 -0.6736
vn -0.3490 0.6514 -0.6737
vn -0.4682 0.5717 -0.6737
vn -0.4693 0.5711 -0.6736
vn -0.5677 0.4730 -0.6738
vn -0.5711 0.4693 -0.6735
vn -0.8819 0.4714 -0.0000
vn -0.9571 0.2897 -0.0000
vn -0.9951 0.0989 -0.0000
vn -0.9951 -0.0989 -0.0000
vn -0.9571 -0.2897 -0.0000
vn -0.8819 -0.4714 -0.0000
vn -0.0001 -0.0002 1.0000
vn -0.0989 -0.9951 -0.0000
vn 0.0989 -0.9951 -0.0000
vn 0.2897 -0.9571 -0.0000
vn 0.4714 -0.8819 -0.0000
vn 0.6349 -0.7726 -0.0000
vn 0.7726 -0.6349 -0.0000
vn 0.8819 -0.4714 -0.0000
vn 0.9571 -0.2897 -0.0000
vn 0.9951 -0.0989 -0.0000
vn 0.9951 0.0989 -0.0000
vn 0.7074 0.2141 -0.6736
vn 0.7067 0.2158 -0.6738
vn 0.6567 0.3378 -0.6742
vn 0.6518 0.3484 -0.6736
vn 0.6514 0.3490 -0.6737
vn 0.5717 0.4682 -0.6737
vn 0.5711 0.4693 -0.6736
vn 0.4730 0.5677 -0.6738
vn 0.4693 0.5711 -0.6735
vn 0.4677 0.5721 -0.6737
vn -0.5721 0.4677 -0.6737
vn -0.6518 0.3484 -0.6737
vn -0.6519 0.3480 -0.6737
vn -0.7024 0.2278 -0.6743
vn -0.7072 0.2146 -0.6736
vn -0.7074 0.2142 -0.6736
vn -0.7355 0.0731 -0.6736
vn -0.7355 -0.0713 -0.6738
vn -0.7355 -0.0731 -0.6736
vn -0.7355 0.0713 -0.6738
vn -0.7074 -0.2142 -0.6736
vn -0.7726 -0.6349 -0.0000
vn -0.7067 -0.2158 -0.6738
vn -0.6567 -0.3378 -0.6742
vn -0.6518 -0.3484 -0.6736
vn -0.2897 -0.9571 -0.0000
vn -0.6349 -0.7726 -0.0000
vn -0.4714 -0.8819 -0.0000
vn -0.0713 -0.7355 -0.6738
vn 0.0713 -0.7355 -0.6738
vn 0.0731 -0.7355 -0.6736
vn -0.0731 -0.7355 -0.6736
vn 0.2141 -0.7074 -0.6736
vn 0.2158 -0.7067 -0.6738
vn 0.3378 -0.6567 -0.6742
vn 0.3484 -0.6518 -0.6736
vn 0.3490 -0.6514 -0.6737
vn 0.4682 -0.5717 -0.6737
vn 0.4693 -0.5711 -0.6736
vn 0.5677 -0.4730 -0.6738
vn 0.5711 -0.4693 -0.6735
vn 0.5721 -0.4677 -0.6737
vn 0.6518 -0.3484 -0.6737
vn 0.6519 -0.3480 -0.6737
vn 0.7024 -0.2278 -0.6743
vn 0.7072 -0.2146 -0.6736
vn 0.7074 -0.2141 -0.6736
vn 0.7355 -0.0731 -0.6736
vn 0.7355 0.0713 -0.6738
vn 0.7355 0.0731 -0.6736
vn 0.7355 -0.0713 -0.6738
vn -0.6514 -0.3490 -0.6737
vn -0.5717 -0.4682 -0.6737
vn -0.5711 -0.4693 -0.6736
vn -0.2141 -0.7074 -0.6736
vn -0.4730 -0.5677 -0.6738
vn -0.4693 -0.5711 -0.6735
vn -0.4677 -0.5721 -0.6737
vn -0.3484 -0.6518 -0.6737
vn -0.3480 -0.6519 -0.6737
vn -0.2278 -0.7024 -0.6743
vn -0.2146 -0.7072 -0.6736
s 0
f 1//1 2//1 6//1
f 1//1 6//1 3//1
f 1//2 3//2 11//2
f 1//2 11//2 4//2
f 1//3 4//3 5//3
f 1//3 5//3 2//3
f 2//3 5//3 7//3
f 2//4 7//4 21//4
f 2//4 21//4 6//4
f 3//5 8//5 9//5
f 3//6 9//6 10//6
f 3//7 10//7 11//7
f 3//8 6//8 8//8
f 4//9 11//9 24//9
f 4//9 24//9 12//9
f 4//3 12//3 5//3
f 5//10 12//10 13//10
f 5//10 13//10 14//10
f 5//10 14//10 15//10
f 5//11 15//11 33//11
f 5//11 33//11 16//11
f 5//12 16//12 17//12
f 5//12 17//12 18//12
f 5//12 18//12 19//12
f 5//13 19//13 20//13
f 5//3 20//3 7//3
f 6//14 21//14 8//14
f 7//15 20//15 47//15
f 7//15 47//15 21//15
f 8//16 21//16 22//16
f 8//17 22//17 49//17
f 8//18 49//18 48//18
f 8//18 48//18 80//18
f 8//18 80//18 79//18
f 8//18 79//18 78//18
f 8//18 78//18 77//18
f 8//18 77//18 76//18
f 8//18 76//18 75//18
f 8//18 75//18 106//18
f 8//18 106//18 105//18
f 8//18 105//18 104//18
f 8//18 104//18 103//18
f 8//18 103//18 102//18
f 8//18 102//18 101//18
f 8//18 101//18 100//18
f 8//18 100//18 99//18
f 8//18 99//18 98//18
f 8//18 98//18 97//18
f 8//18 97//18 96//18
f 8//18 96//18 95//18
f 8//18 95//18 94//18
f 8//18 94//18 112//18
f 8//18 112//18 111//18
f 8//18 111//18 110//18
f 8//18 110//18 109//18
f 8//18 109//18 108//18
f 8//18 108//18 107//18
f 8//18 107//18 89//18
f 8//18 89//18 88//18
f 8//18 88//18 86//18
f 8//18 86//18 85//18
f 8//18 85//18 84//18
f 8//18 84//18 83//18
f 8//18 83//18 82//18
f 8//18 82//18 81//18
f 8//18 81//18 54//18
f 8//18 54//18 52//18
f 8//18 52//18 51//18
f 8//18 51//18 50//18
f 8//18 50//18 23//18
f 8//18 23//18 10//18
f 8//18 10//18 9//18
f 10//19 23//19 24//19
f 10//20 24//20 11//20
f 12//21 24//21 25//21
f 12//21 25//21 13//21
f 13//22 25//22 26//22
f 13//22 26//22 14//22
f 14//23 26//23 53//23
f 14//23 53//23 27//23
f 14//10 27//10 15//10
f 15//24 27//24 28//24
f 15//24 28//24 29//24
f 15//25 29//25 30//25
f 15//25 30//25 31//25
f 15//26 31//26 32//26
f 15//27 32//27 33//27
f 16//28 33//28 34//28
f 16//28 34//28 35//28
f 16//29 35//29 36//29
f 16//30 36//30 37//30
f 16//30 37//30 38//30
f 16//30 38//30 39//30
f 16//12 39//12 40//12
f 16//12 40//12 41//12
f 16//12 41//12 42//12
f 16//12 42//12 43//12
f 16//12 43//12 17//12
f 17//31 43//31 74//31
f 17//31 74//31 44//31
f 17//32 44//32 45//32
f 17//32 45//32 18//32
f 18//33 45//33 46//33
f 18//33 46//33 19//33
f 19//34 46//34 47//34
f 19//34 47//34 20//34
f 21//35 47//35 48//35
f 21//36 48//36 49//36
f 21//37 49//37 22//37
f 23//38 50//38 24//38
f 24//39 50//39 25//39
f 25//40 50//40 51//40
f 25//41 51//41 52//41
f 25//42 52//42 26//42
f 26//43 52//43 54//43
f 26//44 54//44 53//44
f 27//45 53//45 55//45
f 27//45 55//45 28//45
f 28//46 55//46 56//46
f 28//46 56//46 29//46
f 29//47 56//47 57//47
f 29//47 57//47 30//47
f 30//48 57//48 58//48
f 30//48 58//48 31//48
f 31//49 58//49 60//49
f 31//49 60//49 32//49
f 32//27 59//27 33//27
f 32//50 60//50 87//50
f 32//50 87//50 59//50
f 33//28 61//28 34//28
f 33//27 59//27 62//27
f 33//27 62//27 63//27
f 33//51 63//51 64//51
f 33//51 64//51 61//51
f 34//52 61//52 90//52
f 34//52 90//52 65//52
f 34//53 65//53 66//53
f 34//53 66//53 35//53
f 35//54 66//54 67//54
f 35//54 67//54 36//54
f 36//55 67//55 68//55
f 36//55 68//55 37//55
f 37//56 68//56 69//56
f 37//56 69//56 38//56
f 38//57 69//57 70//57
f 38//57 70//57 39//57
f 39//58 70//58 71//58
f 39//58 71//58 40//58
f 40//59 71//59 72//59
f 40//59 72//59 41//59
f 41//60 72//60 73//60
f 41//60 73//60 42//60
f 42//61 73//61 74//61
f 42//61 74//61 43//61
f 44//62 74//62 75//62
f 44//63 75//63 76//63
f 44//64 76//64 77//64
f 44//65 77//65 45//65
f 45//66 77//66 78//66
f 45//67 78//67 79//67
f 45//68 79//68 46//68
f 46//69 79//69 80//69
f 46//70 80//70 47//70
f 47//71 80//71 48//71
f 53//72 54//72 81//72
f 53//73 81//73 55//73
f 55//74 81//74 82//74
f 55//75 82//75 83//75
f 55//76 83//76 84//76
f 55//77 84//77 56//77
f 56//78 84//78 57//78
f 57//79 85//79 86//79
f 57//80 86//80 58//80
f 57//81 84//81 85//81
f 58//82 86//82 60//82
f 59//83 87//83 91//83
f 59//83 91//83 62//83
f 60//84 86//84 88//84
f 60//85 88//85 89//85
f 60//86 89//86 87//86
f 61//87 64//87 93//87
f 61//87 93//87 90//87
f 62//88 91//88 92//88
f 62//88 92//88 63//88
f 63//89 92//89 93//89
f 63//89 93//89 64//89
f 65//90 94//90 95//90
f 65//91 95//91 96//91
f 65//92 96//92 66//92
f 65//93 90//93 94//93
f 66//94 96//94 67//94
f 67//95 96//95 97//95
f 67//96 97//96 98//96
f 67//97 98//97 68//97
f 68//98 98//98 99//98
f 68//99 99//99 100//99
f 68//100 100//100 69//100
f 69//101 100//101 101//101
f 69//102 101//102 70//102
f 70//103 101//103 102//103
f 70//104 102//104 71//104
f 71//105 102//105 103//105
f 71//106 103//106 104//106
f 71//107 104//107 105//107
f 71//108 105//108 72//108
f 72//109 105//109 73//109
f 73//110 106//110 75//110
f 73//111 75//111 74//111
f 73//112 105//112 106//112
f 87//113 89//113 107//113
f 87//114 107//114 108//114
f 87//115 108//115 91//115
f 90//116 93//116 94//116
f 91//117 108//117 109//117
f 91//118 109//118 92//118
f 92//119 109//119 110//119
f 92//120 110//120 93//120
f 93//121 110//121 111//121
f 93//122 111//122 112//122
f 93//123 112//123 94//123
