# Blender 4.2.11 LTS
# www.blender.org
o tmp_export_interlocking-puzzle-2-2-collision.003
v -0.040627 -0.125450 -0.020520
v -0.040627 -0.125450 0.016414
v -0.040627 0.100360 -0.020520
v 0.034358 -0.125450 -0.020520
v 0.034358 -0.125450 0.016417
v 0.025078 0.100360 0.016417
v -0.040627 0.100360 0.016414
v 0.034358 0.100360 -0.020520
v 0.034358 0.100360 0.016417
vn -1.0000 -0.0000 -0.0000
vn -0.0000 -0.0000 -1.0000
vn -0.0000 -1.0000 -0.0000
vn -0.0000 -0.0000 1.0000
vn -0.0001 -0.0000 1.0000
vn -0.0000 1.0000 -0.0000
vn 1.0000 -0.0000 -0.0000
s 0
f 1//1 2//1 7//1
f 1//1 7//1 3//1
f 1//2 3//2 8//2
f 1//2 8//2 4//2
f 1//3 4//3 5//3
f 1//3 5//3 2//3
f 2//4 5//4 6//4
f 2//5 6//5 7//5
f 3//6 7//6 6//6
f 3//6 6//6 9//6
f 3//6 9//6 8//6
f 4//7 8//7 9//7
f 4//7 9//7 5//7
f 5//4 9//4 6//4
