# Blender 4.2.11 LTS
# www.blender.org
o tmp_export_interlocking-puzzle-2-2-collision.002
v -0.037493 -0.014693 -0.037604
v -0.037493 -0.014897 0.000446
v -0.037493 0.022243 -0.037604
v 0.037493 -0.014693 -0.037604
v -0.037493 -0.014897 0.037381
v 0.037493 -0.014897 0.000446
v -0.037493 0.022243 0.037381
v 0.037493 0.022243 -0.037604
v 0.037493 -0.014897 0.037381
v 0.037493 0.022243 0.037381
vn -1.0000 -0.0000 -0.0000
vn -0.0000 -0.0000 -1.0000
vn -0.0000 -1.0000 -0.0054
vn -0.0000 -1.0000 -0.0000
vn -0.0000 1.0000 -0.0000
vn 1.0000 -0.0000 -0.0000
vn -0.0000 -0.0000 1.0000
s 0
f 1//1 2//1 5//1
f 1//1 5//1 7//1
f 1//1 7//1 3//1
f 1//2 3//2 8//2
f 1//2 8//2 4//2
f 1//3 4//3 6//3
f 1//3 6//3 2//3
f 2//4 6//4 9//4
f 2//4 9//4 5//4
f 3//5 7//5 10//5
f 3//5 10//5 8//5
f 4//6 8//6 10//6
f 4//6 10//6 9//6
f 4//6 9//6 6//6
f 5//7 9//7 10//7
f 5//7 10//7 7//7
