# Blender 4.2.11 LTS
# www.blender.org
o tmp_export_interlocking-puzzle-2-2-collision.001
v 0.034094 0.013493 0.034455
v 0.034086 -0.023557 0.034455
v 0.034094 0.013493 0.029258
v -0.040906 0.013493 0.034455
v -0.040906 -0.023557 0.034455
v 0.034086 -0.023557 -0.040530
v 0.034086 0.013493 -0.002479
v 0.034086 0.013381 -0.040530
v -0.040906 0.013493 -0.002479
v -0.040906 -0.023557 -0.040530
v -0.040906 0.013381 -0.040530
vn 1.0000 -0.0002 -0.0000
vn -0.0000 1.0000 -0.0000
vn -0.0000 -0.0000 1.0000
vn -0.0000 -1.0000 -0.0000
vn 1.0000 -0.0000 -0.0001
vn 0.9970 0.0779 -0.0002
vn -1.0000 0.0001 -0.0000
vn -1.0000 -0.0000 -0.0000
vn -0.0000 -0.0000 -1.0000
vn -0.0000 1.0000 -0.0030
s 0
f 1//1 2//1 6//1
f 1//1 6//1 3//1
f 1//2 3//2 7//2
f 1//2 7//2 9//2
f 1//2 9//2 4//2
f 1//3 4//3 5//3
f 1//3 5//3 2//3
f 2//4 5//4 10//4
f 2//4 10//4 6//4
f 3//5 6//5 8//5
f 3//6 8//6 7//6
f 4//7 9//7 11//7
f 4//8 11//8 10//8
f 4//8 10//8 5//8
f 6//9 10//9 11//9
f 6//9 11//9 8//9
f 7//10 8//10 11//10
f 7//10 11//10 9//10
