# Blender 4.2.11 LTS
# www.blender.org
o tmp_export_piece_2-collision.004
v 0.032591 0.047223 0.036407
v 0.032521 0.046927 0.037712
v 0.033611 0.046407 0.037712
v 0.033790 0.046640 0.036407
v 0.032591 0.047223 -0.037086
v -0.044595 0.047223 0.036407
v 0.032342 0.046120 0.038753
v -0.044595 0.046927 0.037712
v -0.044595 0.046663 0.038054
v 0.033090 0.045755 0.038753
v 0.033611 0.045102 0.038753
v 0.034359 0.045467 0.037712
v 0.034623 0.045599 0.036407
v 0.033790 0.046640 -0.037086
v 0.033611 0.046407 -0.038391
v 0.032521 0.046927 -0.038391
v -0.044595 0.047223 -0.037086
v 0.032070 0.044947 0.039335
v 0.032342 0.044815 0.039335
v -0.044595 0.046120 0.038753
v 0.032521 0.044582 0.039335
v 0.032591 0.044294 0.039335
v 0.033790 0.044294 0.038753
v 0.034623 0.044294 0.037712
v 0.034927 0.044294 0.036407
v 0.034623 0.045599 -0.037086
v 0.033611 0.045102 -0.039432
v 0.033090 0.045755 -0.039432
v 0.032342 0.046120 -0.039432
v 0.034359 0.045467 -0.038391
v -0.044595 0.046927 -0.038391
v -0.044595 0.044947 0.039335
v 0.032591 -0.029199 0.039335
v 0.033790 -0.029199 0.038753
v 0.034623 -0.029199 0.037712
v 0.034927 0.044294 -0.037086
v 0.034927 -0.029199 0.036407
v 0.034623 0.044294 -0.038391
v 0.033790 0.044294 -0.039432
v 0.032591 0.044294 -0.040014
v 0.032521 0.044582 -0.040014
v 0.032342 0.044815 -0.040014
v 0.032070 0.044947 -0.040014
v -0.044595 0.046120 -0.039432
v -0.044595 0.010142 0.039335
v 0.032521 -0.029486 0.039335
v 0.033611 -0.030007 0.038753
v 0.034359 -0.030372 0.037712
v 0.034927 -0.029199 -0.037086
v 0.034623 -0.030504 0.036407
v 0.034623 -0.029199 -0.038391
v 0.033790 -0.029199 -0.039432
v 0.032591 -0.029199 -0.040014
v -0.044595 0.044947 -0.040014
v -0.044595 0.008969 0.038753
v -0.044571 -0.029199 0.036407
v -0.044275 -0.029199 0.037712
v -0.043443 -0.029199 0.038753
v -0.042236 -0.029199 0.039335
v 0.032342 -0.029719 0.039335
v 0.033090 -0.030659 0.038753
v 0.033611 -0.031311 0.037712
v 0.034623 -0.030504 -0.037086
v 0.034359 -0.030372 -0.038391
v 0.033790 -0.031545 0.036407
v 0.033611 -0.030007 -0.039432
v 0.032521 -0.029486 -0.040014
v -0.044595 0.010142 -0.040014
v -0.044595 0.008161 0.037704
v -0.044571 -0.029199 -0.037086
v -0.044275 -0.030504 0.036407
v -0.044595 0.007866 0.036407
v -0.044003 -0.030372 0.037712
v -0.043256 -0.030007 0.038753
v -0.042174 -0.029486 0.039335
v 0.032070 -0.029851 0.039335
v 0.032342 -0.031024 0.038753
v 0.032521 -0.031832 0.037712
v 0.032591 -0.032119 0.036407
v 0.033790 -0.031545 -0.037086
v 0.033611 -0.031311 -0.038391
v 0.033090 -0.030659 -0.039432
v 0.032342 -0.029719 -0.040014
v -0.042236 -0.029199 -0.040014
v -0.043443 -0.029199 -0.039432
v -0.044275 -0.029199 -0.038391
v -0.044595 0.008969 -0.039432
v -0.044275 -0.030504 -0.037086
v -0.044595 0.007866 -0.037086
v -0.044595 0.008161 -0.038391
v -0.043443 -0.031545 0.036407
v -0.043256 -0.031311 0.037712
v -0.042734 -0.030659 0.038753
v -0.041987 -0.029719 0.039335
v -0.041714 -0.029851 0.039335
v -0.041987 -0.031024 0.038753
v -0.042174 -0.031832 0.037712
v 0.032591 -0.032119 -0.037086
v -0.042236 -0.032119 0.036407
v 0.032521 -0.031832 -0.038391
v 0.032342 -0.031024 -0.039432
v 0.032070 -0.029851 -0.040014
v -0.042174 -0.029486 -0.040014
v -0.043256 -0.030007 -0.039432
v -0.044003 -0.030372 -0.038391
v -0.043256 -0.031311 -0.038391
v -0.043443 -0.031545 -0.037086
v -0.042236 -0.032119 -0.037086
v -0.042174 -0.031832 -0.038391
v -0.041987 -0.031024 -0.039432
v -0.041714 -0.029851 -0.040014
v -0.042734 -0.030659 -0.039432
v -0.041987 -0.029719 -0.040014
vn 0.4202 0.8800 0.2216
vn 0.4268 0.8783 0.2154
vn 0.4371 0.8994 -0.0000
vn -0.0000 1.0000 -0.0000
vn -0.0000 0.9754 0.2206
vn 0.3406 0.7135 0.6123
vn -0.0000 0.7913 0.6114
vn -0.0000 0.7900 0.6131
vn 0.6150 0.4917 0.6164
vn 0.6171 0.4907 0.6152
vn 0.7641 0.6076 0.2165
vn 0.7627 0.6104 0.2136
vn 0.3455 0.7074 0.6166
vn 0.7807 0.6249 -0.0000
vn 0.4268 0.8783 -0.2154
vn 0.4202 0.8800 -0.2216
vn -0.0000 0.9754 -0.2206
vn -1.0000 -0.0000 -0.0000
vn 0.1938 0.3999 0.8958
vn 0.1953 0.3998 0.8956
vn -0.0000 0.7893 0.6140
vn -0.0000 0.4448 0.8956
vn 0.3480 0.2782 0.8953
vn 0.3507 0.2695 0.8969
vn 0.4295 0.1047 0.8970
vn 0.4350 0.0964 0.8952
vn 0.7693 0.1705 0.6157
vn 0.7700 0.1738 0.6139
vn 0.9513 0.2147 0.2213
vn 0.9511 0.2213 0.2153
vn 0.9740 0.2266 -0.0000
vn 0.7627 0.6104 -0.2136
vn 0.6150 0.4917 -0.6164
vn 0.3455 0.7074 -0.6166
vn 0.3406 0.7135 -0.6123
vn 0.7641 0.6076 -0.2165
vn 0.6171 0.4907 -0.6152
vn -0.0000 0.7900 -0.6131
vn -0.0000 -0.0000 1.0000
vn 0.4371 -0.0000 0.8994
vn 0.7807 -0.0000 0.6249
vn 0.9740 -0.0000 0.2266
vn 1.0000 -0.0000 -0.0000
vn 0.9511 0.2213 -0.2153
vn 0.7700 0.1738 -0.6139
vn 0.7693 0.1705 -0.6157
vn 0.4350 0.0964 -0.8952
vn 0.4295 0.1047 -0.8970
vn 0.3507 0.2695 -0.8969
vn 0.3480 0.2782 -0.8953
vn 0.1953 0.3998 -0.8956
vn 0.1938 0.3999 -0.8958
vn -0.0000 0.4448 -0.8956
vn 0.9513 0.2147 -0.2213
vn 0.4295 -0.1047 0.8970
vn 0.4350 -0.0964 0.8952
vn 0.7693 -0.1705 0.6157
vn 0.9513 -0.2147 0.2213
vn 0.7700 -0.1738 0.6139
vn 0.9740 -0.0000 -0.2266
vn 0.9511 -0.2213 0.2153
vn 0.9740 -0.2266 -0.0000
vn 0.7807 -0.0000 -0.6249
vn 0.4371 -0.0000 -0.8994
vn 0.4370 -0.0000 -0.8994
vn -0.0001 -0.0000 -1.0000
vn -0.0000 -0.0000 -1.0000
vn -1.0000 -0.0007 0.0014
vn -0.9751 -0.0170 0.2211
vn -0.7803 -0.0321 0.6245
vn -0.4346 -0.0261 0.9002
vn 0.3507 -0.2695 0.8969
vn 0.6150 -0.4917 0.6164
vn 0.6171 -0.4907 0.6152
vn 0.3480 -0.2782 0.8953
vn 0.7641 -0.6076 0.2165
vn 0.9511 -0.2213 -0.2153
vn 0.9513 -0.2147 -0.2213
vn 0.7627 -0.6104 0.2136
vn 0.7807 -0.6249 -0.0000
vn 0.7700 -0.1738 -0.6139
vn 0.7693 -0.1705 -0.6157
vn 0.4350 -0.0964 -0.8952
vn 0.4294 -0.1047 -0.8970
vn -1.0000 -0.0006 0.0005
vn -0.9752 -0.2211 -0.0000
vn -0.9522 -0.2159 0.2159
vn -1.0000 -0.0006 0.0001
vn -1.0000 -0.0006 -0.0000
vn -0.9500 -0.2207 0.2207
vn -0.7685 -0.1785 0.6144
vn -0.7683 -0.1777 0.6149
vn -0.4338 -0.1003 0.8954
vn -0.4328 -0.0938 0.8966
vn 0.1938 -0.3999 0.8958
vn 0.1953 -0.3998 0.8956
vn 0.3455 -0.7074 0.6166
vn 0.3407 -0.7134 0.6123
vn 0.4207 -0.8810 0.2166
vn 0.4222 -0.8806 0.2152
vn 0.7627 -0.6104 -0.2136
vn 0.7641 -0.6076 -0.2165
vn 0.6171 -0.4907 -0.6152
vn 0.4323 -0.9017 -0.0000
vn 0.6150 -0.4917 -0.6164
vn 0.3480 -0.2782 -0.8953
vn 0.3507 -0.2695 -0.8969
vn -0.4346 -0.0261 -0.9002
vn -0.7803 -0.0321 -0.6245
vn -0.9751 -0.0170 -0.2211
vn -1.0000 -0.0007 -0.0014
vn -0.9522 -0.2159 -0.2159
vn -1.0000 -0.0006 -0.0001
vn -1.0000 -0.0006 -0.0005
vn -0.7620 -0.6098 0.2180
vn -0.7634 -0.6070 0.2208
vn -0.7807 -0.6248 -0.0000
vn -0.6171 -0.4907 0.6152
vn -0.6150 -0.4917 0.6164
vn -0.3481 -0.2783 0.8952
vn -0.3475 -0.2787 0.8953
vn -0.0000 -0.4448 0.8956
vn -0.0000 -0.7900 0.6131
vn -0.0000 -0.9766 0.2151
vn -0.0000 -1.0000 -0.0000
vn 0.4222 -0.8806 -0.2152
vn 0.4207 -0.8810 -0.2166
vn 0.3407 -0.7135 -0.6123
vn 0.3456 -0.7074 -0.6166
vn 0.1953 -0.3998 -0.8956
vn 0.1938 -0.3999 -0.8958
vn -0.4328 -0.0938 -0.8966
vn -0.4338 -0.1003 -0.8954
vn -0.7683 -0.1777 -0.6149
vn -0.7685 -0.1785 -0.6144
vn -0.9500 -0.2207 -0.2207
vn -0.7634 -0.6070 -0.2208
vn -0.7620 -0.6098 -0.2180
vn -0.4201 -0.8818 0.2143
vn -0.4230 -0.8796 0.2176
vn -0.4300 -0.9028 -0.0000
vn -0.3422 -0.7115 0.6137
vn -0.3455 -0.7074 0.6166
vn -0.1953 -0.3998 0.8956
vn -0.1938 -0.3999 0.8958
vn -0.0000 -0.9766 -0.2151
vn -0.0000 -0.7900 -0.6131
vn -0.0000 -0.4448 -0.8956
vn -0.3481 -0.2783 -0.8952
vn -0.3475 -0.2786 -0.8953
vn -0.6150 -0.4917 -0.6164
vn -0.6171 -0.4907 -0.6152
vn -0.3455 -0.7074 -0.6166
vn -0.3422 -0.7115 -0.6137
vn -0.4230 -0.8796 -0.2176
vn -0.4201 -0.8818 -0.2143
vn -0.1938 -0.3999 -0.8958
vn -0.1953 -0.3998 -0.8956
s 0
f 1//1 2//1 3//1
f 1//2 3//2 4//2
f 1//3 4//3 14//3
f 1//3 14//3 5//3
f 1//4 5//4 17//4
f 1//4 17//4 6//4
f 1//5 6//5 8//5
f 1//5 8//5 2//5
f 2//6 7//6 3//6
f 2//7 8//7 9//7
f 2//8 9//8 7//8
f 3//9 10//9 11//9
f 3//10 11//10 12//10
f 3//11 12//11 13//11
f 3//12 13//12 4//12
f 3//13 7//13 10//13
f 4//14 13//14 26//14
f 4//14 26//14 14//14
f 5//15 14//15 15//15
f 5//16 15//16 16//16
f 5//17 16//17 31//17
f 5//17 31//17 17//17
f 6//18 17//18 31//18
f 6//18 31//18 44//18
f 6//18 44//18 54//18
f 6//18 54//18 68//18
f 6//18 68//18 87//18
f 6//18 87//18 90//18
f 6//18 90//18 89//18
f 6//18 89//18 72//18
f 6//18 72//18 69//18
f 6//18 69//18 55//18
f 6//18 55//18 45//18
f 6//18 45//18 32//18
f 6//18 32//18 20//18
f 6//18 20//18 9//18
f 6//18 9//18 8//18
f 7//19 18//19 19//19
f 7//20 19//20 10//20
f 7//21 9//21 20//21
f 7//22 20//22 32//22
f 7//22 32//22 18//22
f 10//23 19//23 11//23
f 11//24 19//24 21//24
f 11//25 21//25 22//25
f 11//26 22//26 23//26
f 11//27 23//27 24//27
f 11//28 24//28 12//28
f 12//29 24//29 25//29
f 12//30 25//30 13//30
f 13//31 25//31 36//31
f 13//31 36//31 26//31
f 14//32 26//32 15//32
f 15//33 27//33 28//33
f 15//34 28//34 29//34
f 15//35 29//35 16//35
f 15//36 26//36 30//36
f 15//37 30//37 27//37
f 16//38 29//38 44//38
f 16//38 44//38 31//38
f 18//39 32//39 45//39
f 18//39 45//39 59//39
f 18//39 59//39 75//39
f 18//39 75//39 94//39
f 18//39 94//39 95//39
f 18//39 95//39 76//39
f 18//39 76//39 60//39
f 18//39 60//39 46//39
f 18//39 46//39 33//39
f 18//39 33//39 22//39
f 18//39 22//39 21//39
f 18//39 21//39 19//39
f 22//40 33//40 34//40
f 22//40 34//40 23//40
f 23//41 34//41 35//41
f 23//41 35//41 24//41
f 24//42 35//42 37//42
f 24//42 37//42 25//42
f 25//43 37//43 49//43
f 25//43 49//43 36//43
f 26//44 36//44 30//44
f 27//45 30//45 38//45
f 27//46 38//46 39//46
f 27//47 39//47 40//47
f 27//48 40//48 41//48
f 27//49 41//49 42//49
f 27//50 42//50 28//50
f 28//51 42//51 29//51
f 29//52 42//52 43//52
f 29//53 43//53 54//53
f 29//53 54//53 44//53
f 30//54 36//54 38//54
f 33//55 46//55 47//55
f 33//56 47//56 34//56
f 34//57 47//57 35//57
f 35//58 48//58 37//58
f 35//59 47//59 48//59
f 36//60 49//60 51//60
f 36//60 51//60 38//60
f 37//61 48//61 50//61
f 37//62 50//62 63//62
f 37//62 63//62 49//62
f 38//63 51//63 52//63
f 38//63 52//63 39//63
f 39//64 52//64 53//64
f 39//65 53//65 40//65
f 40//66 53//66 67//66
f 40//67 67//67 83//67
f 40//67 83//67 102//67
f 40//67 102//67 111//67
f 40//67 111//67 113//67
f 40//67 113//67 103//67
f 40//67 103//67 84//67
f 40//67 84//67 68//67
f 40//67 68//67 54//67
f 40//67 54//67 43//67
f 40//67 43//67 42//67
f 40//66 42//66 41//66
f 45//68 55//68 56//68
f 45//69 56//69 57//69
f 45//70 57//70 58//70
f 45//71 58//71 59//71
f 46//72 60//72 47//72
f 47//73 61//73 62//73
f 47//74 62//74 48//74
f 47//75 60//75 61//75
f 48//76 62//76 50//76
f 49//77 63//77 64//77
f 49//78 64//78 51//78
f 50//79 62//79 65//79
f 50//80 65//80 80//80
f 50//80 80//80 63//80
f 51//81 64//81 66//81
f 51//82 66//82 52//82
f 52//83 66//83 53//83
f 53//84 66//84 67//84
f 55//85 69//85 56//85
f 56//86 70//86 88//86
f 56//86 88//86 71//86
f 56//87 71//87 57//87
f 56//88 69//88 72//88
f 56//89 72//89 89//89
f 56//89 89//89 70//89
f 57//90 71//90 73//90
f 57//91 73//91 74//91
f 57//92 74//92 58//92
f 58//93 74//93 75//93
f 58//94 75//94 59//94
f 60//95 76//95 77//95
f 60//96 77//96 61//96
f 61//97 77//97 62//97
f 62//98 77//98 78//98
f 62//99 78//99 79//99
f 62//100 79//100 65//100
f 63//101 80//101 81//101
f 63//102 81//102 64//102
f 64//103 81//103 66//103
f 65//104 79//104 98//104
f 65//104 98//104 80//104
f 66//105 81//105 82//105
f 66//106 82//106 83//106
f 66//107 83//107 67//107
f 68//108 84//108 85//108
f 68//109 85//109 86//109
f 68//110 86//110 70//110
f 68//111 70//111 87//111
f 70//112 86//112 88//112
f 70//113 89//113 90//113
f 70//114 90//114 87//114
f 71//115 91//115 92//115
f 71//116 92//116 73//116
f 71//117 88//117 107//117
f 71//117 107//117 91//117
f 73//118 92//118 74//118
f 74//119 92//119 93//119
f 74//120 93//120 75//120
f 75//121 93//121 94//121
f 76//122 95//122 96//122
f 76//122 96//122 77//122
f 77//123 96//123 97//123
f 77//123 97//123 78//123
f 78//124 97//124 99//124
f 78//124 99//124 79//124
f 79//125 99//125 108//125
f 79//125 108//125 98//125
f 80//126 98//126 81//126
f 81//127 98//127 100//127
f 81//128 100//128 101//128
f 81//129 101//129 82//129
f 82//130 101//130 83//130
f 83//131 101//131 102//131
f 84//132 103//132 85//132
f 85//133 103//133 104//133
f 85//134 104//134 86//134
f 86//135 104//135 105//135
f 86//136 105//136 88//136
f 88//137 105//137 106//137
f 88//138 106//138 107//138
f 91//139 99//139 97//139
f 91//140 97//140 92//140
f 91//141 107//141 108//141
f 91//141 108//141 99//141
f 92//142 97//142 96//142
f 92//143 96//143 93//143
f 93//144 96//144 94//144
f 94//145 96//145 95//145
f 98//146 108//146 109//146
f 98//146 109//146 100//146
f 100//147 109//147 110//147
f 100//147 110//147 101//147
f 101//148 110//148 111//148
f 101//148 111//148 102//148
f 103//149 112//149 104//149
f 103//150 113//150 112//150
f 104//151 112//151 106//151
f 104//152 106//152 105//152
f 106//153 112//153 110//153
f 106//154 110//154 109//154
f 106//155 109//155 107//155
f 107//156 109//156 108//156
f 110//157 113//157 111//157
f 110//158 112//158 113//158
