# Blender 4.2.11 LTS
# www.blender.org
o tmp_export_piece_2-collision.003
v 0.011489 0.030898 0.027601
v -0.025618 0.030898 0.027601
v 0.011759 0.030773 0.027601
v 0.011759 0.032071 0.027018
v -0.019593 0.031854 0.027127
v -0.019597 0.031854 0.027127
v -0.025618 0.032071 0.027018
v -0.025618 -0.043886 0.027601
v 0.011944 0.030540 0.027601
v 0.013026 0.031061 0.027018
v 0.012509 0.031714 0.027018
v 0.011944 0.032887 0.025978
v -0.019597 0.032887 0.025978
v -0.025618 0.032872 0.025985
v -0.025618 -0.045067 0.027018
v 0.014450 -0.043886 0.027601
v 0.012011 0.030253 0.027601
v 0.013211 0.030253 0.027018
v 0.014046 0.030253 0.025978
v 0.013776 0.031426 0.025978
v 0.013026 0.032367 0.025978
v 0.012011 0.033175 0.024673
v -0.025618 0.033175 0.024673
v 0.014450 -0.045067 0.027018
v -0.025618 -0.045751 0.026141
v -0.019597 -0.045425 0.026560
v 0.014450 -0.009086 0.027601
v 0.014340 0.030253 0.024673
v 0.014046 0.031551 0.024673
v 0.013211 0.032584 0.024673
v 0.014340 0.033221 -0.015321
v 0.014046 0.033221 -0.014016
v 0.013226 0.033221 -0.012990
v 0.013211 0.033221 -0.012975
v 0.012011 0.033221 -0.012392
v -0.025610 0.033221 -0.012392
v -0.025618 0.033221 -0.012431
v -0.019593 -0.045425 0.026560
v 0.014450 -0.045611 0.026319
v -0.025618 -0.045868 0.025978
v 0.014450 -0.045868 0.025978
v 0.014450 -0.007912 0.027018
v 0.014450 -0.007096 0.025978
v 0.014450 -0.006809 0.024673
v 0.014340 0.033221 -0.048820
v -0.025618 0.033221 -0.051749
v -0.025618 -0.046031 0.025302
v -0.019597 -0.046007 0.025403
v -0.019593 -0.046007 0.025403
v 0.014450 -0.046171 0.024673
v 0.014450 -0.006809 -0.048820
v 0.014046 0.033221 -0.050125
v 0.014450 -0.007096 -0.050125
v 0.014450 -0.007912 -0.051166
v 0.014450 -0.007943 -0.051182
v 0.014450 -0.009086 -0.051749
v 0.012011 0.033221 -0.051749
v -0.025618 -0.043886 -0.051749
v -0.025618 -0.046171 0.024673
v 0.014450 -0.046171 -0.048820
v 0.013611 0.033221 -0.050669
v 0.013211 0.033221 -0.051166
v 0.014450 -0.043886 -0.051749
v -0.025618 -0.045067 -0.051166
v -0.025618 -0.046171 -0.048820
v 0.014450 -0.045868 -0.050125
v 0.014450 -0.045067 -0.051166
v -0.025618 -0.045572 -0.050521
v -0.025618 -0.045868 -0.050125
vn -0.0000 -0.0000 1.0000
vn 0.1849 0.4024 0.8966
vn -0.0000 0.4446 0.8957
vn -0.0000 0.4505 0.8928
vn -0.0000 0.4441 0.8960
vn -0.0001 0.4447 0.8957
vn -1.0000 -0.0000 -0.0000
vn 0.3491 0.2761 0.8955
vn 0.3489 0.2767 0.8954
vn 0.1918 0.4019 0.8954
vn -0.0000 0.4470 0.8945
vn -0.0000 0.4366 0.8996
vn 0.3389 0.7103 0.6169
vn -0.0000 0.7870 0.6170
vn -0.0012 0.7905 0.6125
vn -0.0000 -0.4423 0.8969
vn 0.4335 0.1005 0.8955
vn 0.4345 0.0991 0.8952
vn 0.7678 0.1751 0.6163
vn 0.7682 0.1772 0.6152
vn 0.6172 0.4895 0.6160
vn 0.3416 0.7103 0.6155
vn 0.6167 0.4914 0.6150
vn -0.0000 0.9766 0.2152
vn 0.4232 0.8800 0.2155
vn -0.0022 0.9744 0.2250
vn -0.0001 -0.7888 0.6146
vn -0.0000 -0.7828 0.6222
vn -0.0000 -0.7885 0.6151
vn 1.0000 -0.0000 -0.0000
vn 0.4365 0.0271 0.8993
vn 0.7794 0.0338 0.6256
vn 0.9525 0.2159 0.2147
vn 0.9509 0.2193 0.2182
vn 0.9753 0.0191 0.2199
vn 0.7636 0.6084 0.2164
vn 0.7604 0.6146 0.2099
vn 0.4319 0.8777 0.2074
vn 0.4414 0.8969 0.0268
vn 0.0070 1.0000 0.0016
vn 0.0016 1.0000 0.0013
vn 0.0013 1.0000 0.0013
vn 0.0006 1.0000 0.0013
vn -0.0000 1.0000 0.0013
vn -0.0062 1.0000 0.0013
vn -0.0000 -0.7892 0.6141
vn -0.0000 -0.8136 0.5815
vn 0.0001 -0.7998 0.6002
vn -0.0000 -0.7893 0.6140
vn -0.0000 -0.7937 0.6084
vn 1.0000 0.0033 0.0066
vn 1.0000 0.0030 0.0024
vn 1.0000 0.0030 0.0007
vn 1.0000 0.0030 0.0002
vn 0.9751 0.2210 0.0164
vn 0.7773 0.6283 0.0320
vn -0.0000 1.0000 -0.0000
vn -0.0000 1.0000 0.0001
vn 1.0000 0.0027 -0.0000
vn -0.0002 -0.9721 0.2348
vn -0.0000 -0.9702 0.2422
vn -0.0000 -0.9716 0.2365
vn 0.0002 -0.9741 0.2262
vn 1.0000 0.0027 -0.0006
vn 1.0000 0.0028 -0.0022
vn 1.0000 0.0030 -0.0060
vn 1.0000 0.0030 -0.0061
vn 0.9754 0.0178 -0.2199
vn -0.0000 -0.0000 -1.0000
vn -0.0000 -0.9762 0.2170
vn 0.0001 -0.9752 0.2211
vn -0.0000 -0.9801 0.1985
vn -0.0000 -1.0000 -0.0000
vn 0.7802 0.0314 -0.6248
vn 0.4365 0.0252 -0.8994
vn 0.7786 0.0314 -0.6267
vn -0.0000 -0.4423 -0.8969
vn -0.0000 -0.9741 -0.2262
vn -0.0000 -0.7871 -0.6168
vn -0.0000 -0.8017 -0.5977
vn 0.0002 -0.7927 -0.6096
s 0
f 1//1 2//1 8//1
f 1//1 8//1 16//1
f 1//1 16//1 27//1
f 1//1 27//1 17//1
f 1//1 17//1 9//1
f 1//1 9//1 3//1
f 1//2 3//2 4//2
f 1//3 4//3 5//3
f 1//4 5//4 6//4
f 1//5 6//5 2//5
f 2//6 6//6 7//6
f 2//7 7//7 14//7
f 2//7 14//7 23//7
f 2//7 23//7 37//7
f 2//7 37//7 46//7
f 2//7 46//7 58//7
f 2//7 58//7 64//7
f 2//7 64//7 68//7
f 2//7 68//7 69//7
f 2//7 69//7 65//7
f 2//7 65//7 59//7
f 2//7 59//7 47//7
f 2//7 47//7 40//7
f 2//7 40//7 25//7
f 2//7 25//7 15//7
f 2//7 15//7 8//7
f 3//8 9//8 10//8
f 3//9 10//9 11//9
f 3//10 11//10 4//10
f 4//11 7//11 6//11
f 4//12 6//12 5//12
f 4//13 11//13 12//13
f 4//14 12//14 13//14
f 4//14 13//14 7//14
f 7//15 13//15 14//15
f 8//16 15//16 24//16
f 8//16 24//16 16//16
f 9//17 17//17 10//17
f 10//18 17//18 18//18
f 10//19 18//19 19//19
f 10//20 19//20 20//20
f 10//21 20//21 11//21
f 11//22 21//22 12//22
f 11//23 20//23 21//23
f 12//24 22//24 23//24
f 12//24 23//24 13//24
f 12//25 21//25 22//25
f 13//26 23//26 14//26
f 15//27 25//27 26//27
f 15//28 26//28 38//28
f 15//29 38//29 24//29
f 16//30 24//30 39//30
f 16//30 39//30 41//30
f 16//30 41//30 50//30
f 16//30 50//30 60//30
f 16//30 60//30 66//30
f 16//30 66//30 67//30
f 16//30 67//30 63//30
f 16//30 63//30 56//30
f 16//30 56//30 55//30
f 16//30 55//30 54//30
f 16//30 54//30 53//30
f 16//30 53//30 51//30
f 16//30 51//30 44//30
f 16//30 44//30 43//30
f 16//30 43//30 42//30
f 16//30 42//30 27//30
f 17//31 27//31 18//31
f 18//32 27//32 19//32
f 19//33 28//33 29//33
f 19//34 29//34 20//34
f 19//35 27//35 28//35
f 20//36 29//36 21//36
f 21//37 29//37 30//37
f 21//38 30//38 22//38
f 22//39 30//39 31//39
f 22//40 31//40 32//40
f 22//41 32//41 33//41
f 22//42 33//42 34//42
f 22//43 34//43 35//43
f 22//44 35//44 36//44
f 22//44 36//44 23//44
f 23//45 36//45 37//45
f 24//46 38//46 39//46
f 25//47 40//47 41//47
f 25//48 41//48 39//48
f 25//49 39//49 38//49
f 25//50 38//50 26//50
f 27//51 42//51 28//51
f 28//52 42//52 43//52
f 28//53 43//53 44//53
f 28//54 44//54 31//54
f 28//55 31//55 29//55
f 29//56 31//56 30//56
f 31//57 45//57 52//57
f 31//57 52//57 61//57
f 31//57 61//57 62//57
f 31//57 62//57 57//57
f 31//57 57//57 46//57
f 31//57 46//57 37//57
f 31//57 37//57 36//57
f 31//57 36//57 35//57
f 31//57 35//57 34//57
f 31//58 34//58 33//58
f 31//57 33//57 32//57
f 31//59 44//59 51//59
f 31//59 51//59 45//59
f 40//60 47//60 48//60
f 40//61 48//61 49//61
f 40//62 49//62 41//62
f 41//63 49//63 50//63
f 45//64 51//64 53//64
f 45//65 53//65 54//65
f 45//66 54//66 55//66
f 45//67 55//67 56//67
f 45//68 56//68 52//68
f 46//69 57//69 56//69
f 46//69 56//69 63//69
f 46//69 63//69 58//69
f 47//70 59//70 50//70
f 47//71 50//71 49//71
f 47//72 49//72 48//72
f 50//73 59//73 65//73
f 50//73 65//73 60//73
f 52//74 56//74 61//74
f 56//75 57//75 62//75
f 56//76 62//76 61//76
f 58//77 63//77 67//77
f 58//77 67//77 64//77
f 60//78 65//78 69//78
f 60//78 69//78 66//78
f 64//79 67//79 68//79
f 66//80 69//80 68//80
f 66//81 68//81 67//81
