# Blender 4.2.11 LTS
# www.blender.org
o tmp_export_piece_2-collision.011
v -0.011758 -0.030902 -0.016757
v -0.011465 -0.030902 -0.018055
v -0.011758 -0.030902 0.016742
v -0.011758 0.006133 -0.016753
v -0.011465 0.006133 -0.018055
v -0.010632 -0.030902 -0.019099
v -0.011465 -0.030902 0.018044
v -0.011758 0.006133 0.016742
v -0.011465 0.007435 -0.016753
v -0.010632 0.006133 -0.019099
v -0.011195 0.007306 -0.018055
v -0.010593 -0.030902 -0.019118
v -0.010632 -0.030902 0.019087
v -0.011465 0.006133 0.018044
v -0.011465 0.007435 0.016742
v -0.010632 0.008476 -0.016753
v -0.010444 0.008245 -0.018055
v -0.009361 0.006422 -0.019680
v -0.009428 0.006133 -0.019680
v -0.010444 0.006942 -0.019099
v -0.009928 0.007595 -0.019099
v -0.009428 -0.030902 -0.019680
v -0.009428 -0.030902 0.019665
v -0.010632 0.006133 0.019087
v -0.011195 0.007306 0.018044
v -0.010444 0.008245 0.018044
v -0.010632 0.008476 0.016742
v -0.009428 0.009054 -0.016753
v -0.009361 0.008765 -0.018055
v -0.009177 0.006653 -0.019680
v -0.009177 0.007955 -0.019099
v 0.028183 -0.030902 -0.019680
v 0.028183 -0.030902 0.019665
v -0.009428 0.006133 0.019665
v -0.009361 0.006422 0.019665
v -0.010444 0.006942 0.019087
v -0.009928 0.007595 0.019087
v -0.009361 0.008765 0.018044
v -0.009428 0.009054 0.016742
v 0.028183 0.009054 -0.016753
v 0.028183 0.008906 -0.017427
v 0.028183 0.008346 -0.018598
v 0.028183 0.008765 -0.018055
v -0.008908 0.006782 -0.019680
v 0.028183 0.007955 -0.019099
v 0.028183 0.006782 -0.019680
v 0.028183 0.006782 0.019665
v -0.009177 0.006653 0.019665
v -0.009177 0.007955 0.019087
v 0.028183 0.008487 0.018406
v 0.028183 0.008765 0.018044
v 0.028183 0.008781 0.017986
v 0.028183 0.009054 0.016742
v 0.028183 0.007955 0.019087
v -0.008908 0.006782 0.019665
v 0.028183 0.007971 0.019068
vn -0.0000 -1.0000 -0.0000
vn -1.0000 -0.0000 -0.0000
vn -0.9756 -0.0000 -0.2197
vn -0.9754 -0.0000 -0.2204
vn -0.7817 -0.0000 -0.6237
vn -0.9756 -0.0000 0.2197
vn -0.9756 0.2196 -0.0000
vn -0.9528 0.2145 -0.2146
vn -0.9510 0.2186 -0.2188
vn -0.7693 0.1769 -0.6139
vn -0.4419 -0.0000 -0.8971
vn -0.7817 -0.0000 0.6237
vn -0.9528 0.2145 0.2146
vn -0.7807 0.6249 -0.0000
vn -0.7619 0.6099 -0.2179
vn -0.7621 0.6095 -0.2184
vn -0.4327 0.0994 -0.8960
vn -0.4349 -0.0000 -0.9005
vn -0.7684 0.1781 -0.6147
vn -0.4329 0.1003 -0.8959
vn -0.6186 0.4888 -0.6152
vn -0.6174 0.4937 -0.6124
vn -0.4346 -0.0000 -0.9006
vn -0.4325 -0.0000 0.9016
vn -0.7693 0.1769 0.6139
vn -0.9510 0.2186 0.2188
vn -0.7621 0.6095 0.2184
vn -0.7619 0.6099 0.2179
vn -0.4332 0.9013 -0.0000
vn -0.4229 0.8798 -0.2169
vn -0.4226 0.8799 -0.2172
vn -0.3422 0.7126 -0.6125
vn -0.0000 -0.0000 -1.0000
vn -0.3487 0.2755 -0.8958
vn -0.3471 0.2764 -0.8961
vn -0.3416 0.7126 -0.6129
vn -0.1918 0.4001 -0.8962
vn -0.0000 -0.0000 1.0000
vn -0.4304 0.0988 0.8972
vn -0.4306 0.0998 0.8970
vn -0.7684 0.1781 0.6147
vn -0.6186 0.4888 0.6152
vn -0.6174 0.4937 0.6124
vn -0.4226 0.8799 0.2172
vn -0.4229 0.8798 0.2169
vn -0.3422 0.7126 0.6125
vn -0.0000 1.0000 -0.0000
vn -0.0000 0.9765 -0.2153
vn -0.0000 0.9762 -0.2170
vn -0.0001 0.7901 -0.6129
vn -0.0000 0.9758 -0.2189
vn -0.0000 0.7921 -0.6104
vn -0.1915 0.4002 -0.8962
vn -0.0000 0.7881 -0.6156
vn -0.0000 0.4441 -0.8960
vn 1.0000 -0.0000 -0.0000
vn 1.0000 0.0001 -0.0000
vn -0.3453 0.2750 0.8973
vn -0.3468 0.2741 0.8970
vn -0.3416 0.7126 0.6129
vn -0.1908 0.3980 0.8973
vn -0.0001 0.7901 0.6129
vn -0.0000 0.7935 0.6086
vn -0.0000 0.9652 0.2615
vn -0.0001 0.9762 0.2170
vn -0.0000 0.9766 0.2149
vn -0.0000 0.4417 0.8972
vn -0.1904 0.3980 0.8974
vn -0.0000 0.7763 0.6304
vn -0.0000 0.7887 0.6147
s 0
f 1//1 2//1 6//1
f 1//1 6//1 12//1
f 1//1 12//1 22//1
f 1//1 22//1 32//1
f 1//1 32//1 33//1
f 1//1 33//1 23//1
f 1//1 23//1 13//1
f 1//1 13//1 7//1
f 1//1 7//1 3//1
f 1//2 3//2 8//2
f 1//2 8//2 4//2
f 1//3 4//3 5//3
f 1//4 5//4 2//4
f 2//5 5//5 10//5
f 2//5 10//5 6//5
f 3//6 7//6 14//6
f 3//6 14//6 8//6
f 4//7 8//7 15//7
f 4//7 15//7 9//7
f 4//8 9//8 5//8
f 5//9 9//9 11//9
f 5//10 11//10 10//10
f 6//11 10//11 12//11
f 7//12 13//12 24//12
f 7//12 24//12 14//12
f 8//13 14//13 15//13
f 9//14 15//14 27//14
f 9//14 27//14 16//14
f 9//15 16//15 17//15
f 9//16 17//16 11//16
f 10//17 18//17 19//17
f 10//18 19//18 12//18
f 10//19 11//19 20//19
f 10//20 20//20 18//20
f 11//21 21//21 20//21
f 11//22 17//22 21//22
f 12//23 19//23 22//23
f 13//24 23//24 34//24
f 13//24 34//24 24//24
f 14//25 24//25 25//25
f 14//26 25//26 15//26
f 15//27 25//27 26//27
f 15//28 26//28 27//28
f 16//29 27//29 39//29
f 16//29 39//29 28//29
f 16//30 28//30 17//30
f 17//31 28//31 29//31
f 17//32 29//32 21//32
f 18//33 30//33 44//33
f 18//33 44//33 46//33
f 18//33 46//33 32//33
f 18//33 32//33 22//33
f 18//33 22//33 19//33
f 18//34 20//34 21//34
f 18//35 21//35 30//35
f 21//36 29//36 31//36
f 21//37 31//37 30//37
f 23//38 33//38 47//38
f 23//38 47//38 55//38
f 23//38 55//38 48//38
f 23//38 48//38 35//38
f 23//38 35//38 34//38
f 24//39 34//39 35//39
f 24//40 35//40 36//40
f 24//41 36//41 25//41
f 25//42 36//42 37//42
f 25//43 37//43 26//43
f 26//44 38//44 39//44
f 26//45 39//45 27//45
f 26//46 37//46 38//46
f 28//47 39//47 53//47
f 28//47 53//47 40//47
f 28//48 40//48 41//48
f 28//49 41//49 29//49
f 29//50 42//50 31//50
f 29//51 41//51 43//51
f 29//52 43//52 42//52
f 30//53 31//53 44//53
f 31//54 42//54 45//54
f 31//55 45//55 46//55
f 31//55 46//55 44//55
f 32//56 46//56 45//56
f 32//56 45//56 42//56
f 32//56 42//56 43//56
f 32//56 43//56 41//56
f 32//56 41//56 40//56
f 32//56 40//56 53//56
f 32//56 53//56 52//56
f 32//56 52//56 51//56
f 32//56 51//56 50//56
f 32//56 50//56 56//56
f 32//57 56//57 54//57
f 32//56 54//56 47//56
f 32//56 47//56 33//56
f 35//58 48//58 37//58
f 35//59 37//59 36//59
f 37//60 49//60 38//60
f 37//61 48//61 49//61
f 38//62 49//62 50//62
f 38//63 50//63 51//63
f 38//64 51//64 52//64
f 38//65 52//65 39//65
f 39//66 52//66 53//66
f 47//67 54//67 49//67
f 47//67 49//67 55//67
f 48//68 55//68 49//68
f 49//69 54//69 56//69
f 49//70 56//70 50//70
