# Blender 4.2.11 LTS
# www.blender.org
o tmp_export_piece_2-collision.009
v -0.103362 -0.014219 -0.037910
v -0.103362 -0.015391 -0.037327
v -0.103362 0.020582 -0.037910
v 0.053665 -0.014219 -0.037910
v -0.103362 -0.015657 -0.036986
v 0.053931 -0.015391 -0.037327
v -0.103362 0.021754 -0.037327
v -0.060635 0.022895 -0.037910
v 0.053931 -0.014088 -0.037910
v 0.054682 -0.015029 -0.037327
v -0.103362 -0.016201 -0.036286
v 0.054119 -0.016201 -0.036286
v 0.055199 -0.015680 -0.036286
v -0.103362 0.022564 -0.036286
v -0.103362 0.022853 -0.034982
v -0.061840 0.022895 -0.037327
v 0.054181 0.022895 -0.037910
v 0.054119 -0.013856 -0.037910
v 0.055199 -0.014377 -0.037327
v 0.055950 -0.014739 -0.036286
v -0.103362 -0.016494 -0.034982
v 0.054181 -0.016494 -0.034982
v 0.056232 -0.014870 -0.034982
v 0.055386 -0.015911 -0.034982
v -0.103362 0.022853 0.038512
v -0.062967 0.022895 -0.034982
v -0.062670 0.022895 -0.036286
v 0.054573 0.022895 -0.037723
v 0.054181 -0.013567 -0.037910
v 0.055386 -0.013567 -0.037327
v 0.056232 -0.013567 -0.036286
v -0.103362 -0.016494 0.038512
v 0.054181 -0.016494 0.038512
v 0.056529 -0.013567 -0.034982
v 0.056232 -0.014870 0.038512
v 0.055386 -0.015911 0.038512
v -0.061840 0.022895 0.000864
v -0.062670 0.022895 -0.000177
v -0.062967 0.022895 -0.001482
v -0.103362 0.022564 0.039816
v -0.020646 0.022895 0.041440
v -0.021820 0.022895 0.040873
v -0.021852 0.022895 0.040857
v 0.055386 0.022895 -0.037327
v 0.056232 0.022895 -0.036286
v -0.103362 -0.016201 0.039816
v 0.055199 -0.015680 0.039816
v 0.054119 -0.016201 0.039816
v 0.056529 0.022895 -0.034982
v 0.056529 -0.013567 0.038512
v 0.056232 -0.013567 0.039816
v 0.055950 -0.014739 0.039816
v -0.103362 0.021754 0.040857
v 0.054181 0.022895 0.041440
v -0.103362 0.020582 0.041440
v -0.103362 -0.015391 0.040857
v 0.054682 -0.015029 0.040857
v 0.053931 -0.015391 0.040857
v 0.056529 0.022895 0.038512
v 0.056232 0.022895 0.039816
v 0.055386 -0.013567 0.040857
v 0.055199 -0.014377 0.040857
v 0.054181 -0.013567 0.041440
v 0.055386 0.022895 0.040857
v -0.103362 -0.014219 0.041440
v 0.054119 -0.013856 0.041440
v 0.053931 -0.014088 0.041440
v 0.053665 -0.014219 0.041440
vn -1.0000 -0.0000 -0.0000
vn -0.0000 -0.0000 -1.0000
vn -0.0000 -0.4451 -0.8955
vn -0.0000 -0.7891 -0.6143
vn -0.0241 0.4449 -0.8952
vn 0.1962 -0.3982 -0.8961
vn 0.1935 -0.4011 -0.8954
vn -0.0000 -0.7893 -0.6140
vn -0.0000 -0.7894 -0.6139
vn 0.3427 -0.7104 -0.6148
vn 0.3425 -0.7106 -0.6146
vn -0.0294 0.7890 -0.6138
vn -0.0158 0.9762 -0.2163
vn -0.0012 1.0000 -0.0024
vn -0.0000 1.0000 -0.0000
vn 0.3445 -0.2797 -0.8961
vn 0.3494 -0.2769 -0.8951
vn 0.6173 -0.4893 -0.6160
vn 0.6166 -0.4924 -0.6143
vn -0.0000 -0.9757 -0.2191
vn 0.4238 -0.8792 -0.2178
vn 0.7613 -0.6079 -0.2254
vn 0.7577 -0.6151 -0.2181
vn 0.4246 -0.8790 -0.2170
vn -0.0010 1.0000 -0.0000
vn -0.0010 1.0000 -0.0002
vn -0.0011 1.0000 -0.0009
vn 0.4301 -0.0000 -0.9028
vn 0.4333 -0.0938 -0.8964
vn 0.4343 -0.1007 -0.8951
vn 0.7640 -0.1772 -0.6204
vn 0.7655 -0.1840 -0.6166
vn 0.9469 -0.2276 -0.2273
vn -0.0000 -1.0000 -0.0000
vn 0.4350 -0.9004 -0.0000
vn 0.9517 -0.2172 -0.2169
vn 0.9749 -0.2225 -0.0000
vn 0.7764 -0.6303 -0.0000
vn -0.0006 1.0000 0.0005
vn -0.0009 1.0000 0.0002
vn -0.0082 0.9763 0.2163
vn -0.0006 1.0000 0.0011
vn -0.0006 1.0000 0.0010
vn -0.0005 1.0000 0.0005
vn 0.4376 -0.0000 -0.8992
vn 0.4352 -0.0001 -0.9003
vn 0.7763 -0.0000 -0.6304
vn 0.9750 -0.0000 -0.2222
vn -0.0000 -0.9757 0.2191
vn 0.4246 -0.8790 0.2170
vn 0.4238 -0.8792 0.2178
vn 1.0000 -0.0000 -0.0000
vn 0.9469 -0.2276 0.2273
vn 0.7613 -0.6079 0.2254
vn 0.7577 -0.6151 0.2181
vn 0.9517 -0.2172 0.2169
vn -0.0152 0.7892 0.6139
vn -0.0124 0.4450 0.8954
vn -0.0000 -0.0000 1.0000
vn -0.0000 -0.7893 0.6140
vn 0.6166 -0.4924 0.6143
vn 0.3427 -0.7104 0.6148
vn 0.3425 -0.7106 0.6146
vn 0.9750 -0.0000 0.2222
vn 0.7763 -0.0000 0.6304
vn 0.7640 -0.1772 0.6204
vn 0.7655 -0.1840 0.6166
vn 0.6173 -0.4893 0.6160
vn 0.4352 -0.0000 0.9003
vn -0.0000 -0.4451 0.8955
vn 0.3446 -0.2797 0.8961
vn 0.1962 -0.3982 0.8961
vn 0.1935 -0.4011 0.8954
vn 0.3494 -0.2769 0.8951
vn 0.4333 -0.0938 0.8964
vn 0.4343 -0.1007 0.8951
s 0
f 1//1 2//1 5//1
f 1//1 5//1 11//1
f 1//1 11//1 21//1
f 1//1 21//1 32//1
f 1//1 32//1 46//1
f 1//1 46//1 56//1
f 1//1 56//1 65//1
f 1//1 65//1 55//1
f 1//1 55//1 53//1
f 1//1 53//1 40//1
f 1//1 40//1 25//1
f 1//1 25//1 15//1
f 1//1 15//1 14//1
f 1//1 14//1 7//1
f 1//1 7//1 3//1
f 1//2 3//2 8//2
f 1//2 8//2 17//2
f 1//2 17//2 29//2
f 1//2 29//2 18//2
f 1//2 18//2 9//2
f 1//2 9//2 4//2
f 1//3 4//3 6//3
f 1//3 6//3 2//3
f 2//4 6//4 5//4
f 3//5 7//5 8//5
f 4//6 9//6 10//6
f 4//7 10//7 6//7
f 5//8 6//8 12//8
f 5//9 12//9 11//9
f 6//10 10//10 13//10
f 6//11 13//11 12//11
f 7//12 14//12 8//12
f 8//13 14//13 15//13
f 8//14 15//14 16//14
f 8//15 16//15 27//15
f 8//15 27//15 26//15
f 8//15 26//15 39//15
f 8//15 39//15 38//15
f 8//15 38//15 37//15
f 8//15 37//15 43//15
f 8//15 43//15 42//15
f 8//15 42//15 41//15
f 8//15 41//15 54//15
f 8//15 54//15 64//15
f 8//15 64//15 60//15
f 8//15 60//15 59//15
f 8//15 59//15 49//15
f 8//15 49//15 45//15
f 8//15 45//15 44//15
f 8//15 44//15 28//15
f 8//15 28//15 17//15
f 9//16 18//16 10//16
f 10//17 18//17 19//17
f 10//18 19//18 20//18
f 10//19 20//19 13//19
f 11//20 12//20 22//20
f 11//20 22//20 21//20
f 12//21 13//21 22//21
f 13//22 20//22 23//22
f 13//23 23//23 24//23
f 13//24 24//24 22//24
f 15//25 25//25 39//25
f 15//25 39//25 26//25
f 15//26 26//26 27//26
f 15//27 27//27 16//27
f 17//28 28//28 29//28
f 18//29 29//29 30//29
f 18//30 30//30 19//30
f 19//31 30//31 31//31
f 19//32 31//32 20//32
f 20//33 31//33 23//33
f 21//34 22//34 33//34
f 21//34 33//34 32//34
f 22//35 24//35 36//35
f 22//35 36//35 33//35
f 23//36 31//36 34//36
f 23//37 34//37 50//37
f 23//37 50//37 35//37
f 23//38 35//38 36//38
f 23//38 36//38 24//38
f 25//39 37//39 38//39
f 25//40 38//40 39//40
f 25//41 40//41 41//41
f 25//42 41//42 42//42
f 25//43 42//43 43//43
f 25//44 43//44 37//44
f 28//45 44//45 30//45
f 28//46 30//46 29//46
f 30//47 44//47 45//47
f 30//47 45//47 31//47
f 31//48 45//48 49//48
f 31//48 49//48 34//48
f 32//49 33//49 48//49
f 32//49 48//49 46//49
f 33//50 36//50 47//50
f 33//51 47//51 48//51
f 34//52 49//52 59//52
f 34//52 59//52 50//52
f 35//53 51//53 52//53
f 35//54 52//54 47//54
f 35//55 47//55 36//55
f 35//56 50//56 51//56
f 40//57 53//57 41//57
f 41//58 53//58 55//58
f 41//59 55//59 65//59
f 41//59 65//59 68//59
f 41//59 68//59 67//59
f 41//59 67//59 66//59
f 41//59 66//59 63//59
f 41//59 63//59 54//59
f 46//60 48//60 58//60
f 46//60 58//60 56//60
f 47//61 52//61 57//61
f 47//62 57//62 58//62
f 47//63 58//63 48//63
f 50//64 59//64 60//64
f 50//64 60//64 51//64
f 51//65 60//65 64//65
f 51//65 64//65 61//65
f 51//66 61//66 62//66
f 51//67 62//67 52//67
f 52//68 62//68 57//68
f 54//69 63//69 61//69
f 54//69 61//69 64//69
f 56//70 58//70 68//70
f 56//70 68//70 65//70
f 57//71 66//71 67//71
f 57//72 67//72 68//72
f 57//73 68//73 58//73
f 57//74 62//74 66//74
f 61//75 63//75 66//75
f 61//76 66//76 62//76
