# Blender 4.2.11 LTS
# www.blender.org
o tmp_export_piece_2-collision.010
v 0.012009 0.008257 0.015504
v 0.011943 0.007963 0.016806
v 0.013026 0.007443 0.016806
v 0.013214 0.007674 0.015504
v 0.012009 0.008257 -0.017984
v -0.025616 0.008257 0.015504
v -0.019596 0.008210 0.015716
v 0.011755 0.007154 0.017850
v 0.012506 0.006794 0.017850
v -0.025616 0.007963 0.016806
v -0.019596 0.007834 0.016975
v 0.013777 0.006505 0.016806
v 0.014043 0.006634 0.015504
v 0.013214 0.007674 -0.017984
v 0.013026 0.007443 -0.019285
v 0.011943 0.007963 -0.019285
v -0.019596 0.008210 -0.018195
v -0.025616 0.008257 -0.017984
v -0.019600 0.008210 0.015716
v 0.011489 0.005981 0.018427
v -0.025616 0.007154 0.017850
v -0.019596 0.006962 0.017946
v 0.013026 0.006141 0.017850
v 0.011755 0.005852 0.018427
v 0.011943 0.005621 0.018427
v -0.019600 0.007834 0.016975
v 0.013214 0.005331 0.017850
v 0.014043 0.005331 0.016806
v 0.014340 0.005331 0.015504
v 0.014043 0.006634 -0.017984
v 0.013777 0.006505 -0.019285
v 0.012506 0.006794 -0.020329
v 0.011755 0.007154 -0.020329
v -0.025616 0.007924 -0.019339
v -0.025616 0.007963 -0.019285
v -0.019600 0.008210 -0.018195
v -0.025616 0.005981 0.018427
v -0.019600 0.006962 0.017946
v 0.012009 0.005331 0.018427
v 0.013214 -0.031697 0.017850
v 0.014043 -0.031697 0.016806
v 0.014340 -0.031697 0.015504
v 0.014340 0.005331 -0.017984
v 0.013214 0.005331 -0.020329
v 0.013026 0.006141 -0.020329
v 0.014043 0.005331 -0.019285
v 0.011943 0.005621 -0.020911
v 0.011755 0.005852 -0.020911
v 0.011489 0.005981 -0.020911
v -0.025616 0.007119 -0.020348
v -0.025616 0.007154 -0.020329
v -0.025616 0.005793 0.018427
v 0.012009 -0.031697 0.018427
v 0.014340 -0.031697 -0.017984
v 0.013214 -0.031697 -0.020329
v 0.012009 0.005331 -0.020911
v 0.014043 -0.031697 -0.019285
v -0.025616 0.005981 -0.020911
v -0.025616 -0.031697 0.018393
v -0.025612 -0.031697 0.018427
v 0.012009 -0.031697 -0.020911
v -0.025616 -0.031697 -0.020911
vn 0.4222 0.8795 0.2197
vn 0.4250 0.8788 0.2171
vn 0.4354 0.9002 -0.0000
vn -0.0000 1.0000 -0.0000
vn -0.0000 0.9763 0.2163
vn -0.0000 0.9677 0.2519
vn -0.0000 0.9755 0.2198
vn 0.3411 0.7121 0.6137
vn 0.3418 0.7121 0.6133
vn -0.0000 0.9760 0.2176
vn -0.0000 0.9754 0.2205
vn -0.0000 0.7955 0.6059
vn -0.0000 0.7819 0.6233
vn 0.0001 0.7902 0.6129
vn 0.6163 0.4932 0.6139
vn 0.7620 0.6097 0.2180
vn 0.7635 0.6086 0.2163
vn 0.7820 0.6233 -0.0000
vn 0.4250 0.8788 -0.2171
vn 0.4222 0.8795 -0.2197
vn -0.0000 0.9755 -0.2198
vn -0.0000 0.9678 -0.2519
vn -0.0000 0.9763 -0.2163
vn -1.0000 -0.0000 -0.0000
vn -1.0000 -0.0001 -0.0000
vn -0.0001 0.9755 0.2198
vn 0.1909 0.3985 0.8971
vn -0.0000 0.7904 0.6126
vn -0.0000 0.7891 0.6142
vn -0.0000 0.4490 0.8935
vn -0.0000 0.4435 0.8963
vn 0.0001 0.4417 0.8971
vn 0.6168 0.4913 0.6150
vn 0.1925 0.3968 0.8975
vn 0.3417 0.2780 0.8977
vn 0.3459 0.2755 0.8969
vn -0.0003 0.7902 0.6129
vn 0.7682 0.1782 0.6149
vn 0.7709 0.1748 0.6125
vn 0.9519 0.2158 0.2174
vn 0.9519 0.2173 0.2160
vn 0.9749 0.2226 -0.0000
vn 0.7635 0.6086 -0.2163
vn 0.7620 0.6097 -0.2180
vn 0.3418 0.7121 -0.6133
vn 0.6163 0.4932 -0.6139
vn 0.0001 0.7902 -0.6129
vn -0.0000 0.8094 -0.5872
vn -0.0000 0.9754 -0.2205
vn -0.0000 0.9760 -0.2177
vn 0.3411 0.7121 -0.6137
vn -0.0001 0.9755 -0.2198
vn -0.0000 0.4397 0.8981
vn -0.0000 0.4403 0.8978
vn -0.0000 -0.0000 1.0000
vn -0.0003 0.4417 0.8971
vn 0.4304 0.0998 0.8971
vn 0.4303 0.0989 0.8973
vn 0.7830 -0.0000 0.6221
vn 0.4324 -0.0000 0.9017
vn 0.9749 -0.0000 0.2227
vn 1.0000 -0.0000 -0.0000
vn 0.9519 0.2173 -0.2160
vn 0.7682 0.1782 -0.6149
vn 0.6168 0.4913 -0.6150
vn 0.9519 0.2158 -0.2174
vn 0.7709 0.1748 -0.6125
vn 0.3478 0.2770 -0.8957
vn 0.3435 0.2795 -0.8966
vn 0.1935 0.3989 -0.8964
vn 0.1919 0.4006 -0.8959
vn -0.0000 0.4441 -0.8960
vn -0.0000 0.4801 -0.8772
vn -0.0000 0.7891 -0.6142
vn -0.0000 -1.0000 -0.0000
vn 0.9749 -0.0000 -0.2227
vn 0.7830 -0.0000 -0.6221
vn 0.4347 -0.0000 -0.9006
vn 0.4326 0.0994 -0.8961
vn 0.4327 0.1004 -0.8959
vn -0.0000 -0.0000 -1.0000
vn -0.0000 0.4430 -0.8965
vn -0.9936 -0.0001 0.1128
s 0
f 1//1 2//1 3//1
f 1//2 3//2 4//2
f 1//3 4//3 14//3
f 1//3 14//3 5//3
f 1//4 5//4 18//4
f 1//4 18//4 6//4
f 1//5 6//5 19//5
f 1//6 19//6 7//6
f 1//7 7//7 2//7
f 2//8 8//8 9//8
f 2//9 9//9 3//9
f 2//10 7//10 19//10
f 2//11 19//11 10//11
f 2//12 10//12 26//12
f 2//13 26//13 11//13
f 2//14 11//14 8//14
f 3//15 9//15 12//15
f 3//16 12//16 4//16
f 4//17 12//17 13//17
f 4//18 13//18 30//18
f 4//18 30//18 14//18
f 5//19 14//19 15//19
f 5//20 15//20 16//20
f 5//21 16//21 17//21
f 5//22 17//22 36//22
f 5//23 36//23 18//23
f 6//24 18//24 35//24
f 6//24 35//24 34//24
f 6//24 34//24 51//24
f 6//25 51//25 50//25
f 6//24 50//24 58//24
f 6//24 58//24 62//24
f 6//24 62//24 59//24
f 6//24 59//24 52//24
f 6//24 52//24 37//24
f 6//24 37//24 21//24
f 6//24 21//24 10//24
f 6//26 10//26 19//26
f 8//27 20//27 9//27
f 8//28 11//28 26//28
f 8//29 26//29 21//29
f 8//30 21//30 38//30
f 8//31 38//31 22//31
f 8//32 22//32 20//32
f 9//33 23//33 12//33
f 9//34 20//34 24//34
f 9//35 24//35 25//35
f 9//36 25//36 23//36
f 10//37 21//37 26//37
f 12//38 23//38 27//38
f 12//39 27//39 28//39
f 12//40 28//40 29//40
f 12//41 29//41 13//41
f 13//42 29//42 43//42
f 13//42 43//42 30//42
f 14//43 30//43 31//43
f 14//44 31//44 15//44
f 15//45 32//45 16//45
f 15//46 31//46 32//46
f 16//47 33//47 34//47
f 16//48 34//48 35//48
f 16//49 35//49 36//49
f 16//50 36//50 17//50
f 16//51 32//51 33//51
f 18//52 36//52 35//52
f 20//53 22//53 38//53
f 20//54 38//54 37//54
f 20//55 37//55 52//55
f 20//55 52//55 60//55
f 20//55 60//55 53//55
f 20//55 53//55 39//55
f 20//55 39//55 25//55
f 20//55 25//55 24//55
f 21//56 37//56 38//56
f 23//57 25//57 27//57
f 25//58 39//58 27//58
f 27//59 40//59 41//59
f 27//59 41//59 28//59
f 27//60 39//60 53//60
f 27//60 53//60 40//60
f 28//61 41//61 42//61
f 28//61 42//61 29//61
f 29//62 42//62 54//62
f 29//62 54//62 43//62
f 30//63 43//63 31//63
f 31//64 44//64 45//64
f 31//65 45//65 32//65
f 31//66 43//66 46//66
f 31//67 46//67 44//67
f 32//68 45//68 47//68
f 32//69 47//69 48//69
f 32//70 48//70 49//70
f 32//71 49//71 33//71
f 33//72 49//72 50//72
f 33//73 50//73 51//73
f 33//74 51//74 34//74
f 40//75 53//75 60//75
f 40//75 60//75 59//75
f 40//75 59//75 62//75
f 40//75 62//75 61//75
f 40//75 61//75 55//75
f 40//75 55//75 57//75
f 40//75 57//75 54//75
f 40//75 54//75 42//75
f 40//75 42//75 41//75
f 43//76 54//76 57//76
f 43//76 57//76 46//76
f 44//77 46//77 57//77
f 44//77 57//77 55//77
f 44//78 55//78 61//78
f 44//78 61//78 56//78
f 44//79 56//79 47//79
f 44//80 47//80 45//80
f 47//81 56//81 61//81
f 47//81 61//81 62//81
f 47//81 62//81 58//81
f 47//81 58//81 49//81
f 47//81 49//81 48//81
f 49//82 58//82 50//82
f 52//83 59//83 60//83
