# Blender 4.2.11 LTS
# www.blender.org
o tmp_export_long-piece-2-collision.005
v -0.205106 0.160704 0.180479
v -0.205106 0.160704 0.155479
v -0.230065 0.160704 0.180479
v -0.205106 0.058405 0.180479
v -0.230065 0.160704 0.155479
v -0.205106 0.058405 0.155479
v -0.230065 0.058405 0.180479
v -0.230065 0.058405 0.155479
vn -0.0000 1.0000 -0.0000
vn -0.0000 -0.0000 1.0000
vn 1.0000 -0.0000 -0.0000
vn -0.0000 -0.0000 -1.0000
vn -1.0000 -0.0000 -0.0000
vn -0.0000 -1.0000 -0.0000
s 0
f 1//1 2//1 5//1
f 1//1 5//1 3//1
f 1//2 3//2 7//2
f 1//2 7//2 4//2
f 1//3 4//3 6//3
f 1//3 6//3 2//3
f 2//4 6//4 8//4
f 2//4 8//4 5//4
f 3//5 5//5 8//5
f 3//5 8//5 7//5
f 4//6 7//6 8//6
f 4//6 8//6 6//6
