# Blender 4.2.11 LTS
# www.blender.org
o tmp_export_long-piece-2-collision.002
v -0.180065 0.058203 0.205479
v -0.230065 0.058203 0.205479
v -0.180065 0.008204 0.205479
v -0.180065 0.058400 0.180479
v -0.230065 0.008204 0.205479
v -0.230065 0.058400 0.180479
v -0.180065 0.008204 0.155479
v -0.180065 0.058400 0.155479
v -0.230065 0.008204 0.155479
v -0.230065 0.058400 0.155479
vn -0.0000 -0.0000 1.0000
vn 1.0000 -0.0000 -0.0000
vn -0.0000 1.0000 0.0079
vn -1.0000 -0.0000 -0.0000
vn -0.0000 -1.0000 -0.0000
vn -0.0000 1.0000 -0.0000
vn -0.0000 -0.0000 -1.0000
s 0
f 1//1 2//1 5//1
f 1//1 5//1 3//1
f 1//2 3//2 7//2
f 1//2 7//2 8//2
f 1//2 8//2 4//2
f 1//3 4//3 6//3
f 1//3 6//3 2//3
f 2//4 6//4 10//4
f 2//4 10//4 9//4
f 2//4 9//4 5//4
f 3//5 5//5 9//5
f 3//5 9//5 7//5
f 4//6 8//6 10//6
f 4//6 10//6 6//6
f 7//7 9//7 10//7
f 7//7 10//7 8//7
