# Blender 4.2.11 LTS
# www.blender.org
o tmp_export_long-piece.002
v -35.999985 -5.833405 -5.000000
v -25.999985 -5.833405 0.000000
v -35.999985 -5.833405 5.000000
v 26.000015 -5.833405 0.000000
v -25.999985 -5.833405 5.000000
v 36.000000 -5.833405 -5.000000
v 36.000000 -5.833405 5.000000
v 26.000015 -5.833405 5.000000
v 26.000015 4.166595 5.000000
v 26.000015 4.166595 0.000000
v 36.000000 4.166595 -5.000000
v 36.000000 4.166595 5.000000
v -5.499985 -0.833405 0.000000
v -25.999985 4.166595 0.000000
v 5.500015 -0.833405 0.000000
v 5.500015 4.166595 0.000000
v -5.499985 4.166595 0.000000
v 5.500015 4.166595 -5.000000
v 5.500015 -0.833405 -5.000000
v -5.499985 -0.833405 -5.000000
v -5.499985 4.166595 -5.000000
v -35.999985 4.166595 -5.000000
v -35.999985 4.166595 5.000000
v -25.999985 4.166595 5.000000
vn -0.0000 -1.0000 -0.0000
vn -1.0000 -0.0000 -0.0000
vn 1.0000 -0.0000 -0.0000
vn -0.0000 -0.0000 1.0000
vn -0.0000 1.0000 -0.0000
vn -0.0000 -0.0000 -1.0000
s 0
f 1//1 2//1 3//1
f 2//1 1//1 4//1
f 3//1 2//1 5//1
f 6//1 4//1 1//1
f 4//1 6//1 7//1
f 4//1 7//1 8//1
f 9//2 4//2 8//2
f 4//2 9//2 10//2
f 11//3 7//3 6//3
f 7//3 11//3 12//3
f 2//4 13//4 14//4
f 13//4 2//4 4//4
f 13//4 4//4 15//4
f 15//4 4//4 16//4
f 16//4 4//4 10//4
f 17//4 14//4 13//4
f 16//5 11//5 18//5
f 11//5 16//5 10//5
f 11//5 10//5 12//5
f 12//5 10//5 9//5
f 16//2 19//2 15//2
f 19//2 16//2 18//2
f 13//5 19//5 20//5
f 19//5 13//5 15//5
f 11//6 19//6 18//6
f 21//6 1//6 22//6
f 1//6 21//6 20//6
f 1//6 20//6 6//6
f 6//6 20//6 19//6
f 6//6 19//6 11//6
f 21//3 13//3 20//3
f 13//3 21//3 17//3
f 22//5 14//5 21//5
f 14//5 22//5 23//5
f 14//5 23//5 24//5
f 17//5 21//5 14//5
f 14//3 5//3 2//3
f 5//3 14//3 24//3
f 5//4 23//4 3//4
f 23//4 5//4 24//4
f 23//2 1//2 3//2
f 1//2 23//2 22//2
f 7//4 9//4 8//4
f 9//4 7//4 12//4
