# Blender 4.2.11 LTS
# www.blender.org
o tmp_export_interlocking-puzzle-1-1-collision.004
v 0.038058 0.049020 0.036663
v 0.150000 0.048954 0.036714
v 0.038058 0.049020 0.000289
v -0.038058 0.049020 0.036663
v 0.150000 -0.062980 0.036714
v 0.150000 0.048954 -0.037488
v -0.150000 0.048954 0.036714
v -0.038058 0.049020 0.000289
v 0.150000 -0.062980 0.002083
v -0.150000 -0.062980 0.036714
v 0.150000 -0.007008 -0.037488
v -0.150000 0.048954 -0.037488
v 0.094029 -0.062980 -0.037488
v -0.150000 -0.062980 0.002083
v -0.150000 -0.007008 -0.037488
v -0.094029 -0.062980 -0.037488
vn 0.0006 1.0000 -0.0000
vn -0.0000 1.0000 -0.0000
vn -0.0000 0.6115 0.7913
vn -0.0000 0.6115 0.7912
vn 1.0000 -0.0000 -0.0000
vn -0.0000 -0.0000 1.0000
vn -0.0000 1.0000 -0.0017
vn -0.0006 1.0000 -0.0000
vn -0.0000 -1.0000 -0.0000
vn -0.0000 -0.0000 -1.0000
vn -1.0000 -0.0000 -0.0000
vn 0.5000 -0.4999 -0.7072
vn -0.5000 -0.4999 -0.7072
s 0
f 1//1 2//1 6//1
f 1//1 6//1 3//1
f 1//2 3//2 8//2
f 1//2 8//2 4//2
f 1//3 4//3 7//3
f 1//4 7//4 2//4
f 2//5 5//5 9//5
f 2//5 9//5 11//5
f 2//5 11//5 6//5
f 2//6 7//6 10//6
f 2//6 10//6 5//6
f 3//7 6//7 12//7
f 3//7 12//7 8//7
f 4//8 8//8 12//8
f 4//8 12//8 7//8
f 5//9 10//9 14//9
f 5//9 14//9 16//9
f 5//9 16//9 13//9
f 5//9 13//9 9//9
f 6//10 11//10 13//10
f 6//10 13//10 16//10
f 6//10 16//10 15//10
f 6//10 15//10 12//10
f 7//11 12//11 15//11
f 7//11 15//11 14//11
f 7//11 14//11 10//11
f 9//12 13//12 11//12
f 14//13 15//13 16//13
