# Blender 4.2.11 LTS
# www.blender.org
o tmp_export_interlocking-puzzle-1
v 7.612499 30.000000 2.587257
v 7.612499 7.612499 2.587257
v 7.612499 30.000000 10.143506
v 7.612499 7.612499 10.143506
v 30.000000 30.000000 -4.328817
v 30.000000 18.806252 -12.243993
v 18.806252 30.000000 -12.243993
v 30.000000 7.612499 -12.243993
v 30.000000 7.612499 10.143506
v 30.000000 30.000000 10.143506
v -7.612499 7.612499 2.587257
v -7.612499 30.000000 2.587257
v -7.612499 7.612499 10.143506
v -7.612499 30.000000 10.143506
v -29.999998 18.806252 -12.243993
v -29.999998 30.000000 -4.328817
v -18.806250 30.000000 -12.243993
v -29.999998 30.000000 10.143506
v -29.999998 7.612499 10.143506
v -29.999998 7.612499 -12.243993
v -7.612499 -29.999998 2.587257
v -7.612499 -7.612499 2.587257
v -7.612499 -29.999998 10.143506
v -7.612499 -7.612499 10.143506
v -29.999998 -29.999998 -4.328817
v -29.999998 -18.806248 -12.243993
v -18.806250 -29.999998 -12.243993
v -29.999998 -7.612499 -12.243993
v -29.999998 -7.612499 10.143506
v -29.999998 -29.999998 10.143506
v 7.612499 -7.612499 -4.687743
v 30.000000 -7.612499 -12.243993
v 7.612499 -7.612499 2.587257
v 30.000000 -7.612499 10.143506
v 7.612499 -7.612499 10.143506
v -7.612499 -7.612499 -4.687743
v 18.806252 -29.999998 -12.243993
v 30.000000 -18.806248 -12.243993
v 7.612499 -29.999998 2.587257
v 7.612499 -29.999998 10.143506
v 30.000000 -29.999998 -4.328817
v 30.000000 -29.999998 10.143506
v -7.612499 7.612499 -4.687743
v 7.612499 7.612499 -4.687743
vn -1.0000 -0.0000 -0.0000
vn 0.5000 0.5000 -0.7071
vn 1.0000 -0.0000 -0.0000
vn -0.0000 -0.0000 1.0000
vn -0.5000 0.5000 -0.7071
vn -0.5000 -0.5000 -0.7071
vn -0.0000 1.0000 -0.0000
vn -0.0000 -0.0000 -1.0000
vn 0.5000 -0.5000 -0.7071
vn -0.0000 -1.0000 -0.0000
s 0
f 1//1 2//1 3//1
f 3//1 2//1 4//1
f 5//2 6//2 7//2
f 8//3 6//3 9//3
f 9//3 6//3 5//3
f 9//3 5//3 10//3
f 4//4 9//4 3//4
f 3//4 9//4 10//4
f 11//3 12//3 13//3
f 13//3 12//3 14//3
f 15//5 16//5 17//5
f 18//1 16//1 19//1
f 19//1 16//1 15//1
f 19//1 15//1 20//1
f 14//4 18//4 13//4
f 13//4 18//4 19//4
f 21//3 22//3 23//3
f 23//3 22//3 24//3
f 25//6 26//6 27//6
f 28//1 26//1 29//1
f 29//1 26//1 25//1
f 29//1 25//1 30//1
f 28//7 31//7 32//7
f 32//7 31//7 33//7
f 32//7 33//7 34//7
f 34//7 33//7 35//7
f 29//7 22//7 28//7
f 28//7 22//7 36//7
f 28//7 36//7 31//7
f 29//7 24//7 22//7
f 37//8 27//8 38//8
f 38//8 27//8 26//8
f 38//8 26//8 32//8
f 32//8 26//8 28//8
f 30//4 23//4 29//4
f 29//4 23//4 24//4
f 33//1 39//1 35//1
f 35//1 39//1 40//1
f 38//9 41//9 37//9
f 42//3 41//3 34//3
f 34//3 41//3 38//3
f 34//3 38//3 32//3
f 40//4 42//4 35//4
f 35//4 42//4 34//4
f 1//4 12//4 2//4
f 2//4 12//4 11//4
f 2//4 11//4 33//4
f 33//4 11//4 22//4
f 33//4 22//4 39//4
f 39//4 22//4 21//4
f 43//8 44//8 36//8
f 36//8 44//8 31//8
f 11//1 43//1 22//1
f 22//1 43//1 36//1
f 21//10 27//10 39//10
f 39//10 27//10 37//10
f 39//10 37//10 41//10
f 23//10 30//10 21//10
f 21//10 30//10 25//10
f 21//10 25//10 27//10
f 41//10 42//10 39//10
f 39//10 42//10 40//10
f 44//3 2//3 31//3
f 31//3 2//3 33//3
f 17//8 7//8 15//8
f 15//8 7//8 6//8
f 15//8 6//8 20//8
f 20//8 6//8 8//8
f 17//7 12//7 7//7
f 7//7 12//7 1//7
f 7//7 1//7 5//7
f 5//7 1//7 10//7
f 10//7 1//7 3//7
f 17//7 16//7 12//7
f 12//7 16//7 18//7
f 12//7 18//7 14//7
f 8//10 43//10 20//10
f 20//10 43//10 11//10
f 20//10 11//10 19//10
f 19//10 11//10 13//10
f 43//10 8//10 44//10
f 44//10 8//10 9//10
f 44//10 9//10 2//10
f 2//10 9//10 4//10
