# Blender 4.2.11 LTS
# www.blender.org
o tmp_export_interlocking-puzzle-1-1-collision.001
v 0.038063 0.037969 0.018180
v 0.038063 0.037969 -0.018180
v -0.038062 0.037969 0.018180
v 0.038063 -0.037970 0.018180
v 0.038063 -0.037970 -0.018180
v -0.038062 0.037969 -0.018180
v -0.038062 -0.037970 0.018180
v -0.038062 -0.037970 -0.018180
vn -0.0000 1.0000 -0.0000
vn -0.0000 -0.0000 1.0000
vn 1.0000 -0.0000 -0.0000
vn -0.0000 -0.0000 -1.0000
vn -1.0000 -0.0000 -0.0000
vn -0.0000 -1.0000 -0.0000
s 0
f 1//1 2//1 6//1
f 1//1 6//1 3//1
f 1//2 3//2 7//2
f 1//2 7//2 4//2
f 1//3 4//3 5//3
f 1//3 5//3 2//3
f 2//4 5//4 8//4
f 2//4 8//4 6//4
f 3//5 6//5 8//5
f 3//5 8//5 7//5
f 4//6 7//6 8//6
f 4//6 8//6 5//6
