# Blender 4.2.11 LTS
# www.blender.org
o tmp_export_geometry_13.004
v -0.315370 0.350333 0.250899
v -0.315370 0.302929 0.250899
v -0.315370 0.350333 0.203603
v -0.365365 0.350333 0.250899
v -0.315370 0.302929 0.203505
v -0.317871 0.300432 0.250899
v -0.315380 0.350333 0.203500
v -0.365365 0.350333 0.203505
v -0.365370 0.302929 0.203505
v -0.365365 0.302929 0.250899
v -0.317871 0.300432 0.203505
v -0.317871 0.302929 0.201005
v -0.317871 0.350333 0.201005
v -0.317974 0.300432 0.250899
v -0.362869 0.350333 0.201010
v -0.362869 0.302929 0.201010
v -0.362869 0.300432 0.203505
v -0.362874 0.300437 0.250899
v -0.317964 0.350333 0.201005
vn 1.0000 -0.0000 -0.0000
vn -0.0000 1.0000 -0.0000
vn -0.0000 -0.0000 1.0000
vn 0.7064 -0.7078 -0.0000
vn 0.9955 0.0002 -0.0949
vn -1.0000 0.0001 -0.0000
vn -1.0000 -0.0000 0.0001
vn 0.5770 -0.5780 -0.5771
vn 0.7070 -0.0000 -0.7072
vn 0.7077 0.0001 -0.7065
vn -0.0000 -1.0000 -0.0000
vn -0.7070 0.0001 -0.7072
vn -0.7064 -0.0000 -0.7078
vn -0.5766 -0.5777 -0.5778
vn -0.7064 -0.7078 -0.0000
vn -0.7071 -0.7071 0.0001
vn -0.0000 -0.7077 -0.7065
vn -0.0001 -0.7070 -0.7072
vn -0.0001 -0.0000 -1.0000
vn -0.0000 -0.0000 -1.0000
vn -0.0001 -1.0000 0.0001
s 0
f 1//1 2//1 5//1
f 1//1 5//1 3//1
f 1//2 3//2 7//2
f 1//2 7//2 13//2
f 1//2 13//2 19//2
f 1//2 19//2 15//2
f 1//2 15//2 8//2
f 1//2 8//2 4//2
f 1//3 4//3 10//3
f 1//3 10//3 18//3
f 1//3 18//3 14//3
f 1//3 14//3 6//3
f 1//3 6//3 2//3
f 2//4 6//4 11//4
f 2//4 11//4 5//4
f 3//5 5//5 7//5
f 4//6 8//6 9//6
f 4//7 9//7 10//7
f 5//8 11//8 12//8
f 5//9 12//9 13//9
f 5//10 13//10 7//10
f 6//11 14//11 17//11
f 6//11 17//11 11//11
f 8//12 15//12 9//12
f 9//13 15//13 16//13
f 9//14 16//14 17//14
f 9//15 17//15 18//15
f 9//16 18//16 10//16
f 11//17 17//17 12//17
f 12//18 17//18 16//18
f 12//19 16//19 19//19
f 12//20 19//20 13//20
f 14//21 18//21 17//21
f 15//19 19//19 16//19
