# Blender 4.2.11 LTS
# www.blender.org
o tmp_export_geometry_0.006
v -0.315370 0.191313 0.298499
v -0.317871 0.191313 0.300995
v -0.317871 0.150577 0.300995
v -0.315375 0.150577 0.298499
v -0.315370 0.150577 0.298372
v -0.315370 0.191313 0.203511
v -0.362869 0.191313 0.300995
v -0.362869 0.150577 0.300995
v -0.315370 0.150577 0.203511
v -0.317871 0.191313 0.201014
v -0.365365 0.191313 0.298499
v -0.365365 0.150577 0.298499
v -0.317871 0.150577 0.201014
v -0.362869 0.191313 0.201014
v -0.365370 0.150577 0.266960
v -0.365370 0.191313 0.258258
v -0.365370 0.167695 0.263309
v -0.362869 0.150577 0.201014
v -0.362953 0.191313 0.201093
v -0.365370 0.150577 0.203511
v -0.365370 0.191313 0.203511
vn 0.7064 -0.0000 0.7078
vn 0.7071 -0.0001 0.7071
vn 0.9993 -0.0001 0.0384
vn 1.0000 -0.0000 -0.0000
vn -0.0000 1.0000 -0.0000
vn -0.0000 1.0000 -0.0001
vn -0.0000 -0.0000 1.0000
vn -0.0000 -1.0000 -0.0000
vn -0.0000 -1.0000 -0.0001
vn 0.7064 -0.0000 -0.7078
vn -0.7071 -0.0000 0.7071
vn -0.0000 -0.0000 -1.0000
vn -1.0000 -0.0000 0.0002
vn -1.0000 -0.0000 0.0001
vn -0.6854 -0.0000 -0.7281
vn -1.0000 -0.0010 -0.0000
vn -1.0000 -0.0000 -0.0000
vn -0.7064 -0.0001 -0.7078
vn -0.7071 -0.0000 -0.7071
s 0
f 1//1 2//1 3//1
f 1//2 3//2 4//2
f 1//3 4//3 5//3
f 1//4 5//4 9//4
f 1//4 9//4 6//4
f 1//5 6//5 10//5
f 1//5 10//5 14//5
f 1//6 14//6 19//6
f 1//5 19//5 21//5
f 1//5 21//5 16//5
f 1//5 16//5 11//5
f 1//5 11//5 7//5
f 1//5 7//5 2//5
f 2//7 7//7 8//7
f 2//7 8//7 3//7
f 3//8 8//8 12//8
f 3//8 12//8 15//8
f 3//8 15//8 20//8
f 3//8 20//8 18//8
f 3//8 18//8 13//8
f 3//8 13//8 9//8
f 3//8 9//8 5//8
f 3//9 5//9 4//9
f 6//10 9//10 13//10
f 6//10 13//10 10//10
f 7//11 11//11 12//11
f 7//11 12//11 8//11
f 10//12 13//12 18//12
f 10//12 18//12 14//12
f 11//13 15//13 12//13
f 11//14 16//14 17//14
f 11//14 17//14 15//14
f 14//15 18//15 19//15
f 15//16 17//16 16//16
f 15//17 16//17 21//17
f 15//17 21//17 20//17
f 18//18 20//18 19//18
f 19//19 20//19 21//19
