# Blender 4.2.11 LTS
# www.blender.org
o tmp_export_geometry_9.002
v -0.312839 0.296510 0.253505
v -0.312839 0.297927 0.253505
v -0.267875 0.296510 0.253505
v -0.312839 0.296510 0.258065
v -0.312839 0.300426 0.256003
v -0.267875 0.300427 0.256004
v -0.267875 0.297927 0.253505
v -0.265370 0.296510 0.256004
v -0.312839 0.300427 0.258065
v -0.265370 0.296510 0.258065
v -0.312839 0.300427 0.256033
v -0.267875 0.300427 0.258065
v -0.265370 0.297927 0.256004
v -0.265370 0.297927 0.258065
vn -0.0000 -0.0000 -1.0000
vn -0.0000 -1.0000 -0.0000
vn -1.0000 -0.0000 -0.0000
vn -1.0000 0.0003 -0.0000
vn -0.0000 0.7070 -0.7072
vn 0.7064 -0.0000 -0.7078
vn -0.0000 -0.0000 1.0000
vn -0.0000 0.9981 -0.0617
vn -0.0000 1.0000 -0.0000
vn 0.7065 0.7077 -0.0000
vn 0.7065 0.7078 -0.0000
vn 0.5766 0.5777 -0.5778
vn 1.0000 -0.0000 -0.0000
s 0
f 1//1 2//1 7//1
f 1//1 7//1 3//1
f 1//2 3//2 8//2
f 1//2 8//2 10//2
f 1//2 10//2 4//2
f 1//3 4//3 9//3
f 1//3 9//3 11//3
f 1//4 11//4 5//4
f 1//3 5//3 2//3
f 2//5 5//5 6//5
f 2//5 6//5 7//5
f 3//6 7//6 13//6
f 3//6 13//6 8//6
f 4//7 10//7 14//7
f 4//7 14//7 12//7
f 4//7 12//7 9//7
f 5//8 11//8 6//8
f 6//9 11//9 9//9
f 6//9 9//9 12//9
f 6//10 12//10 14//10
f 6//11 14//11 13//11
f 6//12 13//12 7//12
f 8//13 13//13 14//13
f 8//13 14//13 10//13
