# Blender 4.2.11 LTS
# www.blender.org
o tmp_export_geometry_11.005
v -0.315375 0.150577 0.295182
v -0.365365 0.150577 0.295182
v -0.312353 0.147916 0.295182
v -0.312337 0.147916 0.216610
v -0.315375 0.150547 0.216610
v -0.315769 0.150577 0.216610
v -0.365370 0.150577 0.266963
v -0.365370 0.026075 0.295182
v -0.312337 0.143963 0.295182
v -0.312337 0.000427 0.216610
v -0.365370 0.150577 0.216610
v -0.365370 0.002941 0.295182
v -0.312337 0.000427 0.295182
v -0.362868 0.000427 0.216610
v -0.365370 0.002941 0.216610
v -0.365022 0.002588 0.216610
v -0.362956 0.000516 0.295182
v -0.362868 0.000427 0.295182
vn -0.0000 -0.0000 1.0000
vn 0.6608 0.7506 0.0001
vn 0.6547 0.7559 -0.0003
vn 0.0743 0.9972 -0.0004
vn -0.0000 1.0000 -0.0000
vn -1.0000 -0.0000 0.0002
vn 1.0000 0.0039 0.0002
vn 1.0000 -0.0000 -0.0000
vn -0.0000 -0.0000 -1.0000
vn 0.0001 -0.0000 -1.0000
vn -1.0000 -0.0000 -0.0000
vn -0.0000 -1.0000 -0.0000
vn -0.7120 -0.7022 -0.0000
vn -0.7087 -0.7055 -0.0000
vn -0.7067 -0.7075 -0.0000
vn -0.7081 -0.7061 -0.0000
s 0
f 1//1 2//1 8//1
f 1//1 8//1 12//1
f 1//1 12//1 17//1
f 1//1 17//1 18//1
f 1//1 18//1 13//1
f 1//1 13//1 9//1
f 1//1 9//1 3//1
f 1//2 3//2 4//2
f 1//3 4//3 5//3
f 1//4 5//4 6//4
f 1//5 6//5 11//5
f 1//5 11//5 7//5
f 1//5 7//5 2//5
f 2//6 7//6 8//6
f 3//7 9//7 4//7
f 4//8 9//8 13//8
f 4//8 13//8 10//8
f 4//9 10//9 14//9
f 4//9 14//9 16//9
f 4//10 16//10 15//10
f 4//9 15//9 11//9
f 4//9 11//9 6//9
f 4//9 6//9 5//9
f 7//11 11//11 15//11
f 7//11 15//11 12//11
f 7//11 12//11 8//11
f 10//12 13//12 18//12
f 10//12 18//12 14//12
f 12//13 15//13 16//13
f 12//14 16//14 17//14
f 14//15 18//15 17//15
f 14//16 17//16 16//16
