# Blender 4.2.11 LTS
# www.blender.org
o tmp_export_geometry_12.004
v -0.365370 0.318604 0.250899
v -0.365370 0.318604 0.258065
v -0.365370 0.497915 0.250899
v -0.365365 0.302937 0.250899
v -0.365365 0.296530 0.256004
v -0.365370 0.497915 0.258065
v -0.365365 0.296530 0.258065
v -0.363793 0.499492 0.250899
v -0.362871 0.300442 0.250899
v -0.362871 0.296530 0.253506
v -0.365303 0.296530 0.255940
v -0.363932 0.499352 0.258065
v -0.312846 0.296530 0.258065
v -0.362866 0.500410 0.258065
v -0.362866 0.500410 0.250899
v -0.317875 0.300442 0.250899
v -0.362845 0.296530 0.253505
v -0.312846 0.296530 0.253505
v -0.312722 0.352953 0.258065
v -0.312722 0.500410 0.258065
v -0.312722 0.500410 0.250899
v -0.315376 0.302937 0.250899
v -0.312722 0.352953 0.250899
vn -1.0000 -0.0000 -0.0000
vn -0.0000 -0.0000 -1.0000
vn -1.0000 -0.0003 -0.0004
vn -1.0000 -0.0002 -0.0000
vn -0.0000 -0.0000 1.0000
vn -0.7070 0.7072 -0.0000
vn -0.4851 -0.4850 -0.7277
vn -0.6163 -0.4906 -0.6160
vn -0.6288 -0.4844 -0.6083
vn -0.0000 -1.0000 -0.0000
vn -0.0000 -1.0000 -0.0001
vn -0.7069 0.7073 0.0001
vn -0.7034 0.7108 -0.0000
vn -0.7041 0.7101 0.0002
vn -0.0000 -0.5544 -0.8323
vn -0.0461 -0.5539 -0.8313
vn 1.0000 -0.0022 -0.0000
vn -0.0000 1.0000 -0.0000
vn 0.2692 -0.2697 -0.9245
vn 0.6717 -0.0356 -0.7399
vn 1.0000 -0.0000 -0.0000
s 0
f 1//1 2//1 6//1
f 1//1 6//1 3//1
f 1//2 3//2 8//2
f 1//2 8//2 15//2
f 1//2 15//2 21//2
f 1//2 21//2 23//2
f 1//2 23//2 22//2
f 1//2 22//2 16//2
f 1//2 16//2 9//2
f 1//2 9//2 4//2
f 1//3 4//3 5//3
f 1//4 5//4 7//4
f 1//4 7//4 2//4
f 2//5 7//5 13//5
f 2//5 13//5 19//5
f 2//5 19//5 20//5
f 2//5 20//5 14//5
f 2//5 14//5 12//5
f 2//5 12//5 6//5
f 3//6 6//6 8//6
f 4//7 9//7 10//7
f 4//8 10//8 11//8
f 4//9 11//9 5//9
f 5//10 11//10 10//10
f 5//11 10//11 17//11
f 5//10 17//10 18//10
f 5//10 18//10 13//10
f 5//10 13//10 7//10
f 6//12 12//12 8//12
f 8//13 14//13 15//13
f 8//14 12//14 14//14
f 9//15 16//15 18//15
f 9//15 18//15 17//15
f 9//16 17//16 10//16
f 13//17 18//17 23//17
f 13//17 23//17 19//17
f 14//18 20//18 21//18
f 14//18 21//18 15//18
f 16//19 22//19 18//19
f 18//20 22//20 23//20
f 19//21 23//21 21//21
f 19//21 21//21 20//21
