# Blender 4.2.11 LTS
# www.blender.org
o tmp_export_geometry_5.004
v -0.365370 0.191317 0.250477
v -0.365370 0.191317 0.258267
v -0.365370 0.197929 0.250477
v -0.315372 0.191317 0.250477
v -0.365365 0.191317 0.298502
v -0.365365 0.206290 0.298502
v -0.365370 0.206290 0.256007
v -0.362957 0.206290 0.253593
v -0.362870 0.206290 0.253509
v -0.362870 0.200427 0.250477
v -0.315372 0.197929 0.250477
v -0.312804 0.202927 0.253509
v -0.312804 0.200427 0.256007
v -0.315372 0.191317 0.298502
v -0.365247 0.206290 0.298626
v -0.364418 0.191317 0.299452
v -0.312804 0.206290 0.253509
v -0.317873 0.200427 0.250477
v -0.312804 0.200427 0.298502
v -0.312804 0.202927 0.301000
v -0.317873 0.191317 0.301000
v -0.362870 0.191317 0.301005
v -0.362870 0.206290 0.301005
v -0.312804 0.206290 0.301000
vn -1.0000 -0.0000 -0.0000
vn -0.0000 -0.0000 -1.0000
vn -0.0000 -1.0000 -0.0000
vn -1.0000 -0.0000 0.0001
vn -0.6406 0.4236 -0.6405
vn -0.6276 0.4243 -0.6528
vn -0.4170 0.4175 -0.8074
vn 0.7631 -0.0000 -0.6463
vn 0.7631 -0.0000 -0.6462
vn 0.9706 -0.1702 -0.1704
vn 0.9625 -0.2713 -0.0000
vn -0.7224 -0.0000 0.6914
vn -0.7082 -0.0002 0.7061
vn -0.0000 1.0000 -0.0000
vn -0.0000 0.4593 -0.8883
vn 0.2580 0.2583 -0.9310
vn 1.0000 -0.0000 -0.0000
vn 0.9289 -0.2618 0.2621
vn 0.6753 -0.2948 0.6761
vn -0.7081 -0.0002 0.7061
vn -0.7074 -0.0000 0.7068
vn 0.0001 -0.0000 1.0000
s 0
f 1//1 2//1 7//1
f 1//1 7//1 3//1
f 1//2 3//2 10//2
f 1//2 10//2 18//2
f 1//2 18//2 11//2
f 1//2 11//2 4//2
f 1//3 4//3 14//3
f 1//3 14//3 21//3
f 1//3 21//3 22//3
f 1//3 22//3 16//3
f 1//3 16//3 5//3
f 1//3 5//3 2//3
f 2//4 5//4 6//4
f 2//4 6//4 7//4
f 3//5 7//5 8//5
f 3//6 8//6 9//6
f 3//7 9//7 10//7
f 4//8 11//8 17//8
f 4//9 17//9 12//9
f 4//10 12//10 13//10
f 4//11 13//11 19//11
f 4//11 19//11 14//11
f 5//12 15//12 6//12
f 5//13 16//13 15//13
f 6//14 15//14 23//14
f 6//14 23//14 24//14
f 6//14 24//14 17//14
f 6//14 17//14 9//14
f 6//14 9//14 8//14
f 6//14 8//14 7//14
f 9//15 17//15 18//15
f 9//15 18//15 10//15
f 11//16 18//16 17//16
f 12//17 17//17 24//17
f 12//17 24//17 20//17
f 12//17 20//17 19//17
f 12//17 19//17 13//17
f 14//18 19//18 20//18
f 14//19 20//19 21//19
f 15//20 16//20 22//20
f 15//21 22//21 23//21
f 20//22 24//22 23//22
f 20//22 23//22 22//22
f 20//22 22//22 21//22
