# Blender 4.2.11 LTS
# www.blender.org
o tmp_export_geometry_4.005
v -0.365370 0.002941 0.295182
v -0.362956 0.000516 0.295182
v -0.365370 0.002941 0.298504
v -0.365370 0.026075 0.295182
v -0.362868 0.000427 0.295182
v -0.362868 0.000427 0.298504
v -0.362868 0.002941 0.301004
v -0.362868 0.150577 0.301005
v -0.364623 0.150577 0.299250
v -0.365365 0.150577 0.298504
v -0.365365 0.150577 0.295182
v -0.312337 0.000427 0.295182
v -0.312337 0.000427 0.298504
v -0.312337 0.002941 0.301004
v -0.317872 0.150577 0.301004
v -0.312337 0.145418 0.301004
v -0.315375 0.150577 0.295182
v -0.312337 0.143963 0.295182
v -0.312337 0.147916 0.298504
v -0.315375 0.150577 0.298505
v -0.312337 0.147887 0.298534
v -0.312353 0.147916 0.295182
vn -0.7087 -0.7055 -0.0000
vn -1.0000 -0.0000 -0.0000
vn -0.0000 -0.0000 -1.0000
vn -0.0066 -0.0000 -1.0000
vn -0.7067 -0.7076 -0.0000
vn -0.7086 -0.7056 0.0001
vn -0.7067 -0.0000 0.7075
vn -0.7070 -0.0000 0.7072
vn -0.7089 -0.0000 0.7053
vn -1.0000 -0.0000 0.0002
vn -0.5780 -0.5755 0.5786
vn -0.0000 -1.0000 -0.0000
vn -0.0000 -0.7052 0.7090
vn -0.0000 -0.0000 1.0000
vn -0.0000 1.0000 -0.0000
vn -0.0000 1.0000 -0.0042
vn 1.0000 -0.0000 -0.0000
vn 0.5504 0.6281 0.5500
vn 0.5504 0.5904 0.5903
vn 0.5508 0.5985 0.5817
vn 0.6608 0.7506 -0.0031
vn 0.6589 0.7522 -0.0000
vn 1.0000 0.0039 -0.0047
s 0
f 1//1 2//1 3//1
f 1//2 3//2 4//2
f 1//3 4//3 11//3
f 1//3 11//3 17//3
f 1//3 17//3 22//3
f 1//3 22//3 18//3
f 1//3 18//3 12//3
f 1//3 12//3 5//3
f 1//4 5//4 2//4
f 2//5 5//5 6//5
f 2//6 6//6 3//6
f 3//7 7//7 8//7
f 3//8 8//8 9//8
f 3//9 9//9 10//9
f 3//10 10//10 4//10
f 3//11 6//11 7//11
f 4//2 10//2 11//2
f 5//12 12//12 13//12
f 5//12 13//12 6//12
f 6//13 13//13 14//13
f 6//13 14//13 7//13
f 7//14 14//14 8//14
f 8//15 15//15 20//15
f 8//15 20//15 17//15
f 8//15 17//15 11//15
f 8//15 11//15 10//15
f 8//16 10//16 9//16
f 8//14 14//14 16//14
f 8//14 16//14 15//14
f 12//17 18//17 19//17
f 12//17 19//17 21//17
f 12//17 21//17 16//17
f 12//17 16//17 14//17
f 12//17 14//17 13//17
f 15//18 19//18 20//18
f 15//19 16//19 21//19
f 15//20 21//20 19//20
f 17//21 19//21 22//21
f 17//22 20//22 19//22
f 18//23 22//23 19//23
