# Blender 4.2.11 LTS
# www.blender.org
o tmp_export_geometry_10.005
v -0.312804 0.206291 0.258065
v -0.265375 0.206291 0.258065
v -0.312804 0.206291 0.301000
v -0.312804 0.300427 0.258065
v -0.265375 0.206291 0.298504
v -0.265370 0.293314 0.258065
v -0.267873 0.206291 0.301000
v -0.312804 0.295654 0.301005
v -0.312804 0.300427 0.298504
v -0.267873 0.300427 0.258065
v -0.265463 0.206291 0.298592
v -0.265370 0.297921 0.298504
v -0.265370 0.297921 0.258065
v -0.267873 0.297921 0.301005
v -0.312804 0.297921 0.301005
v -0.267873 0.300427 0.298504
vn -0.0000 -1.0000 -0.0000
vn -1.0000 -0.0000 -0.0000
vn -0.0000 -0.0000 -1.0000
vn 1.0000 -0.0001 -0.0000
vn -0.0000 -0.0000 1.0000
vn -0.0000 1.0000 -0.0000
vn 0.7073 -0.0000 0.7069
vn 1.0000 -0.0000 -0.0000
vn 0.7069 -0.0000 0.7073
vn 0.7069 -0.0000 0.7074
vn -0.0000 0.7063 0.7079
vn 0.7076 0.7066 -0.0000
vn 0.5775 0.5766 0.5779
s 0
f 1//1 2//1 5//1
f 1//1 5//1 11//1
f 1//1 11//1 7//1
f 1//1 7//1 3//1
f 1//2 3//2 8//2
f 1//2 8//2 15//2
f 1//2 15//2 9//2
f 1//2 9//2 4//2
f 1//3 4//3 10//3
f 1//3 10//3 13//3
f 1//3 13//3 6//3
f 1//3 6//3 2//3
f 2//4 6//4 5//4
f 3//5 7//5 8//5
f 4//6 9//6 16//6
f 4//6 16//6 10//6
f 5//4 6//4 12//4
f 5//7 12//7 11//7
f 6//8 13//8 12//8
f 7//9 11//9 12//9
f 7//10 12//10 14//10
f 7//5 14//5 8//5
f 8//5 14//5 15//5
f 9//11 15//11 14//11
f 9//11 14//11 16//11
f 10//12 16//12 12//12
f 10//12 12//12 13//12
f 12//13 16//13 14//13
