# Blender 4.2.11 LTS
# www.blender.org
o tmp_export_geometry_1.005
v -0.267871 0.145415 0.300995
v -0.265375 0.145415 0.298499
v -0.267871 0.147913 0.298499
v -0.312332 0.147884 0.298528
v -0.312332 0.145415 0.300995
v -0.267871 0.002940 0.300995
v -0.265375 0.145415 0.203511
v -0.265375 0.002940 0.298499
v -0.312332 0.147913 0.298499
v -0.267871 0.147913 0.203511
v -0.312332 0.002940 0.300995
v -0.312332 0.001770 0.299830
v -0.267871 0.000442 0.298499
v -0.267871 0.145415 0.201014
v -0.265375 0.002940 0.203511
v -0.312332 0.147913 0.203511
v -0.312332 0.147884 0.203481
v -0.312332 0.000442 0.298499
v -0.267871 0.000442 0.203511
v -0.312332 0.145415 0.201014
v -0.267871 0.002940 0.201014
v -0.312332 0.000442 0.203511
v -0.312332 0.001611 0.202336
v -0.312332 0.002940 0.201014
vn 0.5775 0.5771 0.5775
vn -0.0000 0.7069 0.7073
vn -0.0000 0.7068 0.7074
vn -0.0000 -0.0000 1.0000
vn 0.7071 -0.0000 0.7071
vn 0.7073 0.7069 -0.0000
vn 1.0000 -0.0000 -0.0000
vn -0.0000 0.7128 0.7014
vn -0.0000 1.0000 -0.0000
vn -1.0000 -0.0000 -0.0000
vn -1.0000 0.0002 -0.0000
vn -0.0000 -0.7057 0.7085
vn 0.0001 -0.7069 0.7073
vn 0.5775 -0.5771 0.5775
vn 0.5775 0.5771 -0.5775
vn 0.7071 -0.0000 -0.7071
vn 0.7073 -0.7069 -0.0000
vn -0.0000 0.7069 -0.7073
vn -0.0000 0.7130 -0.7012
vn -0.0000 -0.7079 0.7063
vn -0.0000 -1.0000 -0.0000
vn -0.0000 0.7068 -0.7074
vn -0.0000 -0.0000 -1.0000
vn 0.5775 -0.5771 -0.5775
vn -0.0000 -0.7087 -0.7056
vn 0.0001 -0.7069 -0.7074
vn -0.0000 -0.7053 -0.7089
s 0
f 1//1 2//1 3//1
f 1//2 3//2 4//2
f 1//3 4//3 5//3
f 1//4 5//4 11//4
f 1//4 11//4 6//4
f 1//5 6//5 8//5
f 1//5 8//5 2//5
f 2//6 7//6 10//6
f 2//6 10//6 3//6
f 2//7 8//7 15//7
f 2//7 15//7 7//7
f 3//8 9//8 4//8
f 3//9 10//9 16//9
f 3//9 16//9 9//9
f 4//10 9//10 16//10
f 4//11 16//11 17//11
f 4//10 17//10 20//10
f 4//10 20//10 24//10
f 4//10 24//10 23//10
f 4//10 23//10 22//10
f 4//10 22//10 18//10
f 4//10 18//10 12//10
f 4//10 12//10 11//10
f 4//10 11//10 5//10
f 6//12 11//12 12//12
f 6//13 12//13 13//13
f 6//14 13//14 8//14
f 7//15 14//15 10//15
f 7//16 15//16 21//16
f 7//16 21//16 14//16
f 8//17 13//17 19//17
f 8//17 19//17 15//17
f 10//18 14//18 17//18
f 10//19 17//19 16//19
f 12//20 18//20 13//20
f 13//21 18//21 22//21
f 13//21 22//21 19//21
f 14//22 20//22 17//22
f 14//23 21//23 24//23
f 14//23 24//23 20//23
f 15//24 19//24 21//24
f 19//25 22//25 23//25
f 19//26 23//26 21//26
f 21//27 23//27 24//27
