# Blender 4.2.11 LTS
# www.blender.org
o tmp_export_geometry_7.004
v -0.365370 0.002941 0.203505
v -0.362868 0.002941 0.201005
v -0.362868 0.000427 0.203505
v -0.365022 0.002588 0.216610
v -0.365370 0.002941 0.216610
v -0.365370 0.150577 0.203505
v -0.312337 0.002941 0.201005
v -0.312337 0.001603 0.202335
v -0.363475 0.150577 0.201613
v -0.362868 0.150577 0.201006
v -0.362868 0.000427 0.216610
v -0.312337 0.000427 0.203505
v -0.365370 0.150577 0.216610
v -0.317872 0.150577 0.201006
v -0.312337 0.145418 0.201006
v -0.312337 0.000427 0.216610
v -0.315769 0.150577 0.216610
v -0.315375 0.150577 0.203505
v -0.312337 0.147916 0.203505
v -0.312337 0.147916 0.216610
v -0.315375 0.150577 0.203658
v -0.315375 0.150547 0.216610
vn -0.5780 -0.5755 -0.5785
vn -0.7086 -0.7056 -0.0002
vn -0.7121 -0.7021 -0.0000
vn -1.0000 -0.0000 -0.0000
vn -0.7068 -0.0000 -0.7074
vn -0.0000 -0.7053 -0.7090
vn -0.0000 -0.7053 -0.7089
vn -0.7067 -0.0000 -0.7076
vn -0.7065 -0.0000 -0.7077
vn -0.0000 -0.0000 -1.0000
vn -0.7081 -0.7061 -0.0000
vn -0.0000 -0.7054 -0.7088
vn -0.0000 -1.0000 -0.0000
vn -0.0000 -0.0000 1.0000
vn -0.0001 -0.0000 1.0000
vn -0.0000 1.0000 -0.0000
vn -0.0000 0.9981 -0.0624
vn 1.0000 -0.0000 -0.0000
vn 0.9923 0.1240 -0.0000
vn 0.5503 0.6283 -0.5499
vn 0.5504 0.5904 -0.5903
vn 0.0743 0.9972 0.0023
vn 0.6590 0.7521 -0.0000
vn 0.6589 0.7522 -0.0000
vn 0.6547 0.7558 0.0017
s 0
f 1//1 2//1 3//1
f 1//2 3//2 4//2
f 1//3 4//3 5//3
f 1//4 5//4 13//4
f 1//4 13//4 6//4
f 1//5 6//5 2//5
f 2//6 7//6 8//6
f 2//7 8//7 3//7
f 2//8 6//8 9//8
f 2//9 9//9 10//9
f 2//10 10//10 14//10
f 2//10 14//10 7//10
f 3//11 11//11 4//11
f 3//12 8//12 12//12
f 3//13 12//13 16//13
f 3//13 16//13 11//13
f 4//14 11//14 16//14
f 4//14 16//14 20//14
f 4//14 20//14 22//14
f 4//15 22//15 17//15
f 4//14 17//14 13//14
f 4//14 13//14 5//14
f 6//16 13//16 17//16
f 6//16 17//16 21//16
f 6//16 21//16 18//16
f 6//16 18//16 14//16
f 6//16 14//16 10//16
f 6//17 10//17 9//17
f 7//10 14//10 15//10
f 7//18 15//18 19//18
f 7//18 19//18 20//18
f 7//18 20//18 16//18
f 7//18 16//18 12//18
f 7//19 12//19 8//19
f 14//20 18//20 19//20
f 14//21 19//21 15//21
f 17//22 22//22 21//22
f 18//23 21//23 20//23
f 18//24 20//24 19//24
f 20//25 21//25 22//25
