# Blender 4.2.11 LTS
# www.blender.org
o tmp_export_geometry_8.003
v -0.267878 0.497901 0.301005
v -0.265370 0.497901 0.298499
v -0.267878 0.500427 0.298499
v -0.312795 0.497901 0.301005
v -0.267878 0.355454 0.301005
v -0.265370 0.497901 0.250907
v -0.265370 0.355454 0.298499
v -0.267878 0.500427 0.203511
v -0.312795 0.500427 0.298499
v -0.312804 0.500427 0.250907
v -0.312795 0.355454 0.301005
v -0.267878 0.352956 0.298499
v -0.265375 0.497901 0.203511
v -0.265370 0.355454 0.250907
v -0.266810 0.354010 0.258062
v -0.267878 0.497901 0.201014
v -0.312804 0.499229 0.202326
v -0.312804 0.500427 0.203511
v -0.312804 0.352956 0.250907
v -0.312795 0.352956 0.298499
v -0.267878 0.352956 0.203511
v -0.265375 0.355454 0.203511
v -0.267878 0.355454 0.201005
v -0.312804 0.355656 0.201005
v -0.312804 0.497901 0.201014
v -0.312804 0.352956 0.203511
v -0.312804 0.355454 0.201005
vn 0.5787 0.5743 0.5790
vn -0.0000 0.7042 0.7100
vn -0.0000 -0.0000 1.0000
vn 0.7069 -0.0000 0.7073
vn 0.7098 0.7044 -0.0000
vn 1.0000 -0.0000 -0.0000
vn -0.0000 1.0000 -0.0000
vn -1.0000 0.0002 0.0002
vn -1.0000 -0.0000 0.0002
vn -0.0000 -0.7083 0.7059
vn 0.5765 -0.5787 0.5768
vn 0.7104 0.7038 -0.0001
vn 1.0000 -0.0000 -0.0001
vn 0.7057 -0.7085 0.0002
vn 0.7081 -0.7061 -0.0000
vn 0.5787 0.5732 -0.5802
vn -0.0000 0.7028 -0.7114
vn -0.0000 0.7030 -0.7112
vn -1.0000 -0.0000 -0.0000
vn -1.0000 -0.0002 0.0002
vn -0.0000 -1.0000 -0.0000
vn 0.7024 -0.7118 -0.0000
vn 0.7076 -0.0000 -0.7066
vn 0.7062 -0.0000 -0.7080
vn 0.7080 -0.7062 -0.0001
vn 0.7064 -0.7078 -0.0002
vn -0.0000 0.0001 -1.0000
vn -0.0000 0.7027 -0.7115
vn -0.0000 -0.7083 -0.7059
vn 0.5772 -0.5784 -0.5765
vn -0.0000 -0.0000 -1.0000
s 0
f 1//1 2//1 3//1
f 1//2 3//2 9//2
f 1//2 9//2 4//2
f 1//3 4//3 11//3
f 1//3 11//3 5//3
f 1//4 5//4 7//4
f 1//4 7//4 2//4
f 2//5 6//5 8//5
f 2//5 8//5 3//5
f 2//6 7//6 14//6
f 2//6 14//6 6//6
f 3//7 8//7 18//7
f 3//7 18//7 10//7
f 3//7 10//7 9//7
f 4//8 9//8 10//8
f 4//9 10//9 19//9
f 4//9 19//9 11//9
f 5//10 11//10 20//10
f 5//10 20//10 12//10
f 5//11 12//11 7//11
f 6//12 13//12 8//12
f 6//13 14//13 22//13
f 6//13 22//13 13//13
f 7//14 12//14 15//14
f 7//15 15//15 14//15
f 8//16 13//16 16//16
f 8//17 16//17 17//17
f 8//18 17//18 18//18
f 10//19 18//19 17//19
f 10//19 17//19 25//19
f 10//19 25//19 24//19
f 10//19 24//19 27//19
f 10//19 27//19 26//19
f 10//19 26//19 19//19
f 11//20 19//20 20//20
f 12//21 20//21 19//21
f 12//21 19//21 26//21
f 12//21 26//21 21//21
f 12//22 21//22 15//22
f 13//23 22//23 23//23
f 13//24 23//24 16//24
f 14//25 15//25 22//25
f 15//26 21//26 22//26
f 16//27 23//27 24//27
f 16//27 24//27 25//27
f 16//28 25//28 17//28
f 21//29 26//29 27//29
f 21//29 27//29 23//29
f 21//30 23//30 22//30
f 23//31 27//31 24//31
