# Blender 4.2.11 LTS
# www.blender.org
o tmp_export_long-piece-1-collision.003
v -0.335519 0.238648 0.207124
v -0.335519 0.238648 0.157124
v -0.385516 0.238648 0.207124
v -0.335338 0.213648 0.207124
v -0.385516 0.238648 0.157124
v -0.335338 0.213648 0.157124
v -0.385516 0.188653 0.207124
v -0.335338 0.188653 0.207124
v -0.385516 0.188648 0.157124
v -0.335338 0.188648 0.157124
vn -0.0000 1.0000 -0.0000
vn -0.0000 -0.0000 1.0000
vn 1.0000 0.0073 -0.0000
vn -0.0000 -0.0000 -1.0000
vn -1.0000 -0.0000 -0.0000
vn 1.0000 -0.0000 -0.0000
vn -0.0000 -1.0000 0.0001
s 0
f 1//1 2//1 5//1
f 1//1 5//1 3//1
f 1//2 3//2 7//2
f 1//2 7//2 8//2
f 1//2 8//2 4//2
f 1//3 4//3 6//3
f 1//3 6//3 2//3
f 2//4 6//4 10//4
f 2//4 10//4 9//4
f 2//4 9//4 5//4
f 3//5 5//5 9//5
f 3//5 9//5 7//5
f 4//6 8//6 10//6
f 4//6 10//6 6//6
f 7//7 9//7 10//7
f 7//7 10//7 8//7
