# Blender 4.2.11 LTS
# www.blender.org
o tmp_export_long-piece-1-collision.002
v -0.094385 0.188648 0.157124
v -0.094385 0.213648 0.157124
v -0.025523 0.188648 0.157124
v -0.094385 0.188648 0.168415
v -0.094385 0.213648 0.207124
v -0.075516 0.213660 0.157124
v -0.025523 0.213660 0.157124
v -0.025523 0.188650 0.207124
v -0.094385 0.188650 0.207124
v -0.075516 0.213660 0.207124
v -0.025523 0.213660 0.207124
vn -0.0000 -0.0000 -1.0000
vn -0.0000 -1.0000 -0.0000
vn -0.9999 -0.0168 -0.0000
vn -1.0000 -0.0000 -0.0000
vn -0.0006 1.0000 -0.0000
vn 1.0000 -0.0000 -0.0000
vn -0.0000 -1.0000 0.0001
vn -0.0000 -0.0000 1.0000
vn -0.0000 1.0000 -0.0000
s 0
f 1//1 2//1 6//1
f 1//1 6//1 7//1
f 1//1 7//1 3//1
f 1//2 3//2 4//2
f 1//3 4//3 9//3
f 1//4 9//4 5//4
f 1//4 5//4 2//4
f 2//5 5//5 10//5
f 2//5 10//5 6//5
f 3//6 7//6 11//6
f 3//6 11//6 8//6
f 3//2 8//2 4//2
f 4//7 8//7 9//7
f 5//8 9//8 8//8
f 5//8 8//8 11//8
f 5//8 11//8 10//8
f 6//9 10//9 11//9
f 6//9 11//9 7//9
