# Blender 4.2.11 LTS
# www.blender.org
o tmp_export_long-piece-1-collision.004
v -0.335338 0.188650 0.182086
v -0.335338 0.213648 0.182086
v -0.232999 0.188648 0.182086
v -0.335338 0.188650 0.207124
v -0.335338 0.213648 0.207124
v -0.094385 0.213648 0.182086
v -0.232999 0.188648 0.182125
v -0.177808 0.188648 0.182086
v -0.094385 0.188650 0.207124
v -0.094385 0.213648 0.207124
v -0.094385 0.188650 0.182086
v -0.178020 0.188648 0.182125
vn -0.0000 -0.0000 -1.0000
vn -0.0000 -1.0000 -0.0000
vn -1.0000 -0.0000 -0.0000
vn -0.0000 1.0000 -0.0000
vn -0.0000 -1.0000 0.0005
vn -0.0000 -1.0000 0.0001
vn -0.0000 -0.0000 1.0000
vn 1.0000 -0.0000 -0.0000
vn -0.0000 -1.0000 0.0004
s 0
f 1//1 2//1 6//1
f 1//1 6//1 11//1
f 1//1 11//1 8//1
f 1//1 8//1 3//1
f 1//2 3//2 7//2
f 1//2 7//2 4//2
f 1//3 4//3 5//3
f 1//3 5//3 2//3
f 2//4 5//4 10//4
f 2//4 10//4 6//4
f 3//5 8//5 12//5
f 3//2 12//2 7//2
f 4//6 7//6 12//6
f 4//6 12//6 9//6
f 4//7 9//7 10//7
f 4//7 10//7 5//7
f 6//8 10//8 9//8
f 6//8 9//8 11//8
f 8//2 11//2 9//2
f 8//9 9//9 12//9
